<svg width="256" height="256" xmlns="http://www.w3.org/2000/svg" version="1.1">
 <title>389</title>

 <g>
  <title>Layer 1</title>
  <g id="svg_4">
   <path id="svg_1" d="m144.55365,174.2435l5.33893,-13.91203q21.92042,-1.12939 43.78951,-2.10477q14.1687,-0.61603 21.35573,-5.08225q11.24256,-7.08435 12.93664,-19.76432q3.69618,-27.77272 -24.1792,-36.80783a3.23416,3.23416 10.6 0 1 -2.25878,-3.2855q2.0021,-36.03779 -23.71718,-51.02787q-20.175,-11.75592 -42.09543,-4.67157q-23.4605,7.59771 -32.70096,34.29237a3.23416,3.18283 -76.5 0 1 -3.38817,2.10477q-40.196,-4.87691 -47.99905,34.08703a3.90153,3.79886 -1.4 0 1 -2.97748,3.02882q-11.85859,2.77214 -17.24886,12.11527q-5.54428,9.59981 -1.07805,20.7397q7.08435,17.60821 30.80153,15.09275q17.50554,-1.84809 57.95822,1.2834l-5.33893,13.91203q-18.94294,0 -37.88588,-0.41069q-28.7481,-0.51336 -32.59829,-1.33473q-19.55897,-3.95286 -26.95134,-22.38245q-6.0063,-15.04142 -0.7187,-29.15878q5.13359,-13.86069 19.19962,-21.97176a7.70038,7.4437 -4.3 0 0 3.18283,-3.59351q12.32061,-30.69886 50.9252,-39.01527a10.31851,10.21584 -80.3 0 0 6.67367,-4.77424q13.24466,-21.97176 36.14046,-29.05611q21.86909,-6.82767 43.32749,1.54008q33.52233,13.09065 42.66012,57.80421a7.80305,7.75172 -75.2 0 0 2.51546,4.36355q39.57997,35.26775 10.0105,73.76967q-4.77424,6.21164 -14.7334,10.16451q-6.67367,2.61813 -17.19752,2.66947q-26.90001,0.15401 -53.74867,1.38607z" fill="#333333"/>
   <path id="svg_2" d="m149.89258,160.33147l-8.98378,-2.10477a2.41279,2.20744 19.3 0 1 -1.69408,-3.18283l10.36985,-22.33111a2.82347,2.61813 -73.6 0 0 -1.95076,-3.95286q-14.37405,-1.64275 -16.22214,8.16241q-1.12939,5.90363 -12.32061,23.40916q-40.45268,-3.13149 -57.95822,-1.2834q-23.71718,2.51546 -30.80153,-15.09275q-4.46622,-11.13989 1.07805,-20.7397q5.39027,-9.34313 17.24886,-12.11527a3.90153,3.79886 -1.4 0 0 2.97748,-3.02882q7.80305,-38.96394 47.99905,-34.08703a3.23416,3.18283 -76.5 0 0 3.38817,-2.10477q9.24046,-26.69466 32.70096,-34.29237q21.92042,-7.08435 42.09543,4.67157q25.71928,14.99008 23.71718,51.02787a3.23416,3.23416 10.6 0 0 2.25878,3.2855q27.87539,9.03512 24.1792,36.80783q-1.69408,12.67996 -12.93664,19.76432q-7.18702,4.46622 -21.35573,5.08225q-21.86909,0.97538 -43.78951,2.10477z" fill="#808285"/>
   <path id="svg_3" d="m149.89258,160.33147l-5.33893,13.91203l-6.21164,10.42119q-3.49084,5.85229 3.49084,5.18492q10.47252,-0.97538 6.82767,5.39027q-2.36145,4.26088 -2.61813,4.87691q-7.34103,16.78684 -16.83817,32.49562a6.46832,6.36565 -81.7 0 1 -3.79886,2.87481q-17.76222,4.56889 -8.11107,-11.03722q3.49084,-5.64695 6.93034,-11.39657q6.26298,-10.47252 -6.05763,-8.16241q-6.41699,1.23206 -3.38817,-4.56889l11.55057,-22.0231a2.20744,2.05344 -67.6 0 0 -1.18073,-3.08015q-5.4416,-1.64275 -11.39657,-0.97538l5.33893,-13.91203q11.19122,-17.50554 12.32061,-23.40916q1.84809,-9.80515 16.22214,-8.16241a2.82347,2.61813 -73.6 0 1 1.95076,3.95286l-10.36985,22.33111a2.41279,2.20744 19.3 0 0 1.69408,3.18283l8.98378,2.10477z" fill="#feb101"/>
  </g>
 </g>
</svg>