<svg width="256" height="256" xmlns="http://www.w3.org/2000/svg" version="1.1">
 <title>326</title>

 <g>
  <title>Layer 1</title>
  <g id="svg_4">
   <path id="svg_1" d="m61.41918,174.29404q-3.92251,-0.1046 -7.89731,0.1569q-18.98493,1.4121 -30.64785,-10.30312q-10.87842,-10.87842 -11.66292,-27.09144q-1.0983,-22.07063 21.23383,-37.86526q3.0857,-2.1966 4.70701,-5.54381q17.15443,-34.72725 51.62018,-37.70836a5.28231,5.02081 11.8 0 0 3.92251,-2.4058q19.19413,-32.05995 52.30008,-35.04105q28.45124,-2.615 48.48218,14.12102q20.13553,16.73603 25.26094,49.05748a9.04791,8.94331 10.3 0 0 4.49781,6.43291q11.03532,6.22371 16.78833,17.67743q4.96851,9.93702 4.81161,22.85514q-0.3661,25.78394 -20.29243,38.17906q-12.18592,7.53121 -38.38826,8.15881q-57.00709,1.2552 -124.73569,-0.6799zm141.31482,-81.27433q2.3012,-35.56406 -22.69824,-51.25408q-20.44933,-12.81352 -43.46137,-5.75301q-24.42414,7.58351 -34.51805,34.93645a3.24261,3.1903 -76.2 0 1 -3.39951,2.092q-36.92386,-4.49781 -49.47588,35.09335a5.17771,5.17771 -89.4 0 1 -3.39951,3.34721q-22.69824,7.16511 -18.77573,30.33405q2.8242,16.31763 19.40333,16.99753q73.74311,2.8765 149.57823,0.2615q12.65662,-0.4184 19.40333,-4.44551q10.35542,-6.06681 12.97042,-16.84063q7.63581,-31.27545 -23.32584,-41.36936a3.39951,3.34721 11.2 0 1 -2.3012,-3.39951z" fill="#929497"/>
   <path id="svg_2" d="m205.03521,96.41922q30.96165,10.09392 23.32584,41.36936q-2.615,10.77382 -12.97042,16.84063q-6.74671,4.02711 -19.40333,4.44551q-75.83512,2.615 -149.57823,-0.2615q-16.57913,-0.6799 -19.40333,-16.99753q-3.92251,-23.16894 18.77573,-30.33405a5.17771,5.17771 -89.4 0 0 3.39951,-3.34721q12.55202,-39.59116 49.47588,-35.09335a3.24261,3.1903 -76.2 0 0 3.39951,-2.092q10.09392,-27.35294 34.51805,-34.93645q23.01204,-7.06051 43.46137,5.75301q24.99944,15.69002 22.69824,51.25408a3.39951,3.34721 11.2 0 0 2.3012,3.39951z" fill="#e6e7e8"/>
   <path id="svg_3" d="m107.75705,222.09631q-11.03532,0.7322 -9.15251,-9.51861a2.9811,2.7719 7.9 0 1 3.1903,-2.2489q14.17332,1.1506 5.70071,-9.41401a3.71331,2.9811 46.1 0 1 -0.3661,-4.18401q2.2489,-2.8765 5.85761,-3.50411a3.97481,3.1903 69.4 0 1 3.71331,2.1966q5.28231,9.98932 11.34912,-0.1046a3.55641,3.1903 -65.6 0 1 3.76561,-1.6736q10.66922,3.138 2.8242,12.76122q-2.0397,2.5104 0.7322,2.8242l6.69441,0.7322a4.39321,2.7196 -0.7 0 1 3.50411,2.1443q3.71331,10.93072 -7.16511,8.94331a4.70701,2.9288 15.8 0 0 -4.39321,1.2552q-1.569,2.615 2.3535,5.80531a3.92251,3.92251 -53.1 0 1 0.7322,5.33461q-6.01451,8.42031 -10.19852,0.7845q-5.17771,-9.51861 -9.10021,0.1569a3.87021,3.50411 -76.2 0 1 -3.55641,2.4058q-11.24452,-0.8368 -5.17771,-12.65662q1.0983,-2.1966 -1.3075,-2.0397z" fill-opacity="0.996" fill="#d0d2d2"/>
  </g>
 </g>
</svg>