<svg width="256" height="256" xmlns="http://www.w3.org/2000/svg" version="1.1">
 <title>359</title>

 <g>
  <title>Layer 1</title>
  <g id="svg_17">
   <rect id="svg_1" rx="0.28" height="4.98" width="2.84" transform="matrix(4.45945, 0.0467009, -0.0467009, 4.45945, -15.9545, -32.1751)" y="10.60233" x="21.91256" fill="#ffb100"/>
   <rect id="svg_2" rx="0.48" height="5.1" width="2.84" transform="matrix(3.8267, -2.29023, 2.29023, 3.8267, -38.1196, 11.4039)" y="12.82449" x="13.35609" fill="#ffb100"/>
   <rect id="svg_3" rx="0.79" height="5.08" width="2.92" transform="matrix(3.8227, 2.29691, -2.29691, 3.8227, 33.7665, -91.2501)" y="11.95162" x="30.07286" fill="#ffb100"/>
   <rect id="svg_4" rx="0.61" height="2.92" width="5.1" transform="matrix(3.8267, 2.29023, -2.29023, 3.8267, 33.1103, -40.3464)" y="18.5444" x="8.34127" fill="#ffb100"/>
   <path id="svg_5" d="m123.69701,69.66607q-2.18525,6.24357 -6.68954,11.14923q-21.94168,-26.93653 -45.22126,-12.21955q-13.06689,8.25043 -15.38593,21.89708q-2.72041,15.92109 11.19382,28.22984l-12.08576,7.98285q-12.84391,-14.4048 -12.57633,-31.84219q0.26758,-16.81303 11.14923,-29.92452q14.09262,-16.99142 39.33447,-14.22641q18.24013,1.96226 30.2813,18.95368z" fill="#ffb100"/>
   <path id="svg_6" d="m55.50835,126.70551l12.08576,-7.98285q10.25729,-25.50943 35.72212,-33.58147q1.4271,-0.44597 6.95712,-0.49057q4.3259,-0.0446 6.73413,-3.83533q4.50429,-4.90566 6.68954,-11.14923q3.16638,-0.49057 5.17324,-2.67581q2.72041,-2.8988 3.12178,-3.16638q22.92281,-17.70497 48.43223,-11.41681q18.46312,4.54888 29.83533,17.74957q11.59519,13.46826 13.82504,34.02744a7.49228,7.40309 -74.8 0 0 2.8542,5.08405q14.31561,11.01543 18.59691,24.88507q4.41509,14.49399 -2.63122,28.8096q-5.57461,11.32761 -17.03602,17.34819q-7.89365,4.14751 -22.65523,4.45969q-58.77872,1.33791 -117.55743,0.0446q-14.53859,-0.31218 -23.19039,-6.06518q-27.07032,-17.88336 -6.95712,-52.04458zm66.1372,-27.56088q-34.4734,-5.26243 -40.93996,28.85419a3.47856,3.34477 -2 0 1 -2.54202,2.63122q-12.39794,3.16638 -16.41166,13.69125q-3.34477,8.91938 1.15952,17.70497q5.26243,10.21269 17.12521,10.21269q62.43566,0 124.87132,0q17.74957,0 25.10806,-13.37907q6.33276,-11.59519 2.09605,-22.83361q-4.19211,-11.19382 -18.28473,-17.74957a3.87993,3.87993 -79.2 0 1 -2.22985,-3.30017q-1.51629,-29.65694 -19.35506,-42.72383q-17.12521,-12.53173 -38.66551,-5.30703q-20.60377,6.91252 -29.03258,30.41509a2.72041,2.63122 -75.7 0 1 -2.8988,1.78388z" fill="#333333"/>
   <path id="svg_7" d="m117.00748,80.8153q-2.40823,3.79074 -6.73413,3.83533q-5.53002,0.0446 -6.95712,0.49057q-25.46483,8.07204 -35.72212,33.58147q-13.91423,-12.30874 -11.19382,-28.22984q2.31904,-13.64665 15.38593,-21.89708q23.27958,-14.71698 45.22126,12.21955z" fill="#fff100"/>
   <path id="svg_8" d="m124.54435,97.36075q8.42881,-23.50257 29.03258,-30.41509q21.5403,-7.2247 38.66551,5.30703q17.83876,13.06689 19.35506,42.72383a3.87993,3.87993 -79.2 0 0 2.22985,3.30017q14.09262,6.55574 18.28473,17.74957q4.23671,11.23842 -2.09605,22.83361q-7.35849,13.37907 -25.10806,13.37907q-62.43566,0 -124.87132,0q-11.86278,0 -17.12521,-10.21269q-4.50429,-8.78559 -1.15952,-17.70497q4.01372,-10.52487 16.41166,-13.69125a3.47856,3.34477 -2 0 0 2.54202,-2.63122q6.46655,-34.11663 40.93996,-28.85419a2.72041,2.63122 -75.7 0 0 2.8988,-1.78388z" fill="#808285"/>
   <rect id="svg_9" rx="0.43" height="2.74" width="5" transform="matrix(4.45968, -0.00778362, 0.00778362, 4.45968, -16.7043, -31.0742)" y="26.86335" x="5.66304" fill="#ffb100"/>
   <rect id="svg_10" rx="0.57" height="2.86" width="5.06" transform="matrix(3.8267, -2.29023, 2.29023, 3.8267, -89.0825, 11.7335)" y="34.65449" x="6.66609" fill="#ffb100"/>
   <path id="svg_11" d="m58.67473,235.34356q8.51801,-17.39279 16.45626,-32.51114q2.8096,-5.39623 12.71012,-3.03259a1.78388,1.73928 20.7 0 1 1.15952,2.54202q-9.00857,17.34819 -17.08061,32.28816q-3.92453,7.31389 -12.17495,3.70154a2.18525,2.18525 25.3 0 1 -1.07033,-2.98799z" fill-opacity="0.996" fill="#1f87e6"/>
   <path id="svg_12" d="m106.92858,198.99708q3.25557,-0.98113 6.73413,0.22298a2.22985,2.09605 -69.2 0 1 1.20412,2.9434q-9.85592,23.54716 -15.60892,32.77872q-4.86106,7.84905 -12.8885,3.16638a2.58662,2.40823 -62.3 0 1 -0.89194,-3.25557q7.26929,-15.43053 15.60892,-30.2813q2.58662,-4.54888 5.84219,-5.57461z" fill-opacity="0.996" fill="#1f87e6"/>
   <path id="svg_13" d="m133.68672,198.99708q3.25557,-0.98113 6.73413,0.22298a2.31904,2.18525 -69.3 0 1 1.24871,2.98799q-5.53002,14.09262 -13.20068,27.15951q-0.22298,0.40137 -1.91767,4.72727q-2.45283,6.24357 -13.51286,4.41509a2.18525,2.18525 -71.5 0 1 -1.56089,-3.16638q8.02744,-15.25214 16.45626,-30.72726q2.49743,-4.59348 5.753,-5.61921z" fill-opacity="0.996" fill="#1f87e6"/>
   <path id="svg_14" d="m160.44486,198.99708q3.25557,-0.98113 6.73413,0.22298a2.22985,2.09605 -69.2 0 1 1.20412,2.9434q-9.85592,23.54716 -15.60892,32.77872q-4.86106,7.84905 -12.8885,3.16638a2.58662,2.40823 -62.3 0 1 -0.89194,-3.25557q7.31389,-15.38593 15.65351,-30.2367q2.54202,-4.59348 5.7976,-5.61921z" fill-opacity="0.996" fill="#1f87e6"/>
   <path id="svg_15" d="m187.203,198.99708q3.25557,-0.98113 6.73413,0.22298a2.22985,2.09605 -69.2 0 1 1.20412,2.9434q-9.85592,23.54716 -15.60892,32.77872q-4.86106,7.84905 -12.8885,3.16638a2.58662,2.40823 -62.3 0 1 -0.89194,-3.25557q7.31389,-15.38593 15.65351,-30.2367q2.54202,-4.59348 5.7976,-5.61921z" fill-opacity="0.996" fill="#1f87e6"/>
   <path id="svg_16" d="m213.96114,198.99708q3.25557,-0.98113 6.73413,0.22298a2.22985,2.18525 -69.1 0 1 1.24871,2.9434q-5.57461,14.00343 -13.15609,27.07032q-0.13379,0.22298 -2.36364,4.99485q-3.65695,7.67067 -12.53173,4.41509a2.27444,2.18525 -68.1 0 1 -1.20412,-2.98799q6.68954,-16.05488 15.38593,-31.08404q2.63122,-4.54888 5.88679,-5.57461z" fill-opacity="0.996" fill="#1f87e6"/>
  </g>
 </g>
</svg>