<svg width="256" height="256" xmlns="http://www.w3.org/2000/svg" version="1.1">
 <title>119</title>

 <g>
  <title>Layer 1</title>
  <g id="svg_3">
   <path id="svg_1" d="m226.60978,120.99305q14.0547,10.42258 17.95,26.1091q3.57947,14.26525 -2.42141,29.68857q-8.58021,22.00323 -30.89927,27.21452q-4.84282,1.10543 -38.37406,2.42141q-60.90368,2.31613 -121.75472,-1.26334q-17.89736,-1.05279 -26.68813,-8.05381q-12.52816,-9.94883 -14.10733,-26.74077q-1.26334,-13.21247 5.00073,-23.37185q5.79032,-9.47508 17.21305,-18.26584q3.05308,-2.31613 4.63226,-5.73768q15.58124,-33.2154 50.84957,-36.00529a6.36936,6.21144 12.1 0 0 5.00073,-3.15836q9.58035,-17.0025 25.00367,-26.37229q14.26525,-8.63285 33.79444,-8.79076q51.4286,-0.42111 66.27289,54.53432q3.84267,14.26525 8.52757,17.79209zm-23.37185,2.63197q2.10557,-20.05558 -7.3695,-35.47889q-9.3698,-15.21276 -28.7937,-21.63476q-35.95265,-11.94912 -59.69298,23.31921q-1.31598,1.94765 -2.52669,6.1588q-1.05279,3.47419 -3.15836,6.26408a5.05337,4.10587 19.3 0 1 -4.36906,1.57918q-37.58447,-4.6849 -48.05969,34.58403a5.31657,5.26393 89.6 0 1 -3.52683,3.63211q-14.21261,4.36906 -18.73959,15.63387q-4.4217,11.21217 2.31613,21.31892q8.00117,12.0544 27.21452,12.0544q67.74679,0 135.54622,0.15792q10.15939,0 19.00279,-3.79003q8.42229,-3.57947 13.42302,-12.58079q18.00264,-32.21526 -19.10807,-47.63857a3.52683,3.47419 14.2 0 1 -2.15821,-3.57947z" fill="#d1d2d3"/>
   <path id="svg_2" d="m205.39613,127.20449q37.11071,15.42332 19.10807,47.63857q-5.00073,9.00132 -13.42302,12.58079q-8.8434,3.79003 -19.00279,3.79003q-67.79943,-0.15792 -135.54622,-0.15792q-19.21335,0 -27.21452,-12.0544q-6.73783,-10.10675 -2.31613,-21.31892q4.52698,-11.26481 18.73959,-15.63387a5.31657,5.26393 89.6 0 0 3.52683,-3.63211q10.47522,-39.26892 48.05969,-34.58403a5.05337,4.10587 19.3 0 0 4.36906,-1.57918q2.10557,-2.78988 3.15836,-6.26408q1.2107,-4.21114 2.52669,-6.1588q23.74033,-35.26834 59.69298,-23.31921q19.4239,6.422 28.7937,21.63476q9.47508,15.42332 7.3695,35.47889a3.52683,3.47419 14.2 0 0 2.15821,3.57947z" fill="#ffffff"/>
  </g>
 </g>
</svg>