<svg width="256" height="256" xmlns="http://www.w3.org/2000/svg" version="1.1">
 <title>293</title>

 <g>
  <title>Layer 1</title>
  <g id="svg_13">
   <rect id="svg_1" rx="0.28" height="4.98" width="2.84" transform="matrix(4.52782, 0.0474169, -0.0474169, 4.52782, -16.2104, -32.8064)" y="10.17948" x="21.58773" fill="#ffb100"/>
   <rect id="svg_2" rx="0.51" height="5.1" width="2.88" transform="matrix(3.90151, -2.29817, 2.29817, 3.90151, -38.6096, 10.8254)" y="12.30497" x="13.28917" fill="#ffb100"/>
   <rect id="svg_3" rx="0.77" height="5.06" width="2.9" transform="matrix(3.88943, 2.31856, -2.31856, 3.88943, 33.8457, -92.4913)" y="11.76512" x="29.58623" fill="#ffb100"/>
   <rect id="svg_4" rx="0.52" height="2.9" width="5.04" transform="matrix(3.88943, 2.31856, -2.31856, 3.88943, 33.469, -41.134)" y="18.36512" x="7.88623" fill="#ffb100"/>
   <path id="svg_5" d="m124.13153,68.66627q-1.1773,6.11289 -5.8412,10.36927q-1.49426,-0.40753 -2.89796,-0.95089q-1.22258,-0.54337 -2.21875,-1.81123q-7.65243,-9.87118 -18.83675,-12.85971q-10.05231,-2.62628 -20.87438,3.07908q-32.10399,16.8444 -7.24491,52.93309l-11.13904,8.10524q-19.24428,-24.27043 -10.41455,-47.72581q8.24108,-22.0064 31.15309,-29.07018q26.35334,-8.15052 48.31446,17.93114z" fill="#ffb100"/>
   <path id="svg_6" d="m55.07853,127.53112l11.13904,-8.10524q2.49044,-1.1773 4.25638,-5.75064q10.09759,-26.53446 39.89226,-30.29276q6.15817,-0.76977 7.92411,-4.34694q4.66391,-4.25638 5.8412,-10.36927q24.45155,-22.95729 53.88398,-17.7953q20.6027,3.62245 32.82848,17.47833q12.22578,13.76532 15.84823,36.22453a9.28253,9.23725 -77 0 0 3.71301,5.97705q21.96112,15.89351 17.47833,40.88843q-5.93177,33.28128 -40.16394,34.23218q-60.8572,1.72066 -121.66912,0q-15.62183,-0.45281 -24.5874,-6.42985q-26.35334,-17.61418 -6.38457,-51.71051zm157.71253,-12.67858q2.08291,-23.22898 -11.72769,-37.67351q-12.72386,-13.26723 -32.96432,-13.53892q-30.29276,-0.40753 -42.02045,32.60207a2.67156,2.67156 -86.7 0 1 -2.94324,1.76595q-35.54532,-5.02615 -42.65438,29.88523a3.48661,3.30549 -1.5 0 1 -2.62628,2.62628q-10.45983,2.39987 -15.2143,10.64095q-4.98087,8.64861 -1.1773,18.38395q5.29784,13.26723 22.86673,13.44836q61.8081,0.58865 123.57091,-1.08674q9.50894,-0.27168 14.94262,-3.16965q8.37692,-4.4375 10.64095,-12.04465q8.60332,-29.34187 -18.79147,-38.94136a2.8074,2.71684 12.6 0 1 -1.90179,-2.89796z" fill="#929497"/>
   <path id="svg_7" d="m118.29033,79.03554q-1.76595,3.57717 -7.92411,4.34694q-29.79467,3.75829 -39.89226,30.29276q-1.76595,4.57335 -4.25638,5.75064q-24.85908,-36.08868 7.24491,-52.93309q10.82208,-5.70536 20.87438,-3.07908q11.18432,2.98852 18.83675,12.85971q0.99617,1.26786 2.21875,1.81123q1.4037,0.54337 2.89796,0.95089z" fill="#fff100"/>
   <path id="svg_8" d="m214.69285,117.7505q27.3948,9.5995 18.79147,38.94136q-2.26403,7.60715 -10.64095,12.04465q-5.43368,2.89796 -14.94262,3.16965q-61.76282,1.67538 -123.57091,1.08674q-17.56889,-0.18112 -22.86673,-13.44836q-3.80358,-9.73534 1.1773,-18.38395q4.75447,-8.24108 15.2143,-10.64095a3.48661,3.30549 -1.5 0 0 2.62628,-2.62628q7.10906,-34.91139 42.65438,-29.88523a2.67156,2.67156 -74.9 0 0 2.94324,-1.76595q11.72769,-33.0096 42.02045,-32.60207q20.24045,0.27168 32.96432,13.53892q13.8106,14.44453 11.72769,37.67351a2.8074,2.71684 12.6 0 0 1.90179,2.89796z" fill="#e6e7e8"/>
   <rect id="svg_9" rx="0.32" height="2.76" width="5" transform="matrix(4.52789, 0.0395143, -0.0395143, 4.52789, -15.7081, -32.0285)" y="26.41051" x="5.34568" fill="#ffb100"/>
   <rect id="svg_10" rx="0.65" height="2.86" width="5.02" transform="matrix(3.89347, -2.31177, 2.31177, 3.89347, -90.1052, 11.3328)" y="34.13461" x="6.61462" fill="#ffb100"/>
   <path id="svg_11" d="m128.6596,233.57842q-3.26021,8.28636 -13.85588,7.15434a3.26021,3.26021 -71.8 0 1 -2.44516,-4.84503q8.46748,-14.62565 14.94262,-30.24748q3.30549,-7.9694 14.48981,-5.16199a1.94707,1.94707 -71.2 0 1 1.31314,2.67156q-5.11671,11.27488 -10.64095,21.01022q-0.27168,0.49809 -3.80358,9.41838z" fill-opacity="0.996" fill="#1f87e6"/>
   <path id="svg_12" d="m161.30695,199.84433q3.62245,-1.1773 7.24491,1.04146a2.76212,2.49044 -61.9 0 1 0.86033,3.39605q-12.90499,27.25896 -16.30104,32.7832q-4.70919,7.60715 -12.6333,2.67156a2.71684,2.49044 -61.3 0 1 -0.81505,-3.35077q7.42603,-15.62183 15.89351,-30.70029q2.67156,-4.79975 5.75064,-5.8412z" fill-opacity="0.996" fill="#1f87e6"/>
  </g>
 </g>
</svg>