<svg width="256" height="256" xmlns="http://www.w3.org/2000/svg" version="1.1">
 <title>350</title>

 <g>
  <title>Layer 1</title>
  <g id="svg_4">
   <path id="svg_1" d="m18.1276,112.57136q5.88158,-6.99432 13.67071,-11.86914a8.16003,8.10705 85.6 0 0 3.23222,-3.81508q14.25357,-35.23651 52.66931,-38.99861a5.19275,5.13976 12 0 0 3.97404,-2.54339q14.78344,-25.11595 40.21731,-32.95806q24.21517,-7.41821 48.11241,3.17923q34.49469,15.20734 39.26354,58.60388a6.04055,5.93457 15.9 0 0 2.38443,4.18599q45.72799,34.12378 8.79588,78.0502q-9.32575,11.07433 -23.79127,11.44524q-76.03669,1.96053 -152.07337,0.37091q-19.44632,-0.4239 -28.40116,-6.51743q-13.24681,-9.00783 -16.42604,-27.07648q-3.23222,-18.22761 8.37198,-32.05728zm185.03143,-17.16786q2.33144,-36.03132 -22.99646,-51.92749q-20.71801,-12.98187 -44.03239,-5.8286q-24.74504,7.68315 -34.97158,35.39547a3.28521,3.23222 -76.2 0 1 -3.44417,2.11949q-37.30301,-4.5569 -49.54307,33.59391a6.57042,6.51743 84.6 0 1 -3.17923,3.86807q-32.95806,17.90969 -14.62448,41.33004q7.31224,9.32575 19.12839,9.32575q76.30162,0 145.18503,-0.05299q17.4328,0 27.28843,-10.86238q9.21978,-10.22654 7.8951,-25.22192q-1.80157,-20.82398 -24.32114,-28.29518a3.49716,3.39118 11.2 0 1 -2.38443,-3.44417z" fill="#929497"/>
   <path id="svg_2" d="m205.54346,98.84767q22.51958,7.4712 24.32114,28.29518q1.32468,14.99539 -7.8951,25.22192q-9.85563,10.86238 -27.28843,10.86238q-68.88341,0.05299 -145.18503,0.05299q-11.81615,0 -19.12839,-9.32575q-18.33358,-23.42036 14.62448,-41.33004a6.57042,6.51743 84.6 0 0 3.17923,-3.86807q12.24005,-38.15081 49.54307,-33.59391a3.28521,3.23222 -76.2 0 0 3.44417,-2.11949q10.22654,-27.71232 34.97158,-35.39547q23.31438,-7.15328 44.03239,5.8286q25.3279,15.89617 22.99646,51.92749a3.49716,3.39118 11.2 0 0 2.38443,3.44417z" fill="#e6e7e8"/>
   <circle id="svg_3" r="17.59175" cy="219.07571" cx="121.66466" fill="#d1d2d3"/>
  </g>
 </g>
</svg>