<svg width="256" height="256" xmlns="http://www.w3.org/2000/svg" version="1.1">
 <title>353</title>

 <g>
  <title>Layer 1</title>
  <g id="svg_13">
   <rect id="svg_1" rx="0.28" height="4.98" width="2.84" transform="matrix(4.54658, 0.0476134, -0.0476134, 4.54658, -16.2973, -32.9797)" y="10.07219" x="21.47426" fill="#ffb100"/>
   <rect id="svg_2" rx="0.51" height="5.1" width="2.88" transform="matrix(3.91768, -2.30769, 2.30769, 3.91768, -38.7893, 10.833)" y="12.15449" x="13.24743" fill="#ffb100"/>
   <rect id="svg_3" rx="0.77" height="5.06" width="2.9" transform="matrix(3.90555, 2.32817, -2.32817, 3.90555, 33.9663, -92.9119)" y="11.72947" x="29.43419" fill="#ffb100"/>
   <rect id="svg_4" rx="0.52" height="2.9" width="5.04" transform="matrix(3.90555, 2.32817, -2.32817, 3.90555, 33.5881, -41.3418)" y="18.32947" x="7.73419" fill="#ffb100"/>
   <path id="svg_5" d="m124.11551,68.42036q-1.18218,6.13822 -5.86541,10.41225q-1.50045,-0.40921 -2.90997,-0.95483q-1.22764,-0.54562 -2.22795,-1.81873q-7.68415,-9.91209 -18.91482,-12.913q-10.09397,-2.63716 -20.9609,3.09185q-32.23704,16.91422 -7.27493,53.15247l-11.18521,8.13883q-19.32404,-24.37102 -10.45771,-47.92361q8.27523,-22.0976 31.2822,-29.19066q26.46256,-8.1843 48.5147,18.00546z" fill="#ffb100"/>
   <path id="svg_6" d="m54.77632,127.52918l11.18521,-8.13883q2.50076,-1.18218 4.27402,-5.77448q10.13944,-26.64444 40.05759,-30.41831q6.18369,-0.77296 7.95696,-4.36496q4.68324,-4.27402 5.86541,-10.41225q24.55289,-23.05244 54.1073,-17.86905q20.68809,3.63747 32.96453,17.55077q12.27645,13.82237 15.91391,36.37466a9.32101,9.27554 -77 0 0 3.7284,6.00182q22.05214,15.95938 17.55077,41.05789q-5.95635,33.41922 -40.3304,34.37405q-61.10942,1.7278 -122.17338,0q-15.68657,-0.45468 -24.6893,-6.4565q-26.46256,-17.68718 -6.41103,-51.92482zm158.36616,-12.73113q2.09154,-23.32525 -11.7763,-37.82964q-12.7766,-13.32222 -33.10094,-13.59503q-30.41831,-0.40921 -42.1946,32.73719a2.68263,2.68263 -86.7 0 1 -2.95544,1.77326q-35.69263,-5.04698 -42.83116,30.00909a3.50106,3.31919 -1.5 0 1 -2.63716,2.63716q-10.50318,2.40982 -15.27736,10.68506q-5.00152,8.68445 -1.18218,18.46014q5.31979,13.32222 22.9615,13.50409q62.06426,0.59109 124.08305,-1.09124q9.54835,-0.27281 15.00455,-3.18278q8.41164,-4.4559 10.68506,-12.09457q8.63898,-29.46347 -18.86935,-39.10276a2.81904,2.7281 12.6 0 1 -1.90967,-2.90997z" fill="#929497"/>
   <path id="svg_7" d="m118.2501,78.83261q-1.77326,3.592 -7.95696,4.36496q-29.91816,3.77387 -40.05759,30.41831q-1.77326,4.5923 -4.27402,5.77448q-24.96211,-36.23825 7.27493,-53.15247q10.86693,-5.72901 20.9609,-3.09185q11.23068,3.00091 18.91482,12.913q1.0003,1.27311 2.22795,1.81873q1.40952,0.54562 2.90997,0.95483z" fill="#fff100"/>
   <path id="svg_8" d="m215.05215,117.70802q27.50833,9.63928 18.86935,39.10276q-2.27342,7.63868 -10.68506,12.09457q-5.4562,2.90997 -15.00455,3.18278q-62.01879,1.68233 -124.08305,1.09124q-17.64171,-0.18187 -22.9615,-13.50409q-3.81934,-9.77569 1.18218,-18.46014q4.77417,-8.27523 15.27736,-10.68506a3.50106,3.31919 -1.5 0 0 2.63716,-2.63716q7.13853,-35.05608 42.83116,-30.00909a2.68263,2.68263 -74.9 0 0 2.95544,-1.77326q11.7763,-33.14641 42.1946,-32.73719q20.32434,0.27281 33.10094,13.59503q13.86784,14.50439 11.7763,37.82964a2.81904,2.7281 12.6 0 0 1.90967,2.90997z" fill="#e6e7e8"/>
   <rect id="svg_9" rx="0.32" height="2.76" width="5" transform="matrix(4.54666, 0.0396781, -0.0396781, 4.54666, -15.7929, -32.1985)" y="26.30302" x="5.2324" fill="#ffb100"/>
   <rect id="svg_10" rx="0.65" height="2.86" width="5.02" transform="matrix(3.9096, -2.32135, 2.32135, 3.9096, -90.4983, 11.3425)" y="33.98398" x="6.5734" fill="#ffb100"/>
   <path id="svg_11" d="m128.66234,234.01599q-3.27372,8.3207 -13.91331,7.18399a3.27372,3.27372 -71.8 0 1 -2.45529,-4.86511q8.50258,-14.68627 15.00455,-30.37284q3.31919,-8.00242 14.54986,-5.18339a1.95514,1.95514 -71.2 0 1 1.31858,2.68263q-5.13792,11.32161 -10.68506,21.0973q-0.27281,0.50015 -3.81934,9.45741z" fill-opacity="0.996" fill="#1f87e6"/>
   <path id="svg_12" d="m161.445,200.14209q3.63747,-1.18218 7.27493,1.04577a2.77357,2.50076 -61.9 0 1 0.8639,3.41012q-12.95847,27.37193 -16.3686,32.91906q-4.72871,7.63868 -12.68566,2.68263a2.7281,2.50076 -61.3 0 1 -0.81843,-3.36466q7.4568,-15.68657 15.95938,-30.82752q2.68263,-4.81964 5.77448,-5.86541z" fill-opacity="0.996" fill="#1f87e6"/>
  </g>
 </g>
</svg>