<svg width="256" height="256" xmlns="http://www.w3.org/2000/svg" version="1.1">
 <title>176</title>

 <g>
  <title>Layer 1</title>
  <g id="svg_13">
   <rect id="svg_1" rx="0.28" height="4.98" width="2.84" transform="matrix(4.22757, 0.0442727, -0.0442727, 4.22757, -16.1322, -31.0802)" y="12.26974" x="23.85312" fill="#ffb100"/>
   <rect id="svg_2" rx="0.51" height="5.1" width="2.88" transform="matrix(3.6428, -2.14577, 2.14577, 3.6428, -37.0462, 9.65836)" y="15.26494" x="14.14927" fill="#ffb100"/>
   <rect id="svg_3" rx="0.77" height="5.06" width="2.9" transform="matrix(3.63152, 2.16482, -2.16482, 3.63152, 30.6046, -86.8073)" y="12.43214" x="32.59559" fill="#ffb100"/>
   <rect id="svg_4" rx="0.52" height="2.9" width="5.04" transform="matrix(3.63152, 2.16482, -2.16482, 3.63152, 30.2529, -38.8556)" y="19.03214" x="10.89559" fill="#ffb100"/>
   <path id="svg_5" d="m124.38806,72.60075q-1.09923,5.70754 -5.45387,9.68167q-1.39518,-0.3805 -2.7058,-0.88784q-1.14151,-0.50734 -2.07162,-1.69112q-7.14499,-9.21661 -17.58767,-12.00697q-9.38573,-2.45213 -19.49018,2.87491q-29.97514,15.72743 -6.76449,49.42304l-10.4004,7.56777q-17.96817,-22.66103 -9.72395,-44.56106q7.6946,-20.54713 29.0873,-27.14251q24.60582,-7.61005 45.11068,16.74211z" fill="#ffb100"/>
   <path id="svg_6" d="m59.91404,127.56221l10.4004,-7.56777q2.32529,-1.09923 3.97414,-5.36931q9.428,-24.77494 37.24696,-28.28401q5.74981,-0.71873 7.39866,-4.05869q4.35464,-3.97414 5.45387,-9.68167q22.83015,-21.43497 50.31088,-16.61527q19.23651,3.38224 30.65159,16.31933q11.41507,12.85253 14.79732,33.82244a8.667,8.62472 -77 0 0 3.4668,5.5807q20.50485,14.8396 16.31933,38.17708q-5.53842,31.07437 -37.50063,31.96221q-56.8217,1.60657 -113.60112,0q-14.58593,-0.42278 -22.95698,-6.00348q-24.60582,-16.44616 -5.9612,-48.28153zm147.25445,-11.83785q1.94479,-21.68864 -10.95001,-35.17534q-11.88013,-12.38747 -30.77842,-12.64114q-28.28401,-0.3805 -39.23403,30.4402a2.4944,2.4944 -86.7 0 1 -2.74807,1.64884q-33.18827,-4.69286 -39.82592,27.90351a3.25541,3.0863 -1.5 0 1 -2.45213,2.45213q-9.76623,2.24074 -14.20542,9.93534q-4.65059,8.07511 -1.09923,17.16489q4.94653,12.38747 21.35041,12.55658q57.70954,0.54961 115.3768,-1.01467q8.87839,-0.25367 13.95176,-2.95946q7.82144,-4.14325 9.93534,-11.24596q8.03283,-27.39618 -17.54539,-36.35912a2.62124,2.53668 12.6 0 1 -1.77568,-2.7058z" fill="#929497"/>
   <path id="svg_7" d="m118.93419,82.28242q-1.64884,3.33997 -7.39866,4.05869q-27.81896,3.50908 -37.24696,28.28401q-1.64884,4.27008 -3.97414,5.36931q-23.21065,-33.69561 6.76449,-49.42304q10.10445,-5.32703 19.49018,-2.87491q10.44268,2.79035 17.58767,12.00697q0.93012,1.18379 2.07162,1.69112q1.31062,0.50734 2.7058,0.88784z" fill="#fff100"/>
   <path id="svg_8" d="m208.94416,118.43015q25.57822,8.96295 17.54539,36.35912q-2.1139,7.10271 -9.93534,11.24596q-5.07337,2.7058 -13.95176,2.95946q-57.66726,1.56429 -115.3768,1.01467q-16.40388,-0.16911 -21.35041,-12.55658q-3.55136,-9.08978 1.09923,-17.16489q4.4392,-7.6946 14.20542,-9.93534a3.25541,3.0863 -1.5 0 0 2.45213,-2.45213q6.63765,-32.59638 39.82592,-27.90351a2.4944,2.4944 -74.9 0 0 2.74807,-1.64884q10.95001,-30.8207 39.23403,-30.4402q18.89829,0.25367 30.77842,12.64114q12.89481,13.4867 10.95001,35.17534a2.62124,2.53668 12.6 0 0 1.77568,2.7058z" fill="#e6e7e8"/>
   <rect id="svg_9" rx="0.32" height="2.76" width="5" transform="matrix(4.22764, 0.0368941, -0.0368941, 4.22764, -15.6633, -30.3538)" y="28.50472" x="7.60743" fill="#ffb100"/>
   <rect id="svg_10" rx="0.65" height="2.86" width="5.02" transform="matrix(3.63529, -2.15848, 2.15848, 3.63529, -85.127, 10.1321)" y="37.09756" x="7.46437" fill="#ffb100"/>
   <path id="svg_11" d="m128.61587,226.5774q-3.04402,7.73688 -12.93708,6.67993a3.04402,3.04402 -71.8 0 1 -2.28301,-4.52375q7.906,-13.65581 13.95176,-28.24174q3.0863,-7.44094 13.52898,-4.8197a1.81796,1.81796 -71.2 0 1 1.22606,2.4944q-4.77742,10.52723 -9.93534,19.61701q-0.25367,0.46506 -3.55136,8.79383z" fill-opacity="0.996" fill="#1f87e6"/>
   <path id="svg_12" d="m159.09834,195.08026q3.38224,-1.09923 6.76449,0.9724a2.57896,2.32529 -61.9 0 1 0.80328,3.17085q-12.04924,25.45139 -15.2201,30.60931q-4.39692,7.10271 -11.79558,2.4944a2.53668,2.32529 -61.3 0 1 -0.761,-3.12858q6.9336,-14.58593 14.8396,-28.66452q2.4944,-4.48147 5.36931,-5.45387z" fill-opacity="0.996" fill="#1f87e6"/>
  </g>
 </g>
</svg>