<svg width="256" height="256" xmlns="http://www.w3.org/2000/svg" version="1.1">
 <title>314</title>

 <g>
  <title>Layer 1</title>
  <g id="svg_7">
   <path id="svg_1" d="m20.2488,109.62379q3.23096,-5.57602 13.34075,-11.72527a7.76474,7.55629 -5.5 0 0 3.17885,-3.75209q12.29851,-30.74627 51.69542,-39.03213a7.97318,7.81685 -77.8 0 0 4.89856,-3.23096q18.81255,-27.04629 45.59828,-32.5702q26.73362,-5.52391 50.18416,10.05768q25.43081,16.9365 28.87022,52.21654a5.99292,5.9408 -74.6 0 0 2.34505,4.16899q44.97293,33.56033 7.66051,77.90791q-7.39995,8.80698 -26.36883,9.69289q-73.16569,3.43941 -146.27927,0.72957q-17.87452,-0.67746 -28.03643,-7.71262q-28.50544,-19.75057 -7.08728,-56.75031zm181.97621,-16.9365q2.39717,-31.21528 -17.87452,-47.47432q-18.96888,-15.2168 -43.67012,-10.37035q-27.41108,5.36757 -38.77156,35.85327a3.33519,3.23096 -75.6 0 1 -3.43941,2.08449q-36.7913,-4.48166 -49.35036,35.07159a4.95067,4.89856 0.4 0 1 -3.3873,3.28308q-5.00278,1.40703 -9.11966,4.01265q-4.01265,2.50139 -6.51404,7.1915q-9.11966,17.24918 2.24083,28.60966q7.13939,7.13939 22.98153,7.66051q74.4685,2.44928 149.04123,-0.46901q15.2168,-0.62535 20.53225,-14.90412q12.97597,-35.22793 -20.42803,-47.10953a3.3873,3.33519 12.4 0 1 -2.24083,-3.43941z" fill="#929497"/>
   <path id="svg_2" d="m204.46584,96.1267q33.404,11.88161 20.42803,47.10953q-5.31546,14.27877 -20.53225,14.90412q-74.57273,2.91829 -149.04123,0.46901q-15.84214,-0.52112 -22.98153,-7.66051q-11.36049,-11.36049 -2.24083,-28.60966q2.50139,-4.69011 6.51404,-7.1915q4.11687,-2.60562 9.11966,-4.01265a4.95067,4.89856 0.4 0 0 3.3873,-3.28308q12.55907,-39.55325 49.35036,-35.07159a3.33519,3.23096 -75.6 0 0 3.43941,-2.08449q11.36049,-30.48571 38.77156,-35.85327q24.70124,-4.84645 43.67012,10.37035q20.27169,16.25904 17.87452,47.47432a3.3873,3.33519 12.4 0 0 2.24083,3.43941z" fill="#e6e7e8"/>
   <path id="svg_3" d="m86.53567,200.76823q-7.13939,17.14495 -16.41538,33.24766q-1.45914,2.50139 -2.70984,0.05211l-21.10549,-40.43916a1.77182,1.71971 -13.8 0 1 1.56337,-2.5535l40.07437,-0.15634a2.60562,2.29294 4.4 0 1 2.60562,2.70984q-0.31267,2.08449 -1.71971,3.8042q-1.77182,2.08449 -2.29294,3.33519z" fill="#deddde"/>
   <path id="svg_4" d="m106.23413,194.3063q3.85631,-7.50417 13.5492,-3.43941a2.60562,2.50139 24.8 0 1 1.35492,3.49153l-19.54212,39.97015a5.52391,5.36757 6.3 0 1 -3.75209,2.91829q-18.49987,4.2211 -9.01543,-11.67316q9.17177,-15.37313 17.40551,-31.26739z" fill="#deddde"/>
   <path id="svg_5" d="m124.99456,219.2681q1.2507,-2.24083 7.86896,-16.05059q6.7746,-14.17455 18.86466,-11.4126a2.13661,2.13661 19.8 0 1 1.45914,3.02251q-8.0253,15.99848 -15.68581,30.85049q-4.84645,9.48444 -5.41968,9.90134q-4.06476,3.3873 -13.1323,1.30281a2.76195,2.76195 -68 0 1 -1.71971,-4.06476l7.76474,-13.5492z" fill="#deddde"/>
   <path id="svg_6" d="m174.44915,190.71055q3.8042,-1.14647 7.86896,0.26056a2.50139,2.44928 -68 0 1 1.40703,3.43941l-19.54212,39.91803a6.14925,5.9408 -84.4 0 1 -3.8042,3.23096q-5.36757,1.51126 -10.00556,-1.09436a3.07463,2.70984 -62.8 0 1 -0.99013,-3.85631q8.4422,-18.03086 18.23931,-35.38426q3.02251,-5.31546 6.82671,-6.51404z" fill="#deddde"/>
  </g>
 </g>
</svg>