<svg width="256" height="256" xmlns="http://www.w3.org/2000/svg" version="1.1">
 <title>143</title>

 <g>
  <title>Layer 1</title>
  <g id="svg_4">
   <path id="svg_1" d="m90.10753,179.10414q-17.34883,-0.1549 -34.69766,-0.36143q-17.4521,-0.20653 -26.22978,-5.62804q-13.26979,-8.20971 -16.21289,-23.90627q-5.52478,-29.74085 21.9442,-45.54068a7.38358,7.22868 85.8 0 0 3.14964,-3.71761q12.23712,-31.28985 51.16872,-38.1571a6.29928,6.29928 -78 0 0 4.13067,-2.68494q17.09066,-25.50691 41.66817,-32.42579q25.24874,-7.07378 48.22561,5.83458q27.77878,15.59329 34.69766,55.66083a6.55744,6.40254 13.1 0 0 2.6333,4.13067q17.2972,12.13385 21.89257,29.37942q4.44047,16.62596 -4.44047,33.51009q-13.32142,25.30038 -46.05701,24.21607q-14.30246,-0.4647 -14.61226,-0.4647q-43.63024,0.4647 -87.26048,0.1549zm-42.4943,-63.09604q-21.37624,6.50581 -19.56907,25.91998q0.98103,10.68812 8.36461,16.9874q8.00318,6.86724 19.72397,6.29928q8.88095,-0.4647 9.19075,-0.4647q65.57444,0.7745 131.09725,-1.0843q11.04955,-0.3098 17.09066,-3.56271q9.24238,-5.00844 12.13385,-13.78612q10.42995,-32.11599 -22.30564,-44.30147a2.99474,2.9431 -75.9 0 1 -1.91044,-3.25291q2.58167,-16.72923 -4.23394,-30.56698q-5.98948,-12.28875 -20.49847,-20.8599q-36.50483,-21.73767 -65.72934,13.88939q-2.11697,2.53004 -4.64701,9.91362q-2.6333,7.53848 -9.65545,7.33195q-11.61752,-0.3098 -11.97895,-0.20653q-27.77878,5.98948 -34.07806,34.54276a4.33721,4.33721 88.2 0 1 -2.99474,3.20127z" fill-opacity="0.996" fill="#d1d2d3"/>
   <path id="svg_2" d="m50.60797,112.80683q6.29928,-28.55328 34.07806,-34.54276q0.36143,-0.10327 11.97895,0.20653q7.02215,0.20653 9.65545,-7.33195q2.53004,-7.38358 4.64701,-9.91362q29.22452,-35.62706 65.72934,-13.88939q14.50899,8.57115 20.49847,20.8599q6.81561,13.83776 4.23394,30.56698a2.99474,2.9431 -75.9 0 0 1.91044,3.25291q32.73559,12.18549 22.30564,44.30147q-2.89147,8.77768 -12.13385,13.78612q-6.04111,3.25291 -17.09066,3.56271q-65.52281,1.8588 -131.09725,1.0843q-0.3098,0 -9.19075,0.4647q-11.72079,0.56797 -19.72397,-6.29928q-7.38358,-6.29928 -8.36461,-16.9874q-1.80717,-19.41417 19.56907,-25.91998a4.33721,4.33721 88.2 0 0 2.99474,-3.20127z" fill-opacity="0.306" fill="#f4f8f9"/>
   <rect id="svg_3" rx="0.6" height="15.49003" width="175.55363" y="216.33184" x="40.07475" fill-opacity="0.996" fill="#d1d2d3"/>
  </g>
 </g>
</svg>