<svg width="256" height="256" xmlns="http://www.w3.org/2000/svg" version="1.1">
 <title>179</title>

 <g>
  <title>Layer 1</title>
  <g id="svg_12">
   <rect id="svg_1" rx="0.28" height="4.98" width="2.84" transform="matrix(4.34689, 0.0455222, -0.0455222, 4.34689, -15.4005, -31.1359)" y="11.47192" x="22.63648" fill="#ffb100"/>
   <rect id="svg_2" rx="0.51" height="5.1" width="2.88" transform="matrix(3.74561, -2.20633, 2.20633, 3.74561, -36.9047, 10.7524)" y="13.95335" x="13.5196" fill="#ffb100"/>
   <rect id="svg_3" rx="0.77" height="5.06" width="2.9" transform="matrix(3.73401, 2.22591, -2.22591, 3.73401, 32.6553, -88.4358)" y="12.35459" x="31.14276" fill="#ffb100"/>
   <rect id="svg_4" rx="0.52" height="2.9" width="5.04" transform="matrix(3.73401, 2.22591, -2.22591, 3.73401, 32.2937, -39.1307)" y="18.95459" x="9.44276" fill="#ffb100"/>
   <path id="svg_5" d="m124.74626,72.12165l-6.52069,9.78103q-1.43455,-0.39124 -2.78216,-0.9129q-1.17372,-0.52166 -2.13009,-1.73885q-7.34664,-9.47673 -18.08404,-12.34584q-9.65062,-2.52133 -20.04025,2.95605q-30.82112,16.17131 -6.9554,50.8179l-10.69393,7.78136q-21.56174,-28.51715 -6.86846,-52.81758q11.51988,-18.95347 32.86427,-21.95299q23.25712,-3.30382 41.21075,18.43181z" fill="#ffb100"/>
   <path id="svg_6" d="m57.53969,128.4604l10.69393,-7.78136q2.39092,-1.13025 4.0863,-5.52085q9.69409,-25.47416 38.29818,-29.08227q5.91209,-0.73901 7.60747,-4.17324l6.52069,-9.78103q22.86588,-22.47464 50.8179,-17.43198q19.73595,3.56464 31.56013,16.99726q11.69377,13.25873 15.21494,34.90742a7.95524,7.82483 -77.1 0 0 3.21687,5.21655q13.51956,9.69409 17.30156,23.51795q3.65159,13.30221 -2.34745,27.12607q-8.34648,19.2143 -30.99501,21.43133q-34.95089,3.43423 -123.24102,0.21736q-14.69329,-0.56513 -23.12671,-6.3468q-24.77862,-17.17115 -5.60779,-49.29641zm151.4104,-12.17195q1.99968,-22.30076 -11.25906,-36.16809q-12.21542,-12.73708 -31.64708,-12.99791q-29.08227,-0.39124 -40.34133,31.29931a2.5648,2.5648 -86.7 0 1 -2.82563,1.69538q-34.12494,-4.82531 -40.94993,28.69103a3.34729,3.1734 -1.5 0 1 -2.52133,2.52133q-10.04186,2.30398 -14.60634,10.21575q-4.78184,8.30301 -1.13025,17.64933q5.08614,12.73708 21.95299,12.91096q57.07776,0.56513 114.11206,-0.9129q14.95411,-0.39124 22.34423,-6.30333q15.38883,-12.34584 4.56448,-35.08131q-3.30382,-6.91193 -15.86701,-10.78087a2.65175,2.5648 12 0 1 -1.82579,-2.73869z" fill="#929497"/>
   <path id="svg_7" d="m118.22557,81.90268q-1.69538,3.43423 -7.60747,4.17324q-28.60409,3.60811 -38.29818,29.08227q-1.69538,4.3906 -4.0863,5.52085q-23.86572,-34.64659 6.9554,-50.8179q10.38963,-5.47738 20.04025,-2.95605q10.7374,2.8691 18.08404,12.34584q0.95637,1.2172 2.13009,1.73885q1.34761,0.52166 2.78216,0.9129z" fill="#fff100"/>
   <path id="svg_8" d="m210.77588,119.02714q12.56319,3.86894 15.86701,10.78087q10.82434,22.73547 -4.56448,35.08131q-7.39011,5.91209 -22.34423,6.30333q-57.03429,1.47802 -114.11206,0.9129q-16.86685,-0.17389 -21.95299,-12.91096q-3.65159,-9.34632 1.13025,-17.64933q4.56448,-7.91177 14.60634,-10.21575a3.34729,3.1734 -1.5 0 0 2.52133,-2.52133q6.82499,-33.51634 40.94993,-28.69103a2.5648,2.5648 -74.9 0 0 2.82563,-1.69538q11.25906,-31.69055 40.34133,-31.29931q19.43165,0.26083 31.64708,12.99791q13.25873,13.86733 11.25906,36.16809a2.65175,2.5648 12 0 0 1.82579,2.73869z" fill="#e6e7e8"/>
   <rect id="svg_9" rx="0.34" height="2.78" width="4.98" transform="matrix(4.34689, -0.0455222, 0.0455222, 4.34689, -17.139, -29.7812)" y="27.71565" x="6.35456" fill="#ffb100"/>
   <rect id="svg_10" rx="0.65" height="2.86" width="5.02" transform="matrix(3.73789, -2.21939, 2.21939, 3.73789, -86.3425, 11.2395)" y="35.78379" x="6.83929" fill="#ffb100"/>
   <path id="svg_11" d="m153.21994,212.62076q12.38931,-1.65191 7.34664,8.4769a2.8691,2.60828 18.9 0 1 -3.08646,1.34761q-8.34648,-1.86926 -2.91257,7.52053a2.8691,2.82563 -35.9 0 1 -0.56513,3.4777q-6.52069,5.91209 -9.34632,-0.73901q-1.04331,-2.47786 -2.13009,-2.91257q-2.26051,-0.95637 -3.782,3.26034a4.34713,4.34713 -72.6 0 1 -5.21655,2.73869q-7.69441,-2.04315 -2.34745,-9.56368q2.78216,-3.95588 -6.21639,-4.0863a3.65159,3.65159 6.3 0 1 -3.52117,-4.3906q1.2172,-6.04251 7.69441,-4.99919a2.21703,1.86926 6.9 0 0 2.52133,-1.65191q0.17389,-2.91257 -1.82579,-5.30349a2.8691,2.39092 45.2 0 1 -0.3043,-3.30382q5.73821,-7.30317 10.30269,1.39108a2.39092,2.04315 61.7 0 0 2.95605,1.13025q2.39092,-1.30414 3.99936,-3.73853a2.95605,2.52133 -62.9 0 1 3.12993,-1.30414q8.73772,2.91257 2.5648,11.30253q-1.2172,1.60844 0.73901,1.34761z" fill="#d0d1d2"/>
  </g>
 </g>
</svg>