<svg width="256" height="256" xmlns="http://www.w3.org/2000/svg" version="1.1">
 <title>374</title>

 <g>
  <title>Layer 1</title>
  <g id="svg_12">
   <rect id="svg_1" rx="0.28" height="4.98" width="2.84" transform="matrix(4.47308, 0.0468437, -0.0468437, 4.47308, -15.957, -32.3011)" y="11.17336" x="21.79924" fill="#ffb100"/>
   <rect id="svg_2" rx="0.51" height="5.1" width="2.88" transform="matrix(3.85435, -2.27039, 2.27039, 3.85435, -38.0855, 10.8033)" y="13.26525" x="12.95691" fill="#ffb100"/>
   <rect id="svg_3" rx="0.77" height="5.06" width="2.9" transform="matrix(3.84241, 2.29054, -2.29054, 3.84241, 33.494, -91.2644)" y="12.5177" x="30.26897" fill="#ffb100"/>
   <rect id="svg_4" rx="0.52" height="2.9" width="5.04" transform="matrix(3.84241, 2.29054, -2.29054, 3.84241, 33.1219, -40.528)" y="19.1177" x="8.56897" fill="#ffb100"/>
   <path id="svg_5" d="m124.52738,72.57952l-6.70999,10.06499q-1.4762,-0.4026 -2.86293,-0.9394q-1.2078,-0.5368 -2.19193,-1.78933q-7.55993,-9.75186 -18.60905,-12.70425q-10.42286,-2.72873 -20.89045,2.37086q-21.51671,10.46759 -15.83558,38.60483q1.4762,7.24679 10.24392,13.41999l-12.30165,8.94666q-22.18771,-29.34504 -7.06786,-54.35095q11.85432,-19.50371 33.81837,-22.59031q23.93231,-3.39973 42.40716,18.96692z" fill="#ffb100"/>
   <path id="svg_6" d="m55.36971,130.55386l12.30165,-8.94666q9.79659,-25.58744 35.16037,-33.5947q0.71573,-0.22367 7.73886,-0.71573q4.60753,-0.31313 7.24679,-4.65226l6.70999,-10.06499q32.07377,-31.53697 70.18653,-12.21219q27.64517,14.04625 30.06077,48.13302a4.8312,4.74173 17.1 0 0 1.92353,3.53393q38.5601,28.80824 6.57579,66.87627q-3.8918,4.697 -13.15159,7.15733q-5.45746,1.4762 -14.62779,1.65513q-59.98734,1.2078 -119.97469,0.1342q-14.76199,-0.2684 -23.48498,-5.99426q-26.57157,-17.40125 -6.66526,-51.30908zm155.80605,-12.52532q2.05773,-22.94818 -11.58592,-37.2181q-12.57005,-13.10685 -32.56584,-13.37525q-29.92657,-0.4026 -41.51249,32.20797a2.63926,2.63926 -86.7 0 1 -2.90766,1.7446q-35.11563,-4.9654 -42.13876,29.52397a3.44446,3.26553 -1.5 0 1 -2.59453,2.59453q-10.33339,2.37086 -15.03039,10.51232q-4.92066,8.54406 -1.16307,18.16172q5.2338,13.10685 22.59031,13.28579q58.73481,0.58153 117.42489,-0.9394q15.38825,-0.4026 22.99291,-6.48633q15.83558,-12.70425 4.697,-36.09977q-3.39973,-7.11259 -16.32765,-11.09386a2.72873,2.63926 12 0 1 -1.8788,-2.8182z" fill="#929497"/>
   <path id="svg_7" d="m117.81738,82.64451q-2.63926,4.33913 -7.24679,4.65226q-7.02313,0.49207 -7.73886,0.71573q-25.36378,8.00726 -35.16037,33.5947q-8.76772,-6.17319 -10.24392,-13.41999q-5.68113,-28.13724 15.83558,-38.60483q10.46759,-5.0996 20.89045,-2.37086q11.04912,2.9524 18.60905,12.70425q0.98413,1.25253 2.19193,1.78933q1.38673,0.5368 2.86293,0.9394z" fill="#fff100"/>
   <path id="svg_8" d="m213.05456,120.84674q12.92792,3.98126 16.32765,11.09386q11.13859,23.39551 -4.697,36.09977q-7.60466,6.08373 -22.99291,6.48633q-58.69008,1.52093 -117.42489,0.9394q-17.35652,-0.17893 -22.59031,-13.28579q-3.7576,-9.61766 1.16307,-18.16172q4.697,-8.14146 15.03039,-10.51232a3.44446,3.26553 -1.5 0 0 2.59453,-2.59453q7.02313,-34.48937 42.13876,-29.52397a2.63926,2.63926 -74.9 0 0 2.90766,-1.7446q11.58592,-32.61057 41.51249,-32.20797q19.99578,0.2684 32.56584,13.37525q13.64365,14.26992 11.58592,37.2181a2.72873,2.63926 12 0 0 1.8788,2.8182z" fill="#e6e7e8"/>
   <rect id="svg_9" rx="0.32" height="2.76" width="5" transform="matrix(4.47316, 0.0390367, -0.0390367, 4.47316, -15.4608, -31.5325)" y="27.40475" x="5.55546" fill="#ffb100"/>
   <rect id="svg_10" rx="0.65" height="2.86" width="5.02" transform="matrix(3.8464, -2.28383, 2.28383, 3.8464, -88.9586, 11.3046)" y="35.09372" x="6.27901" fill="#ffb100"/>
   <circle id="svg_11" r="14.85144" cy="222.43604" cx="142.28649" fill="#d1d2d3"/>
  </g>
 </g>
</svg>