<svg width="256" height="256" xmlns="http://www.w3.org/2000/svg" version="1.1">
 <title>386</title>

 <g>
  <title>Layer 1</title>
  <g id="svg_12">
   <rect id="svg_1" rx="0.28" height="4.98" width="2.84" transform="matrix(4.44912, 0.0465928, -0.0465928, 4.44912, -15.8461, -32.0798)" y="10.73784" x="22.04697" fill="#feb101"/>
   <rect id="svg_2" rx="0.48" height="5.1" width="2.84" transform="matrix(3.81784, -2.28493, 2.28493, 3.81784, -37.9599, 11.3983)" y="13.01027" x="13.39989" fill="#feb101"/>
   <rect id="svg_3" rx="0.79" height="5.08" width="2.92" transform="matrix(3.81385, 2.29159, -2.29159, 3.81385, 33.7598, -91.018)" y="12.00049" x="30.25737" fill="#feb101"/>
   <rect id="svg_4" rx="0.61" height="2.92" width="5.1" transform="matrix(3.81784, 2.28493, -2.28493, 3.81784, 33.1051, -40.2321)" y="18.59359" x="8.52569" fill="#feb101"/>
   <path id="svg_5" d="m124.07377,70.13478q-2.18019,6.22911 -6.67404,11.12341q-20.86751,-25.98428 -44.0042,-12.94765q-13.83752,7.78638 -16.01771,22.51378q-2.26918,15.48378 8.67626,29.54377l-10.01107,6.67404q-19.31023,-24.33801 -9.65512,-47.4747q8.94322,-21.40143 31.72396,-27.49706q25.40586,-6.80753 45.96192,18.06441z" fill="#feb101"/>
   <path id="svg_6" d="m162.82772,184.5279l4.44936,-11.8798q18.90979,-0.31146 37.81958,-0.7119q16.50714,-0.35595 24.11555,-11.56834q7.16347,-10.54499 3.33702,-23.35915q-4.09341,-13.65954 -19.48821,-18.68732a2.71411,2.62512 12 0 1 -1.86873,-2.8031q2.00221,-21.04549 -9.69961,-35.10547q-20.77852,-24.91643 -52.85843,-11.12341q-16.7296,7.20797 -22.78074,27.8975a2.49164,2.44715 11.7 0 1 -2.7586,1.77975q-34.97199,-4.98329 -41.913,29.3213a3.42601,3.38152 -1.9 0 1 -2.53614,2.66962q-12.28024,3.24803 -16.28467,13.61505q-3.42601,8.94322 1.06785,17.70846q5.25025,10.18904 17.08555,10.18904q29.94421,0 59.88842,0q-1.51278,5.82867 -5.33924,10.41151a1.4238,1.24582 -49.8 0 0 0.04449,1.86873l1.02335,0.88987q-24.82744,0.13348 -49.65489,-0.53392q-14.94986,-0.40044 -23.7596,-6.36259q-26.5627,-17.84194 -6.67404,-51.7016l10.01107,-6.67404q2.98107,-0.97886 4.71632,-5.47272q10.18904,-26.29573 39.7773,-30.30016q5.82867,-0.80089 6.85202,-3.33702q4.49386,-4.8943 6.67404,-11.12341q3.02557,-0.17797 4.62734,-2.26918q2.18019,-2.8031 2.7586,-3.29253q23.22567,-17.84194 49.12096,-11.56834q18.55384,4.49386 29.85522,17.61948q11.56834,13.43708 13.83752,34.03763a7.25246,7.25246 16 0 0 2.8031,5.02778q9.56613,7.25246 14.77188,15.43929q5.11677,8.18683 4.80531,19.97764q-0.88987,34.79402 -34.9275,39.02091q-6.58506,0.84538 -24.38251,1.3793q-12.23575,0.35595 -24.51599,-0.97886z" fill="#333333"/>
   <path id="svg_7" d="m117.39973,81.25819q-1.02335,2.53614 -6.85202,3.33702q-29.58826,4.00443 -39.7773,30.30016q-1.73525,4.49386 -4.71632,5.47272q-10.94543,-14.05999 -8.67626,-29.54377q2.18019,-14.72739 16.01771,-22.51378q23.13669,-13.03663 44.0042,12.94765z" fill="#fff100"/>
   <path id="svg_8" d="m167.27709,172.6481q-5.5617,0.6674 -10.23353,-1.3793a2.26918,1.91323 -65.3 0 1 -0.80089,-2.89209l9.21018,-19.35473a2.35816,2.22468 23.8 0 0 -1.29032,-3.11455q-4.31588,-1.73525 -8.00885,0.08899q-2.93658,1.46829 -5.51721,6.9855q-4.67183,9.96657 -10.23353,19.48821q-29.94421,0 -59.88842,0q-11.8353,0 -17.08555,-10.18904q-4.49386,-8.76524 -1.06785,-17.70846q4.00443,-10.36702 16.28467,-13.61505a3.42601,3.38152 -1.9 0 0 2.53614,-2.66962q6.94101,-34.30459 41.913,-29.3213a2.49164,2.44715 11.7 0 0 2.7586,-1.77975q6.05113,-20.68954 22.78074,-27.8975q32.07991,-13.79302 52.85843,11.12341q11.70182,14.05999 9.69961,35.10547a2.71411,2.62512 12 0 0 1.86873,2.8031q15.3948,5.02778 19.48821,18.68732q3.82645,12.81416 -3.33702,23.35915q-7.60841,11.21239 -24.11555,11.56834q-18.90979,0.40044 -37.81958,0.7119z" fill="#808285"/>
   <rect id="svg_9" rx="0.32" height="2.76" width="5" transform="matrix(4.44919, 0.0388275, -0.0388275, 4.44919, -15.3525, -31.3154)" y="26.96967" x="5.80395" fill="#feb101"/>
   <rect id="svg_10" rx="0.57" height="2.86" width="5.06" transform="matrix(3.81784, -2.28493, 2.28493, 3.81784, -88.8047, 11.7272)" y="34.84027" x="6.70989" fill="#feb101"/>
   <path id="svg_11" d="m167.27709,172.6481l-4.44936,11.8798q-4.67183,4.62734 -7.16347,11.65733q-1.46829,4.09341 2.8031,3.20354q10.81195,-2.22468 6.89651,5.33924q-6.2736,12.23575 -12.76967,24.33801q-4.31588,8.14233 -4.67183,8.4093q-3.4705,2.89209 -11.21239,1.11234a2.26918,2.18019 -69.2 0 1 -1.3793,-3.24803l10.27803,-19.5772q2.0912,-4.00443 -2.49164,-3.29253q-12.85866,2.04671 -5.6062,-7.47493q1.91323,-2.49164 8.54278,-16.86308a1.55728,1.51278 -76.5 0 0 -1.29032,-2.18019l-8.63176,-0.31146l-1.02335,-0.88987a1.4238,1.24582 -49.8 0 1 -0.04449,-1.86873q3.82645,-4.58284 5.33924,-10.41151q5.5617,-9.52164 10.23353,-19.48821q2.58063,-5.51721 5.51721,-6.9855q3.69297,-1.82424 8.00885,-0.08899a2.35816,2.22468 23.8 0 1 1.29032,3.11455l-9.21018,19.35473a2.26918,1.91323 -65.3 0 0 0.80089,2.89209q4.67183,2.04671 10.23353,1.3793z" fill="#feb101"/>
  </g>
 </g>
</svg>