<svg width="256" height="256" xmlns="http://www.w3.org/2000/svg" version="1.1">
 <title>299</title>

 <g>
  <title>Layer 1</title>
  <g id="svg_13">
   <rect id="svg_1" rx="0.28" height="4.98" width="2.84" transform="matrix(4.50905, 0.0472204, -0.0472204, 4.50905, -16.1235, -32.6332)" y="10.28766" x="21.70214" fill="#ffb100"/>
   <rect id="svg_2" rx="0.51" height="5.1" width="2.88" transform="matrix(3.88534, -2.28864, 2.28864, 3.88534, -38.4299, 10.8178)" y="12.4567" x="13.33127" fill="#ffb100"/>
   <rect id="svg_3" rx="0.77" height="5.06" width="2.9" transform="matrix(3.87331, 2.30895, -2.30895, 3.87331, 33.7251, -92.0706)" y="11.80106" x="29.73954" fill="#ffb100"/>
   <rect id="svg_4" rx="0.52" height="2.9" width="5.04" transform="matrix(3.87331, 2.30895, -2.30895, 3.87331, 33.35, -40.9262)" y="18.40106" x="8.03954" fill="#ffb100"/>
   <path id="svg_5" d="m124.14757,68.91218q-1.17242,6.08755 -5.817,10.3263q-1.48807,-0.40584 -2.88595,-0.94695q-1.21751,-0.54112 -2.20956,-1.80372q-7.62072,-9.83027 -18.75868,-12.80641q-10.01064,-2.61539 -20.78787,3.06632q-31.97093,16.77459 -7.21488,52.71371l-11.09288,8.07165q-19.16452,-24.16984 -10.37139,-47.52801q8.20692,-21.91519 31.02398,-28.9497q26.24412,-8.11674 48.11422,17.85682z" fill="#ffb100"/>
   <path id="svg_6" d="m55.38076,127.53307l11.09288,-8.07165q2.48011,-1.17242 4.23874,-5.72681q10.05574,-26.42449 39.72693,-30.16721q6.13265,-0.76658 7.89127,-4.32893q4.64458,-4.23874 5.817,-10.3263q24.35022,-22.86215 53.66066,-17.72155q20.51731,3.60744 32.69242,17.40589q12.17511,13.70827 15.78255,36.07439a9.24406,9.19897 -77 0 0 3.69763,5.95227q21.8701,15.82764 17.40589,40.71897q-5.90718,33.14335 -39.99748,34.0903q-60.60498,1.71353 -121.16487,0q-15.55708,-0.45093 -24.48549,-6.4032q-26.24412,-17.54117 -6.35811,-51.4962zm157.05889,-12.62604q2.07428,-23.1327 -11.67908,-37.51737q-12.67113,-13.21225 -32.8277,-13.4828q-30.16721,-0.40584 -41.8463,32.46695a2.66049,2.66049 -86.7 0 1 -2.93104,1.75863q-35.398,-5.00532 -42.4776,29.76137a3.47216,3.29179 -1.5 0 1 -2.61539,2.61539q-10.41648,2.38993 -15.15125,10.59685q-4.96023,8.61276 -1.17242,18.30775q5.27588,13.21225 22.77196,13.39262q61.55193,0.58621 123.05878,-1.08223q9.46953,-0.27056 14.88069,-3.15651q8.3422,-4.41911 10.59685,-11.99474q8.56767,-29.22026 -18.71359,-38.77997a2.79577,2.70558 12.6 0 1 -1.89391,-2.88595z" fill="#929497"/>
   <path id="svg_7" d="m118.33058,79.23847q-1.75863,3.56235 -7.89127,4.32893q-29.67119,3.74272 -39.72693,30.16721q-1.75863,4.55439 -4.23874,5.72681q-24.75605,-35.93911 7.21488,-52.71371q10.77723,-5.68172 20.78787,-3.06632q11.13797,2.97614 18.75868,12.80641q0.99205,1.2626 2.20956,1.80372q1.39788,0.54112 2.88595,0.94695z" fill="#fff100"/>
   <path id="svg_8" d="m214.33356,117.79298q27.28126,9.55971 18.71359,38.77997q-2.25465,7.57562 -10.59685,11.99474q-5.41116,2.88595 -14.88069,3.15651q-61.50684,1.66844 -123.05878,1.08223q-17.49608,-0.18037 -22.77196,-13.39262q-3.78781,-9.69499 1.17242,-18.30775q4.73476,-8.20692 15.15125,-10.59685a3.47216,3.29179 -1.5 0 0 2.61539,-2.61539q7.0796,-34.7667 42.4776,-29.76137a2.66049,2.66049 -74.9 0 0 2.93104,-1.75863q11.67908,-32.87279 41.8463,-32.46695q20.15657,0.27056 32.8277,13.4828q13.75336,14.38466 11.67908,37.51737a2.79577,2.70558 12.6 0 0 1.89391,2.88595z" fill="#e6e7e8"/>
   <rect id="svg_9" rx="0.32" height="2.76" width="5" transform="matrix(4.50913, 0.0393506, -0.0393506, 4.50913, -15.6233, -31.8584)" y="26.51889" x="5.45991" fill="#ffb100"/>
   <rect id="svg_10" rx="0.65" height="2.86" width="5.02" transform="matrix(3.87733, -2.30219, 2.30219, 3.87733, -89.7121, 11.3231)" y="34.28649" x="6.65618" fill="#ffb100"/>
   <path id="svg_11" d="m128.65687,233.14085q-3.2467,8.25202 -13.79846,7.12469a3.2467,3.2467 -71.8 0 1 -2.43502,-4.82495q8.43239,-14.56504 14.88069,-30.12212q3.29179,-7.93637 14.42976,-5.1406a1.939,1.939 -71.2 0 1 1.3077,2.66049q-5.09551,11.22816 -10.59685,20.92315q-0.27056,0.49602 -3.78781,9.37934z" fill-opacity="0.996" fill="#1f87e6"/>
   <path id="svg_12" d="m161.16892,199.54657q3.60744,-1.17242 7.21488,1.03714a2.75067,2.48011 -61.9 0 1 0.85677,3.38197q-12.8515,27.14598 -16.23348,32.64733q-4.68967,7.57562 -12.58094,2.66049a2.70558,2.48011 -61.3 0 1 -0.81167,-3.33688q7.39525,-15.55708 15.82764,-30.57305q2.66049,-4.77986 5.72681,-5.817z" fill-opacity="0.996" fill="#1f87e6"/>
  </g>
 </g>
</svg>