<svg width="256" height="256" xmlns="http://www.w3.org/2000/svg" version="1.1">
 <title>284</title>

 <g>
  <title>Layer 1</title>
  <g id="svg_9">
   <path id="svg_1" d="m130.34474,178.56586q-30.83298,1.18787 -61.66597,-0.25823q-0.51647,-0.05165 -14.82256,0.05165q-23.70576,0.10329 -35.01635,-17.50818q-8.8832,-13.89292 -6.14594,-29.8517q3.04715,-17.61147 20.24544,-26.70126a10.63919,10.58754 -3 0 0 4.85477,-5.37124q13.16987,-32.8472 51.33666,-38.16679a6.19758,6.14594 10.5 0 0 4.59654,-3.15044q13.58304,-24.58375 38.68326,-31.86591q23.24094,-6.7657 46.2753,3.25373q33.88013,14.77091 38.57996,57.27601a5.88771,5.78441 15.9 0 0 2.32409,4.08008q39.35466,29.38688 15.13244,67.08885q-7.59204,11.82706 -18.38617,16.47525q-9.24473,4.02843 -19.67733,3.97678q-11.46553,0 -11.8787,0q-13.63469,0.6714 -27.21773,0.46482q-15.33902,-0.25823 -27.21773,0.20659zm71.22058,-81.3433q2.27245,-35.11965 -22.4146,-50.61361q-20.1938,-12.6534 -42.91827,-5.68112q-24.11893,7.48875 -34.08671,34.49989a3.20209,3.15044 -76.2 0 1 -3.35702,2.06586q-36.46246,-4.4416 -48.85762,34.65483a5.11301,5.11301 -89.4 0 1 -3.35702,3.30538q-22.51789,6.97228 -18.54111,29.95499q2.84056,16.11372 19.16087,16.78512q72.82162,2.89221 147.7091,0.25823q12.49846,-0.41317 19.16087,-4.38996q10.22601,-5.991 12.80834,-16.63019q7.54039,-30.88463 -23.03436,-40.85241a3.35702,3.30538 11.2 0 1 -2.27245,-3.35702z" fill="#929497"/>
   <path id="svg_2" d="m203.83776,100.57959q30.57475,9.96778 23.03436,40.85241q-2.58233,10.63919 -12.80834,16.63019q-6.6624,3.97678 -19.16087,4.38996q-74.88748,2.63397 -147.7091,-0.25823q-16.32031,-0.6714 -19.16087,-16.78512q-3.97678,-22.98271 18.54111,-29.95499a5.11301,5.11301 -89.4 0 0 3.35702,-3.30538q12.39517,-39.09643 48.85762,-34.65483a3.20209,3.15044 -76.2 0 0 3.35702,-2.06586q9.96778,-27.01114 34.08671,-34.49989q22.72448,-6.97228 42.91827,5.68112q24.68705,15.49396 22.4146,50.61361a3.35702,3.30538 11.2 0 0 2.27245,3.35702z" fill="#e6e7e8"/>
   <path id="svg_3" d="m44.76643,228.81795q-1.4461,3.09879 -3.20209,-0.15494l-9.91614,-18.6444a3.15044,2.63397 73.5 0 1 1.96257,-4.5449l19.00593,-0.10329a2.16915,1.96257 -76.5 0 1 1.65269,3.04715l-9.50296,20.40038z" fill-opacity="0.996" fill="#dfdedf"/>
   <path id="svg_4" d="m63.66906,221.27755q9.55461,-18.6444 20.0905,-16.11372a2.68562,2.42739 -74 0 1 1.65269,3.35702q-1.5494,4.80313 -4.02843,9.14144q-2.01421,3.46032 -4.18337,8.83156q-3.61526,8.77991 -9.91614,5.68112a8.05686,8.05686 -63.4 0 1 -3.61526,-10.89742z" fill-opacity="0.996" fill="#dfdedf"/>
   <path id="svg_5" d="m100.64798,209.55379a7.4371,7.12722 -81.5 0 1 4.80313,-3.71855q14.35774,-3.15044 10.63919,4.33831q-3.46032,6.81734 -6.45582,13.78963q-3.92514,9.08979 -15.44231,6.30088a3.30538,3.25373 -68.9 0 1 -2.11751,-4.80313l8.57333,-15.90713z" fill-opacity="0.996" fill="#dfdedf"/>
   <path id="svg_6" d="m132.97871,229.90252q-13.01493,4.49325 -5.11301,-14.56432q3.51196,-8.47003 12.13694,-11.46553q12.24023,-4.23502 6.40417,6.97228q-1.75598,3.40867 -3.15044,6.6624q-1.65269,3.92514 -4.02843,7.4371q-2.37574,3.61526 -6.24923,4.95807z" fill-opacity="0.996" fill="#dfdedf"/>
   <path id="svg_7" d="m162.62383,209.55379a7.4371,7.12722 -81.5 0 1 4.80313,-3.71855q14.35774,-3.15044 10.4326,4.23502q-3.56361,6.7657 -5.991,13.94457q-3.09879,8.93485 -16.73348,5.73277a2.42739,2.42739 -69.1 0 1 -1.5494,-3.51196l9.03814,-16.68183z" fill-opacity="0.996" fill="#dfdedf"/>
   <path id="svg_8" d="m192.21729,210.38013q4.80313,-8.31509 16.16537,-5.47453a2.58233,2.58233 -66.6 0 1 1.5494,3.92514q-3.92514,6.14594 -6.35252,13.27316q-4.23502,12.70505 -16.57854,7.85027a2.89221,2.84056 -71.4 0 1 -1.70434,-3.51196q2.47903,-8.41839 6.92064,-16.06207z" fill-opacity="0.996" fill="#dfdedf"/>
  </g>
 </g>
</svg>