<svg width="256" height="256" xmlns="http://www.w3.org/2000/svg" version="1.1">
 <title>377</title>

 <g>
  <title>Layer 1</title>
  <g id="svg_13">
   <rect id="svg_1" rx="0.28" height="4.98" width="2.84" transform="matrix(4.44063, 0.0465039, -0.0465039, 4.44063, -15.8068, -32.0015)" y="11.37024" x="22.04074" fill="#ffb100"/>
   <rect id="svg_2" rx="0.51" height="5.1" width="2.88" transform="matrix(3.82639, -2.25392, 2.25392, 3.82639, -37.7747, 10.7902)" y="13.55858" x="13.06201" fill="#ffb100"/>
   <rect id="svg_3" rx="0.77" height="5.06" width="2.9" transform="matrix(3.81453, 2.27392, -2.27392, 3.81453, 33.2855, -90.5371)" y="12.56639" x="30.57674" fill="#ffb100"/>
   <rect id="svg_4" rx="0.52" height="2.9" width="5.04" transform="matrix(3.81453, 2.27392, -2.27392, 3.81453, 32.9161, -40.1687)" y="19.16639" x="8.87674" fill="#ffb100"/>
   <path id="svg_5" d="m124.72172,73.00378l-6.66131,9.99197q-1.46549,-0.39968 -2.84216,-0.93258q-1.19904,-0.53291 -2.17603,-1.77635q-7.50508,-9.68111 -18.47405,-12.61209q-10.34724,-2.70893 -20.73889,2.35366q-21.36062,10.39165 -15.7207,38.32476q1.46549,7.19422 10.16961,13.32263l-12.21241,8.88175q-14.34403,-16.96415 -12.43445,-36.59282q1.77635,-17.85232 17.40824,-30.59764q30.15355,-24.60246 63.68217,9.6367z" fill="#ffb100"/>
   <path id="svg_6" d="m56.06577,130.55754l12.21241,-8.88175q9.72552,-25.40181 34.90529,-33.35098q0.71054,-0.22204 7.68272,-0.71054q4.5741,-0.31086 7.19422,-4.61851l6.66131,-9.99197q23.3146,-23.00374 51.86944,-17.80791q20.20599,3.64152 32.28517,17.36383q11.94596,13.54467 15.54307,35.66024a8.21562,8.1268 13.5 0 0 3.33066,5.37346q13.41145,9.59229 17.40824,23.22578q3.81915,13.01177 -1.59872,27.17816q-7.86035,20.60567 -31.13054,23.18138q-30.3756,3.37507 -127.31993,0.13323q-14.61048,-0.4885 -23.04815,-6.26164q-25.66827,-17.54146 -5.99518,-50.49277zm154.67573,-12.43445q2.0428,-22.7817 -11.50187,-36.94809q-12.47886,-13.01177 -32.32958,-13.27822q-29.70946,-0.39968 -41.21133,31.97431a2.62012,2.62012 -86.7 0 1 -2.88657,1.73194q-34.86088,-4.92937 -41.83306,29.30978a3.41947,3.24184 -1.5 0 1 -2.57571,2.57571q-9.81434,2.22044 -14.61048,9.76993q-5.0626,7.94917 -1.86517,17.40824q4.84056,14.25521 23.93632,14.29962q73.62973,0.13323 115.5072,-0.79936q15.14339,-0.35527 22.69288,-6.35045q15.85393,-12.61209 4.75174,-35.88228q-3.37507,-7.06099 -16.2092,-11.01337a2.70893,2.62012 12 0 1 -1.86517,-2.79775z" fill="#929497"/>
   <path id="svg_7" d="m118.0604,82.99575q-2.62012,4.30765 -7.19422,4.61851q-6.97218,0.4885 -7.68272,0.71054q-25.17977,7.94917 -34.90529,33.35098q-8.70412,-6.12841 -10.16961,-13.32263q-5.63991,-27.93311 15.7207,-38.32476q10.39165,-5.0626 20.73889,-2.35366q10.96896,2.93098 18.47405,12.61209q0.97699,1.24345 2.17603,1.77635q1.37667,0.53291 2.84216,0.93258z" fill="#fff100"/>
   <path id="svg_8" d="m212.60666,120.92084q12.83413,3.95238 16.2092,11.01337q11.10219,23.27019 -4.75174,35.88228q-7.54949,5.99518 -22.69288,6.35045q-41.87747,0.93258 -115.5072,0.79936q-19.09577,-0.04441 -23.93632,-14.29962q-3.19743,-9.45907 1.86517,-17.40824q4.79615,-7.54949 14.61048,-9.76993a3.41947,3.24184 -1.5 0 0 2.57571,-2.57571q6.97218,-34.23916 41.83306,-29.30978a2.62012,2.62012 -74.9 0 0 2.88657,-1.73194q11.50187,-32.37399 41.21133,-31.97431q19.85072,0.26645 32.32958,13.27822q13.54467,14.1664 11.50187,36.94809a2.70893,2.62012 12 0 0 1.86517,2.79775z" fill="#e6e7e8"/>
   <rect id="svg_9" rx="0.32" height="2.76" width="5" transform="matrix(4.44071, 0.0387535, -0.0387535, 4.44071, -15.3142, -31.2385)" y="27.60206" x="5.79662" fill="#ffb100"/>
   <rect id="svg_10" rx="0.67" height="2.86" width="5.06" transform="matrix(3.8185, -2.26726, 2.26726, 3.8185, -88.2498, 11.3043)" y="35.37742" x="6.37308" fill="#ffb100"/>
   <circle id="svg_11" r="14.74371" cy="221.72874" cx="115.75115" fill="#d1d2d3"/>
   <circle id="svg_12" r="14.74371" cy="221.72874" cx="169.04167" fill="#d1d2d3"/>
  </g>
 </g>
</svg>