<svg width="256" height="256" xmlns="http://www.w3.org/2000/svg" version="1.1">
 <title>371</title>

 <g>
  <title>Layer 1</title>
  <g id="svg_13">
   <rect id="svg_1" rx="0.28" height="4.98" width="2.84" transform="matrix(4.54832, 0.0476317, -0.0476317, 4.54832, -16.3347, -32.9958)" y="10.26259" x="21.33622" fill="#ffb100"/>
   <rect id="svg_2" rx="0.51" height="5.1" width="2.88" transform="matrix(3.91918, -2.30858, 2.30858, 3.91918, -38.8354, 10.8337)" y="12.24622" x="13.03089" fill="#ffb100"/>
   <rect id="svg_3" rx="0.77" height="5.06" width="2.9" transform="matrix(3.90704, 2.32906, -2.32906, 3.90704, 33.9481, -92.9509)" y="11.96346" x="29.41066" fill="#ffb100"/>
   <rect id="svg_4" rx="0.53" height="2.92" width="5.04" transform="matrix(3.89889, 2.34269, -2.34269, 3.89889, 33.9058, -41.3322)" y="18.55024" x="7.71385" fill="#ffb100"/>
   <path id="svg_5" d="m124.45012,69.48448l-6.82286,10.23429q-1.50103,-0.40937 -2.91109,-0.9552q-1.22811,-0.54583 -2.2288,-1.81943q-7.68709,-9.91589 -18.92207,-12.91795q-10.59818,-2.77463 -21.24184,2.41074q-21.87864,10.64366 -16.10195,39.25419q1.50103,7.36869 10.41623,13.64572l-12.50858,9.09715q-22.56093,-29.83865 -7.18675,-55.26517q12.05372,-19.83178 34.38722,-22.9703q24.33487,-3.45692 43.12048,19.28595z" fill="#ffb100"/>
   <path id="svg_6" d="m54.12917,128.434l12.50858,-9.09715q9.96138,-26.01784 35.75179,-34.15979q0.72777,-0.22743 7.86903,-0.72777q4.68503,-0.3184 7.36869,-4.73052l6.82286,-10.23429q32.61328,-32.06745 71.36713,-12.41761q28.11019,14.28252 30.56642,48.94266a4.91246,4.82149 17.1 0 0 1.95589,3.59337q39.20871,29.29282 6.6864,68.00118q-7.73258,9.23361 -26.38173,9.73395q-62.40643,1.72846 -124.76738,-0.68229q-14.96481,-0.54583 -23.69807,-6.54995q-26.19979,-17.96687 -6.0496,-51.6718zm158.42683,-12.73601q2.09234,-23.33418 -11.78081,-37.84414q-12.78149,-13.32732 -33.11362,-13.60024q-30.42996,-0.40937 -42.21077,32.74973a2.68366,2.68366 -86.7 0 1 -2.95657,1.77394q-35.70631,-5.04892 -42.84757,30.02059a3.5024,3.32046 -1.5 0 1 -2.63817,2.63817q-10.05235,2.27429 -14.96481,10.00686q-5.18537,8.14195 -1.9104,17.83041q4.95795,14.60092 24.51681,14.64641q75.41536,0.13646 118.30841,-0.81874q15.51064,-0.36389 23.24321,-6.50446q16.23841,-12.91795 4.86697,-36.75248q-3.45692,-7.23223 -16.60229,-11.28046a2.77463,2.68366 12 0 1 -1.9104,-2.8656z" fill="#929497"/>
   <path id="svg_7" d="m117.62726,79.71877q-2.68366,4.41212 -7.36869,4.73052q-7.14126,0.50034 -7.86903,0.72777q-25.79041,8.14195 -35.75179,34.15979q-8.9152,-6.27703 -10.41623,-13.64572q-5.77669,-28.61053 16.10195,-39.25419q10.64366,-5.18537 21.24184,-2.41074q11.23498,3.00206 18.92207,12.91795q1.00069,1.2736 2.2288,1.81943q1.41006,0.54583 2.91109,0.9552z" fill="#fff100"/>
   <path id="svg_8" d="m214.4664,118.5636q13.14538,4.04823 16.60229,11.28046q11.37143,23.83453 -4.86697,36.75248q-7.73258,6.14057 -23.24321,6.50446q-42.89305,0.9552 -118.30841,0.81874q-19.55887,-0.04549 -24.51681,-14.64641q-3.27497,-9.68846 1.9104,-17.83041q4.91246,-7.73258 14.96481,-10.00686a3.5024,3.32046 -1.5 0 0 2.63817,-2.63817q7.14126,-35.06951 42.84757,-30.02059a2.68366,2.68366 -74.9 0 0 2.95657,-1.77394q11.78081,-33.1591 42.21077,-32.74973q20.33213,0.27291 33.11362,13.60024q13.87315,14.50995 11.78081,37.84414a2.77463,2.68366 12 0 0 1.9104,2.8656z" fill="#e6e7e8"/>
   <rect id="svg_9" rx="0.34" height="2.78" width="4.98" transform="matrix(4.54832, -0.0476317, 0.0476317, 4.54832, -18.1538, -31.5783)" y="26.47936" x="5.07991" fill="#ffb100"/>
   <rect id="svg_10" rx="0.65" height="2.86" width="5.02" transform="matrix(3.9111, -2.32224, 2.32224, 3.9111, -90.5642, 11.3434)" y="34.07496" x="6.35654" fill="#ffb100"/>
   <path id="svg_11" d="m121.44806,204.07679q10.87109,0.86423 4.82149,8.5968q-4.27566,5.45829 2.5472,4.27566q10.64366,-1.77394 6.54995,8.05098a3.09303,2.8656 15 0 1 -3.184,1.68297q-10.50721,-1.45554 -4.59406,6.82286a3.77532,3.13852 44.9 0 1 0.36389,3.77532q-5.27635,9.00618 -11.18949,-2.2288q-3.54789,-6.77738 -4.54857,1.68297q-0.54583,4.4576 -4.776,4.00275q-9.27909,-1.00069 -3.68434,-9.18812q3.59337,-5.32183 -2.68366,-4.04823q-6.6864,1.31909 -6.77738,-5.82217q-0.09097,-6.50446 7.50515,-4.54857q6.27703,1.63749 2.50172,-3.63886q-6.77738,-9.55201 3.36594,-10.23429a3.32046,3.04754 76.1 0 1 3.09303,2.04686q4.09372,9.73395 8.36938,0.18194a2.36526,2.31977 -75.4 0 1 2.31977,-1.41006z" fill="#d0d2d2"/>
   <path id="svg_12" d="m181.53472,216.49439q12.96344,-1.72846 7.68709,8.86972a3.00206,2.72914 18.9 0 1 -3.22949,1.41006q-8.73326,-1.95589 -3.04754,7.86903a3.00206,2.95657 -35.9 0 1 -0.59131,3.63886q-6.86835,6.23155 -9.77943,-0.81874q-1.04617,-2.5472 -2.2288,-3.00206q-2.36526,-1.00069 -3.91177,3.36594a4.68503,4.68503 15.4 0 1 -5.32183,3.00206q-8.77875,-1.72846 -2.68366,-10.14332q2.95657,-4.09372 -6.45898,-4.23017a3.8208,3.8208 6.3 0 1 -3.68434,-4.59406q1.2736,-6.32252 8.05098,-5.23086a2.31977,1.95589 6.9 0 0 2.63817,-1.72846q0.18194,-3.04754 -1.9104,-5.54926a3.00206,2.50172 45.2 0 1 -0.3184,-3.45692q6.00412,-7.6416 10.78012,1.45554a2.50172,2.13783 61.7 0 0 3.09303,1.18263q2.50172,-1.36457 4.18469,-3.91177a3.09303,2.63817 -62.9 0 1 3.27497,-1.36457q9.14263,3.04754 2.68366,11.82629q-1.2736,1.68297 0.77326,1.41006z" fill="#d0d2d2"/>
  </g>
 </g>
</svg>