<svg width="256" height="256" xmlns="http://www.w3.org/2000/svg" version="1.1">
 <title>368</title>

 <g>
  <title>Layer 1</title>
  <g id="svg_12">
   <rect id="svg_1" rx="0.28" height="4.98" width="2.84" transform="matrix(4.49647, 0.0470887, -0.0470887, 4.49647, -16.0943, -32.517)" y="10.57117" x="21.68388" fill="#ffb100"/>
   <rect id="svg_2" rx="0.51" height="5.1" width="2.88" transform="matrix(3.8745, -2.28226, 2.28226, 3.8745, -38.3384, 10.8128)" y="12.69002" x="13.16919" fill="#ffb100"/>
   <rect id="svg_3" rx="0.77" height="5.06" width="2.9" transform="matrix(3.8625, 2.30251, -2.30251, 3.8625, 33.6153, -91.7887)" y="12.05527" x="29.86636" fill="#ffb100"/>
   <rect id="svg_4" rx="0.52" height="2.9" width="5.04" transform="matrix(3.8625, 2.30251, -2.30251, 3.8625, 33.2412, -40.7869)" y="18.65527" x="8.16636" fill="#ffb100"/>
   <path id="svg_5" d="m124.6343,70.19878l-6.74508,10.11762q-1.48392,-0.4047 -2.8779,-0.94431q-1.21411,-0.53961 -2.20339,-1.79869q-7.59945,-9.80285 -18.70635,-12.77068q-9.98271,-2.6081 -20.72987,3.05777q-31.88173,16.72779 -7.19475,52.56663l-11.06193,8.04913q-22.30372,-29.49847 -7.10481,-54.63512q11.9163,-19.60569 33.99519,-22.70843q24.05744,-3.41751 42.62889,19.06608z" fill="#ffb100"/>
   <path id="svg_6" d="m55.11504,128.47624l11.06193,-8.04913q2.47319,-1.16915 4.22691,-5.71083q10.02768,-26.35077 39.61608,-30.08304q6.11554,-0.76444 7.86926,-4.31685l6.74508,-10.11762q23.65274,-23.24803 52.56663,-18.03184q20.4151,3.68731 32.64617,17.58217q12.09617,13.71499 15.73851,36.10864a8.22899,8.09409 -77.1 0 0 3.32757,5.39606q13.98479,10.02768 17.89694,24.32724q3.77724,13.75996 -2.42823,28.05952q-8.6337,19.87549 -32.0616,22.16882q-36.15361,3.55241 -127.48195,0.22484q-15.19891,-0.58457 -23.92254,-6.56521q-25.63129,-17.76204 -5.80077,-50.99278zm156.62069,-12.59081q2.06849,-23.06816 -11.6465,-37.41269q-12.63578,-13.17538 -32.73611,-13.44519q-30.08304,-0.4047 -41.72954,32.37637a2.65306,2.65306 -86.7 0 1 -2.92287,1.75372q-35.29924,-4.99136 -42.35908,29.67834a3.46247,3.2826 -1.5 0 1 -2.6081,2.6081q-10.38742,2.38326 -15.10897,10.56729q-4.94639,8.58873 -1.16915,18.25667q5.26116,13.17538 22.70843,13.35525q59.04191,0.58457 118.03885,-0.94431q15.46871,-0.4047 23.11313,-6.52024q15.91838,-12.77068 4.72155,-36.28851q-3.41751,-7.14978 -16.41302,-11.15186a2.743,2.65306 12 0 1 -1.88862,-2.83293z" fill="#929497"/>
   <path id="svg_7" d="m117.88922,80.31639q-1.75372,3.55241 -7.86926,4.31685q-29.5884,3.73228 -39.61608,30.08304q-1.75372,4.54169 -4.22691,5.71083q-24.68698,-35.83884 7.19475,-52.56663q10.74716,-5.66586 20.72987,-3.05777q11.10689,2.96783 18.70635,12.77068q0.98928,1.25908 2.20339,1.79869q1.39398,0.53961 2.8779,0.94431z" fill="#fff100"/>
   <path id="svg_8" d="m213.62434,118.71837q12.99551,4.00208 16.41302,11.15186q11.19683,23.51783 -4.72155,36.28851q-7.64442,6.11554 -23.11313,6.52024q-58.99694,1.52888 -118.03885,0.94431q-17.44727,-0.17987 -22.70843,-13.35525q-3.77724,-9.66794 1.16915,-18.25667q4.72155,-8.18403 15.10897,-10.56729a3.46247,3.2826 -1.5 0 0 2.6081,-2.6081q7.05985,-34.6697 42.35908,-29.67834a2.65306,2.65306 -74.9 0 0 2.92287,-1.75372q11.6465,-32.78107 41.72954,-32.37637q20.10033,0.2698 32.73611,13.44519q13.71499,14.34453 11.6465,37.41269a2.743,2.65306 12 0 0 1.88862,2.83293z" fill="#e6e7e8"/>
   <rect id="svg_9" rx="0.34" height="2.78" width="4.98" transform="matrix(4.49647, -0.0470887, 0.0470887, 4.49647, -17.8925, -31.1157)" y="26.79515" x="5.42103" fill="#ffb100"/>
   <rect id="svg_10" rx="0.65" height="2.86" width="5.02" transform="matrix(3.86651, -2.29577, 2.29577, 3.86651, -89.4775, 11.3166)" y="34.51924" x="6.49329" fill="#ffb100"/>
   <path id="svg_11" d="m154.0878,215.5327q12.81565,-1.70875 7.59945,8.7686a2.96783,2.69803 18.9 0 1 -3.19267,1.39398q-8.6337,-1.93359 -3.0128,7.77932a2.96783,2.92287 -35.9 0 1 -0.58457,3.59737q-6.74508,6.11554 -9.66794,-0.76444q-1.07921,-2.56313 -2.20339,-3.0128q-2.33829,-0.98928 -3.91214,3.37254a4.49672,4.49672 -72.6 0 1 -5.39606,2.83293q-7.95919,-2.11346 -2.42823,-9.89278q2.8779,-4.09201 -6.43031,-4.22691a3.77724,3.77724 6.3 0 1 -3.64234,-4.54169q1.25908,-6.25044 7.95919,-5.17123a2.29333,1.93359 6.9 0 0 2.6081,-1.70875q0.17987,-3.0128 -1.88862,-5.486a2.96783,2.47319 45.2 0 1 -0.31477,-3.41751q5.93567,-7.55449 10.65722,1.43895a2.47319,2.11346 61.7 0 0 3.05777,1.16915q2.47319,-1.34902 4.13698,-3.86718a3.05777,2.6081 -62.9 0 1 3.23764,-1.34902q9.0384,3.0128 2.65306,11.69147q-1.25908,1.66379 0.76444,1.39398z" fill="#d0d1d2"/>
  </g>
 </g>
</svg>