<svg width="256" height="256" xmlns="http://www.w3.org/2000/svg" version="1.1">
 <title>305</title>

 <g>
  <title>Layer 1</title>
  <g id="svg_15">
   <rect id="svg_1" rx="0.28" height="4.98" width="2.84" transform="matrix(4.45958, 0.0467023, -0.0467023, 4.45958, -15.9232, -32.1764)" y="10.59017" x="21.91471" fill="#ffb100"/>
   <rect id="svg_2" rx="0.51" height="5.1" width="2.88" transform="matrix(3.84271, -2.26353, 2.26353, 3.84271, -37.9848, 10.7979)" y="12.82553" x="13.35702" fill="#ffb100"/>
   <rect id="svg_3" rx="0.77" height="5.06" width="2.9" transform="matrix(3.83081, 2.28362, -2.28362, 3.83081, 33.3785, -90.9617)" y="11.95559" x="30.07542" fill="#ffb100"/>
   <rect id="svg_4" rx="0.57" height="2.9" width="5.08" transform="matrix(3.83479, 2.27693, -2.27693, 3.83479, 32.8137, -40.3757)" y="18.54835" x="8.34384" fill="#ffb100"/>
   <path id="svg_5" d="m124.67929,69.7922l-6.68974,10.0346q-1.47174,-0.40138 -2.85429,-0.93656q-1.20415,-0.53518 -2.18531,-1.78393q-7.5371,-9.72242 -18.55287,-12.6659q-9.90081,-2.5867 -20.55979,3.03268q-31.62015,16.59055 -7.13572,52.13534l-10.97117,7.98309q-14.40523,-17.03653 -12.48751,-36.74895q1.78393,-17.92849 17.48251,-30.72819q30.28221,-24.75202 63.95388,9.67782z" fill="#ffb100"/>
   <path id="svg_6" d="m55.73041,127.59152l10.97117,-7.98309q2.98808,-2.09612 4.41523,-5.57478q10.65898,-26.31296 39.06806,-29.92542q6.06536,-0.75817 7.80469,-4.28143l6.68974,-10.0346q23.41408,-23.10189 52.09075,-17.88389q20.2476,3.65706 32.42292,17.43791q11.99693,13.64706 15.60938,35.85699a8.29527,8.07228 13.8 0 0 3.34487,5.35179q13.46867,9.63322 17.48251,23.32488q3.96924,13.51327 -1.87313,27.24953q-5.30719,12.35371 -17.25952,18.86506q-8.16148,4.41523 -23.81546,4.86121q-58.86968,1.78393 -117.73936,-0.22299q-14.67282,-0.49058 -23.23568,-6.37755q-25.64399,-17.6609 -5.97616,-50.6636zm155.33567,-12.48751q2.05152,-22.8789 -11.55094,-37.10574q-12.53211,-13.06728 -32.46752,-13.37947q-29.83622,-0.40138 -41.38717,32.15533a2.6313,2.6313 -86.7 0 1 -2.89889,1.73933q-35.00962,-4.9504 -42.01154,29.43484a3.34487,3.16648 -0.9 0 1 -2.5867,2.5421q-9.27643,1.91772 -12.30911,6.28835q-11.10496,15.96617 -0.80277,27.33872q5.66398,6.24375 16.41215,7.31411q7.76009,0.80277 18.68666,0.75817q80.27683,-0.40138 106.09921,-0.93656q9.23184,-0.17839 14.67282,-3.07728q8.33987,-4.45982 10.52518,-11.86313q8.47367,-28.89966 -18.50827,-38.35449a2.76509,2.67589 12.6 0 1 -1.87313,-2.85429z" fill="#929497"/>
   <path id="svg_7" d="m117.98955,79.8268q-1.73933,3.52326 -7.80469,4.28143q-28.40908,3.61246 -39.06806,29.92542q-1.42714,3.47866 -4.41523,5.57478q-24.48443,-35.5448 7.13572,-52.13534q10.65898,-5.61938 20.55979,-3.03268q11.01577,2.94348 18.55287,12.6659q0.98116,1.24875 2.18531,1.78393q1.38255,0.53518 2.85429,0.93656z" fill="#fff100"/>
   <path id="svg_8" d="m212.93921,117.9583q26.98194,9.45483 18.50827,38.35449q-2.18531,7.40331 -10.52518,11.86313q-5.44099,2.89889 -14.67282,3.07728q-25.82238,0.53518 -106.09921,0.93656q-10.92657,0.0446 -18.68666,-0.75817q-10.74818,-1.07036 -16.41215,-7.31411q-10.30219,-11.37255 0.80277,-27.33872q3.03268,-4.37063 12.30911,-6.28835a3.34487,3.16648 -0.9 0 0 2.5867,-2.5421q7.00192,-34.38524 42.01154,-29.43484a2.6313,2.6313 -74.9 0 0 2.89889,-1.73933q11.55094,-32.55672 41.38717,-32.15533q19.93541,0.31219 32.46752,13.37947q13.60246,14.22684 11.55094,37.10574a2.76509,2.67589 12.6 0 0 1.87313,2.85429z" fill="#e6e7e8"/>
   <rect id="svg_9" rx="0.34" height="2.78" width="4.98" transform="matrix(4.45958, -0.0467023, 0.0467023, 4.45958, -17.7067, -30.7866)" y="26.81898" x="5.65142" fill="#ffb100"/>
   <rect id="svg_10" rx="0.65" height="2.86" width="5.02" transform="matrix(3.83479, -2.27693, 2.27693, 3.83479, -88.7043, 11.2976)" y="34.6554" x="6.68065" fill="#ffb100"/>
   <path id="svg_11" d="m113.12834,199.97446a2.85429,2.80969 -65.6 0 1 1.42714,3.83545q-7.4925,15.87697 -15.56479,30.95118q-3.96924,7.44791 -12.44291,3.52326a2.22991,2.22991 -64.9 0 1 -1.07036,-2.98808q8.25067,-17.03653 15.83238,-31.88774q3.56786,-7.00192 11.81853,-3.43406z" fill-opacity="0.996" fill="#1f87e6"/>
   <path id="svg_12" d="m133.73273,198.9487q3.25567,-0.98116 6.73433,0.22299a2.27451,2.05152 -68.9 0 1 1.15955,2.98808q-10.2576,23.90466 -15.56479,32.73511q-4.77201,8.02768 -12.88889,3.21107a2.6313,2.4529 -61.8 0 1 -0.89196,-3.30027q7.31411,-15.38639 15.65398,-30.23761q2.5421,-4.59362 5.79777,-5.61938z" fill-opacity="0.996" fill="#1f87e6"/>
   <path id="svg_13" d="m160.49168,198.9487q3.25567,-0.98116 6.73433,0.22299a2.27451,2.05152 -68.9 0 1 1.15955,2.98808q-10.1684,24.03845 -15.56479,32.73511q-4.81661,7.84929 -12.88889,3.16648a2.5867,2.40831 -62.3 0 1 -0.89196,-3.25567q7.31411,-15.38639 15.65398,-30.23761q2.5421,-4.59362 5.79777,-5.61938z" fill-opacity="0.996" fill="#1f87e6"/>
   <path id="svg_14" d="m187.11683,198.81491q3.56786,-1.15955 7.13572,1.02576a2.72049,2.4975 -60.9 0 1 0.80277,3.38947l-16.09996,32.46752a6.77893,5.26259 -82.4 0 1 -3.03268,2.98808q-4.81661,1.96232 -9.27643,-0.57978a2.6313,2.31911 -62.8 0 1 -0.84737,-3.30027q7.31411,-15.38639 15.65398,-30.23761q2.6313,-4.72741 5.66398,-5.75317z" fill-opacity="0.996" fill="#1f87e6"/>
  </g>
 </g>
</svg>