<svg width="256" height="256" xmlns="http://www.w3.org/2000/svg" version="1.1">
 <title>200</title>

 <g>
  <title>Layer 1</title>
  <g id="svg_12">
   <rect id="svg_1" rx="0.28" height="4.98" width="2.84" transform="matrix(4.35539, 0.0456112, -0.0456112, 4.35539, -21.6793, -37.1818)" y="12.66202" x="24.1022" fill="#feb101"/>
   <rect id="svg_2" rx="0.48" height="5.1" width="2.84" transform="matrix(3.73741, -2.2368, 2.2368, 3.73741, -43.3272, 5.38042)" y="15.72476" x="14.14688" fill="#feb101"/>
   <rect id="svg_3" rx="0.79" height="5.08" width="2.92" transform="matrix(3.7335, 2.24332, -2.24332, 3.7335, 26.8815, -94.8783)" y="12.6201" x="33.00374" fill="#feb101"/>
   <rect id="svg_4" rx="0.61" height="2.92" width="5.1" transform="matrix(3.73741, 2.2368, -2.2368, 3.73741, 26.2407, -45.1624)" y="19.218" x="11.27097" fill="#feb101"/>
   <path id="svg_5" d="m124.15648,71.35381q-2.13426,6.09788 -6.53345,10.88908q-20.4279,-25.43688 -43.07718,-12.67488q-13.54601,7.62235 -15.68027,22.03949q-2.22137,15.15759 8.49348,28.92138l-9.80017,6.53345q-18.90343,-23.8253 -9.45172,-46.47457q8.75482,-20.95058 31.05564,-26.91779q24.87065,-6.66411 44.99366,17.68386z" fill="#feb101"/>
   <path id="svg_6" d="m162.09402,183.33706l4.35563,-11.62953q18.51143,-0.30489 37.02286,-0.6969q16.15939,-0.34845 23.60751,-11.32464q7.01256,-10.32284 3.26672,-22.86706q-4.00718,-13.37178 -19.07766,-18.29365a2.65693,2.56982 12 0 1 -1.82936,-2.74405q1.96003,-20.60213 -9.49527,-34.36592q-20.34079,-24.39153 -51.74489,-10.88908q-16.37717,7.05612 -22.30083,27.3098a2.43915,2.3956 11.7 0 1 -2.70049,1.74225q-34.23525,-4.87831 -41.03004,28.7036a3.35384,3.31028 -1.9 0 1 -2.48271,2.61338q-12.02154,3.17961 -15.94161,13.32823q-3.35384,8.75482 1.04535,17.33541q5.13964,9.97439 16.72562,9.97439q29.31339,0 58.62678,0q-1.48091,5.70588 -5.22676,10.19217a1.3938,1.21958 -49.8 0 0 0.04356,1.82936l1.00179,0.87113q-24.30442,0.13067 -48.60883,-0.52268q-14.63492,-0.39201 -23.25906,-6.22855q-26.00311,-17.46608 -6.53345,-50.61242l9.80017,-6.53345q2.91827,-0.95824 4.61697,-5.35742q9.97439,-25.74177 38.93933,-29.66184q5.70588,-0.78401 6.70767,-3.26672q4.39919,-4.79119 6.53345,-10.88908q2.96183,-0.17423 4.52986,-2.22137q2.13426,-2.74405 2.70049,-3.22317q22.73639,-17.46608 48.08616,-11.32464q18.16298,4.39919 29.22628,17.2483q11.32464,13.154 13.54601,33.32057a7.09968,7.09968 16 0 0 2.74405,4.92186q9.3646,7.09968 14.46069,15.11404q5.00897,8.01436 4.70408,19.55678q-0.87113,34.06103 -34.1917,38.19888q-6.44633,0.82757 -23.86885,1.35025q-11.97798,0.34845 -23.99952,-0.95824z" fill="#333333"/>
   <path id="svg_7" d="m117.62304,82.24288q-1.00179,2.48271 -6.70767,3.26672q-28.96494,3.92007 -38.93933,29.66184q-1.6987,4.39919 -4.61697,5.35742q-10.71485,-13.76379 -8.49348,-28.92138q2.13426,-14.41714 15.68027,-22.03949q22.64928,-12.762 43.07718,12.67488z" fill="#fff100"/>
   <path id="svg_8" d="m166.44965,171.70752q-5.44454,0.65334 -10.01795,-1.35025a2.22137,1.87292 -65.3 0 1 -0.78401,-2.83116l9.01615,-18.94699a2.30848,2.17782 23.8 0 0 -1.26313,-3.04894q-4.22496,-1.6987 -7.84013,0.08711q-2.87472,1.43736 -5.40098,6.83834q-4.57341,9.75661 -10.01795,19.07766q-29.31339,0 -58.62678,0q-11.58598,0 -16.72562,-9.97439q-4.39919,-8.58059 -1.04535,-17.33541q3.92007,-10.14862 15.94161,-13.32823a3.35384,3.31028 -1.9 0 0 2.48271,-2.61338q6.79478,-33.58191 41.03004,-28.7036a2.43915,2.3956 11.7 0 0 2.70049,-1.74225q5.92366,-20.25368 22.30083,-27.3098q31.40409,-13.50245 51.74489,10.88908q11.45531,13.76379 9.49527,34.36592a2.65693,2.56982 12 0 0 1.82936,2.74405q15.07048,4.92186 19.07766,18.29365q3.74584,12.54421 -3.26672,22.86706q-7.44813,10.97619 -23.60751,11.32464q-18.51143,0.39201 -37.02286,0.6969z" fill="#808285"/>
   <rect id="svg_9" rx="0.32" height="2.76" width="5" transform="matrix(4.35546, 0.0380096, -0.0380096, 4.35546, -21.1962, -36.4334)" y="28.89743" x="7.85582" fill="#feb101"/>
   <rect id="svg_10" rx="0.57" height="2.86" width="5.06" transform="matrix(3.73741, -2.2368, 2.2368, 3.73741, -93.1009, 5.70237)" y="37.55476" x="7.45688" fill="#feb101"/>
   <path id="svg_11" d="m166.44965,171.70752l-4.35563,11.62953q-4.57341,4.52986 -7.01256,11.41175q-1.43736,4.00718 2.74405,3.13605q10.58418,-2.17782 6.75123,5.22676q-6.14144,11.97798 -12.50066,23.8253q-4.22496,7.9708 -4.57341,8.23214q-3.39739,2.83116 -10.97619,1.08891a2.22137,2.13426 -69.2 0 1 -1.35025,-3.17961l10.06151,-19.16477q2.04715,-3.92007 -2.43915,-3.22317q-12.58777,2.00359 -5.48809,-7.31746q1.87292,-2.43915 8.36281,-16.50784a1.52447,1.48091 -76.5 0 0 -1.26313,-2.13426l-8.44992,-0.30489l-1.00179,-0.87113a1.3938,1.21958 -49.8 0 1 -0.04356,-1.82936q3.74584,-4.4863 5.22676,-10.19217q5.44454,-9.32105 10.01795,-19.07766q2.52627,-5.40098 5.40098,-6.83834q3.61517,-1.78581 7.84013,-0.08711a2.30848,2.17782 23.8 0 1 1.26313,3.04894l-9.01615,18.94699a2.22137,1.87292 -65.3 0 0 0.78401,2.83116q4.57341,2.00359 10.01795,1.35025z" fill="#feb101"/>
  </g>
 </g>
</svg>