<svg width="256" height="256" xmlns="http://www.w3.org/2000/svg" version="1.1">
 <title>260</title>

 <g>
  <title>Layer 1</title>
  <g id="svg_6">
   <path id="svg_1" d="m20.28986,114.87414q3.41591,-5.72822 13.50599,-11.82431a7.88287,7.62011 85.3 0 0 3.15315,-3.83633q12.45494,-31.8468 52.0795,-38.83628a6.4114,6.4114 -78 0 0 4.2042,-2.73273q17.39487,-25.96092 42.40985,-33.00295q25.69816,-7.19969 49.08401,5.93843q28.27323,15.9234 35.36782,56.75667a6.3063,6.09609 13.1 0 0 2.68018,4.15165q22.91288,15.66064 22.54501,40.78072q-0.47297,27.48494 -19.91739,40.04499q-11.19368,7.25224 -35.42037,7.30479q-67.79269,0.1051 -135.58539,-0.26276q-16.13361,-0.1051 -25.90837,-6.46395q-30.90086,-20.07505 -8.19819,-58.01793zm26.4339,0.9985q-35.63058,15.29277 -10.45794,44.35429a8.5135,8.04053 74.1 0 0 4.3093,2.57507q9.72221,2.04955 29.95491,2.31231q61.27619,0.84084 122.55237,-0.89339q17.92039,-0.47297 26.4339,-7.09458q13.24322,-10.35284 10.77326,-28.69365q-1.41892,-10.40539 -7.72521,-16.9219q-6.62161,-6.72672 -16.97445,-9.93242a3.36336,3.31081 13.7 0 1 -2.31231,-3.73123q2.57507,-16.97445 -4.36186,-31.05851q-6.14864,-12.40238 -20.75823,-21.07354q-37.1546,-22.12459 -66.95185,14.03151q-2.2072,2.62762 -4.78228,10.14263q-2.68018,7.72521 -9.93242,7.46245q-11.45644,-0.36787 -11.92941,-0.26276q-28.48344,5.93843 -34.84229,35.21016a5.25525,5.09759 -5.7 0 1 -2.99549,3.57357z" fill-opacity="0.996" fill="#d2d2d3"/>
   <path id="svg_2" d="m49.71925,112.29907q6.35885,-29.27173 34.84229,-35.21016q0.47297,-0.1051 11.92941,0.26276q7.25224,0.26276 9.93242,-7.46245q2.57507,-7.515 4.78228,-10.14263q29.79725,-36.1561 66.95185,-14.03151q14.60959,8.67116 20.75823,21.07354q6.93693,14.08406 4.36186,31.05851a3.36336,3.31081 13.7 0 0 2.31231,3.73123q10.35284,3.2057 16.97445,9.93242q6.3063,6.51651 7.72521,16.9219q2.46997,18.34081 -10.77326,28.69365q-8.5135,6.62161 -26.4339,7.09458q-61.27619,1.73423 -122.55237,0.89339q-20.2327,-0.26276 -29.95491,-2.31231a8.5135,8.04053 74.1 0 1 -4.3093,-2.57507q-25.17264,-29.06152 10.45794,-44.35429a5.25525,5.09759 -5.7 0 0 2.99549,-3.57357z" fill-opacity="0.306" fill="#f4f8f9"/>
   <path id="svg_3" d="m60.12464,231.75085q-1.36636,2.83783 -2.73273,0.1051l-17.34232,-35.47292a2.04955,1.94444 74.8 0 1 1.57657,-2.94294l32.26722,-1.73423a3.73123,3.52102 -77.2 0 1 3.15315,5.36035l-16.9219,34.68463z" fill-opacity="0.996" fill="#d2d2d3"/>
   <path id="svg_4" d="m97.90987,194.54369a6.3063,6.3063 19.8 0 1 4.46696,-2.1021q53.86629,-2.36486 106.41876,-0.15766q0.42042,0 3.94144,-0.26276q7.62011,-0.63063 3.94144,13.76875a1.83934,1.78678 -82.2 0 1 -1.73423,1.36636q-57.70262,0 -115.45779,1.26126q-14.60959,0.31531 -1.57657,-13.87385z" fill-opacity="0.996" fill="#d2d2d3"/>
   <path id="svg_5" d="m79.5165,231.01511l4.2042,-10.98347a4.72972,2.94294 5.6 0 1 4.15165,-2.04955l125.33766,-0.31531a4.2042,4.15165 83.6 0 1 4.04654,3.25825q2.99549,13.8213 -7.46245,12.92791q-4.83483,-0.42042 -5.36035,-0.42042q-61.69661,0 -123.13045,0a1.89189,1.78678 9.7 0 1 -1.78678,-2.41741z" fill-opacity="0.996" fill="#d2d2d3"/>
  </g>
 </g>
</svg>