<svg width="256" height="256" xmlns="http://www.w3.org/2000/svg" version="1.1">
 <title>263</title>

 <g>
  <title>Layer 1</title>
  <g id="svg_7">
   <path id="svg_1" d="m136.68145,180.41855q-42.11965,1.96029 -84.23929,-0.68875q-21.61612,-1.32452 -31.15264,-10.01335q-14.99353,-13.61604 -10.64912,-38.35802q2.80798,-15.94719 20.23862,-28.34467q2.22519,-1.58942 3.44374,-4.02653q17.64257,-35.44408 52.50386,-38.411a6.14576,5.98682 13.5 0 0 4.55634,-2.70202q29.98707,-44.7157 74.70277,-34.43745q23.15256,5.29807 36.39773,20.98035q13.88094,16.47699 16.15911,41.64282a6.41066,6.35768 -75.5 0 0 2.755,4.71528q35.3911,24.63602 20.55651,60.13308q-6.09278,14.56969 -17.69555,21.88102q-12.6094,7.9471 -28.55659,7.52326q-12.23854,-0.31788 -12.98027,-0.2649q-11.49681,0.2649 -23.0466,0.05298q-11.92065,-0.15894 -22.99362,0.31788zm66.33182,-83.02074q2.33115,-36.02687 -22.99362,-51.92107q-20.71545,-12.98027 -44.02695,-5.82788q-24.74198,7.6822 -34.96725,35.3911a3.2848,3.23182 -76.2 0 1 -3.44374,2.11923q-37.40437,-4.55634 -50.11973,35.55004a5.24509,5.24509 -89.4 0 1 -3.44374,3.39076q-22.99362,7.25835 -19.02007,30.7288q2.86096,16.52997 19.60285,17.21872q74.75575,2.96692 151.57775,0.2649q12.82133,-0.42385 19.65584,-4.50336q10.49018,-6.14576 13.13921,-17.05978q7.73518,-31.68245 -23.62939,-41.90772a3.44374,3.39076 11.2 0 1 -2.33115,-3.44374z" fill="#929497"/>
   <path id="svg_2" d="m205.34442,100.84156q31.36457,10.22527 23.62939,41.90772q-2.64903,10.91402 -13.13921,17.05978q-6.83451,4.07951 -19.65584,4.50336q-76.822,2.70202 -151.57775,-0.2649q-16.7419,-0.68875 -19.60285,-17.21872q-3.97355,-23.47044 19.02007,-30.7288a5.24509,5.24509 -89.4 0 0 3.44374,-3.39076q12.71537,-40.10638 50.11973,-35.55004a3.2848,3.23182 -76.2 0 0 3.44374,-2.11923q10.22527,-27.7089 34.96725,-35.3911q23.3115,-7.15239 44.02695,5.82788q25.32477,15.89421 22.99362,51.92107a3.44374,3.39076 11.2 0 0 2.33115,3.44374z" fill="#e6e7e8"/>
   <path id="svg_3" d="m69.343,211.99504q5.03317,-6.94047 12.82133,-4.13249a2.70202,2.54307 23.5 0 1 1.53644,3.60269l-9.53652,19.28497a6.78153,5.56297 7.9 0 1 -5.24509,3.23182q-15.78824,1.48346 -8.52989,-9.27162q4.34442,-6.46364 8.95374,-12.71537z" fill-opacity="0.996" fill="#1f88e8"/>
   <path id="svg_4" d="m95.6744,220.68388l4.98018,-10.4372a5.98682,4.50336 3.2 0 1 4.13249,-2.755q16.79488,-2.80798 9.43056,8.63585q-2.33115,3.54971 -3.97355,8.37095q-4.23846,12.18556 -17.43065,8.79479a3.12586,2.86096 13.1 0 1 -2.33115,-3.39076q0.58279,-2.755 2.43711,-4.87422q1.48346,-1.74836 2.755,-4.34442z" fill-opacity="0.996" fill="#1f88e8"/>
   <path id="svg_5" d="m128.0456,219.04147q1.74836,-4.60932 4.3974,-8.84777a6.0398,5.88086 11.2 0 1 4.13249,-2.70202q16.63594,-2.755 9.5895,8.37095q-2.27817,3.60269 -4.71528,8.74181q-1.85432,4.07951 -4.9272,7.36432a7.6822,7.04643 16.5 0 1 -4.55634,2.22519q-14.78161,1.80134 -8.10605,-7.57624q2.80798,-3.92057 4.18547,-7.57624z" fill-opacity="0.996" fill="#1f88e8"/>
   <path id="svg_6" d="m164.60227,211.94206q5.13913,-6.88749 12.92729,-4.07951a2.70202,2.54307 23.5 0 1 1.53644,3.60269l-9.43056,19.17901a7.15239,5.88086 7.3 0 1 -5.29807,3.33778q-16.68892,1.80134 -8.26499,-10.17229q4.18547,-5.98682 8.52989,-11.86767z" fill-opacity="0.996" fill="#1f88e8"/>
  </g>
 </g>
</svg>