<svg width="256" height="256" xmlns="http://www.w3.org/2000/svg" version="1.1">
 <title>335</title>

 <g>
  <title>Layer 1</title>
  <g id="svg_13">
   <rect id="svg_1" rx="0.28" height="4.98" width="2.84" transform="matrix(4.51097, 0.0472405, -0.0472405, 4.51097, -16.1615, -32.6509)" y="10.47686" x="21.56282" fill="#ffb100"/>
   <rect id="svg_2" rx="0.51" height="5.1" width="2.88" transform="matrix(3.887, -2.28962, 2.28962, 3.887, -38.4774, 10.8186)" y="12.54674" x="13.11424" fill="#ffb100"/>
   <rect id="svg_3" rx="0.77" height="5.06" width="2.9" transform="matrix(3.87496, 2.30994, -2.30994, 3.87496, 33.7083, -92.1137)" y="12.03466" x="29.71429" fill="#ffb100"/>
   <rect id="svg_4" rx="0.53" height="2.92" width="5.04" transform="matrix(3.86687, 2.32345, -2.32345, 3.86687, 33.6665, -40.9188)" y="18.62038" x="8.01772" fill="#ffb100"/>
   <path id="svg_5" d="m124.47926,69.96502l-6.76683,10.15025q-1.4887,-0.40601 -2.88718,-0.94736q-1.21803,-0.54135 -2.2105,-1.80449q-7.62396,-9.83446 -18.76668,-12.81187q-10.51114,-2.75184 -21.0674,2.39095q-21.69897,10.55626 -15.96972,38.93183q1.4887,7.30818 10.33069,13.53366l-12.40586,9.02244q-22.37565,-29.59361 -7.12773,-54.81133q11.95473,-19.66892 34.10483,-22.78166q24.13503,-3.42853 42.76637,19.12757z" fill="#ffb100"/>
   <path id="svg_6" d="m54.73579,128.43043l12.40586,-9.02244q9.87957,-25.80418 35.45819,-33.87927q0.7218,-0.22556 7.80441,-0.7218q4.64656,-0.31579 7.30818,-4.69167l6.76683,-10.15025q32.34545,-31.8041 70.78105,-12.31563q27.87934,14.16523 30.3154,48.54073a4.87212,4.78189 17.1 0 0 1.93982,3.56386q38.88672,29.05226 6.63149,67.44275q-7.66907,9.15778 -26.16508,9.65401q-61.89394,1.71426 -123.74278,-0.67668q-14.84192,-0.54135 -23.50346,-6.49616q-25.98463,-17.81932 -5.99992,-51.24746zm157.12581,-12.63142q2.07516,-23.14256 -11.68406,-37.53335q-12.67653,-13.21788 -32.84168,-13.48855q-30.18006,-0.40601 -41.86413,32.48079a2.66162,2.66162 -86.7 0 1 -2.93229,1.75938q-35.41308,-5.00745 -42.4957,29.77406a3.47364,3.29319 -1.5 0 1 -2.61651,2.61651q-9.9698,2.25561 -14.84192,9.92469q-5.14279,8.07508 -1.89471,17.68398q4.91723,14.48102 24.31548,14.52613q74.79604,0.13534 117.33684,-0.81202q15.38326,-0.3609 23.05234,-6.45105q16.10506,-12.81187 4.82701,-36.45066q-3.42853,-7.17284 -16.46595,-11.18783a2.75184,2.66162 12 0 1 -1.89471,-2.84207z" fill="#929497"/>
   <path id="svg_7" d="m117.71243,80.11526q-2.66162,4.37588 -7.30818,4.69167q-7.08262,0.49623 -7.80441,0.7218q-25.57862,8.07508 -35.45819,33.87927q-8.84199,-6.22548 -10.33069,-13.53366q-5.72925,-28.37558 15.96972,-38.93183q10.55626,-5.14279 21.0674,-2.39095q11.14271,2.97741 18.76668,12.81187q0.99247,1.26314 2.2105,1.80449q1.39848,0.54135 2.88718,0.94736z" fill="#fff100"/>
   <path id="svg_8" d="m213.75632,118.64108q13.03743,4.01499 16.46595,11.18783q11.27805,23.6388 -4.82701,36.45066q-7.66907,6.09015 -23.05234,6.45105q-42.54081,0.94736 -117.33684,0.81202q-19.39825,-0.04511 -24.31548,-14.52613q-3.24808,-9.6089 1.89471,-17.68398q4.87212,-7.66907 14.84192,-9.92469a3.47364,3.29319 -1.5 0 0 2.61651,-2.61651q7.08262,-34.78151 42.4957,-29.77406a2.66162,2.66162 -74.9 0 0 2.93229,-1.75938q11.68406,-32.8868 41.86413,-32.48079q20.16516,0.27067 32.84168,13.48855q13.75922,14.39079 11.68406,37.53335a2.75184,2.66162 12 0 0 1.89471,2.84207z" fill="#e6e7e8"/>
   <rect id="svg_9" rx="0.34" height="2.78" width="4.98" transform="matrix(4.51097, -0.0472405, 0.0472405, 4.51097, -17.9656, -31.2451)" y="26.69832" x="5.30198" fill="#ffb100"/>
   <rect id="svg_10" rx="0.65" height="2.86" width="5.02" transform="matrix(3.87898, -2.30317, 2.30317, 3.87898, -89.7814, 11.3241)" y="34.37576" x="6.43884" fill="#ffb100"/>
   <path id="svg_11" d="m121.50186,203.45203q10.78182,0.85713 4.78189,8.52621q-4.24055,5.41346 2.52628,4.24055q10.55626,-1.75938 6.49616,7.98486a3.06763,2.84207 15 0 1 -3.15785,1.66915q-10.42092,-1.44359 -4.55633,6.76683a3.74431,3.11274 44.9 0 1 0.3609,3.74431q-5.23302,8.93222 -11.0976,-2.2105q-3.51875,-6.72172 -4.51122,1.66915q-0.54135,4.421 -4.73678,3.96987q-9.20289,-0.99247 -3.65409,-9.11267q3.56386,-5.27813 -2.66162,-4.01499q-6.63149,1.30825 -6.72172,-5.77436q-0.09022,-6.45105 7.44351,-4.51122q6.22548,1.62404 2.48117,-3.60898q-6.72172,-9.47356 3.3383,-10.15025a3.29319,3.02252 76.1 0 1 3.06763,2.03005q4.0601,9.65401 8.30065,0.18045a2.34583,2.30072 -75.4 0 1 2.30072,-1.39848z" fill="#d0d2d2"/>
   <path id="svg_12" d="m181.09508,215.76766q12.85698,-1.71426 7.62396,8.79688a2.97741,2.70673 18.9 0 1 -3.20297,1.39848q-8.66154,-1.93982 -3.02252,7.80441a2.97741,2.93229 -35.9 0 1 -0.58646,3.60898q-6.81194,6.18037 -9.69912,-0.81202q-1.03758,-2.52628 -2.2105,-2.97741q-2.34583,-0.99247 -3.87965,3.3383a4.64656,4.64656 15.4 0 1 -5.27813,2.97741q-8.70666,-1.71426 -2.66162,-10.06002q2.93229,-4.0601 -6.40593,-4.19544a3.78943,3.78943 6.3 0 1 -3.65409,-4.55633q1.26314,-6.2706 7.98486,-5.1879a2.30072,1.93982 6.9 0 0 2.61651,-1.71426q0.18045,-3.02252 -1.89471,-5.50369a2.97741,2.48117 45.2 0 1 -0.31579,-3.42853q5.95481,-7.57885 10.69159,1.44359a2.48117,2.12027 61.7 0 0 3.06763,1.17292q2.48117,-1.35337 4.15032,-3.87965a3.06763,2.61651 -62.9 0 1 3.24808,-1.35337q9.06755,3.02252 2.66162,11.72917q-1.26314,1.66915 0.76691,1.39848z" fill="#d0d2d2"/>
  </g>
 </g>
</svg>