<svg width="256" height="256" xmlns="http://www.w3.org/2000/svg" version="1.1">
 <title>362</title>

 <g>
  <title>Layer 1</title>
  <g id="svg_14">
   <rect id="svg_1" rx="0.28" height="4.98" width="2.84" transform="matrix(4.41773, 0.0462641, -0.0462641, 4.41773, -15.7291, -31.79)" y="10.8776" x="22.14472" fill="#ffb100"/>
   <rect id="svg_2" rx="0.51" height="5.1" width="2.88" transform="matrix(3.80666, -2.24229, 2.24229, 3.80666, -37.5838, 10.781)" y="13.19044" x="13.40551" fill="#ffb100"/>
   <rect id="svg_3" rx="0.77" height="5.06" width="2.9" transform="matrix(3.79486, 2.26219, -2.26219, 3.79486, 33.11, -90.0237)" y="12.0883" x="30.41879" fill="#ffb100"/>
   <rect id="svg_4" rx="0.53" height="2.92" width="5.04" transform="matrix(3.78694, 2.27542, -2.27542, 3.78694, 33.069, -39.8871)" y="18.67156" x="8.7224" fill="#ffb100"/>
   <path id="svg_5" d="m124.5568,70.50212l-6.62696,9.94044q-1.45793,-0.39762 -2.8275,-0.92777q-1.19285,-0.53016 -2.16481,-1.76719q-7.46638,-9.63118 -18.37877,-12.54705q-9.8079,-2.56243 -20.36686,3.00422q-31.32344,16.43487 -7.06876,51.64612l-10.86822,7.90817q-14.27006,-16.87666 -12.37033,-36.40411q1.76719,-17.76026 17.31846,-30.43984q29.99805,-24.51976 63.35375,9.587z" fill="#ffb100"/>
   <path id="svg_6" d="m56.25491,127.75907l10.86822,-7.90817q2.96004,-2.07645 4.37379,-5.52247q10.55896,-26.06605 38.70146,-29.64461q6.00845,-0.75106 7.73146,-4.24126l6.62696,-9.94044q31.6327,-31.1909 69.31802,-12.06107q27.30308,13.87244 29.68879,47.53741a4.68305,4.59469 -73.7 0 0 1.85555,3.44602q32.91391,24.56394 13.87244,55.97574q-7.02458,11.66345 -18.33459,16.03725q-9.32193,3.62274 -19.74835,3.35766q-10.77986,-0.26508 -11.39837,-0.26508q-52.353,1.45793 -104.66182,-0.26508q-14.49096,-0.48598 -22.92929,-6.27352q-25.44753,-17.49518 -5.96427,-50.23237zm153.87805,-12.37033q2.03227,-22.66421 -11.44255,-36.75755q-12.41451,-12.94467 -32.16285,-13.20974q-29.55625,-0.39762 -40.9988,31.80942a2.6066,2.6066 -86.7 0 1 -2.87168,1.72301q-34.6811,-4.90395 -41.61732,29.15863a3.40184,3.22512 -1.5 0 1 -2.56243,2.56243q-9.76372,2.20899 -14.53514,9.71954q-4.99231,7.81981 -2.03227,17.31846q4.32961,13.87244 21.78061,14.22588q50.80671,0.97195 117.07632,-0.75106q15.15365,-0.39762 22.62003,-6.36188q15.77217,-12.54705 4.72723,-35.69723q-3.35766,-7.02458 -16.12561,-10.95658a2.69496,2.6066 12 0 1 -1.85555,-2.78332z" fill="#929497"/>
   <path id="svg_7" d="m117.92984,80.44256q-1.72301,3.4902 -7.73146,4.24126q-28.1425,3.57856 -38.70146,29.64461q-1.41375,3.44602 -4.37379,5.52247q-24.25468,-35.21126 7.06876,-51.64612q10.55896,-5.56665 20.36686,-3.00422q10.9124,2.91586 18.37877,12.54705q0.97195,1.23703 2.16481,1.76719q1.36957,0.53016 2.8275,0.92777z" fill="#fff100"/>
   <path id="svg_8" d="m211.98851,118.17206q12.76795,3.932 16.12561,10.95658q11.04494,23.15019 -4.72723,35.69723q-7.46638,5.96427 -22.62003,6.36188q-66.26962,1.72301 -117.07632,0.75106q-17.451,-0.35344 -21.78061,-14.22588q-2.96004,-9.49865 2.03227,-17.31846q4.77141,-7.51056 14.53514,-9.71954a3.40184,3.22512 -1.5 0 0 2.56243,-2.56243q6.93622,-34.06258 41.61732,-29.15863a2.6066,2.6066 -74.9 0 0 2.87168,-1.72301q11.44255,-32.20703 40.9988,-31.80942q19.74835,0.26508 32.16285,13.20974q13.47482,14.09334 11.44255,36.75755a2.69496,2.6066 12 0 0 1.85555,2.78332z" fill="#e6e7e8"/>
   <rect id="svg_9" rx="0.34" height="2.78" width="4.98" transform="matrix(4.41773, -0.0462641, 0.0462641, 4.41773, -17.4959, -30.4132)" y="27.11116" x="5.87535" fill="#ffb100"/>
   <rect id="svg_10" rx="0.65" height="2.86" width="5.02" transform="matrix(3.79881, -2.25557, 2.25557, 3.79881, -87.8273, 11.276)" y="35.02048" x="6.72786" fill="#ffb100"/>
   <path id="svg_11" d="m102.15767,201.45088q2.51825,-4.85977 11.35419,-2.38571a2.03227,1.94391 20.7 0 1 1.32539,2.73914l-16.52322,33.66497a4.99231,4.32961 3.9 0 1 -3.2693,2.47407q-13.87244,3.13676 -8.21743,-6.7595q3.35766,-5.83173 3.75528,-6.71532q5.56665,-11.61927 11.57509,-23.01765z" fill-opacity="0.996" fill="#1f87e6"/>
   <path id="svg_12" d="m133.52529,198.44666q3.22512,-0.97195 6.67114,0.2209a2.20899,2.07645 -69.2 0 1 1.19285,2.91586q-6.62696,15.59545 -14.71185,30.5282q-2.65078,4.94813 -5.96427,6.05263q-3.84364,1.28121 -7.59892,-0.88359a2.65078,2.38571 -62.3 0 1 -0.83942,-3.31348q7.24548,-15.24201 15.50709,-29.95387q2.51825,-4.55051 5.74337,-5.56665z" fill-opacity="0.996" fill="#1f87e6"/>
   <path id="svg_13" d="m180.04656,213.24688q11.70763,-1.63465 8.04071,8.26161a2.87168,2.6066 13.1 0 1 -3.00422,1.67883q-10.20552,-1.41375 -4.46215,6.62696a4.02036,3.2693 43.5 0 1 0.48598,3.79946q-3.66692,7.4222 -9.63118,-0.30926q-4.59469,-5.96427 -6.84786,1.36957a2.96004,2.6066 -78.1 0 1 -2.78332,2.07645q-10.33806,-0.75106 -4.32961,-9.98462a2.34153,1.94391 -59.3 0 0 -0.48598,-3.13676q-1.72301,-0.83942 -3.84364,-0.4418a3.7111,2.78332 -19.3 0 1 -3.44602,-1.10449q-6.45024,-9.49865 6.58278,-8.65923a1.81137,1.45793 -6.3 0 0 1.94391,-1.94391l-1.76719,-4.32961a4.77141,2.38571 60 0 1 -0.2209,-3.75528q5.25739,-8.39415 10.64732,1.63465a1.67883,1.59047 52.9 0 0 2.6066,0.4418l3.0484,-3.35766a4.59469,3.40184 -59.4 0 1 3.57856,-1.50211q9.76372,1.54629 3.0484,11.22166q-1.19285,1.72301 0.83942,1.41375z" fill="#d0d2d3"/>
  </g>
 </g>
</svg>