<svg width="256" height="256" xmlns="http://www.w3.org/2000/svg" version="1.1">
 <title>329</title>

 <g>
  <title>Layer 1</title>
  <g id="svg_12">
   <rect id="svg_1" rx="0.28" height="4.98" width="2.84" transform="matrix(4.51517, 0.0472845, -0.0472845, 4.51517, -16.181, -32.6896)" y="10.46277" x="21.56924" fill="#ffb100"/>
   <rect id="svg_2" rx="0.51" height="5.1" width="2.88" transform="matrix(3.89062, -2.29175, 2.29175, 3.89062, -38.5177, 10.8203)" y="12.53799" x="13.12702" fill="#ffb100"/>
   <rect id="svg_3" rx="0.77" height="5.06" width="2.9" transform="matrix(3.87856, 2.31209, -2.31209, 3.87856, 33.7353, -92.2078)" y="12.01925" x="29.71275" fill="#ffb100"/>
   <rect id="svg_4" rx="0.52" height="2.9" width="5.04" transform="matrix(3.87856, 2.31209, -2.31209, 3.87856, 33.3597, -40.994)" y="18.61925" x="8.01275" fill="#ffb100"/>
   <path id="svg_5" d="m124.62029,69.95842l-6.77313,10.15969q-1.49009,-0.40639 -2.88987,-0.94824q-1.21916,-0.54185 -2.21255,-1.80617q-7.63105,-9.84361 -18.78414,-12.82378q-10.02423,-2.61894 -20.81607,3.07048q-32.01431,16.79735 -7.22467,52.78523l-11.10793,8.0826q-22.39647,-29.62114 -7.13436,-54.86232q11.96586,-19.68722 34.13655,-22.80286q24.15748,-3.43172 42.80615,19.14537z" fill="#ffb100"/>
   <path id="svg_6" d="m54.81194,128.47822l11.10793,-8.0826q2.48348,-1.17401 4.24449,-5.73458q10.06938,-26.46034 39.78082,-30.20814q6.14097,-0.76762 7.90198,-4.3348l6.77313,-10.15969q23.75109,-23.34471 52.78523,-18.10682q20.49999,3.70264 32.78193,17.65528q12.14647,13.77202 15.80396,36.2588a8.26321,8.12775 -77.1 0 0 3.34141,5.4185q14.04295,10.06938 17.97136,24.42841q3.79295,13.81718 -2.43833,28.1762q-8.6696,19.95814 -32.19492,22.26101q-36.30395,3.56718 -128.01207,0.22577q-15.26211,-0.587 -24.02202,-6.59251q-25.73788,-17.8359 -5.82489,-51.20483zm157.27198,-12.64317q2.07709,-23.16409 -11.69493,-37.56827q-12.68832,-13.23017 -32.87224,-13.5011q-30.20814,-0.40639 -41.90307,32.511a2.6641,2.6641 -86.7 0 1 -2.93502,1.76101q-35.44602,-5.01211 -42.53523,29.80175a3.47687,3.29625 -1.5 0 1 -2.61894,2.61894q-10.43061,2.39317 -15.1718,10.61123q-4.96696,8.62445 -1.17401,18.33259q5.28304,13.23017 22.80286,13.41079q59.28743,0.587 118.5297,-0.94824q15.53303,-0.40639 23.20924,-6.54735q15.98458,-12.82378 4.74119,-36.43942q-3.43172,-7.17951 -16.48127,-11.19823a2.7544,2.6641 12 0 1 -1.89648,-2.84471z" fill="#929497"/>
   <path id="svg_7" d="m117.84717,80.1181q-1.76101,3.56718 -7.90198,4.3348q-29.71144,3.7478 -39.78082,30.20814q-1.76101,4.56057 -4.24449,5.73458q-24.78964,-35.98787 7.22467,-52.78523q10.79185,-5.68943 20.81607,-3.07048q11.15308,2.98018 18.78414,12.82378q0.99339,1.26432 2.21255,1.80617q1.39978,0.54185 2.88987,0.94824z" fill="#fff100"/>
   <path id="svg_8" d="m213.9804,118.67977q13.04956,4.01872 16.48127,11.19823q11.24339,23.61563 -4.74119,36.43942q-7.67621,6.14097 -23.20924,6.54735q-59.24227,1.53524 -118.5297,0.94824q-17.51982,-0.18062 -22.80286,-13.41079q-3.79295,-9.70815 1.17401,-18.33259q4.74119,-8.21806 15.1718,-10.61123a3.47687,3.29625 -1.5 0 0 2.61894,-2.61894q7.0892,-34.81387 42.53523,-29.80175a2.6641,2.6641 -74.9 0 0 2.93502,-1.76101q11.69493,-32.91739 41.90307,-32.511q20.18391,0.27093 32.87224,13.5011q13.77202,14.40418 11.69493,37.56827a2.7544,2.6641 12 0 0 1.89648,2.84471z" fill="#e6e7e8"/>
   <rect id="svg_9" rx="0.34" height="2.78" width="4.98" transform="matrix(4.51517, -0.0472845, 0.0472845, 4.51517, -17.9867, -31.2825)" y="26.68437" x="5.30869" fill="#ffb100"/>
   <rect id="svg_10" rx="0.65" height="2.86" width="5.02" transform="matrix(3.88259, -2.30531, 2.30531, 3.88259, -89.8694, 11.3263)" y="34.36706" x="6.45165" fill="#ffb100"/>
   <path id="svg_11" d="m154.19628,215.8967q12.86894,-1.71586 7.63105,8.80506a2.98018,2.70925 18.9 0 1 -3.20595,1.39978q-8.6696,-1.94163 -3.02533,7.81167a2.98018,2.93502 -35.9 0 1 -0.587,3.61233q-6.77313,6.14097 -9.70815,-0.76762q-1.0837,-2.57379 -2.21255,-3.02533q-2.34802,-0.99339 -3.92841,3.38656a4.51542,4.51542 -72.6 0 1 -5.4185,2.84471q-7.99229,-2.12225 -2.43833,-9.93392q2.88987,-4.10903 -6.45705,-4.24449a3.79295,3.79295 6.3 0 1 -3.65749,-4.56057q1.26432,-6.27643 7.99229,-5.19273a2.30286,1.94163 6.9 0 0 2.61894,-1.71586q0.18062,-3.02533 -1.89648,-5.50881a2.98018,2.48348 45.2 0 1 -0.31608,-3.43172q5.96035,-7.5859 10.70154,1.44493a2.48348,2.12225 61.7 0 0 3.07048,1.17401q2.48348,-1.35463 4.15418,-3.88326a3.07048,2.61894 -62.9 0 1 3.2511,-1.35463q9.07599,3.02533 2.6641,11.74008q-1.26432,1.6707 0.76762,1.39978z" fill="#d0d1d2"/>
  </g>
 </g>
</svg>