<svg width="256" height="256" xmlns="http://www.w3.org/2000/svg" version="1.1">
 <title>338</title>

 <g>
  <title>Layer 1</title>
  <g id="svg_5">
   <path id="svg_1" d="m18.16579,109.53811q5.8877,-7.00158 13.68491,-11.88148a7.85026,7.85026 90 0 0 3.18254,-3.81905q12.51798,-31.29496 52.61796,-39.72868a8.11547,7.95635 -77.8 0 0 4.98598,-3.28862q19.14827,-27.52895 46.41201,-33.15144q27.2107,-5.62248 51.07974,10.23716q25.88464,17.23875 29.38544,53.14839a6.09986,6.04682 -74.6 0 0 2.3869,4.24338q45.77551,34.15924 7.79722,79.29824q-4.61468,5.56944 -15.59444,8.48677q-6.41812,1.7504 -17.34483,2.12169q-71.07668,2.3869 -142.10033,0.21217q-19.51957,-0.63651 -28.43067,-6.68333q-13.26058,-9.01719 -16.44311,-27.10462q-3.23558,-18.24655 8.38068,-32.09059zm185.22372,-17.18571q2.33386,-36.06877 -23.02036,-51.98146q-20.73954,-12.99536 -44.07815,-5.83465q-24.77076,7.69113 -35.00792,35.43226a3.28862,3.23558 -76.2 0 1 -3.44775,2.12169q-37.44787,-4.56164 -50.12498,35.43226a5.56944,5.56944 -88 0 1 -3.97817,3.71296q-4.93293,1.27302 -9.07023,3.97817q-3.87209,2.49299 -6.31203,7.16071q-9.2824,17.61004 2.28082,29.27935q7.21375,7.2668 23.23253,7.79722q71.3419,2.3869 142.68379,-0.10608q12.83624,-0.42434 19.67869,-4.5086q10.50238,-6.15291 13.15449,-17.07962q7.74418,-31.7193 -23.65687,-41.95646a3.44775,3.39471 11.2 0 1 -2.33386,-3.44775z" fill="#929497"/>
   <path id="svg_2" d="m205.72337,95.80016q31.40104,10.23716 23.65687,41.95646q-2.65212,10.92671 -13.15449,17.07962q-6.84246,4.08426 -19.67869,4.5086q-71.3419,2.49299 -142.68379,0.10608q-16.01878,-0.53042 -23.23253,-7.79722q-11.56322,-11.66931 -2.28082,-29.27935q2.43995,-4.66772 6.31203,-7.16071q4.1373,-2.70516 9.07023,-3.97817a5.56944,5.56944 -88 0 0 3.97817,-3.71296q12.67711,-39.9939 50.12498,-35.43226a3.28862,3.23558 -76.2 0 0 3.44775,-2.12169q10.23716,-27.74112 35.00792,-35.43226q23.33861,-7.16071 44.07815,5.83465q25.35422,15.91269 23.02036,51.98146a3.44775,3.39471 11.2 0 0 2.33386,3.44775z" fill="#e6e7e8"/>
   <path id="svg_3" d="m75.2393,223.26081q-11.19193,0.74259 -9.2824,-9.6537a3.02341,2.81124 7.9 0 1 3.23558,-2.28082q14.37446,1.16693 5.78161,-9.54761a4.03121,3.50079 42.8 0 1 -0.47738,-4.34947q4.72076,-7.42592 10.6615,-0.31825q6.31203,7.47896 9.75978,-0.84868a3.50079,3.07645 -73.3 0 1 3.44775,-2.17473q12.73015,2.12169 3.34167,13.63187q-3.1295,3.87209 1.7504,2.97037q14.85184,-2.7582 9.97195,9.22936a3.60688,3.18254 13.5 0 1 -3.71296,1.96257q-13.10145,-1.53823 -5.41031,8.00939a4.19034,3.766 41.1 0 1 0.53042,4.40251q-6.47116,11.66931 -12.09364,-1.3791q-2.70516,-6.25899 -5.56944,-0.05304q-5.72857,12.35886 -11.77539,1.43214a6.31203,3.71296 -57 0 1 0.21217,-4.66772l1.64431,-4.08426a1.90952,1.69735 7.3 0 0 -2.01561,-2.28082z" fill="#d1d2d3"/>
   <path id="svg_4" d="m167.37378,210.5837l6.31203,0.15913a4.29643,3.55383 -7.2 0 1 3.71296,2.33386q3.81905,10.025 -7.69113,9.17632q-8.06243,-0.58347 -2.86428,5.67553q7.2668,8.75198 -4.08426,10.60846a3.81905,3.39471 70.9 0 1 -3.766,-2.12169q-5.19815,-10.76759 -10.6615,-0.26521a4.5086,3.65992 -71.4 0 1 -3.766,2.3869q-7.2668,-0.63651 -5.67553,-8.00939q0.31825,-1.43214 1.96257,-4.24338q3.60688,-6.25899 -5.67553,-3.65992a4.34947,4.34947 -16.2 0 1 -5.35727,-2.91733q-3.18254,-10.87367 8.11547,-9.44153a3.23558,2.12169 4.7 0 0 3.55383,-1.96257q0,-2.33386 -2.70516,-5.62248a4.72076,4.66772 -37.5 0 1 0.90172,-6.73637q6.78941,-4.87989 10.23716,2.81124q2.91733,6.41812 6.73637,0.47738q7.10767,-10.92671 12.0406,-0.26521a5.67553,2.7582 -53.9 0 1 -0.79563,4.40251l-2.43995,4.40251a2.12169,1.85648 14.1 0 0 1.90952,2.81124z" fill="#d1d2d3"/>
  </g>
 </g>
</svg>