<svg width="256" height="256" xmlns="http://www.w3.org/2000/svg" version="1.1">
 <title>227</title>

 <g>
  <title>Layer 1</title>
  <g id="svg_6">
   <path id="svg_1" d="m173.83895,174.59517q-57.30853,1.03073 -114.61706,-0.5669q-21.54223,-0.5669 -31.74645,-8.03969q-16.23398,-11.90492 -14.73942,-34.37481q0.72151,-10.71958 5.72055,-18.2439q5.56594,-8.3489 14.94557,-13.2964a10.10114,10.04961 87.4 0 0 4.63828,-5.10211q13.09026,-32.72564 51.17569,-38.0339a6.33898,6.28745 11.2 0 0 4.58674,-3.04065q19.99614,-34.42635 55.81397,-34.52942q27.10817,-0.05154 44.83671,16.33705q17.72854,16.38859 23.03679,46.17666a9.53424,9.22502 -77.9 0 0 3.8137,6.0813q15.9763,11.33802 20.45997,27.93275q4.3806,16.33705 -3.04065,32.21028q-9.84346,21.18148 -36.53934,25.40747q-4.27752,0.66997 -28.34505,1.08227zm27.72661,-81.22144q2.21607,-20.20229 -7.62739,-35.50861q-9.01888,-14.01791 -27.21124,-19.99614q-40.14689,-13.24487 -64.26595,33.13793a5.20518,5.20518 -71.4 0 1 -5.46286,2.73143q-33.75637,-5.66901 -46.89817,34.27174a5.56594,5.46286 -87 0 1 -4.07138,3.71062q-4.74135,1.08227 -8.70966,3.8137q-3.55601,2.42221 -5.97823,6.95742q-9.01888,17.1101 2.21607,28.44812q7.00896,7.06049 22.57296,7.57586q69.31652,2.31914 138.63304,-0.10307q12.47182,-0.41229 19.12002,-4.3806q10.20422,-5.97823 12.78104,-16.59474q7.52432,-30.81879 -22.98525,-40.76533a3.14372,3.04065 13.1 0 1 -2.11299,-3.29833z" fill="#929497"/>
   <path id="svg_2" d="m203.67856,96.67206q30.50958,9.94653 22.98525,40.76533q-2.57682,10.61651 -12.78104,16.59474q-6.6482,3.96831 -19.12002,4.3806q-69.31652,2.42221 -138.63304,0.10307q-15.56401,-0.51536 -22.57296,-7.57586q-11.23495,-11.33802 -2.21607,-28.44812q2.42221,-4.53521 5.97823,-6.95742q3.96831,-2.73143 8.70966,-3.8137a5.56594,5.46286 -87 0 0 4.07138,-3.71062q13.14179,-39.94075 46.89817,-34.27174a5.20518,5.20518 -71.4 0 0 5.46286,-2.73143q24.11906,-46.3828 64.26595,-33.13793q18.19237,5.97823 27.21124,19.99614q9.84346,15.30632 7.62739,35.50861a3.14372,3.04065 13.1 0 0 2.11299,3.29833z" fill="#e6e7e8"/>
   <path id="svg_3" d="m76.8989,220.51414q-10.87419,0.72151 -9.01888,-9.37963a2.93758,2.73143 7.9 0 1 3.14372,-2.21607q13.96638,1.1338 5.61747,-9.27656a3.65909,2.93758 46.1 0 1 -0.36076,-4.12292q2.21607,-2.8345 5.77208,-3.45294a4.01984,3.2468 68.6 0 1 3.71062,2.11299q5.30825,9.68885 11.13187,-0.05154a3.76216,3.19526 -65.6 0 1 3.71062,-1.75224q10.51343,2.57682 2.31914,12.11106q-4.12292,4.84443 2.11299,3.65909q13.76023,-2.52529 8.96734,9.12195a3.50448,3.14372 14.2 0 1 -3.60755,1.90685q-12.7295,-1.49456 -5.25672,7.782a4.07138,3.65909 41.1 0 1 0.51536,4.27752q-6.28745,11.33802 -11.64724,-1.1338q-2.42221,-5.61747 -5.46286,-0.30922q-7.47278,13.14179 -11.85338,0.30922a5.87515,1.7007 -60.5 0 1 1.03073,-4.3806l1.44302,-2.98911a2.06146,1.59763 6.9 0 0 -2.2676,-2.21607z" fill-opacity="0.996" fill="#d1d2d1"/>
   <rect id="svg_4" rx="0.55" height="2.44" width="13.46" transform="matrix(5.15357, 0.0269843, -0.0269843, 5.15357, -38.9347, -71.0164)" y="51.79744" x="33.5942" fill-opacity="0.996" fill="#d1d2d1"/>
   <rect id="svg_5" rx="0.55" height="2.38" width="10.94" transform="matrix(5.15326, 0.0629621, -0.0629621, 5.15326, -36.7633, -72.3488)" y="56.10349" x="33.58759" fill-opacity="0.996" fill="#d1d2d1"/>
  </g>
 </g>
</svg>