<svg width="256" height="256" xmlns="http://www.w3.org/2000/svg" version="1.1">
 <title>317</title>

 <g>
  <title>Layer 1</title>
  <g id="svg_6">
   <path id="svg_1" d="m133.85528,175.40426q-38.6535,1.32557 -77.20095,-0.68929q-24.01925,-1.27254 -34.57076,-10.02128q-18.0277,-14.89936 -11.08173,-44.16785q3.07531,-12.99054 20.94394,-23.22391a7.63526,7.52921 85.7 0 0 3.18136,-3.76461q12.51334,-31.28335 52.59845,-39.71395a8.11246,7.95339 -77.8 0 0 4.98413,-3.2874q19.14117,-27.51875 46.3948,-33.13915q27.20061,-5.6204 51.0608,10.23337q25.87504,17.23236 29.37454,53.12868a6.0976,6.04458 -74.6 0 0 2.38602,4.24181q40.56231,30.27592 15.32354,69.24756q-7.68828,11.77102 -18.29281,16.43702q-8.4306,3.71158 -17.92165,4.08274q-14.31611,0.53023 -14.89936,0.58325q-13.09659,1.21952 -26.19318,0.58325q-17.39142,-0.79534 -26.08714,-0.53023zm69.56569,-83.35158q2.333,-36.05539 -23.01182,-51.96218q-20.73185,-12.99054 -44.06181,-5.83249q-24.76157,7.68828 -34.99494,35.41912a3.2874,3.23438 -76.2 0 1 -3.44647,2.12091q-37.43398,-4.55995 -50.10639,35.31307a5.77947,5.56738 -2.7 0 1 -3.39345,3.60554q-28.36711,10.81662 -16.11888,38.38839q4.08274,9.17292 14.10402,9.5971q76.51166,3.02229 154.13679,0.31814q12.8845,-0.42418 19.72442,-4.50692q10.49848,-6.15063 13.14961,-17.07329q7.7413,-31.70753 -23.64809,-41.9409a3.44647,3.39345 11.2 0 1 -2.333,-3.44647z" fill="#929497"/>
   <path id="svg_2" d="m205.75397,95.49915q31.3894,10.23337 23.64809,41.9409q-2.65113,10.92266 -13.14961,17.07329q-6.83992,4.08274 -19.72442,4.50692q-77.62513,2.70415 -154.13679,-0.31814q-10.02128,-0.42418 -14.10402,-9.5971q-12.24823,-27.57177 16.11888,-38.38839a5.77947,5.56738 -2.7 0 0 3.39345,-3.60554q12.67241,-39.87302 50.10639,-35.31307a3.2874,3.23438 -76.2 0 0 3.44647,-2.12091q10.23337,-27.73084 34.99494,-35.41912q23.32996,-7.15806 44.06181,5.83249q25.34482,15.90679 23.01182,51.96218a3.44647,3.39345 11.2 0 0 2.333,3.44647z" fill="#e6e7e8"/>
   <path id="svg_3" d="m73.99273,195.44682q3.87065,-7.68828 13.78588,-3.49949a2.75718,2.65113 23.9 0 1 1.48463,3.60554l-19.88349,40.66836a6.15063,5.40831 4.6 0 1 -3.9767,2.96927q-18.71699,4.24181 -9.06687,-11.87707q9.38501,-15.64168 17.65654,-31.8666z" fill-opacity="0.996" fill="#1e87e7"/>
   <path id="svg_4" d="m105.80631,195.44682q4.98413,-6.99899 13.78588,-3.44647a2.65113,2.54509 24.1 0 1 1.43161,3.55252l-20.1486,40.35022a6.36272,5.40831 3.7 0 1 -3.9767,2.96927q-16.59608,4.13577 -9.54407,-7.84735q3.55252,-6.04458 4.4539,-7.84735q10.81662,-23.32996 13.99798,-27.73084z" fill-opacity="0.996" fill="#1e87e7"/>
   <path id="svg_5" d="m167.41861,209.55084q14.051,-1.96184 9.65012,9.91523a3.55252,3.23438 12.2 0 1 -3.65856,2.12091q-13.09659,-1.43161 -5.40831,8.00642a4.08274,3.71158 40.5 0 1 0.53023,4.34786q-6.46876,11.66498 -11.98311,-1.1665q-2.54509,-5.88551 -5.67342,-0.26511q-7.05201,12.61939 -12.03614,0.21209a5.1432,4.40088 -40.4 0 1 0.74232,-4.55995q6.25667,-8.32455 -4.34786,-6.41574a4.4539,4.02972 -21.4 0 1 -4.24181,-1.59068q-7.2641,-10.28639 6.94596,-9.96825a3.23438,2.65113 3.1 0 0 3.2874,-2.38602q0.21209,-2.54509 -1.48463,-4.87808a5.35529,3.81763 41.6 0 1 -1.00743,-4.40088q3.49949,-9.17292 10.33941,-0.74232q5.30226,6.62783 9.27896,-0.63627a4.34786,3.49949 -70.5 0 1 3.71158,-2.27997q12.46032,0.90138 4.24181,13.04357q-1.32557,2.01486 1.11348,1.6437z" fill="#d0d2d3"/>
  </g>
 </g>
</svg>