<svg width="256" height="256" xmlns="http://www.w3.org/2000/svg" version="1.1">
 <title>182</title>

 <g>
  <title>Layer 1</title>
  <g id="svg_14">
   <rect id="svg_1" rx="0.28" height="4.98" width="2.84" transform="matrix(4.34303, 0.0454817, -0.0454817, 4.34303, -15.2828, -31.1003)" y="11.33612" x="22.60639" fill="#ffb100"/>
   <rect id="svg_2" rx="0.51" height="5.1" width="2.88" transform="matrix(3.74228, -2.20437, 2.20437, 3.74228, -36.7678, 10.7508)" y="13.82154" x="13.56398" fill="#ffb100"/>
   <rect id="svg_3" rx="0.77" height="5.06" width="2.9" transform="matrix(3.73069, 2.22394, -2.22394, 3.73069, 32.7304, -88.3492)" y="12.25237" x="31.04845" fill="#ffb100"/>
   <rect id="svg_4" rx="0.53" height="2.92" width="5.04" transform="matrix(3.7229, 2.23695, -2.23695, 3.7229, 32.6901, -39.0604)" y="18.83343" x="9.35263" fill="#ffb100"/>
   <path id="svg_5" d="m124.61503,71.47445l-6.5149,9.77234q-1.43328,-0.39089 -2.77969,-0.91209q-1.17268,-0.52119 -2.1282,-1.73731q-7.34012,-9.46832 -18.06798,-12.33487q-9.64205,-2.51909 -20.02245,2.95342q-30.79374,16.15694 -6.94922,50.77276l-10.68443,7.77444q-14.02874,-16.59127 -12.16114,-35.7885q1.73731,-17.45992 17.0256,-29.92509q29.49076,-24.10512 62.28241,9.42488z" fill="#ffb100"/>
   <path id="svg_6" d="m57.46817,127.76316l10.68443,-7.77444q2.90999,-2.04133 4.29983,-5.42908q10.3804,-25.62526 38.04699,-29.1433q5.90684,-0.73835 7.60071,-4.16953l6.5149,-9.77234q31.09777,-30.66344 68.14581,-11.85711q26.84137,13.63785 29.18673,46.73352a4.60386,4.51699 -73.7 0 0 1.82417,3.38775q32.35732,24.14855 13.63785,55.02916q-6.90579,11.46622 -18.02455,15.76605q-9.16429,3.56148 -19.41439,3.30088q-10.59756,-0.2606 -11.20562,-0.2606q-51.46768,1.43328 -102.89193,-0.2606q-14.24591,-0.47776 -22.54154,-6.16744q-25.0172,-17.19933 -5.86341,-49.38291zm151.27589,-12.16114q1.9979,-22.28095 -11.24905,-36.13596q-12.20457,-12.72576 -31.61896,-12.98636q-29.05644,-0.39089 -40.30549,31.2715a2.56253,2.56253 -86.7 0 1 -2.82312,1.69387q-34.09462,-4.82102 -40.91355,28.66554a3.34431,3.17058 -1.5 0 1 -2.51909,2.51909q-9.59861,2.17163 -14.28934,9.55518q-4.90789,7.68758 -1.9979,17.0256q4.2564,13.63785 21.41229,13.98531q49.94754,0.95552 115.0965,-0.73835q14.8974,-0.39089 22.23751,-6.2543q15.50545,-12.33487 4.64729,-35.09357q-3.30088,-6.90579 -15.85291,-10.7713a2.64939,2.56253 12 0 1 -1.82417,-2.73626z" fill="#929497"/>
   <path id="svg_7" d="m118.10014,81.2468q-1.69387,3.43118 -7.60071,4.16953q-27.66659,3.51804 -38.04699,29.1433q-1.38984,3.38775 -4.29983,5.42908q-23.84452,-34.61582 6.94922,-50.77276q10.3804,-5.47251 20.02245,-2.95342q10.72786,2.86655 18.06798,12.33487q0.95552,1.21611 2.1282,1.73731q1.34641,0.52119 2.77969,0.91209z" fill="#fff100"/>
   <path id="svg_8" d="m210.56823,118.33827q12.55203,3.86551 15.85291,10.7713q10.85816,22.7587 -4.64729,35.09357q-7.34012,5.86341 -22.23751,6.2543q-65.14896,1.69387 -115.0965,0.73835q-17.15589,-0.34746 -21.41229,-13.98531q-2.90999,-9.33802 1.9979,-17.0256q4.69073,-7.38355 14.28934,-9.55518a3.34431,3.17058 -1.5 0 0 2.51909,-2.51909q6.81892,-33.48657 40.91355,-28.66554a2.56253,2.56253 -74.9 0 0 2.82312,-1.69387q11.24905,-31.6624 40.30549,-31.2715q19.41439,0.2606 31.61896,12.98636q13.24696,13.85501 11.24905,36.13596a2.64939,2.56253 12 0 0 1.82417,2.73626z" fill="#e6e7e8"/>
   <rect id="svg_9" rx="0.34" height="2.78" width="4.98" transform="matrix(4.34303, -0.0454817, 0.0454817, 4.34303, -17.0197, -29.7468)" y="27.57926" x="6.32732" fill="#ffb100"/>
   <rect id="svg_10" rx="0.65" height="2.86" width="5.02" transform="matrix(3.73457, -2.21742, 2.21742, 3.73457, -86.1617, 11.2375)" y="35.65212" x="6.88413" fill="#ffb100"/>
   <path id="svg_11" d="m102.59468,200.2088q2.47566,-4.77759 11.16219,-2.34536a1.9979,1.91104 20.7 0 1 1.30298,2.69282l-16.24381,33.09567a4.90789,4.2564 3.9 0 1 -3.21402,2.43223q-13.63785,3.08372 -8.07847,-6.64519q3.30088,-5.73311 3.69177,-6.60176q5.47251,-11.42278 11.37935,-22.62841z" fill-opacity="0.996" fill="#1f87e6"/>
   <path id="svg_12" d="m133.43186,197.25538q3.17058,-0.95552 6.55833,0.21716a2.17163,2.04133 -69.2 0 1 1.17268,2.86655q-6.5149,15.33172 -14.46307,30.01196q-2.60596,4.86446 -5.86341,5.95027q-3.77864,1.25955 -7.47041,-0.86865a2.60596,2.34536 -62.3 0 1 -0.82522,-3.25745q7.12295,-14.98426 15.24486,-29.44733q2.47566,-4.47356 5.64624,-5.47251z" fill-opacity="0.996" fill="#1f87e6"/>
   <path id="svg_13" d="m179.16643,211.80532q11.50965,-1.60701 7.90474,8.1219a2.82312,2.56253 13.1 0 1 -2.95342,1.65044q-10.03294,-1.38984 -4.3867,6.5149a3.95237,3.21402 43.5 0 1 0.47776,3.73521q-3.60491,7.29668 -9.46832,-0.30403q-4.51699,-5.86341 -6.73206,1.34641a2.90999,2.56253 -78.1 0 1 -2.73626,2.04133q-10.16324,-0.73835 -4.2564,-9.81578a2.30193,1.91104 -59.3 0 0 -0.47776,-3.08372q-1.69387,-0.82522 -3.77864,-0.43433a3.64834,2.73626 -19.3 0 1 -3.38775,-1.08582q-6.34117,-9.33802 6.47146,-8.5128a1.78074,1.43328 -6.3 0 0 1.91104,-1.91104l-1.73731,-4.2564a4.69073,2.34536 60 0 1 -0.21716,-3.69177q5.16848,-8.2522 10.46727,1.60701a1.65044,1.56358 52.9 0 0 2.56253,0.43433l2.99685,-3.30088a4.51699,3.34431 -59.4 0 1 3.51804,-1.47671q9.59861,1.52014 2.99685,11.03189q-1.17268,1.69387 0.82522,1.38984z" fill="#d0d2d3"/>
  </g>
 </g>
</svg>