<svg width="256" height="256" xmlns="http://www.w3.org/2000/svg" version="1.1">
 <title>185</title>

 <g>
  <title>Layer 1</title>
  <g id="svg_7">
   <path id="svg_1" d="m22.62809,114.74299q3.16542,-5.4629 13.07012,-11.48741a7.81144,7.70933 -4.7 0 0 3.16542,-3.67597q13.73383,-34.00272 50.74881,-37.57658a5.0034,4.95235 12 0 0 3.82914,-2.45065q13.58067,-23.28114 37.01498,-31.14364q23.02587,-7.76038 45.03063,1.4806q31.96052,13.37645 41.86522,56.87543a13.17223,13.12117 -78.8 0 0 5.05446,7.60722q14.39755,10.26208 18.48196,25.98707q3.88019,14.9081 -2.14432,29.8162q-5.97345,14.65283 -19.9115,22.26004q-9.4452,5.10551 -27.774,5.4629q-67.23962,1.27638 -134.47924,-0.25528q-16.8482,-0.40844 -26.65078,-7.04561q-28.48877,-19.40095 -7.30089,-55.85432zm178.2335,-16.59292q2.24643,-34.7175 -22.15793,-50.03404q-19.96256,-12.50851 -42.42682,-5.61607q-23.84275,7.403 -33.69639,34.10483a3.16542,3.11436 -76.2 0 1 -3.31858,2.04221q-36.04493,-4.39074 -48.29816,34.258a5.05446,5.05446 -89.4 0 1 -3.31858,3.26753q-22.15793,6.99455 -18.3288,29.61198q2.75698,15.9292 18.8904,16.59292q72.0388,2.85909 146.06876,0.25528q12.35534,-0.40844 18.94146,-4.33969q10.10892,-5.9224 12.66167,-16.43976q7.45405,-30.53097 -22.77059,-40.38462a3.31858,3.26753 11.2 0 1 -2.24643,-3.31858z" fill="#929497"/>
   <path id="svg_2" d="m203.10801,101.46865q30.22464,9.85364 22.77059,40.38462q-2.55276,10.51736 -12.66167,16.43976q-6.58611,3.93125 -18.94146,4.33969q-74.02995,2.60381 -146.06876,-0.25528q-16.13342,-0.66372 -18.8904,-16.59292q-3.82914,-22.61743 18.3288,-29.61198a5.05446,5.05446 -89.4 0 0 3.31858,-3.26753q12.25323,-38.64874 48.29816,-34.258a3.16542,3.11436 -76.2 0 0 3.31858,-2.04221q9.85364,-26.70184 33.69639,-34.10483q22.46426,-6.89244 42.42682,5.61607q24.40436,15.31654 22.15793,50.03404a3.31858,3.26753 11.2 0 0 2.24643,3.31858z" fill="#e6e7e8"/>
   <path id="svg_3" d="m76.49126,228.23857q-1.42954,3.06331 -3.16542,-0.15317l-9.80259,-18.43091a3.11436,2.60381 73.5 0 1 1.9401,-4.49285l18.78829,-0.10211a2.14432,1.9401 -76.5 0 1 1.63376,3.01225l-9.39415,20.16678z" fill-opacity="0.996" fill="#dededf"/>
   <path id="svg_4" d="m101.30406,208.58234a6.84139,5.05446 2.4 0 1 4.49285,-3.06331q14.34649,-3.06331 8.67937,6.84139q-3.62491,6.33084 -5.76923,13.32539q-2.5017,8.32199 -14.49966,3.93125a2.65487,2.39959 23.1 0 1 -1.53165,-3.36964l8.62832,-17.66508z" fill-opacity="0.996" fill="#dededf"/>
   <path id="svg_5" d="m130.25232,211.33932q1.4806,-2.80803 3.82914,-4.95235q2.19537,-2.09326 5.51396,-2.39959q14.4486,-1.4806 5.66712,11.33424q-3.57386,5.15657 -6.58611,10.72158a5.97345,5.4629 -81.7 0 1 -3.62491,2.9612q-18.68618,4.79918 -9.18993,-9.70048q0.61266,-0.91899 4.39074,-7.9646z" fill-opacity="0.996" fill="#dededf"/>
   <path id="svg_6" d="m161.08963,210.06294q4.64602,-8.27093 15.87815,-5.4629a2.55276,2.55276 -66.6 0 1 1.53165,3.88019q-3.88019,6.07556 -6.27978,13.12117q-4.18652,12.55956 -16.3887,7.76038a2.80803,2.75698 -70.9 0 1 -1.63376,-3.47175q2.60381,-8.21988 6.89244,-15.82709z" fill-opacity="0.996" fill="#dededf"/>
  </g>
 </g>
</svg>