<svg width="256" height="256" xmlns="http://www.w3.org/2000/svg" version="1.1">
 <title>281</title>

 <g>
  <title>Layer 1</title>
  <g id="svg_7">
   <path id="svg_1" d="m19.86504,114.39536q3.24842,-5.60615 13.41284,-11.78863a8.01627,7.91148 -4.7 0 0 3.24842,-3.77236q14.09396,-34.89434 52.07954,-38.56191a5.1346,5.08221 12 0 0 3.92954,-2.51491q13.93678,-23.89162 37.98558,-31.96028q23.62965,-7.96387 46.21142,1.51942q32.79858,13.7272 42.963,58.3668a13.51763,13.46523 -78.8 0 0 5.187,7.80669q14.77508,10.53117 18.96659,26.6685q3.98194,15.29902 -2.20054,30.59804q-6.13009,15.03705 -20.43362,22.84374q-9.69287,5.23939 -28.50228,5.60615q-69.00277,1.30985 -138.00553,-0.26197q-17.28999,-0.41915 -27.34962,-7.23036q-29.2358,-19.90968 -7.49233,-57.31893zm182.90711,-17.02802q2.30533,-35.62785 -22.73895,-51.34602q-20.48601,-12.83651 -43.53933,-5.76333q-24.46795,7.59712 -34.57997,34.99913a3.24842,3.19603 -76.2 0 1 -3.4056,2.09576q-36.99009,-4.50588 -49.56463,35.15631a5.187,5.187 -89.4 0 1 -3.4056,3.35321q-22.73895,7.17796 -18.80941,30.38846q2.82927,16.3469 19.38574,17.02802q73.92779,2.93406 149.89895,0.26197q12.67932,-0.41915 19.43814,-4.45348q10.37399,-6.07769 12.99369,-16.87084q7.64951,-31.33155 -23.36768,-41.44358a3.4056,3.35321 11.2 0 1 -2.30533,-3.4056z" fill="#929497"/>
   <path id="svg_2" d="m205.07747,100.77295q31.01719,10.11202 23.36768,41.44358q-2.6197,10.79314 -12.99369,16.87084q-6.75881,4.03433 -19.43814,4.45348q-75.97116,2.67209 -149.89895,-0.26197q-16.55647,-0.68112 -19.38574,-17.02802q-3.92954,-23.2105 18.80941,-30.38846a5.187,5.187 -89.4 0 0 3.4056,-3.35321q12.57454,-39.66218 49.56463,-35.15631a3.24842,3.19603 -76.2 0 0 3.4056,-2.09576q10.11202,-27.40201 34.57997,-34.99913q23.05332,-7.07318 43.53933,5.76333q25.04428,15.71817 22.73895,51.34602a3.4056,3.35321 11.2 0 0 2.30533,3.4056z" fill="#e6e7e8"/>
   <path id="svg_3" d="m75.1406,230.867q-1.46703,3.14363 -3.24842,-0.15718l-10.05963,-18.9142a3.19603,2.67209 73.5 0 1 1.99097,-4.61066l19.28096,-0.10479a2.20054,1.99097 -76.5 0 1 1.6766,3.09124l-9.64048,20.69559z" fill-opacity="0.996" fill="#dededf"/>
   <path id="svg_4" d="m100.60404,210.69535a7.02078,5.187 2.4 0 1 4.61066,-3.14363q14.72269,-3.14363 8.90696,7.02078q-3.71997,6.49684 -5.92051,13.67481q-2.5673,8.54021 -14.87987,4.03433a2.72448,2.46251 23.1 0 1 -1.57182,-3.458l8.85457,-18.12829z" fill-opacity="0.996" fill="#dededf"/>
   <path id="svg_5" d="m130.31138,213.52462q1.51942,-2.88166 3.92954,-5.08221q2.25294,-2.14815 5.65854,-2.46251q14.82747,-1.51942 5.81572,11.63145q-3.66757,5.29178 -6.75881,11.00272a6.13009,5.60615 -81.7 0 1 -3.71997,3.03885q-19.17617,4.92503 -9.4309,-9.95484q0.62873,-0.94309 4.50588,-8.17345z" fill-opacity="0.996" fill="#dededf"/>
   <path id="svg_6" d="m161.95729,212.21477q4.76784,-8.48781 16.2945,-5.60615a2.6197,2.6197 -66.6 0 1 1.57182,3.98194q-3.98194,6.23487 -6.44445,13.46523q-4.2963,12.8889 -16.81844,7.96387a2.88166,2.82927 -70.9 0 1 -1.6766,-3.56279q2.67209,-8.43542 7.07318,-16.24211z" fill-opacity="0.996" fill="#dededf"/>
  </g>
 </g>
</svg>