<svg width="256" height="256" xmlns="http://www.w3.org/2000/svg" version="1.1">
 <title>392</title>

 <g>
  <title>Layer 1</title>
  <g id="svg_13">
   <rect id="svg_1" rx="0.28" height="4.98" width="2.84" transform="matrix(4.54108, 0.0475558, -0.0475558, 4.54108, -16.2811, -32.8714)" y="10.18768" x="21.32776" fill="#feb001"/>
   <rect id="svg_2" rx="0.48" height="5.1" width="2.84" transform="matrix(3.89675, -2.33216, 2.33216, 3.89675, -38.852, 11.5054)" y="12.16539" x="13.07412" fill="#feb001"/>
   <rect id="svg_3" rx="0.79" height="5.08" width="2.92" transform="matrix(3.89268, 2.33896, -2.33896, 3.89268, 34.35, -93.0277)" y="11.88991" x="29.35864" fill="#feb001"/>
   <rect id="svg_4" rx="0.61" height="2.92" width="5.1" transform="matrix(3.89675, 2.33216, -2.33216, 3.89675, 33.6819, -41.1922)" y="18.48144" x="7.62716" fill="#feb001"/>
   <path id="svg_5" d="m123.29089,68.92331q-2.22525,6.35786 -6.81199,11.35331q-21.2534,-26.56675 -44.91371,-13.21526q-14.12352,7.94732 -16.34877,22.97911q-2.31608,15.80381 8.85558,30.1544l-10.21798,6.81199q-19.70935,-24.84105 -9.85468,-48.45594q9.12806,-21.84378 32.37965,-28.06539q25.93097,-6.94823 46.91189,18.43778z" fill="#feb001"/>
   <path id="svg_6" d="m184.41713,186.81612l4.72298,-12.30699q9.03724,-1.0445 18.11989,-1.7257q9.99092,-0.77203 15.03179,-3.49682q8.08356,-4.4505 10.67211,-12.07993q8.76476,-26.15803 -17.30245,-38.3742a4.85922,4.85922 -79.2 0 1 -2.77021,-4.08719q-1.63488,-27.0663 -16.57584,-40.50862q-15.39509,-13.89646 -37.82924,-9.53678q-24.11444,4.63215 -33.28792,31.8801a2.63397,2.58856 -76.9 0 1 -2.86103,1.81653q-36.05812,-4.8138 -43.36966,30.42688a3.63306,3.54223 -1.4 0 1 -2.67938,2.7248q-12.26158,3.04269 -15.98547,13.21526q-3.95095,10.80835 2.81562,19.43687q6.99364,8.901 22.52497,9.17348q38.60127,0.6812 77.20253,-0.95368l-5.67666,14.396q-35.14986,0.40872 -70.2543,-0.54496q-16.71208,-0.45413 -26.15803,-6.53951q-26.97547,-17.34786 -6.90281,-52.72479l10.21798,-6.81199q3.04269,-0.99909 4.8138,-5.58583q10.39964,-26.83923 40.59945,-30.92643q5.94914,-0.81744 6.99364,-3.40599q4.58674,-4.99546 6.81199,-11.35331q36.42143,-33.74205 76.7484,-9.9455q22.70663,13.39691 25.29518,43.41507q0.40872,4.49591 2.45232,6.72116q1.7257,1.90736 3.99637,3.22434q2.90645,1.68029 4.13261,2.90645q23.52407,23.75113 7.26612,52.17983q-5.495,9.5822 -17.02997,14.89555q-7.44777,3.45141 -20.48138,3.86013q-10.6267,0.31789 -21.2534,0.63579z" fill="#333333"/>
   <path id="svg_7" d="m116.4789,80.27662q-1.0445,2.58856 -6.99364,3.40599q-30.19981,4.08719 -40.59945,30.92643q-1.77112,4.58674 -4.8138,5.58583q-11.17166,-14.35059 -8.85558,-30.1544q2.22525,-15.03179 16.34877,-22.97911q23.66031,-13.3515 44.91371,13.21526z" fill="#fff100"/>
   <path id="svg_8" d="m189.14011,174.50913q-15.53133,0.22707 -9.2643,-7.94732q3.63306,-4.72298 6.03996,-10.17257q6.13079,-14.07811 -6.8574,-9.80926a7.99273,7.26612 -82.5 0 0 -4.22343,3.58765l-11.9891,22.25249q-38.60127,1.63488 -77.20253,0.95368q-15.53133,-0.27248 -22.52497,-9.17348q-6.76657,-8.62852 -2.81562,-19.43687q3.72389,-10.17257 15.98547,-13.21526a3.63306,3.54223 -1.4 0 0 2.67938,-2.7248q7.31153,-35.24069 43.36966,-30.42688a2.63397,2.58856 -76.9 0 0 2.86103,-1.81653q9.17348,-27.24795 33.28792,-31.8801q22.43415,-4.35967 37.82924,9.53678q14.94096,13.44232 16.57584,40.50862a4.85922,4.85922 -79.2 0 0 2.77021,4.08719q26.06721,12.21617 17.30245,38.3742q-2.58856,7.62943 -10.67211,12.07993q-5.04087,2.7248 -15.03179,3.49682q-9.08265,0.6812 -18.11989,1.7257z" fill="#808285"/>
   <rect id="svg_9" rx="0.32" height="2.76" width="5" transform="matrix(4.54115, 0.03963, -0.03963, 4.54115, -15.7774, -32.0912)" y="26.41825" x="5.0857" fill="#feb001"/>
   <rect id="svg_10" rx="0.57" height="2.86" width="5.06" transform="matrix(3.89675, -2.33216, 2.33216, 3.89675, -90.7477, 11.841)" y="33.99539" x="6.38412" fill="#feb001"/>
   <path id="svg_11" d="m189.14011,174.50913l-4.72298,12.30699l-6.26703,10.12716q-3.45141,5.58583 3.49682,4.04178q9.67302,-2.13442 6.31244,4.40509q-7.72025,14.98637 -14.35059,30.47229q-3.13351,7.40236 -13.89646,5.22252a3.04269,2.90645 -69.8 0 1 -1.90736,-4.40509l9.80926,-18.1653q2.7248,-4.99546 -3.04269,-3.95095q-11.03542,1.95277 -5.1317,-7.12988q3.26975,-4.99546 8.2198,-17.16621a2.0436,1.7257 -75.1 0 0 -1.27157,-2.77021l-9.21889,-0.6812l5.67666,-14.396l11.9891,-22.25249a7.99273,7.26612 -82.5 0 1 4.22343,-3.58765q12.98819,-4.26885 6.8574,9.80926q-2.4069,5.44959 -6.03996,10.17257q-6.26703,8.17439 9.2643,7.94732z" fill="#feb001"/>
   <path id="svg_12" d="m126.78771,215.83519q12.03451,-1.68029 8.26521,8.49228a2.95186,2.67938 13.1 0 1 -3.0881,1.7257q-10.49046,-1.45322 -4.58674,6.81199a3.99637,3.40599 42.7 0 1 0.45413,3.90554q-4.26885,8.26521 -9.21889,-0.59037q-3.26975,-5.76748 -7.85649,2.13442a3.99637,3.99637 -68 0 1 -4.35967,1.86194q-8.35604,-2.08901 -2.67938,-10.08174q2.90645,-4.13261 -6.4941,-4.26885a3.81471,3.81471 6.3 0 1 -3.67847,-4.58674q1.27157,-6.31244 8.03815,-5.22252a2.31608,1.95277 6.9 0 0 2.63397,-1.7257q0.18165,-3.04269 -1.90736,-5.54042a2.99727,2.49773 45.2 0 1 -0.31789,-3.45141q5.99455,-7.62943 10.76294,1.45322a2.27066,1.7257 56.5 0 0 2.99727,1.0445l4.13261,-3.86013a4.17802,2.36149 -50.1 0 1 3.40599,-1.27157q9.12806,3.04269 2.67938,11.80745q-1.27157,1.68029 0.81744,1.3624z" fill="#d0d2d3"/>
  </g>
 </g>
</svg>