<svg width="256" height="256" xmlns="http://www.w3.org/2000/svg" version="1.1">

 <g>
  <title>Layer 1</title>
  <g id="svg_11">
   <rect id="svg_1" rx="0.28" height="4.98" width="2.84" transform="matrix(4.47976, 0.0469137, -0.0469137, 4.47976, -15.9879, -32.3627)" y="16.53531" x="21.8657" fill="#ffb101"/>
   <rect id="svg_2" rx="0.49" height="5.1" width="2.86" transform="matrix(3.84815, -2.29396, 2.29396, 3.84815, -38.2226, 11.261)" y="17.86427" x="10.21816" fill="#ffb101"/>
   <rect id="svg_3" rx="0.77" height="5.06" width="2.9" transform="matrix(3.84815, 2.29396, -2.29396, 3.84815, 33.5369, -91.4141)" y="17.11847" x="33.02358" fill="#ffb101"/>
   <rect id="svg_4" rx="0.53" height="2.92" width="5.04" transform="matrix(3.86802, 2.26029, -2.26029, 3.86802, 32.3423, -40.6906)" y="23.7478" x="11.28045" fill="#ffb101"/>
   <path id="svg_5" d="m124.75234,96.69778l-10.08001,13.44002q-2.7328,-9.94561 -10.34881,-14.47042q-16.03842,-9.49761 -29.97124,-2.5984q-12.67842,6.27201 -17.06882,20.42883q-5.33121,17.11362 9.22881,32.48005q-4.52481,5.60001 -11.02082,8.78081q-22.17603,-29.34404 -7.07841,-54.34248q11.82722,-19.62243 33.86885,-22.71363q23.96803,-3.4048 42.47046,18.99523z" fill="#ffb101"/>
   <path id="svg_6" d="m55.49144,154.75866q6.49601,-3.1808 11.02082,-8.78081q2.2848,-1.2096 3.62881,-4.39041q12.36482,-28.62724 44.53126,-31.44964l10.08001,-13.44002q11.33442,-11.24482 25.80484,-16.08322q14.29122,-4.74881 29.29924,-1.2992q36.24325,8.28801 45.78566,53.17767a9.13921,9.04961 -77.8 0 0 3.36,5.28641q26.70084,20.47363 15.32162,51.43047q-5.19681,14.06722 -19.48803,19.62243q-7.57121,2.912 -25.84964,3.5392q-57.07528,1.8816 -114.19536,-0.2688q-14.69442,-0.5376 -23.29603,-6.45121q-25.71524,-17.74082 -6.00321,-50.89287zm21.95203,3.4496q-9.09441,1.9712 -13.93282,8.82561q-5.15201,7.30241 -2.5088,16.53122q4.48001,15.72482 25.67044,15.99362q60.03208,0.7616 120.01937,-0.896q9.58721,-0.2688 14.73922,-3.0912q7.84001,-4.25601 10.57281,-11.96162q8.78081,-25.08803 -18.00962,-38.57285a3.98721,3.98721 -76.2 0 1 -2.1952,-3.62881q0.224,-24.81923 -14.20162,-38.16965q-21.86243,-20.16003 -49.05607,-7.57121q-16.12802,7.48161 -23.34083,27.59684a2.8672,2.8224 13 0 1 -2.9568,1.8368q-35.25765,-3.62881 -42.15686,30.50884a3.4048,3.3152 -0.1 0 1 -2.6432,2.5984z" fill="#d1d2d2"/>
   <path id="svg_7" d="m114.67233,110.1378q-32.16644,2.8224 -44.53126,31.44964q-1.344,3.1808 -3.62881,4.39041q-14.56002,-15.36642 -9.22881,-32.48005q4.39041,-14.15682 17.06882,-20.42883q13.93282,-6.89921 29.97124,2.5984q7.61601,4.52481 10.34881,14.47042z" fill="#fff100"/>
   <path id="svg_8" d="m80.08668,155.60986q6.89921,-34.13765 42.15686,-30.50884a2.8672,2.8224 13 0 0 2.9568,-1.8368q7.21281,-20.11523 23.34083,-27.59684q27.19364,-12.58882 49.05607,7.57121q14.42562,13.35042 14.20162,38.16965a3.98721,3.98721 -76.2 0 0 2.1952,3.62881q26.79044,13.48482 18.00962,38.57285q-2.7328,7.70561 -10.57281,11.96162q-5.15201,2.8224 -14.73922,3.0912q-59.98728,1.6576 -120.01937,0.896q-21.19043,-0.2688 -25.67044,-15.99362q-2.6432,-9.22881 2.5088,-16.53122q4.83841,-6.85441 13.93282,-8.82561a3.4048,3.3152 -0.1 0 0 2.6432,-2.5984z" fill="#ffffff"/>
   <rect id="svg_9" rx="0.32" height="2.76" width="5" transform="matrix(4.47984, 0.0390949, -0.0390949, 4.47984, -15.491, -31.593)" y="32.76681" x="5.61256" fill="#ffb101"/>
   <rect id="svg_10" rx="0.67" height="2.86" width="5.06" transform="matrix(3.85214, -2.28724, 2.28724, 3.85214, -89.0693, 11.3246)" y="39.69981" x="3.54016" fill="#ffb101"/>
  </g>
 </g>
</svg>