<svg width="256" height="256" xmlns="http://www.w3.org/2000/svg" version="1.1">
 <title>395</title>

 <g>
  <title>Layer 1</title>
  <g id="svg_5">
   <path id="svg_1" d="m171.40961,175.80201l5.53157,-14.41401q6.06346,-1.43608 18.40312,-1.32971q21.80717,0.21275 30.90236,-15.31821q7.92504,-13.66937 2.87216,-28.56207q-5.47839,-15.95647 -24.73252,-20.95616a1.70202,1.64883 -80.7 0 1 -1.27652,-1.8084q2.49985,-26.43454 -10.90358,-43.24202q-12.60561,-15.74371 -36.1148,-18.03081q-38.34871,-3.77636 -54.1988,37.60407a3.35086,3.29767 -75.3 0 1 -3.56361,2.12753q-37.81682,-5.21245 -50.63518,35.42335a5.26563,5.26563 -89.4 0 1 -3.45723,3.40405q-11.38228,3.51042 -16.75429,12.28648q-5.15926,8.45693 -1.91478,18.82863q6.06346,19.52008 31.48743,18.24356q32.65757,-1.59565 87.97331,1.32971l-5.53157,14.41401q-84.67564,1.32971 -99.72791,-1.11695q-16.38197,-2.65941 -24.99846,-17.28617q-7.87186,-13.29705 -5.79752,-27.65787q2.60622,-18.45631 21.16891,-31.11511q2.76579,-1.91478 4.25506,-4.9465q17.76487,-35.84886 51.80533,-38.66784a8.24417,8.08461 14.2 0 0 6.16983,-3.6168q29.51946,-44.19941 74.30394,-33.82771q23.40282,5.4252 36.64668,21.16891q14.04169,16.54154 16.22241,42.01869a5.4252,5.31882 -75.4 0 0 2.28709,3.98912q39.67841,28.29613 17.92443,66.64484q-6.80809,11.96735 -16.96704,17.6053q-11.2759,6.22302 -24.78571,6.11665q-6.38259,-0.05319 -13.19068,0.74464q-6.64853,0.74464 -13.40343,-0.05319z" fill="#333333"/>
   <path id="svg_2" d="m176.94119,161.388q-18.19037,0.26594 -10.79721,-9.30794q4.36143,-5.69114 7.2336,-12.33967q7.02084,-16.2756 -8.5633,-10.63764a12.28648,9.57388 -81.4 0 0 -6.01027,5.69114l-13.77575,26.59411q-55.31575,-2.92535 -87.97331,-1.32971q-25.42397,1.27652 -31.48743,-18.24356q-3.24448,-10.3717 1.91478,-18.82863q5.37201,-8.77606 16.75429,-12.28648a5.26563,5.26563 -89.4 0 0 3.45723,-3.40405q12.81836,-40.6358 50.63518,-35.42335a3.35086,3.29767 -75.3 0 0 3.56361,-2.12753q15.85009,-41.38043 54.1988,-37.60407q23.50919,2.28709 36.1148,18.03081q13.40343,16.80748 10.90358,43.24202a1.70202,1.64883 -80.7 0 0 1.27652,1.8084q19.25414,4.99969 24.73252,20.95616q5.05288,14.8927 -2.87216,28.56207q-9.09519,15.53096 -30.90236,15.31821q-12.33967,-0.10638 -18.40312,1.32971z" fill="#808285"/>
   <path id="svg_3" d="m176.94119,161.388l-5.53157,14.41401q-5.31882,5.79752 -7.12722,13.19068a1.91478,1.86159 3.2 0 0 2.12753,2.28709q14.04169,-1.70202 8.98881,6.96766q-3.56361,6.22302 -3.98912,7.12722q-6.01027,13.61618 -12.49923,27.0728q-5.53157,11.43547 -18.34994,6.43577a2.18072,2.07434 -65.1 0 1 -1.01058,-2.97854l12.1801,-23.56238q3.45723,-6.59534 -3.82955,-4.521q-4.41462,1.22333 -7.39316,-0.53188a3.24448,2.60622 -62.2 0 1 -0.74464,-3.93593l11.96735,-23.56238a2.23391,1.96796 -73.1 0 0 -1.43608,-3.19129l-10.79721,-0.79782l5.53157,-14.41401l13.77575,-26.59411a12.28648,9.57388 -81.4 0 1 6.01027,-5.69114q15.58415,-5.63795 8.5633,10.63764q-2.87216,6.64853 -7.2336,12.33967q-7.39316,9.57388 10.79721,9.30794z" fill="#feb101"/>
   <path id="svg_4" d="m75.35169,223.19271q-11.22271,0.74464 -9.30794,-9.68026a3.03173,2.81898 7.9 0 1 3.24448,-2.28709q14.41401,1.17014 5.79752,-9.57388a3.56361,3.24448 44.9 0 1 -0.21275,-4.20187q6.54215,-8.45693 11.91416,1.17014a3.6168,2.87216 64.4 0 0 3.77636,1.8084q2.97854,-0.95739 4.84013,-3.77636a5.21245,3.24448 -64.8 0 1 3.82955,-2.49985q4.36143,0.31913 6.22302,4.57419a4.57419,3.66999 -37.7 0 1 -1.06376,4.41462q-8.93562,9.36113 5.90389,7.76548a3.77636,3.29767 -12.4 0 1 3.82955,2.07434q1.54246,4.09549 -0.85101,7.60592a4.99969,3.72318 16.9 0 1 -4.36143,1.54246q-11.86097,-1.59565 -4.41462,7.71229a4.20187,3.77636 41.1 0 1 0.53188,4.41462q-6.48896,11.70141 -12.12691,-1.38289q-2.7126,-6.27621 -5.58476,-0.05319q-5.74433,12.39286 -11.80778,1.43608a6.3294,3.72318 -57 0 1 0.21275,-4.68056l1.64883,-4.09549a1.91478,1.70202 7.3 0 0 -2.02115,-2.28709z" fill-opacity="0.996" fill="#d0d2d3"/>
  </g>
 </g>
</svg>