<svg width="256" height="256" xmlns="http://www.w3.org/2000/svg" version="1.1">

 <g>
  <title>Layer 1</title>
  <g id="svg_15">
   <rect id="svg_1" rx="0.74" height="5.18" width="2.88" transform="matrix(6.457, -0.0338091, 0.0338091, 6.457, -78.7258, -77.0877)" y="14.33799" x="30.6389" fill="#feb001"/>
   <rect id="svg_2" rx="0.69" height="5.12" width="2.84" transform="matrix(5.65839, -3.11072, 3.11072, 5.65839, -117.492, 12.9647)" y="16.39839" x="23.03204" fill="#feb001"/>
   <rect id="svg_3" rx="0.53" height="5.1" width="2.88" transform="matrix(5.67997, 3.07115, -3.07115, 5.67997, 10.6532, -184.941)" y="16.37068" x="38.14879" fill="#feb001"/>
   <path id="svg_4" d="m192.9695,128.63372a64.4417,64.4417 0 0 1 -64.4417,64.4417a64.4417,64.4417 0 0 1 -64.4417,-64.4417a64.4417,64.4417 0 0 1 64.4417,-64.4417a64.4417,64.4417 0 0 1 64.4417,64.4417zm-19.24211,0.38743a45.19959,45.19959 0 0 0 -45.19959,-45.19959a45.19959,45.19959 0 0 0 -45.19959,45.19959a45.19959,45.19959 0 0 0 45.19959,45.19959a45.19959,45.19959 0 0 0 45.19959,-45.19959z" fill="#feb001"/>
   <rect id="svg_5" rx="0.69" height="2.86" width="5.16" transform="matrix(5.6144, 3.18942, -3.18942, 5.6144, 15.6871, -117.866)" y="23.00986" x="16.359" fill="#feb001"/>
   <rect id="svg_6" rx="0.49" height="2.86" width="5.06" transform="matrix(5.60323, -3.209, 3.209, 5.60323, -118.199, 87.3507)" y="23.07859" x="42.55136" fill="#feb001"/>
   <circle id="svg_7" r="45.19957" cy="129.02115" cx="128.5278" fill="#fff100"/>
   <rect id="svg_8" rx="0.67" height="2.8" width="5.08" transform="matrix(6.45516, 0.157761, -0.157761, 6.45516, -73.0622, -80.7707)" y="30.71712" x="14.34971" fill="#feb001"/>
   <rect id="svg_9" rx="0.52" height="2.84" width="5.2" transform="matrix(6.457, 0.0338091, -0.0338091, 6.457, -77.0688, -79.7623)" y="30.67769" x="44.52919" fill="#feb001"/>
   <rect id="svg_10" rx="0.41" height="2.88" width="5.06" transform="matrix(5.66921, -3.09095, 3.09095, 5.66921, -185.668, 11.4461)" y="38.19835" x="16.38217" fill="#feb001"/>
   <rect id="svg_11" rx="0.48" height="2.88" width="5.14" transform="matrix(5.60883, 3.19922, -3.19922, 5.60883, 86.7562, -188.875)" y="38.1598" x="42.56902" fill="#feb001"/>
   <rect id="svg_12" rx="0.62" height="5.12" width="2.86" transform="matrix(5.6144, 3.18942, -3.18942, 5.6144, 86.2406, -118.094)" y="42.53986" x="23.039" fill="#feb001"/>
   <rect id="svg_13" rx="0.75" height="5.14" width="2.9" transform="matrix(5.60883, -3.19922, 3.19922, 5.60883, -188.91, 86.5488)" y="42.56857" x="38.09143" fill="#feb001"/>
   <rect id="svg_14" rx="0.49" height="5.04" width="2.86" transform="matrix(6.45684, -0.056348, 0.056348, 6.45684, -80.8079, -76.3541)" y="44.68809" x="30.6688" fill="#feb001"/>
  </g>
 </g>
</svg>