<svg width="256" height="256" xmlns="http://www.w3.org/2000/svg" version="1.1">
 <title>302</title>

 <g>
  <title>Layer 1</title>
  <g id="svg_5">
   <path id="svg_1" d="m18.16405,109.21965q5.89261,-7.00743 13.69634,-11.8914a8.01607,7.75064 -5.7 0 0 3.1852,-3.76915q12.58152,-31.37417 52.71498,-39.81494a8.22842,8.06916 10.8 0 0 4.93705,-3.29137q19.16426,-27.49885 46.39768,-33.17912q27.33959,-5.68026 51.22856,10.24571q25.85317,17.25314 29.35688,53.19276a5.521,5.46792 13.4 0 0 2.54816,4.08767q30.57787,19.58895 23.25192,53.98906q-6.79508,31.85195 -42.46927,35.83345q-30.89639,3.45063 -148.27083,0.42469q-19.53586,-0.53087 -28.5075,-6.63582q-13.21856,-9.07781 -16.40376,-27.07416q-3.29137,-18.26179 8.33459,-32.11738zm185.48453,-17.14697q2.12346,-20.65068 -7.85681,-36.4174q-9.23707,-14.6519 -27.97663,-20.75686q-41.35445,-13.64325 -66.19897,34.13467a5.36175,5.36175 -71.4 0 1 -5.62718,2.81359q-34.77171,-5.83952 -48.30879,35.30258a5.78644,5.73335 -87.5 0 1 -4.14075,3.82223q-7.69755,1.85803 -12.10374,8.54694q-13.16547,19.90747 -0.37161,31.95812q7.48521,7.1136 24.9507,7.69755q70.33973,2.33581 140.67945,-0.10617q12.84695,-0.42469 19.69512,-4.51236q10.51114,-6.15804 13.16547,-17.09388q7.75064,-31.74578 -23.67662,-41.99149a3.29137,3.1852 12.6 0 1 -2.22964,-3.39754z" fill="#929497"/>
   <path id="svg_2" d="m205.87822,95.47023q31.42726,10.24571 23.67662,41.99149q-2.65433,10.93584 -13.16547,17.09388q-6.84817,4.08767 -19.69512,4.51236q-70.33973,2.44198 -140.67945,0.10617q-17.46549,-0.58395 -24.9507,-7.69755q-12.79387,-12.05066 0.37161,-31.95812q4.40619,-6.68891 12.10374,-8.54694a5.78644,5.73335 -87.5 0 0 4.14075,-3.82223q13.53708,-41.1421 48.30879,-35.30258a5.36175,5.36175 -71.4 0 0 5.62718,-2.81359q24.84452,-47.77793 66.19897,-34.13467q18.73956,6.10496 27.97663,20.75686q9.98028,15.76672 7.85681,36.4174a3.29137,3.1852 12.6 0 0 2.22964,3.39754z" fill="#e6e7e8"/>
   <path id="svg_3" d="m105.81001,195.53844q3.87532,-7.69755 13.80251,-3.50371a2.7605,2.65433 23.9 0 1 1.48642,3.60989l-19.90747,40.71741a6.15804,5.41483 4.6 0 1 -3.98149,2.97285q-18.73956,4.24693 -9.07781,-11.8914q9.39633,-15.66054 17.67783,-31.90504z" fill-opacity="0.996" fill="#1f87e7"/>
   <path id="svg_4" d="m132.40638,206.7928q2.33581,-4.3531 3.34445,-8.81237q1.9642,-8.44077 16.66919,-5.25557a2.07038,2.07038 -71 0 1 1.43334,2.97285q-9.8741,19.42969 -17.99635,37.37296q-3.82223,8.44077 -16.66919,6.05187a2.81359,2.81359 19.7 0 1 -1.9642,-4.08767l15.18276,-28.24206z" fill-opacity="0.996" fill="#1f87e7"/>
  </g>
 </g>
</svg>