<svg width="256" height="256" xmlns="http://www.w3.org/2000/svg" version="1.1">
 <title>356</title>

 <g>
  <title>Layer 1</title>
  <g id="svg_15">
   <rect id="svg_1" rx="0.28" height="4.98" width="2.84" transform="matrix(4.53438, 0.0474857, -0.0474857, 4.53438, -16.2619, -32.867)" y="10.1548" x="21.45244" fill="#ffb100"/>
   <rect id="svg_2" rx="0.51" height="5.1" width="2.88" transform="matrix(3.90717, -2.3015, 2.3015, 3.90717, -38.6936, 10.8281)" y="12.21396" x="13.18609" fill="#ffb100"/>
   <rect id="svg_3" rx="0.77" height="5.06" width="2.9" transform="matrix(3.89507, 2.32193, -2.32193, 3.89507, 33.8668, -92.6384)" y="11.81183" x="29.4569" fill="#ffb100"/>
   <rect id="svg_4" rx="0.57" height="2.9" width="5.08" transform="matrix(3.89911, 2.31512, -2.31512, 3.89911, 33.2925, -41.2039)" y="18.40352" x="7.72556" fill="#ffb100"/>
   <path id="svg_5" d="m124.62359,68.81584l-6.80195,10.20292q-1.49643,-0.40812 -2.90216,-0.95227q-1.22435,-0.54416 -2.22197,-1.81385q-7.66353,-9.8855 -18.86407,-12.87835q-10.06688,-2.63009 -20.90465,3.08355q-32.15054,16.86883 -7.25541,53.00984l-11.15519,8.11699q-14.64686,-17.32229 -12.69697,-37.36536q1.81385,-18.22922 17.77576,-31.24361q30.79015,-25.1672 65.02661,9.84015z" fill="#ffb100"/>
   <path id="svg_6" d="m54.51819,127.58466l11.15519,-8.11699q3.0382,-2.13128 4.48929,-5.66829q10.83777,-26.75433 39.72337,-30.42738q6.1671,-0.77089 7.9356,-4.35325l6.80195,-10.20292q23.80681,-23.48939 52.96449,-18.18387q20.58723,3.7184 32.96677,17.73041q12.19816,13.87597 15.87121,36.45844a8.43441,8.20768 13.8 0 0 3.40097,5.44156q13.69459,9.7948 17.77576,23.71612q4.03582,13.73993 -1.90455,27.7066q-5.39621,12.56093 -17.54902,19.18149q-8.29838,4.48929 -24.21493,4.94275q-59.85713,1.81385 -119.71427,-0.22673q-14.91894,-0.49881 -23.62543,-6.48452q-26.07413,-17.95714 -6.07641,-51.51341zm157.94121,-12.69697q2.08593,-23.26266 -11.7447,-37.72813q-12.74231,-13.28647 -33.01212,-13.60389q-30.33668,-0.40812 -42.08138,32.69469a2.67543,2.67543 -86.7 0 1 -2.94751,1.76851q-35.59686,-5.03344 -42.71623,29.92857a3.40097,3.21959 -0.9 0 1 -2.63009,2.58474q-9.43203,1.94989 -12.51558,6.39383q-11.29123,16.23398 -0.81623,27.79729q5.75898,6.34848 16.68744,7.4368q7.89026,0.81623 19.00011,0.77089q81.62337,-0.40812 107.87888,-0.95227q9.38669,-0.18139 14.91894,-3.1289q8.47976,-4.53463 10.70173,-12.06212q8.6158,-29.38441 -18.81872,-38.99783a2.81147,2.72078 12.6 0 1 -1.90455,-2.90216z" fill="#929497"/>
   <path id="svg_7" d="m117.82165,79.01876q-1.76851,3.58236 -7.9356,4.35325q-28.8856,3.67305 -39.72337,30.42738q-1.45108,3.53701 -4.48929,5.66829q-24.89513,-36.14101 7.25541,-53.00984q10.83777,-5.71364 20.90465,-3.08355q11.20054,2.99286 18.86407,12.87835q0.99762,1.2697 2.22197,1.81385q1.40574,0.54416 2.90216,0.95227z" fill="#fff100"/>
   <path id="svg_8" d="m214.36395,117.78986q27.43452,9.61342 18.81872,38.99783q-2.22197,7.52749 -10.70173,12.06212q-5.53225,2.94751 -14.91894,3.1289q-26.25552,0.54416 -107.87888,0.95227q-11.10985,0.04535 -19.00011,-0.77089q-10.92846,-1.08831 -16.68744,-7.4368q-10.475,-11.56331 0.81623,-27.79729q3.08355,-4.44394 12.51558,-6.39383a3.40097,3.21959 -0.9 0 0 2.63009,-2.58474q7.11937,-34.96201 42.71623,-29.92857a2.67543,2.67543 -74.9 0 0 2.94751,-1.76851q11.7447,-33.10281 42.08138,-32.69469q20.2698,0.31742 33.01212,13.60389q13.83063,14.46547 11.7447,37.72813a2.81147,2.72078 12.6 0 0 1.90455,2.90216z" fill="#e6e7e8"/>
   <rect id="svg_9" rx="0.34" height="2.78" width="4.98" transform="matrix(4.53438, -0.0474857, 0.0474857, 4.53438, -18.0753, -31.4539)" y="26.37403" x="5.19837" fill="#ffb100"/>
   <rect id="svg_10" rx="0.65" height="2.86" width="5.02" transform="matrix(3.89911, -2.31512, 2.31512, 3.89911, -90.2638, 11.3362)" y="34.04324" x="6.51185" fill="#ffb100"/>
   <path id="svg_11" d="m112.8789,201.18173a2.90216,2.85682 -65.6 0 1 1.45108,3.89978q-7.61818,16.14329 -15.82586,31.47034q-4.03582,7.57283 -12.65162,3.58236a2.26732,2.26732 -64.9 0 1 -1.08831,-3.0382q8.38907,-17.32229 16.09794,-32.42261q3.62771,-7.11937 12.01677,-3.49167z" fill-opacity="0.996" fill="#1f87e6"/>
   <path id="svg_12" d="m133.82889,200.13876q3.31028,-0.99762 6.84729,0.22673a2.31266,2.08593 -68.9 0 1 1.179,3.0382q-10.42965,24.30562 -15.82586,33.28419q-4.85206,8.16234 -13.10508,3.26493a2.67543,2.49405 -61.8 0 1 -0.90693,-3.35563q7.4368,-15.64448 15.91656,-30.7448q2.58474,-4.67067 5.89502,-5.71364z" fill-opacity="0.996" fill="#1f87e6"/>
   <path id="svg_13" d="m161.03668,200.13876q3.31028,-0.99762 6.84729,0.22673a2.31266,2.08593 -68.9 0 1 1.179,3.0382q-10.33896,24.44166 -15.82586,33.28419q-4.8974,7.98095 -13.10508,3.21959a2.63009,2.4487 -62.3 0 1 -0.90693,-3.31028q7.4368,-15.64448 15.91656,-30.7448q2.58474,-4.67067 5.89502,-5.71364z" fill-opacity="0.996" fill="#1f87e6"/>
   <path id="svg_14" d="m188.10843,200.00273q3.62771,-1.179 7.25541,1.04297a2.76613,2.53939 -60.9 0 1 0.81623,3.44632l-16.37002,33.01212a6.89264,5.35087 -82.4 0 1 -3.08355,3.0382q-4.8974,1.99524 -9.43203,-0.5895a2.67543,2.35801 -62.8 0 1 -0.86158,-3.35563q7.4368,-15.64448 15.91656,-30.7448q2.67543,-4.80671 5.75898,-5.84967z" fill-opacity="0.996" fill="#1f87e6"/>
  </g>
 </g>
</svg>