<svg width="256" height="256" xmlns="http://www.w3.org/2000/svg" version="1.1">
 <title>308</title>

 <g>
  <title>Layer 1</title>
  <g id="svg_7">
   <path id="svg_1" d="m18.12555,109.13238q5.88643,-7.00008 13.68197,-11.87892a7.84857,7.84857 90 0 0 3.18185,-3.81822q12.51529,-31.28823 52.60664,-39.72014a8.11373,7.95463 -77.8 0 0 4.9849,-3.28792q19.14415,-27.52303 46.40203,-33.14431q27.20485,-5.62127 51.06875,10.23496q25.87908,17.23504 29.37911,53.13695a6.09855,6.04552 -74.6 0 0 2.38639,4.24247q45.76566,34.15189 8.11373,78.963q-8.53797,10.1289 -21.7957,10.60618q-74.34931,2.65154 -148.64559,0.53031q-22.11388,-0.63637 -30.81095,-5.35612q-15.2729,-8.21979 -18.879,-28.42456q-3.28792,-18.24263 8.32585,-32.08369zm185.28993,-17.18201q2.17427,-20.20477 -7.42432,-35.74282q-9.4395,-15.32593 -29.0079,-21.58357q-40.88682,-12.99257 -65.49315,34.36402a5.35612,5.35612 -71.4 0 1 -5.62127,2.81064q-34.73523,-5.8334 -48.25811,35.26554a5.67431,5.67431 88.9 0 1 -3.39398,3.55307q-28.3185,10.8183 -16.06836,38.39437q4.08338,9.17434 14.10622,9.59859q80.97817,3.18185 163.28211,-0.05303q15.48502,-0.63637 20.89417,-15.16683q13.20469,-35.84888 -20.78811,-47.93993a3.39398,3.34095 13 0 1 -2.2273,-3.50004z" fill="#929497"/>
   <path id="svg_2" d="m205.64278,95.45041q33.9928,12.09104 20.78811,47.93993q-5.40915,14.53046 -20.89417,15.16683q-82.30394,3.23488 -163.28211,0.05303q-10.02284,-0.42425 -14.10622,-9.59859q-12.25014,-27.57606 16.06836,-38.39437a5.67431,5.67431 88.9 0 0 3.39398,-3.55307q13.52288,-41.09894 48.25811,-35.26554a5.35612,5.35612 -71.4 0 0 5.62127,-2.81064q24.60633,-47.35659 65.49315,-34.36402q19.5684,6.25765 29.0079,21.58357q9.59859,15.53805 7.42432,35.74282a3.39398,3.34095 13 0 0 2.2273,3.50004z" fill="#e6e7e8"/>
   <path id="svg_3" d="m73.86101,195.36061q3.87126,-7.68948 13.78803,-3.50004a2.75761,2.65154 23.9 0 1 1.48486,3.6061l-19.88658,40.67469a6.15158,5.40915 4.6 0 1 -3.97732,2.96973q-18.7199,4.24247 -9.06828,-11.87892q9.38647,-15.64411 17.65929,-31.87157z" fill-opacity="0.996" fill="#1f87e7"/>
   <path id="svg_4" d="m105.67955,195.36061q4.9849,-6.94705 13.84106,-3.44701a2.59851,2.59851 24.1 0 1 1.3788,3.55307l-19.25021,39.98529a6.20461,5.56824 3.1 0 1 -3.81822,3.07579q-17.76535,4.87884 -10.60618,-7.47736q3.65913,-6.31068 4.45459,-8.11373q10.23496,-22.43207 14.00016,-27.57606z" fill-opacity="0.996" fill="#1f87e7"/>
   <path id="svg_5" d="m133.94501,202.57281q0.95456,-1.85608 1.5379,-4.2955q2.0682,-8.90919 16.70473,-5.78037a2.17427,2.12124 -70.6 0 1 1.43183,3.07579q-9.70465,19.40931 -17.71232,37.38678q-3.76519,8.53797 -16.33351,5.99249a3.6061,3.44701 -70.1 0 1 -2.28033,-5.144l16.6517,-31.2352z" fill-opacity="0.996" fill="#1f87e7"/>
   <path id="svg_6" d="m169.31662,195.36061q3.71216,-7.79554 13.84106,-3.44701a2.65154,2.49245 24.8 0 1 1.43183,3.55307l-20.46992,40.09135a7.37129,5.56824 -1.4 0 1 -3.92429,3.12882q-16.01533,5.51521 -8.16676,-9.22738q8.96222,-16.86382 17.28807,-34.09886z" fill-opacity="0.996" fill="#1f87e7"/>
  </g>
 </g>
</svg>