<svg width="256" height="256" xmlns="http://www.w3.org/2000/svg" version="1.1">
 <title>320</title>

 <g>
  <title>Layer 1</title>
  <g id="svg_6">
   <path id="svg_1" d="m133.78144,174.80638q-38.16598,1.30885 -76.22726,-0.6806q-23.71631,-1.25649 -34.13473,-9.89488q-17.80032,-14.71144 -10.94196,-43.61079q3.03653,-12.8267 20.67979,-22.931a7.53896,7.43425 85.7 0 0 3.14123,-3.71713q12.35552,-30.88879 51.93506,-39.21306a8.01014,7.85308 -77.8 0 0 4.92127,-3.24594q18.89975,-27.17167 45.80965,-32.72118q26.85754,-5.54951 50.41679,10.1043q25.5487,17.01501 29.00405,52.4586a6.0207,5.96834 -74.6 0 0 2.35592,4.18831q40.05072,29.89407 15.13027,68.37418q-7.59131,11.62256 -18.06209,16.22971q-8.32427,3.66477 -17.69561,4.03125q-14.13555,0.52354 -14.71144,0.57589q-12.93141,1.20414 -25.86282,0.57589q-17.17208,-0.78531 -25.75811,-0.52354zm68.6883,-82.30031q2.30357,-35.60064 -22.72159,-51.30681q-20.47037,-12.8267 -43.50608,-5.75893q-24.44927,7.59131 -34.55357,34.9724a3.24594,3.19359 -76.2 0 1 -3.403,2.09416q-36.96184,-4.50243 -49.47442,34.86769a5.70657,5.49716 -2.7 0 1 -3.35065,3.56006q-28.00933,10.68019 -15.91558,37.90421q4.03125,9.05722 13.92613,9.47605q75.54666,2.98417 152.19275,0.31412q12.72199,-0.41883 19.47565,-4.45008q10.36607,-6.07305 12.98376,-16.85795q7.64367,-31.30762 -23.34983,-41.41193a3.403,3.35065 11.2 0 1 -2.30357,-3.403z" fill="#929497"/>
   <path id="svg_2" d="m204.77331,95.90907q30.9935,10.1043 23.34983,41.41193q-2.61769,10.7849 -12.98376,16.85795q-6.75365,4.03125 -19.47565,4.45008q-76.64609,2.67005 -152.19275,-0.31412q-9.89488,-0.41883 -13.92613,-9.47605q-12.09375,-27.22402 15.91558,-37.90421a5.70657,5.49716 -2.7 0 0 3.35065,-3.56006q12.51258,-39.37012 49.47442,-34.86769a3.24594,3.19359 -76.2 0 0 3.403,-2.09416q10.1043,-27.38108 34.55357,-34.9724q23.03571,-7.06777 43.50608,5.75893q25.02516,15.70617 22.72159,51.30681a3.403,3.35065 11.2 0 0 2.30357,3.403z" fill="#e6e7e8"/>
   <path id="svg_3" d="m74.6739,194.59615q3.82183,-7.59131 13.61201,-3.45536a2.7224,2.61769 23.9 0 1 1.46591,3.56006l-19.63271,40.15543a6.07305,5.3401 4.6 0 1 -3.92654,2.93182q-18.48092,4.18831 -8.95251,-11.72727q9.26664,-15.4444 17.43384,-31.46469z" fill-opacity="0.996" fill="#1e87e7"/>
   <path id="svg_4" d="m106.08623,194.59615q4.92127,-6.91071 13.61201,-3.403a2.61769,2.51299 24.1 0 1 1.41355,3.50771l-19.89448,39.84131a6.28247,5.3401 3.7 0 1 -3.92654,2.93182q-16.38677,4.0836 -9.4237,-7.74838q3.50771,-5.96834 4.39773,-7.74838q10.68019,-23.03571 13.82143,-27.38108z" fill-opacity="0.996" fill="#1e87e7"/>
   <path id="svg_5" d="m166.92145,208.52229q13.87378,-1.93709 9.52841,9.79018a3.50771,3.19359 12.2 0 1 -3.61242,2.09416q-12.93141,-1.41355 -5.3401,7.90544a4.03125,3.66477 40.5 0 1 0.52354,4.29302q-6.38717,11.51786 -11.83198,-1.15179q-2.51299,-5.81128 -5.60187,-0.26177q-6.96307,12.46023 -11.88433,0.20942a5.07833,4.34537 -40.4 0 1 0.73295,-4.50243q6.17776,-8.21956 -4.29302,-6.33482a4.39773,3.9789 -21.4 0 1 -4.18831,-1.57062q-7.17248,-10.15665 6.85836,-9.84253a3.19359,2.61769 3.1 0 0 3.24594,-2.35592q0.20942,-2.51299 -1.46591,-4.81656a5.28774,3.76948 41.6 0 1 -0.99472,-4.34537q3.45536,-9.05722 10.20901,-0.73295q5.23539,6.54424 9.16193,-0.62825a4.29302,3.45536 -70.5 0 1 3.66477,-2.25122q12.30316,0.89002 4.18831,12.87906q-1.30885,1.98945 1.09943,1.62297z" fill="#d0d2d3"/>
  </g>
 </g>
</svg>