<svg width="256" height="256" xmlns="http://www.w3.org/2000/svg" version="1.1">
 <title>311</title>

 <g>
  <title>Layer 1</title>
  <g id="svg_7">
   <path id="svg_1" d="m20.70951,110.17326q3.21715,-5.55218 13.28371,-11.67514a7.73154,7.52398 -5.5 0 0 3.16526,-3.73604q12.24592,-30.61481 51.47439,-38.86524a7.93909,7.78343 -77.8 0 0 4.87761,-3.21715q18.73211,-26.93065 45.40332,-32.43094q26.61932,-5.50029 49.96959,10.01467q25.32208,16.86409 28.74679,51.99328a5.96729,5.9154 -74.6 0 0 2.33503,4.15116q44.78064,33.41684 7.62776,77.57481q-7.36831,8.76933 -26.25609,9.65145q-72.85286,3.42471 -145.65384,0.72645q-17.7981,-0.67456 -27.91655,-7.67965q-28.38356,-19.66612 -7.05697,-56.50767zm181.19815,-16.86409q2.38692,-31.08181 -17.7981,-47.27134q-18.88778,-15.15174 -43.4834,-10.32601q-27.29388,5.34462 -38.60579,35.69998a3.32093,3.21715 -75.6 0 1 -3.42471,2.07558q-36.63399,-4.4625 -49.13936,34.92164a4.9295,4.87761 0.4 0 1 -3.37282,3.26904q-4.98139,1.40102 -9.08066,3.99549q-3.99549,2.4907 -6.48619,7.16075q-9.08066,17.17543 2.23125,28.48734q7.10886,7.10886 22.88327,7.62776q74.1501,2.43881 148.40398,-0.46701q15.15174,-0.62267 20.44446,-14.8404q12.92049,-35.0773 -20.34069,-46.90811a3.37282,3.32093 12.4 0 1 -2.23125,-3.42471z" fill="#929497"/>
   <path id="svg_2" d="m204.13891,96.73387q33.26117,11.83081 20.34069,46.90811q-5.29273,14.21772 -20.44446,14.8404q-74.25388,2.90581 -148.40398,0.46701q-15.77441,-0.5189 -22.88327,-7.62776q-11.31191,-11.31191 -2.23125,-28.48734q2.4907,-4.67006 6.48619,-7.16075q4.09927,-2.59448 9.08066,-3.99549a4.9295,4.87761 0.4 0 0 3.37282,-3.26904q12.50537,-39.38413 49.13936,-34.92164a3.32093,3.21715 -75.6 0 0 3.42471,-2.07558q11.31191,-30.35536 38.60579,-35.69998q24.59562,-4.82572 43.4834,10.32601q20.18502,16.18953 17.7981,47.27134a3.37282,3.32093 12.4 0 0 2.23125,3.42471z" fill="#e6e7e8"/>
   <path id="svg_3" d="m86.71296,200.928q-7.10886,17.07165 -16.34519,33.1055q-1.45291,2.4907 -2.69825,0.05189l-21.01525,-40.26625a1.76424,1.71235 -13.8 0 1 1.55669,-2.54259l39.90303,-0.15567a2.59448,2.28314 4.4 0 1 2.59448,2.69825q-0.31134,2.07558 -1.71235,3.78793q-1.76424,2.07558 -2.28314,3.32093z" fill="#deddde"/>
   <path id="svg_4" d="m106.32719,194.4937q3.83982,-7.47209 13.49127,-3.42471a2.59448,2.4907 24.8 0 1 1.34913,3.4766l-19.45856,39.79925a5.50029,5.34462 6.3 0 1 -3.73604,2.90581q-18.42077,4.20305 -8.97688,-11.62325q9.13255,-15.3074 17.33109,-31.1337z" fill="#deddde"/>
   <path id="svg_5" d="m125.00742,219.34877q1.24535,-2.23125 7.83532,-15.98197q6.74564,-14.11394 18.784,-11.3638a2.12747,2.12747 19.8 0 1 1.45291,3.00959q-7.99098,15.93008 -15.61874,30.71859q-4.82572,9.44389 -5.39651,9.85901q-4.04738,3.37282 -13.07615,1.29724a2.75014,2.75014 -68 0 1 -1.71235,-4.04738l7.73154,-13.49127z" fill="#deddde"/>
   <path id="svg_6" d="m174.25055,190.91332q3.78793,-1.14157 7.83532,0.25945a2.4907,2.43881 -68 0 1 1.40102,3.42471l-19.45856,39.74736a6.12296,5.9154 -84.4 0 1 -3.78793,3.21715q-5.34462,1.5048 -9.96278,-1.08968a3.06148,2.69825 -62.8 0 1 -0.9859,-3.83982q8.4061,-17.95377 18.16133,-35.23297q3.00959,-5.29273 6.79752,-6.48619z" fill="#deddde"/>
  </g>
 </g>
</svg>