<svg width="256" height="256" xmlns="http://www.w3.org/2000/svg" version="1.1">
 <title>230</title>

 <g>
  <title>Layer 1</title>
  <g id="svg_7">
   <path id="svg_1" d="m170.05994,175.21302q-79.04607,2.26287 -124.40628,-1.33715q-13.78292,-1.08 -22.73153,-11.82863q-7.81718,-9.36004 -9.41147,-22.21724q-2.88001,-23.19439 18.77151,-38.52017q3.18859,-2.26287 5.09145,-5.65717q19.23437,-35.02302 52.30309,-38.26303a5.45145,5.29717 13.3 0 0 3.96002,-2.36573q28.85156,-45.15449 75.7032,-32.04015q21.65153,6.0686 33.12015,20.98295q12.03434,15.63436 14.65721,38.82875a7.35432,7.35432 -78.5 0 0 3.70287,5.60574q11.46862,6.48003 17.38294,17.69151q5.09145,9.8229 4.57716,23.24582q-1.54286,41.40019 -49.26879,44.53734q-18.36008,1.18286 -23.45153,1.33715zm31.68014,-81.36037q2.26287,-34.97159 -22.3201,-50.40023q-20.10866,-12.60006 -42.73734,-5.65717q-24.01725,7.45718 -33.94301,34.35444a3.18859,3.13716 -76.2 0 1 -3.34287,2.05715q-36.30874,-4.42288 -48.60022,34.35444a5.40002,5.40002 -88 0 1 -3.85716,3.60002q-4.78288,1.23429 -8.79433,3.85716q-3.7543,2.41715 -6.17146,6.99432q-9.05147,17.07436 2.16001,28.33727q6.99432,7.04575 22.78296,7.56003q69.12031,2.3143 138.1892,-0.10286q12.44577,-0.41143 19.08009,-4.37145q10.1829,-5.96574 12.75434,-16.56008q7.50861,-30.75443 -22.93725,-40.68018a3.34287,3.29144 11.2 0 1 -2.26287,-3.34287z" fill="#929497"/>
   <path id="svg_2" d="m204.00295,97.19553q30.44585,9.92576 22.93725,40.68018q-2.57144,10.59433 -12.75434,16.56008q-6.63432,3.96002 -19.08009,4.37145q-69.06888,2.41715 -138.1892,0.10286q-15.78864,-0.51429 -22.78296,-7.56003q-11.21148,-11.26291 -2.16001,-28.33727q2.41715,-4.57716 6.17146,-6.99432q4.01145,-2.62287 8.79433,-3.85716a5.40002,5.40002 -88 0 0 3.85716,-3.60002q12.29148,-38.77732 48.60022,-34.35444a3.18859,3.13716 -76.2 0 0 3.34287,-2.05715q9.92576,-26.89726 33.94301,-34.35444q22.62867,-6.94289 42.73734,5.65717q24.58297,15.42864 22.3201,50.40023a3.34287,3.29144 11.2 0 0 2.26287,3.34287z" fill="#e6e7e8"/>
   <path id="svg_3" d="m74.24808,207.81888q13.62863,-1.90287 9.36004,9.61719a3.3943,3.08573 12.8 0 1 -3.54859,2.00572q-12.70291,-1.49144 -5.19431,7.81718a4.62859,3.7543 40.2 0 1 0.82286,4.37145q-1.80001,3.85716 -5.91431,4.32002a4.06288,3.24001 72.5 0 1 -3.60002,-2.41715q-5.04002,-10.49148 -10.38862,-0.25714a3.80573,3.3943 -70.1 0 1 -3.70287,2.00572q-9.97719,-1.69715 -4.01145,-11.67434a2.77716,2.26287 -60.1 0 0 -0.61715,-3.65145q-2.36573,-1.23429 -5.40002,-0.72a3.65145,3.13716 -15.3 0 1 -3.70287,-1.74858q-4.26859,-9.72004 7.30289,-9.15433a3.24001,2.16001 2 0 0 3.44573,-2.10858q-0.05143,-2.36573 -2.98287,-5.91431a4.1143,4.1143 -30.6 0 1 1.64572,-6.4286q8.12575,-3.34287 9.77147,4.1143q1.64572,7.09718 5.81145,0q7.04575,-12.03434 12.18863,-0.72a5.40002,2.6743 -53.4 0 1 -0.77143,4.21716l-2.36573,4.26859q-1.44001,2.52001 1.85144,2.05715z" fill-opacity="0.996" fill="#d0d2d2"/>
   <path id="svg_4" d="m135.96264,207.81888q13.62863,-1.90287 9.36004,9.61719a3.3943,3.08573 12.8 0 1 -3.54859,2.00572q-12.70291,-1.49144 -5.19431,7.81718a4.62859,3.7543 40.2 0 1 0.82286,4.37145q-1.80001,3.85716 -5.91431,4.32002a4.26859,3.29144 71 0 1 -3.65145,-2.41715q-5.04002,-10.44005 -10.33719,-0.25714a4.37145,3.54859 -71.4 0 1 -3.65145,2.3143q-7.04575,-0.61715 -5.50288,-7.76575q0.30857,-1.38858 1.90287,-4.1143q3.49716,-6.0686 -5.50288,-3.54859a4.21716,4.21716 -16.2 0 1 -5.19431,-2.82858q-3.08573,-10.5429 7.86861,-9.15433a3.0343,2.05715 4.3 0 0 3.3943,-1.95429q-0.05143,-2.36573 -2.98287,-5.91431a4.1143,4.1143 -30.6 0 1 1.64572,-6.4286q8.12575,-3.34287 9.77147,4.1143q1.64572,7.09718 5.81145,0q7.04575,-12.03434 12.18863,-0.72a5.40002,2.6743 -53.4 0 1 -0.77143,4.21716l-2.36573,4.26859q-1.44001,2.52001 1.85144,2.05715z" fill-opacity="0.996" fill="#d0d2d2"/>
   <rect id="svg_5" rx="0.58" height="2.46" width="13.48" transform="matrix(5.14285, 0.017952, -0.017952, 5.14285, -39.1764, -70.5697)" y="51.90909" x="39.70044" fill-opacity="0.996" fill="#d0d2d2"/>
   <rect id="svg_6" rx="0.55" height="2.38" width="10.94" transform="matrix(5.1425, 0.0628306, -0.0628306, 5.1425, -36.5342, -72.5234)" y="56.23312" x="39.70582" fill-opacity="0.996" fill="#d0d2d2"/>
  </g>
 </g>
</svg>