<svg width="256" height="256" xmlns="http://www.w3.org/2000/svg" version="1.1">
 <title>248</title>

 <g>
  <title>Layer 1</title>
  <g id="svg_5">
   <path id="svg_1" d="m22.57589,113.3671a23.25308,22.89056 -81.8 0 1 10.15057,-7.7165q4.66097,-1.8126 6.37,-7.30219q2.12333,-6.73252 3.26268,-8.49333q15.95089,-25.47999 46.86868,-28.173a5.28244,5.07528 -75.6 0 0 3.93593,-2.43406q29.00162,-45.78112 76.43997,-32.21251q21.59585,6.16284 32.98934,21.12975q11.65244,15.32943 15.433,38.42714a10.51309,10.35772 -80.4 0 0 5.17886,7.40577q9.89162,5.59317 15.58837,16.41699q4.91992,9.32195 5.07528,21.28511q0.36252,27.44796 -21.38869,40.49869q-11.28991,6.78431 -32.93755,6.78431q-67.84307,0 -135.63434,0q-14.19008,0 -24.0817,-5.69675q-10.15057,-5.85211 -14.96691,-18.02243q-8.07902,-20.61186 7.7165,-41.89698zm24.65137,2.53764q-21.49227,6.52536 -19.62788,26.10145q1.03577,10.61666 8.23439,16.8313q7.87187,6.73252 19.42073,6.26642q7.2504,-0.31073 7.7165,-0.31073q65.04648,0.72504 130.09296,-0.98398q16.93487,-0.41431 25.16926,-7.45756q13.25788,-11.3417 9.42553,-30.03739q-2.01976,-9.58089 -8.07902,-15.32943q-6.26642,-5.95569 -15.74373,-8.85585a3.31447,3.26268 -77 0 1 -2.2787,-3.67699q2.53764,-16.72772 -4.29845,-30.60706q-6.05927,-12.22211 -20.4565,-20.76723q-36.66633,-21.85479 -66.03047,13.87934q-2.12333,2.53764 -4.66097,9.94341q-2.64122,7.56114 -9.68447,7.35398q-11.70422,-0.31073 -12.01496,-0.25894q-27.86227,5.95569 -34.18048,34.69836a4.35024,4.35024 88.2 0 1 -3.00374,3.21089z" fill-opacity="0.996" fill="#d2d2d3"/>
   <path id="svg_2" d="m50.231,112.69385q6.31821,-28.74267 34.18048,-34.69836q0.31073,-0.05179 12.01496,0.25894q7.04325,0.20715 9.68447,-7.35398q2.53764,-7.40577 4.66097,-9.94341q29.36414,-35.73413 66.03047,-13.87934q14.39723,8.54512 20.4565,20.76723q6.8361,13.87934 4.29845,30.60706a3.31447,3.26268 -77 0 0 2.2787,3.67699q9.47731,2.90016 15.74373,8.85585q6.05927,5.74853 8.07902,15.32943q3.83236,18.69568 -9.42553,30.03739q-8.23439,7.04325 -25.16926,7.45756q-65.04648,1.70902 -130.09296,0.98398q-0.4661,0 -7.7165,0.31073q-11.54886,0.4661 -19.42073,-6.26642q-7.19862,-6.21463 -8.23439,-16.8313q-1.86439,-19.57609 19.62788,-26.10145a4.35024,4.35024 88.2 0 0 3.00374,-3.21089z" fill-opacity="0.306" fill="#f4f8f9"/>
   <path id="svg_3" d="m44.89678,191.72325l167.27718,-0.20715a3.26268,2.79658 -1.4 0 1 3.21089,2.64122l0.41431,9.11479a2.95195,2.48585 -1 0 1 -2.95195,2.58943q-78.82225,0.51789 -157.59271,0.31073q-0.56967,0 -7.82008,0.62146q-10.77203,0.93219 -8.1826,-10.40951a5.95569,5.74853 -83.5 0 1 5.64496,-4.66097z" fill-opacity="0.996" fill="#d2d2d3"/>
   <rect id="svg_4" rx="0.75" height="15.53658" width="176.08124" y="216.52999" x="39.7697" fill-opacity="0.996" fill="#d2d2d3"/>
  </g>
 </g>
</svg>