<svg width="256" height="256" xmlns="http://www.w3.org/2000/svg" version="1.1">
 <title>365</title>

 <g>
  <title>Layer 1</title>
  <g id="svg_15">
   <rect id="svg_1" rx="0.28" height="4.98" width="2.84" transform="matrix(4.49584, 0.047082, -0.047082, 4.49584, -16.0623, -32.5111)" y="10.39369" x="21.68288" fill="#ffb100"/>
   <rect id="svg_2" rx="0.51" height="5.1" width="2.88" transform="matrix(3.87396, -2.28193, 2.28193, 3.87396, -38.3034, 10.8125)" y="12.53753" x="13.26" fill="#ffb100"/>
   <rect id="svg_3" rx="0.77" height="5.06" width="2.9" transform="matrix(3.86195, 2.30219, -2.30219, 3.86195, 33.6402, -91.7744)" y="11.90239" x="29.77622" fill="#ffb100"/>
   <rect id="svg_4" rx="0.52" height="2.9" width="5.04" transform="matrix(3.86195, 2.30219, -2.30219, 3.86195, 33.2662, -40.7799)" y="18.50239" x="8.07622" fill="#ffb100"/>
   <path id="svg_5" d="m124.65018,69.39217l-6.74412,10.11619q-2.56277,-0.40465 -3.37206,-1.30386q-20.68198,-23.55947 -42.30813,-11.0154q-13.80297,8.04799 -16.05101,22.8401q-2.38292,15.82621 10.02626,29.58422l-11.06036,8.04799q-22.30057,-29.4943 -7.10381,-54.6274q11.91462,-19.60292 33.99038,-22.70522q24.05404,-3.41702 42.62286,19.06339z" fill="#ffb100"/>
   <path id="svg_6" d="m55.14075,127.66139l11.06036,-8.04799q2.47285,-1.16898 4.22632,-5.71002q10.02626,-26.34704 39.61049,-30.07879q6.11467,-0.76433 7.86814,-4.31624l6.74412,-10.11619q23.60443,-23.28971 52.51424,-18.02929q20.45717,3.68679 32.68652,17.57968q12.09446,13.71305 15.73629,36.10354a8.22783,8.09295 -77.1 0 0 3.3271,5.3953q13.98282,10.02626 17.89441,24.32381q3.77671,13.75801 -2.38292,28.05555q-8.63248,19.87268 -32.10203,22.16569q-35.56401,3.46198 -126.4748,0.44961q-15.46652,-0.49457 -24.36877,-6.4294q-26.1672,-17.48976 -6.33948,-51.34526zm156.59855,-12.58903q2.0682,-23.0649 -11.64485,-37.4074q-12.63399,-13.17352 -32.73148,-13.48825q-30.07879,-0.40465 -41.72364,32.41675a2.65269,2.65269 -86.7 0 1 -2.92245,1.75347q-35.29425,-4.99065 -42.3531,29.67414a3.41702,3.28214 -1.4 0 1 -2.56277,2.60773q-8.9472,1.84339 -11.86966,5.75499q-11.73477,15.51148 -2.15812,27.29122q5.57514,6.87901 16.72543,8.00303q7.6883,0.76433 19.42308,0.94418q53.45842,0.76433 106.91684,-0.85426q9.48673,-0.31473 14.88203,-3.19222q8.31775,-4.40616 10.56579,-11.95958q8.54256,-29.13461 -18.65874,-38.66631a2.78757,2.69765 12.6 0 1 -1.88835,-2.87749z" fill="#929497"/>
   <path id="svg_7" d="m117.90606,79.50835q-1.75347,3.55191 -7.86814,4.31624q-29.58422,3.73175 -39.61049,30.07879q-1.75347,4.54104 -4.22632,5.71002q-12.40919,-13.75801 -10.02626,-29.58422q2.24804,-14.79211 16.05101,-22.8401q21.62616,-12.54407 42.30813,11.0154q0.80929,0.89922 3.37206,1.30386z" fill="#fff100"/>
   <path id="svg_8" d="m213.62765,117.94986q27.2013,9.53169 18.65874,38.66631q-2.24804,7.55342 -10.56579,11.95958q-5.3953,2.87749 -14.88203,3.19222q-53.45842,1.61859 -106.91684,0.85426q-11.73477,-0.17984 -19.42308,-0.94418q-11.15028,-1.12402 -16.72543,-8.00303q-9.57666,-11.77974 2.15812,-27.29122q2.92245,-3.91159 11.86966,-5.75499a3.41702,3.28214 -1.4 0 0 2.56277,-2.60773q7.05885,-34.66479 42.3531,-29.67414a2.65269,2.65269 -74.9 0 0 2.92245,-1.75347q11.64485,-32.8214 41.72364,-32.41675q20.09749,0.31473 32.73148,13.48825q13.71305,14.3425 11.64485,37.4074a2.78757,2.69765 12.6 0 0 1.88835,2.87749z" fill="#e6e7e8"/>
   <rect id="svg_9" rx="0.32" height="2.76" width="5" transform="matrix(4.49591, 0.0392352, -0.0392352, 4.49591, -15.5636, -31.7387)" y="26.62488" x="5.44046" fill="#ffb100"/>
   <rect id="svg_10" rx="0.67" height="2.86" width="5.06" transform="matrix(3.86597, -2.29544, 2.29544, 3.86597, -89.406, 11.333)" y="34.35707" x="6.57464" fill="#ffb100"/>
   <path id="svg_11" d="m59.05234,234.39839l15.64637,-31.87722a5.03561,4.99065 9 0 1 3.82167,-2.74261q13.62313,-1.93332 8.63248,6.69916q-2.56277,4.49608 -2.78757,4.99065q-6.33948,13.0836 -13.39833,25.76255a6.60924,4.94569 -78.9 0 1 -3.14726,2.83253q-5.6201,1.97828 -8.58752,-1.75347a4.00151,3.19222 -54.1 0 1 -0.17984,-3.91159z" fill-opacity="0.996" fill="#1f87e6"/>
   <path id="svg_12" d="m106.80073,199.59871q3.28214,-0.98914 6.78908,0.2248a2.24804,2.11316 -69.2 0 1 1.21394,2.96741q-6.74412,15.87117 -14.97195,31.06793q-2.69765,5.03561 -6.06971,6.15963q-3.91159,1.30386 -7.73326,-0.89922a2.69765,2.42788 -62.3 0 1 -0.85426,-3.37206q7.32861,-15.55644 15.73629,-30.5284q2.60773,-4.586 5.88987,-5.6201z" fill-opacity="0.996" fill="#1f87e6"/>
   <path id="svg_13" d="m154.14448,202.92581q2.60773,0.76433 1.79843,4.04647q-0.35969,1.48371 -2.0682,3.28214q-6.29452,6.6542 6.02475,5.03561a2.42788,2.38292 81.1 0 1 2.69765,1.97828q1.88835,10.16115 -5.79995,7.82318q-3.50694,-1.12402 -4.04647,1.48371a5.44026,2.69765 41.2 0 0 1.57363,3.82167q4.31624,4.99065 -2.60773,8.4976a4.1364,4.1364 69.6 0 1 -5.88987,-2.69765q-0.80929,-3.1023 -2.92245,-3.68679a2.92245,2.02324 -73 0 0 -2.74261,2.15812q-1.84339,5.66506 -7.59838,3.73175a4.54104,4.1364 3.1 0 1 -2.87749,-2.92245q-1.0341,-3.82167 1.97828,-7.50846q4.54104,-5.44026 -2.78757,-2.78757q-4.18136,1.48371 -5.79995,-2.11316q-4.67593,-10.25107 5.71002,-8.04799q6.69916,1.39379 2.65269,-4.1364q-6.33948,-8.63248 3.64183,-9.26193a3.37206,2.92245 75 0 1 3.01238,2.02324q4.04647,9.48673 9.30689,-0.67441q1.61859,-3.05734 3.14726,-2.0682q2.47285,1.66355 3.59687,2.02324z" fill-opacity="0.996" fill="#d0d1d2"/>
   <path id="svg_14" d="m208.09747,214.66059q11.91462,-1.66355 8.18287,8.40767a2.92245,2.65269 13.1 0 1 -3.05734,1.70851q-10.38595,-1.43875 -4.54104,6.74412a3.95655,3.37206 42.7 0 1 0.44961,3.86663q-4.22632,8.18287 -9.12705,-0.58449q-3.23718,-5.71002 -8.13791,2.69765a3.01238,3.01238 20.6 0 1 -3.23718,1.43875q-8.4976,-1.88835 -4.22632,-9.08209a4.85577,2.42788 -53.2 0 0 0.71937,-4.04647q-1.16898,-2.11316 -5.21546,-1.2589a3.1023,2.83253 -20.3 0 1 -3.3271,-1.34882q-5.08057,-9.39681 7.41854,-8.40767a1.79843,1.70851 -2 0 0 1.97828,-1.97828q-0.49457,-2.78757 -2.20308,-5.03561a3.23718,2.69765 46.6 0 1 -0.2248,-3.55191q6.4294,-8.31775 10.65572,1.97828q1.93332,4.586 4.3612,0.2248q5.6201,-9.93634 10.43091,-2.0682a4.49608,3.23718 -53 0 1 -0.08992,3.91159l-2.293,4.72089q-0.94418,2.02324 1.48371,1.66355z" fill-opacity="0.996" fill="#d0d1d2"/>
  </g>
 </g>
</svg>