<svg width="256" height="256" xmlns="http://www.w3.org/2000/svg" version="1.1">
 <title>122</title>

 <g>
  <title>Layer 1</title>
  <g id="svg_3">
   <path id="svg_1" d="m68.08232,208.32418q-25.4393,-0.48405 -30.65624,-2.2051q-37.43289,-12.63898 -27.85953,-52.92236q3.11941,-13.17681 21.24424,-23.5569a7.79852,7.69095 -4.8 0 0 3.22697,-3.7648q12.69276,-31.78568 53.02992,-40.28338a9.89605,9.84227 -78.8 0 0 6.23881,-4.19506q28.82763,-43.02631 73.89768,-32.26973q23.71825,5.6472 36.89506,21.45937q13.8222,16.56513 16.72648,42.16578a6.61529,6.61529 11.5 0 0 3.22697,4.94803q11.40197,6.66908 17.587,19.95345q18.82401,40.49851 -14.89786,63.30245q-12.37006,8.33635 -30.97894,7.90608q-20.1148,-0.48405 -20.76019,-0.43026q-37.97072,1.23701 -106.92037,-0.10757zm136.6623,-84.00886q2.36645,-36.57236 -23.34177,-52.70723q-21.02911,-13.17681 -44.69358,-5.91612q-25.11661,7.79852 -35.4967,35.92697a3.33454,3.28076 -76.2 0 1 -3.49589,2.15132q-37.97072,-4.62533 -50.93239,36.19588a5.10937,5.05559 0.4 0 1 -3.49589,3.38832q-5.16316,1.45214 -9.412,4.14128q-4.19506,2.63536 -6.72286,7.5296q-9.46579,18.28618 3.28076,29.8495q7.63717,6.93799 24.25608,7.47582q71.53123,2.42023 143.06247,-0.10757q13.06924,-0.43026 20.00723,-4.57155q10.64901,-6.23881 13.33815,-17.31809q7.8523,-32.21595 -23.98717,-42.59604a3.38832,3.38832 10.6 0 1 -2.36645,-3.4421z" fill="#929497"/>
   <path id="svg_2" d="m207.11107,127.75742q31.83947,10.3801 23.98717,42.59604q-2.68914,11.07927 -13.33815,17.31809q-6.93799,4.14128 -20.00723,4.57155q-71.53123,2.5278 -143.06247,0.10757q-16.61891,-0.53783 -24.25608,-7.47582q-12.74654,-11.56332 -3.28076,-29.8495q2.5278,-4.89424 6.72286,-7.5296q4.24885,-2.68914 9.412,-4.14128a5.10937,5.05559 0.4 0 0 3.49589,-3.38832q12.96167,-40.82121 50.93239,-36.19588a3.33454,3.28076 -76.2 0 0 3.49589,-2.15132q10.3801,-28.12845 35.4967,-35.92697q23.66447,-7.26069 44.69358,5.91612q25.70822,16.13486 23.34177,52.70723a3.38832,3.38832 10.6 0 0 2.36645,3.4421z" fill="#e6e7e8"/>
  </g>
 </g>
</svg>