<svg width="256" height="256" xmlns="http://www.w3.org/2000/svg" version="1.1">
 <title>116</title>

 <g>
  <title>Layer 1</title>
  <g id="svg_5">
   <path id="svg_1" d="m83.08738,37.49947a2.32403,2.32403 0 0 1 0,3.90436q-9.71443,6.32135 -13.71175,15.66393q-14.26952,33.09413 12.8751,50.66377q5.29878,3.39308 -0.46481,6.04247q-40.25213,18.17388 -61.40077,-9.76091q-11.29477,-14.87377 -10.13275,-32.90821q1.30145,-20.59087 18.03444,-32.90821q12.54974,-9.20314 26.44742,-9.43555q14.40896,-0.2324 28.35312,8.73834zm-46.527,63.44591q9.38906,7.11152 22.63601,6.55375q3.20716,-0.13944 1.39442,-2.78883q-19.70774,-28.632 -0.04648,-59.30914q1.9057,-2.97475 -1.62682,-2.92827q-25.79669,0.2324 -33.14061,23.19378q-6.97208,21.75288 10.78348,35.27871z" fill="#0073da"/>
   <path id="svg_2" d="m36.56038,100.94538q-17.75556,-13.52583 -10.78348,-35.27871q7.34392,-22.96138 33.14061,-23.19378q3.53252,-0.04648 1.62682,2.92827q-19.66126,30.67714 0.04648,59.30914q1.81274,2.64939 -1.39442,2.78883q-13.24695,0.55777 -22.63601,-6.55375z" fill="#ffffff"/>
   <path id="svg_3" d="m121.01548,104.4779q25.053,-23.3797 54.89349,-16.12874q19.89366,4.83397 31.69971,19.01053q11.89901,14.316 14.45544,36.44073a6.41431,6.22839 -77.6 0 0 2.78883,4.50861q30.67714,19.94014 16.54706,55.68366q-4.78749,12.03845 -17.56964,18.17388q-8.08761,3.85788 -23.65858,4.27621q-62.37686,1.62682 -124.75371,-0.04648q-13.47935,-0.37184 -20.54439,-4.27621q-10.55108,-5.85655 -14.50192,-16.96539q-10.87644,-30.5377 17.43019,-45.73683a6.08895,5.85655 86.7 0 0 2.78883,-3.25364q10.737,-30.58418 46.38756,-34.99983a5.67062,5.57766 7.6 0 0 4.46213,-3.3466q3.02123,-7.20448 9.57499,-13.33991zm97.42317,56.24143q-5.67062,-2.92827 -8.45945,-4.55509a4.09029,3.8114 -74.5 0 1 -1.85922,-3.579q1.48738,-31.79268 -21.33456,-45.0861q-18.31332,-10.64404 -38.25347,-4.18325q-21.10216,6.87912 -29.84049,30.7701a2.97475,2.92827 -77 0 1 -3.06771,1.95218q-35.5576,-3.76492 -43.69169,30.5377a4.22973,4.22973 86.4 0 1 -2.64939,3.02123q-23.79803,8.69186 -16.2217,29.46865q3.30012,9.11018 12.08493,11.85253q7.71577,2.37051 18.22036,2.37051q58.7049,0 117.36331,-0.27888q20.68383,-0.09296 28.26016,-15.71042q4.60157,-9.57499 2.50995,-19.66126q-2.41699,-11.43421 -13.06103,-16.91891z" fill="#d1d2d3"/>
   <path id="svg_4" d="m218.43865,160.71933q10.64404,5.4847 13.06103,16.91891q2.09162,10.08627 -2.50995,19.66126q-7.57632,15.61745 -28.26016,15.71042q-58.65842,0.27888 -117.36331,0.27888q-10.5046,0 -18.22036,-2.37051q-8.78482,-2.74235 -12.08493,-11.85253q-7.57632,-20.77679 16.2217,-29.46865a4.22973,4.22973 86.4 0 0 2.64939,-3.02123q8.13409,-34.30262 43.69169,-30.5377a2.97475,2.92827 -77 0 0 3.06771,-1.95218q8.73834,-23.89099 29.84049,-30.7701q19.94014,-6.46079 38.25347,4.18325q22.82193,13.29343 21.33456,45.0861a4.09029,3.8114 -74.5 0 0 1.85922,3.579q2.78883,1.62682 8.45945,4.55509z" fill="#ffffff"/>
  </g>
 </g>
</svg>