<svg width="256" height="256" xmlns="http://www.w3.org/2000/svg" version="1.1">
 <title>182</title>

 <g>
  <title>Layer 1</title>
  <g id="svg_8">
   <path id="svg_1" d="m85.25278,15.60171a2.20231,2.20231 0 0 1 0,3.69988q-9.20565,5.99028 -12.99363,14.84357q-13.52218,31.36089 12.20079,48.01034q5.02127,3.21537 -0.44046,5.726q-38.144,17.22206 -58.18501,-9.2497q-10.70322,-14.09478 -9.64612,-31.1847q1.23329,-19.55651 17.13397,-31.1847q11.89247,-8.72115 25.06228,-8.94138q13.65432,-0.22023 26.86817,8.28068zm-44.09023,60.079q8.76519,7.00334 21.58263,6.21051a1.45352,1.45352 -18.2 0 0 1.1452,-2.24636q-17.9268,-29.07048 0,-56.51126q1.80589,-2.81896 -1.54162,-2.81896q-20.48148,-0.04405 -28.98239,16.73755q-11.71629,23.03616 7.79618,38.62851z" fill="#0073da"/>
   <path id="svg_2" d="m41.16254,75.68071q-19.51246,-15.59235 -7.79618,-38.62851q8.50091,-16.7816 28.98239,-16.73755q3.34751,0 1.54162,2.81896q-17.9268,27.44077 0,56.51126a1.45352,1.45352 -18.2 0 1 -1.1452,2.24636q-12.81744,0.79283 -21.58263,-6.21051z" fill="#ffffff"/>
   <path id="svg_3" d="m51.02889,138.88699q4.6689,-4.88913 10.30681,-8.63305a7.35571,7.13548 -6.2 0 0 2.68682,-3.25942q11.76033,-29.29071 43.78191,-32.41799a4.5808,4.53676 13.4 0 0 3.39156,-2.07017q25.4587,-39.59752 65.93714,-26.91222q18.41131,5.77005 28.45384,18.85177q10.3949,13.52218 11.67224,31.97753a4.75699,4.6689 17.1 0 0 1.89399,3.47965q37.96781,28.36574 6.47479,65.84905q-5.726,6.87121 -21.23026,7.61999q-62.01703,2.90705 -124.07811,1.27734q-16.209,-0.39642 -23.6528,-5.46173q-11.05559,-7.48785 -13.74241,-22.46356q-2.95109,-16.29709 8.1045,-27.83719zm21.05408,2.59873q-9.73421,1.80589 -14.31501,9.33779q-4.5808,7.61999 -1.76185,16.95778q4.27248,14.05073 21.80286,14.4031q52.50306,1.01306 121.25915,-0.88092q9.33779,-0.26428 14.53524,-3.08323q7.97236,-4.27248 10.3949,-11.71629q8.85328,-27.35268 -17.26611,-37.13094a3.96416,3.96416 10.4 0 1 -2.55468,-3.69988q-0.04405,-22.99211 -11.89247,-36.3381q-11.71629,-13.12576 -32.02158,-13.2579q-28.98239,-0.17618 -41.22723,31.09661a2.863,2.863 -76.4 0 1 -2.95109,1.80589q-34.57626,-3.39156 -41.44746,29.99545a3.21537,3.21537 -89.4 0 1 -2.55468,2.51063z" fill="#929497"/>
   <path id="svg_4" d="m74.63764,138.97508q6.87121,-33.38701 41.44746,-29.99545a2.863,2.863 -76.4 0 0 2.95109,-1.80589q12.24484,-31.27279 41.22723,-31.09661q20.30529,0.13214 32.02158,13.2579q11.84842,13.34599 11.89247,36.3381a3.96416,3.96416 10.4 0 0 2.55468,3.69988q26.11939,9.77825 17.26611,37.13094q-2.42254,7.44381 -10.3949,11.71629q-5.19745,2.81896 -14.53524,3.08323q-68.7561,1.89399 -121.25915,0.88092q-17.53038,-0.35237 -21.80286,-14.4031q-2.81896,-9.33779 1.76185,-16.95778q4.5808,-7.5319 14.31501,-9.33779a3.21537,3.21537 -89.4 0 0 2.55468,-2.51063z" fill="#e6e7e8"/>
   <path id="svg_5" d="m107.71633,209.8454a2.20231,2.11422 24.8 0 1 1.1452,2.95109l-15.85663,32.28586a5.46173,5.28554 7.5 0 1 -3.92011,2.90705q-14.09478,2.55468 -8.14854,-7.44381q7.61999,-12.72935 13.39004,-26.42771q3.52369,-8.36878 13.39004,-4.27248z" fill-opacity="0.996" fill="#1f87e6"/>
   <path id="svg_6" d="m127.49307,208.61211q3.21537,-0.96902 6.65097,0.22023a2.20231,2.07017 -69.2 0 1 1.18925,2.90705q-6.60693,15.5483 -14.66738,30.43592q-2.64277,4.93317 -5.94624,6.03433q-3.83202,1.27734 -7.57594,-0.88092a2.64277,2.37849 -62.3 0 1 -0.83688,-3.30346q7.22357,-15.19593 15.46021,-29.86332q2.51063,-4.53676 5.726,-5.54982z" fill-opacity="0.996" fill="#1f87e6"/>
   <path id="svg_7" d="m168.23579,211.78343q7.31167,-0.26428 7.35571,3.4356q0,1.54162 -2.46659,4.31653q-5.19745,5.94624 6.3867,4.44866a2.37849,2.33445 81.1 0 1 2.64277,1.93803q1.84994,9.95444 -5.68196,7.66404q-3.4356,-1.10115 -3.96416,1.45352a5.32959,2.64277 41.2 0 0 1.54162,3.74393q4.22843,4.88913 -2.55468,8.32473a4.05225,4.05225 69.6 0 1 -5.77005,-2.64277q-0.79283,-3.03919 -2.863,-3.61179a2.863,1.98208 -73 0 0 -2.68682,2.11422q-1.80589,5.54982 -7.44381,3.65583a4.44866,4.05225 3.1 0 1 -2.81896,-2.863q-1.01306,-3.74393 1.93803,-7.35571q4.75699,-5.68196 -2.73086,-2.73086q-4.36057,1.67376 -7.84022,-4.6689a2.90705,2.90705 72.6 0 1 2.24636,-4.31653q11.09964,-1.05711 7.66404,-4.71294q-6.03433,-6.47479 2.33445,-9.77825a4.40462,4.36057 70.1 0 1 5.77005,2.73086q2.68682,8.50091 6.25456,0.61665a3.03919,3.03919 11.7 0 1 2.68682,-1.76185z" fill="#d0d2d3"/>
  </g>
 </g>
</svg>