<svg width="256" height="256" xmlns="http://www.w3.org/2000/svg" version="1.1">
 <title>353</title>

 <g>
  <title>Layer 1</title>
  <g id="svg_7">
   <path id="svg_1" d="m85.67639,15.60374a2.19749,2.19749 0 0 1 0,3.69178q-9.18549,5.97716 -12.96517,14.81106q-13.49257,31.2922 12.17407,47.9052q5.01027,3.20833 -0.4395,5.71346q-38.06046,17.18434 -58.05758,-9.22944q-10.67978,-14.06391 -9.62499,-31.1164q1.23059,-19.51368 17.09644,-31.1164q11.86643,-8.70205 25.00739,-8.92179q13.62441,-0.21975 26.80933,8.26255zm-43.99367,59.94742q8.74599,6.98801 21.53536,6.19691a1.45034,1.45034 -18.2 0 0 1.14269,-2.24144q-17.88754,-29.00682 0,-56.38749q1.80194,-2.81278 -1.53824,-2.81278q-20.43662,-0.04395 -28.91892,16.70089q-11.69063,22.98571 7.7791,38.54391z" fill="#0073da"/>
   <path id="svg_2" d="m41.68272,75.55116q-19.46973,-15.5582 -7.7791,-38.54391q8.4823,-16.74484 28.91892,-16.70089q3.34018,0 1.53824,2.81278q-17.88754,27.38068 0,56.38749a1.45034,1.45034 -18.2 0 1 -1.14269,2.24144q-12.78937,0.7911 -21.53536,-6.19691z" fill="#ffffff"/>
   <path id="svg_3" d="m64.40472,127.85133q10.94348,-30.32531 43.77392,-33.48969a4.35102,4.26312 13.3 0 0 3.34018,-2.02169q23.3373,-37.04962 61.96911,-27.99597q19.11813,4.48287 29.88581,16.96459q11.69063,13.53651 13.44862,34.01709a7.6912,7.64725 12 0 0 3.95548,6.06506q9.58104,5.36187 14.45946,14.76711q4.26312,8.26255 4.08732,19.38183q-0.30765,20.78822 -16.21745,31.468q-9.75684,6.50456 -30.19346,7.1638q-74.93428,2.41723 -122.35603,-0.2637q-10.81163,-0.6153 -18.32703,-8.83389q-6.19691,-6.76826 -8.4823,-17.18434q-5.23002,-24.1284 18.01939,-36.96172a5.84531,5.84531 -4.6 0 0 2.63698,-3.07648zm8.1307,13.36072q-9.71289,1.80194 -14.28366,9.31734q-4.57077,7.6033 -1.75799,16.92064q4.26312,14.01996 21.75511,14.37156q52.16832,1.01084 120.99359,-0.87899q9.31734,-0.2637 14.50341,-3.07648q7.9549,-4.26312 10.37213,-11.69063q8.83389,-27.29278 -17.22829,-37.04962a3.95548,3.95548 10.4 0 1 -2.54908,-3.69178q-0.04395,-22.94176 -11.86643,-36.25852q-11.69063,-13.09702 -31.95145,-13.22887q-28.91892,-0.1758 -41.13694,31.0285a2.85673,2.85673 -76.4 0 1 -2.94463,1.80194q-34.45658,-3.34018 -41.35669,29.92976a3.20833,3.20833 -89.4 0 1 -2.54908,2.50513z" fill="#929497"/>
   <path id="svg_4" d="m75.08451,138.70691q6.90011,-33.26994 41.35669,-29.92976a2.85673,2.85673 -76.4 0 0 2.94463,-1.80194q12.21802,-31.2043 41.13694,-31.0285q20.26082,0.13185 31.95145,13.22887q11.82248,13.31677 11.86643,36.25852a3.95548,3.95548 10.4 0 0 2.54908,3.69178q26.06219,9.75684 17.22829,37.04962q-2.41723,7.4275 -10.37213,11.69063q-5.18607,2.81278 -14.50341,3.07648q-68.82527,1.88984 -120.99359,0.87899q-17.49199,-0.3516 -21.75511,-14.37156q-2.81278,-9.31734 1.75799,-16.92064q4.57077,-7.5154 14.28366,-9.31734a3.20833,3.20833 -89.4 0 0 2.54908,-2.50513z" fill="#e6e7e8"/>
   <path id="svg_5" d="m122.37441,240.80212q-3.16438,8.0428 -13.44862,6.94406a3.16438,3.16438 -71.8 0 1 -2.37329,-4.70262q8.2186,-14.19576 14.50341,-29.35842q3.20833,-7.73515 14.06391,-5.01027a1.88984,1.88984 -71.2 0 1 1.27454,2.59303q-4.96632,10.94348 -10.32818,20.39267q-0.2637,0.48345 -3.69178,9.14154z" fill-opacity="0.996" fill="#1f87e6"/>
   <path id="svg_6" d="m154.06216,208.05958q3.51598,-1.14269 7.03196,1.01084a2.68093,2.41723 -61.9 0 1 0.83504,3.29623q-12.52567,26.45773 -15.8219,31.8196q-4.57077,7.38355 -12.26197,2.59303a2.63698,2.41723 -61.3 0 1 -0.7911,-3.25228q7.20775,-15.16265 15.42635,-29.79791q2.59303,-4.65867 5.58161,-5.66951z" fill-opacity="0.996" fill="#1f87e6"/>
  </g>
 </g>
</svg>