<svg width="256" height="256" xmlns="http://www.w3.org/2000/svg" version="1.1">
 <title>308</title>

 <g>
  <title>Layer 1</title>
  <g id="svg_7">
   <path id="svg_1" d="m18.58749,109.2117q5.86168,-6.97065 13.62445,-11.82898a7.81557,7.81557 90 0 0 3.16848,-3.80217q12.46267,-31.15668 52.38547,-39.55314a8.07961,7.92119 -77.8 0 0 4.96395,-3.27409q19.06366,-27.40732 46.20694,-33.00496q27.09047,-5.59764 50.85404,10.19193q25.77027,17.16258 29.25559,52.91355a6.07291,6.0201 -74.6 0 0 2.37636,4.22463q45.57325,34.00831 8.07961,78.63101q-8.50208,10.08631 -21.70406,10.56159q-74.03672,2.6404 -148.02063,0.52808q-22.02091,-0.6337 -30.68141,-5.3336q-15.20868,-8.18523 -18.79962,-28.30505q-3.27409,-18.16593 8.29085,-31.9488zm184.51091,-17.10977q2.16513,-20.11982 -7.39311,-35.59255q-9.39981,-15.26149 -28.88594,-21.49283q-40.71492,-12.93794 -65.2178,34.21954a5.3336,5.3336 -71.4 0 1 -5.59764,2.79882q-34.5892,-5.80887 -48.05522,35.11727a5.65045,5.65045 88.9 0 1 -3.37971,3.53813q-28.19944,10.77282 -16.0008,38.23294q4.06621,9.13577 14.04691,9.55824q80.63771,3.16848 162.59562,-0.05281q15.41992,-0.6337 20.80633,-15.10307q13.14918,-35.69816 -20.70071,-47.73837a3.37971,3.3269 13 0 1 -2.21793,-3.48532z" fill="#929497"/>
   <path id="svg_2" d="m205.31634,95.58725q33.84988,12.04021 20.70071,47.73837q-5.38641,14.46937 -20.80633,15.10307q-81.95791,3.22128 -162.59562,0.05281q-9.9807,-0.42246 -14.04691,-9.55824q-12.19863,-27.46012 16.0008,-38.23294a5.65045,5.65045 88.9 0 0 3.37971,-3.53813q13.46602,-40.92615 48.05522,-35.11727a5.3336,5.3336 -71.4 0 0 5.59764,-2.79882q24.50288,-47.15748 65.2178,-34.21954q19.48613,6.23134 28.88594,21.49283q9.55824,15.47272 7.39311,35.59255a3.37971,3.3269 13 0 0 2.21793,3.48532z" fill="#e6e7e8"/>
   <path id="svg_3" d="m74.08863,195.0774q3.85498,-7.65715 13.73006,-3.48532a2.74601,2.6404 23.9 0 1 1.47862,3.59094l-19.80297,40.50368a6.12572,5.38641 4.6 0 1 -3.96059,2.95724q-18.6412,4.22463 -9.03016,-11.82898q9.347,-15.57834 17.58504,-31.73757z" fill-opacity="0.996" fill="#1f87e7"/>
   <path id="svg_4" d="m105.77339,195.0774q4.96395,-6.91784 13.78287,-3.43252a2.58759,2.58759 24.1 0 1 1.37301,3.53813l-19.16928,39.81718a6.17853,5.54483 3.1 0 1 -3.80217,3.06286q-17.69066,4.85833 -10.56159,-7.44592q3.64375,-6.28414 4.43587,-8.07961q10.19193,-22.33776 13.94129,-27.46012z" fill-opacity="0.996" fill="#1f87e7"/>
   <path id="svg_5" d="m133.92002,202.25928q0.95054,-1.84828 1.53143,-4.27744q2.05951,-8.87173 16.6345,-5.75606a2.16513,2.11232 -70.6 0 1 1.42581,3.06286q-9.66385,19.3277 -17.63785,37.22959q-3.74936,8.50208 -16.26484,5.9673a3.59094,3.43252 -70.1 0 1 -2.27074,-5.12237l16.58169,-31.10387z" fill-opacity="0.996" fill="#1f87e7"/>
   <path id="svg_6" d="m169.14291,195.0774q3.69656,-7.76277 13.78287,-3.43252a2.6404,2.48197 24.8 0 1 1.42581,3.53813l-20.38386,39.9228a7.3403,5.54483 -1.4 0 1 -3.90779,3.11567q-15.948,5.49202 -8.13242,-9.18858q8.92454,-16.79292 17.21539,-33.9555z" fill-opacity="0.996" fill="#1f87e7"/>
  </g>
 </g>
</svg>