<svg width="256" height="256" xmlns="http://www.w3.org/2000/svg" version="1.1">
 <title>374</title>

 <g>
  <title>Layer 1</title>
  <g id="svg_6">
   <path id="svg_1" d="m85.22205,16.99052a2.22961,2.22961 0 0 1 0,3.74575q-9.31977,6.06454 -13.1547,15.02757q-13.68981,31.74965 12.35204,48.6055q5.08351,3.25523 -0.44592,5.79699q-38.61685,17.43555 -58.9063,-9.36436q-10.83591,-14.26951 -9.76569,-31.57128q1.24858,-19.79894 17.34637,-31.57128q12.0399,-8.82926 25.37296,-9.05222q13.82358,-0.22296 27.20124,8.38333zm-44.6368,60.82377q8.87385,7.09016 21.85018,6.2875a1.47154,1.47154 -18.2 0 0 1.1594,-2.2742q-18.14903,-29.43085 0,-57.2118q1.82828,-2.8539 -1.56073,-2.8539q-20.73537,-0.04459 -29.34167,16.94504q-11.86153,23.32172 7.89282,39.10736z" fill="#0073da"/>
   <path id="svg_2" d="m40.58525,77.81429q-19.75435,-15.78564 -7.89282,-39.10736q8.6063,-16.98963 29.34167,-16.94504q3.38901,0 1.56073,2.8539q-18.14903,27.78094 0,57.2118a1.47154,1.47154 -18.2 0 1 -1.1594,2.2742q-12.97633,0.80266 -21.85018,-6.2875z" fill="#ffffff"/>
   <path id="svg_3" d="m63.63942,130.87901q11.10346,-30.76862 44.41384,-33.97926a4.41463,4.32544 13.3 0 0 3.38901,-2.05124q23.67846,-37.59123 62.87501,-28.40523q19.39761,4.5484 30.3227,17.21259q11.86153,13.7344 13.64521,34.51437a7.80364,7.75904 12 0 0 4.0133,6.15372q9.7211,5.44025 14.67084,14.98298q4.19167,8.16037 3.79034,19.75435q-1.42695,39.10736 -45.7516,39.64247q-102.07156,1.24858 -125.12572,-0.80266q-11.01427,-0.98103 -18.55036,-8.96303q-6.33209,-6.77802 -8.6063,-17.43555q-5.30647,-24.43653 18.23821,-37.50204a5.93076,5.93076 -4.6 0 0 2.67553,-3.12145zm8.24956,13.55603q-9.85488,1.82828 -14.49247,9.45355q-4.63759,7.71445 -1.78369,17.168q4.32544,14.22491 22.07314,14.58165q53.15391,1.02562 122.76234,-0.89184q9.45355,-0.26755 14.71543,-3.12145q8.07119,-4.32544 10.52376,-11.86153q8.96303,-27.69176 -17.48014,-37.59123a4.0133,4.0133 10.4 0 1 -2.58635,-3.74575q-0.04459,-23.27713 -12.0399,-36.78857q-11.86153,-13.28848 -32.41853,-13.42225q-29.34167,-0.17837 -41.7383,31.4821a2.89849,2.89849 -76.4 0 1 -2.98768,1.82828q-35.00488,-3.4336 -41.96126,30.36729a3.25523,3.25523 -89.4 0 1 -2.58635,2.54176z" fill="#929497"/>
   <path id="svg_4" d="m74.47533,141.89328q6.95638,-33.80089 41.96126,-30.36729a2.89849,2.89849 -76.4 0 0 2.98768,-1.82828q12.39663,-31.66046 41.7383,-31.4821q20.55701,0.13378 32.41853,13.42225q11.9953,13.51144 12.0399,36.78857a4.0133,4.0133 10.4 0 0 2.58635,3.74575q26.44318,9.89947 17.48014,37.59123q-2.45257,7.53608 -10.52376,11.86153q-5.26188,2.8539 -14.71543,3.12145q-69.60843,1.91746 -122.76234,0.89184q-17.7477,-0.35674 -22.07314,-14.58165q-2.8539,-9.45355 1.78369,-17.168q4.63759,-7.62527 14.49247,-9.45355a3.25523,3.25523 -89.4 0 0 2.58635,-2.54176z" fill="#e6e7e8"/>
   <circle id="svg_5" r="14.80461" cy="232.59383" cx="136.68145" fill="#d1d2d3"/>
  </g>
 </g>
</svg>