<svg width="256" height="256" xmlns="http://www.w3.org/2000/svg" version="1.1">
 <title>293</title>

 <g>
  <title>Layer 1</title>
  <g id="svg_7">
   <path id="svg_1" d="m85.48632,15.09896a2.20736,2.20736 0 0 1 0,3.70836q-9.22674,6.00401 -13.0234,14.87757q-13.55316,31.43274 12.22875,48.12034q5.03277,3.22274 -0.44147,5.73912q-38.23139,17.26152 -58.31833,-9.27089q-10.72775,-14.12707 -9.66822,-31.25615q1.23612,-19.60131 17.17322,-31.25615q11.91972,-8.74113 25.1197,-8.96186q13.6856,-0.22074 26.92973,8.29966zm-44.19125,60.21665q8.78527,7.01939 21.63208,6.22474a1.45685,1.45685 -18.2 0 0 1.14782,-2.2515q-17.96787,-29.13709 0,-56.64074q1.81003,-2.82541 -1.54515,-2.82541q-20.5284,-0.04415 -29.0488,16.7759q-11.74313,23.08894 7.81404,38.71701z" fill="#0073da"/>
   <path id="svg_2" d="m41.29507,75.31561q-19.55717,-15.62808 -7.81404,-38.71701q8.52039,-16.82005 29.0488,-16.7759q3.35518,0 1.54515,2.82541q-17.96787,27.50365 0,56.64074a1.45685,1.45685 -18.2 0 1 -1.14782,2.2515q-12.84681,0.79465 -21.63208,-6.22474z" fill="#ffffff"/>
   <path id="svg_3" d="m64.11912,127.85067q10.99263,-30.4615 43.97052,-33.64009a4.37056,4.28227 13.3 0 0 3.35518,-2.03077q23.44211,-37.21601 62.24742,-28.12171q19.20399,4.503 30.02003,17.04078q11.74313,13.59731 13.50901,34.16986a7.72574,7.6816 12 0 0 3.97324,6.0923q9.62407,5.38595 14.5244,14.83343q4.28227,8.29966 4.10568,19.46887q-0.30903,20.88158 -16.29028,31.60933q-9.80066,6.53377 -30.32906,7.19598q-75.27081,2.42809 -122.90554,-0.26488q-10.86019,-0.61806 -18.40934,-8.87357q-6.22474,-6.79865 -8.52039,-17.26152q-5.25351,-24.23676 18.10031,-37.12772a5.87156,5.87156 -4.6 0 0 2.64883,-3.0903zm8.16721,13.42072q-9.75651,1.81003 -14.34781,9.35919q-4.5913,7.63745 -1.76588,16.99664q4.28227,14.08293 21.85282,14.4361q52.40261,1.01538 121.53698,-0.88294q9.35919,-0.26488 14.56854,-3.0903q7.99063,-4.28227 10.41872,-11.74313q8.87357,-27.41535 -17.30567,-37.21601a3.97324,3.97324 10.4 0 1 -2.56053,-3.70836q-0.04415,-23.04479 -11.91972,-36.42136q-11.74313,-13.15584 -32.09495,-13.28828q-29.0488,-0.17659 -41.32169,31.16786a2.86956,2.86956 -76.4 0 1 -2.95786,1.81003q-34.61133,-3.35518 -41.54243,30.06418a3.22274,3.22274 -89.4 0 1 -2.56053,2.51638z" fill="#929497"/>
   <path id="svg_4" d="m74.84687,138.755q6.9311,-33.41936 41.54243,-30.06418a2.86956,2.86956 -76.4 0 0 2.95786,-1.81003q12.2729,-31.34444 41.32169,-31.16786q20.35182,0.13244 32.09495,13.28828q11.87557,13.37657 11.91972,36.42136a3.97324,3.97324 10.4 0 0 2.56053,3.70836q26.17923,9.80066 17.30567,37.21601q-2.42809,7.46086 -10.41872,11.74313q-5.20936,2.82541 -14.56854,3.0903q-69.13437,1.89833 -121.53698,0.88294q-17.57055,-0.35318 -21.85282,-14.4361q-2.82541,-9.35919 1.76588,-16.99664q4.5913,-7.54915 14.34781,-9.35919a3.22274,3.22274 -89.4 0 0 2.56053,-2.51638z" fill="#e6e7e8"/>
   <path id="svg_5" d="m122.34915,241.30873q-3.17859,8.07892 -13.50901,6.97524a3.17859,3.17859 -71.8 0 1 -2.38394,-4.72374q8.25551,-14.25951 14.56854,-29.49027q3.22274,-7.76989 14.12707,-5.03277a1.89833,1.89833 -71.2 0 1 1.28027,2.60468q-4.98862,10.99263 -10.37457,20.48426q-0.26488,0.48562 -3.70836,9.1826z" fill-opacity="0.996" fill="#1f87e6"/>
   <path id="svg_6" d="m154.17922,208.41914q3.53177,-1.14782 7.06354,1.01538a2.69297,2.42809 -61.9 0 1 0.83879,3.31103q-12.58192,26.57656 -15.89296,31.9625q-4.5913,7.41671 -12.31704,2.60468a2.64883,2.42809 -61.3 0 1 -0.79465,-3.26689q7.24013,-15.23075 15.49563,-29.93174q2.60468,-4.67959 5.60668,-5.69498z" fill-opacity="0.996" fill="#1f87e6"/>
  </g>
 </g>
</svg>