<svg width="256" height="256" xmlns="http://www.w3.org/2000/svg" version="1.1">
 <title>122</title>

 <g>
  <title>Layer 1</title>
  <g id="svg_3">
   <path id="svg_1" d="m69.57549,206.32246q-24.80534,-0.47198 -29.89228,-2.15015q-36.50004,-12.32401 -27.16526,-51.60351q3.04167,-12.84843 20.71482,-22.96985a7.60418,7.49929 -4.8 0 0 3.14656,-3.67098q12.37645,-30.99357 51.70839,-39.2795a9.64944,9.59699 -78.8 0 0 6.08334,-4.09052q28.10923,-41.95407 72.05612,-31.46555q23.12718,5.50647 35.97562,20.92459q13.47775,16.15232 16.30965,41.11499a6.45044,6.45044 11.5 0 0 3.14656,4.82472q11.11783,6.50288 17.14873,19.4562q18.35491,39.48927 -14.5266,61.72493q-12.0618,8.1286 -30.20693,7.70906q-19.61353,-0.47198 -20.24284,-0.41954q-37.02447,1.20618 -104.25587,-0.10489zm133.25662,-81.91532q2.30747,-35.66096 -22.76008,-51.39374q-20.50505,-12.84843 -43.57979,-5.76868q-24.49069,7.60418 -34.61211,35.03165a3.25144,3.199 -76.2 0 1 -3.40877,2.0977q-37.02447,-4.51006 -49.66313,35.29386a4.98205,4.9296 0.4 0 1 -3.40877,3.30388q-5.03449,1.41595 -9.17745,4.03808q-4.09052,2.56969 -6.55532,7.34196q-9.2299,17.83048 3.199,29.10564q7.44685,6.76509 23.65161,7.28952q69.74864,2.35992 139.49729,-0.10489q12.74355,-0.41954 19.50864,-4.45762q10.38363,-6.08334 13.00576,-16.88651q7.65662,-31.41311 -23.38939,-41.53453a3.30388,3.30388 10.6 0 1 -2.30747,-3.35633z" fill="#929497"/>
   <path id="svg_2" d="m205.13958,127.76346q31.04601,10.12142 23.38939,41.53453q-2.62213,10.80317 -13.00576,16.88651q-6.76509,4.03808 -19.50864,4.45762q-69.74864,2.4648 -139.49729,0.10489q-16.20476,-0.52443 -23.65161,-7.28952q-12.42889,-11.27516 -3.199,-29.10564q2.4648,-4.77228 6.55532,-7.34196q4.14296,-2.62213 9.17745,-4.03808a4.98205,4.9296 0.4 0 0 3.40877,-3.30388q12.63866,-39.80392 49.66313,-35.29386a3.25144,3.199 -76.2 0 0 3.40877,-2.0977q10.12142,-27.42747 34.61211,-35.03165q23.07474,-7.07975 43.57979,5.76868q25.06756,15.73278 22.76008,51.39374a3.30388,3.30388 10.6 0 0 2.30747,3.35633z" fill="#e6e7e8"/>
  </g>
 </g>
</svg>