<svg width="256" height="256" xmlns="http://www.w3.org/2000/svg" version="1.1">
 <title>368</title>

 <g>
  <title>Layer 1</title>
  <g id="svg_6">
   <path id="svg_1" d="m85.17858,15.76165a2.21468,2.21468 0 0 1 0,3.72066q-9.25735,6.02392 -13.06659,14.92692q-13.59811,31.53699 12.26931,48.27995q5.04946,3.23343 -0.44294,5.75816q-38.35819,17.31877 -58.51175,-9.30164q-10.76333,-14.17393 -9.70028,-31.35982q1.24022,-19.66633 17.23018,-31.35982q11.95925,-8.77012 25.20302,-8.99159q13.73099,-0.22147 27.01905,8.32718zm-44.33782,60.41637q8.81441,7.04267 21.70383,6.24539a1.46169,1.46169 -18.2 0 0 1.15163,-2.25897q-18.02747,-29.23373 0,-56.8286q1.81603,-2.83479 -1.55027,-2.83479q-20.59649,-0.04429 -29.14514,16.83154q-11.78208,23.16551 7.83995,38.84542z" fill="#0073da"/>
   <path id="svg_2" d="m40.84076,76.17802q-19.62203,-15.67991 -7.83995,-38.84542q8.54865,-16.87583 29.14514,-16.83154q3.36631,0 1.55027,2.83479q-18.02747,27.59487 0,56.8286a1.46169,1.46169 -18.2 0 1 -1.15163,2.25897q-12.88942,0.79728 -21.70383,-6.24539z" fill="#ffffff"/>
   <path id="svg_3" d="m63.69622,128.84302q9.39023,-26.75329 43.36336,-34.01743a8.46006,8.32718 11.7 0 0 5.13805,-3.32201q21.65953,-29.80954 51.86772,-28.21498q21.79242,1.10734 36.05493,15.36985q13.86387,13.90817 18.02747,38.04814a8.1943,8.06142 13 0 0 3.32201,5.22664q13.33235,9.39023 17.31877,23.2541q3.89783,13.50953 -1.81603,27.10764q-5.53669,13.24376 -18.60328,19.31198q-8.01713,3.76495 -25.07014,4.25218q-77.24791,2.30326 -123.35747,-0.39864q-10.80762,-0.62011 -18.42611,-8.903q-6.28968,-6.8655 -8.59294,-17.36306q-5.27093,-24.27285 18.16035,-37.20656a5.71387,5.66957 85.1 0 0 2.61332,-3.14484zm8.2386,13.50953q-9.78887,1.81603 -14.3954,9.39023q-4.60653,7.66278 -1.77174,17.05301q4.29647,14.12964 21.9253,14.48398q52.665,1.01875 121.94008,-0.88587q9.39023,-0.26576 14.61686,-3.10055q8.01713,-4.29647 10.45327,-11.78208q8.903,-27.50628 -17.36306,-37.33944a3.98642,3.98642 10.4 0 1 -2.56902,-3.72066q-0.04429,-23.12122 -11.95925,-36.54216q-11.78208,-13.19947 -32.20139,-13.33235q-29.14514,-0.17717 -41.45874,31.27123a2.87908,2.87908 -76.4 0 1 -2.96767,1.81603q-34.77042,-3.4106 -41.68021,30.16389a3.23343,3.23343 -89.4 0 1 -2.56902,2.52473z" fill="#929497"/>
   <path id="svg_4" d="m74.50384,139.82782q6.90979,-33.57449 41.68021,-30.16389a2.87908,2.87908 -76.4 0 0 2.96767,-1.81603q12.3136,-31.4484 41.45874,-31.27123q20.41932,0.13288 32.20139,13.33235q11.91496,13.42094 11.95925,36.54216a3.98642,3.98642 10.4 0 0 2.56902,3.72066q26.26606,9.83316 17.36306,37.33944q-2.43614,7.48561 -10.45327,11.78208q-5.22664,2.83479 -14.61686,3.10055q-69.27508,1.90462 -121.94008,0.88587q-17.62882,-0.35435 -21.9253,-14.48398q-2.83479,-9.39023 1.77174,-17.05301q4.60653,-7.57419 14.3954,-9.39023a3.23343,3.23343 -89.4 0 0 2.56902,-2.52473z" fill="#e6e7e8"/>
   <path id="svg_5" d="m147.72104,225.27003l5.27093,0.13288a3.63207,2.7462 -5.6 0 1 3.14484,1.94892q2.21468,6.42256 -8.1943,8.903a1.94892,1.94892 -25.2 0 0 -1.10734,3.05625q6.33397,8.77012 -3.54348,9.03588a3.58778,3.10055 74.5 0 1 -3.10055,-2.0818q-4.20789,-8.54865 -7.75137,0a3.72066,3.14484 -77.4 0 1 -3.01196,2.30326q-8.32718,0.17717 -3.89783,-11.25056a1.68315,1.63886 -83.4 0 0 -1.77174,-2.25897q-7.97283,1.19593 -7.48561,-5.22664q0.39864,-6.02392 6.90979,-4.96088a2.21468,1.90462 7 0 0 2.52473,-1.68315q0.17717,-2.96767 -1.86033,-5.40381a2.92337,2.43614 45.2 0 1 -0.31005,-3.36631q5.84675,-7.44131 10.49757,1.41739a2.43614,2.0818 61.7 0 0 3.01196,1.15163q2.43614,-1.32881 4.075,-3.80924a3.05625,2.56902 -63.3 0 1 3.18913,-1.3731q8.903,3.01196 2.61332,11.51632q-1.3731,1.90462 0.79728,1.94892z" fill-opacity="0.996" fill="#d0d1d2"/>
  </g>
 </g>
</svg>