<svg width="256" height="256" xmlns="http://www.w3.org/2000/svg" version="1.1">
 <title>281</title>

 <g>
  <title>Layer 1</title>
  <g id="svg_7">
   <path id="svg_1" d="m20.32555,114.4533q3.23459,-5.58227 13.35572,-11.73842a7.98213,7.87779 -4.7 0 0 3.23459,-3.7563q14.03394,-34.74573 51.85775,-38.39769a5.11274,5.06056 12 0 0 3.91281,-2.5042q13.87743,-23.78987 37.82381,-31.82417q23.52902,-7.92996 46.01462,1.51295q32.6589,13.66874 42.78003,58.11824a13.46006,13.40789 -78.8 0 0 5.16491,7.77345q14.71216,10.48633 18.88582,26.55492q3.96498,15.23387 -2.19117,30.46773q-6.10398,14.97301 -20.3466,22.74646q-9.65159,5.21708 -28.3809,5.58227q-68.70891,1.30427 -137.41781,-0.26085q-17.21635,-0.41737 -27.23314,-7.19957q-29.11129,-19.82489 -7.46042,-57.07483zm182.12817,-16.9555q2.29551,-35.47613 -22.64212,-51.12736q-20.39877,-12.78184 -43.35391,-5.73878q-24.36375,7.56476 -34.43271,34.85008a3.23459,3.18242 -76.2 0 1 -3.3911,2.08683q-36.83257,-4.48669 -49.35355,35.00659a5.16491,5.16491 -89.4 0 1 -3.3911,3.33893q-22.64212,7.1474 -18.72931,30.25905q2.81722,16.27728 19.30319,16.9555q73.61296,2.92156 149.26058,0.26085q12.62533,-0.41737 19.35536,-4.43452q10.32981,-6.05181 12.93835,-16.79899q7.61693,-31.19812 -23.26816,-41.26708a3.3911,3.33893 11.2 0 1 -2.29551,-3.3911z" fill="#929497"/>
   <path id="svg_2" d="m204.74923,100.88889q30.8851,10.06896 23.26816,41.26708q-2.60854,10.74718 -12.93835,16.79899q-6.73003,4.01715 -19.35536,4.43452q-75.64762,2.66071 -149.26058,-0.26085q-16.48596,-0.67822 -19.30319,-16.9555q-3.91281,-23.11165 18.72931,-30.25905a5.16491,5.16491 -89.4 0 0 3.3911,-3.33893q12.52099,-39.49327 49.35355,-35.00659a3.23459,3.18242 -76.2 0 0 3.3911,-2.08683q10.06896,-27.28531 34.43271,-34.85008q22.95514,-7.04305 43.35391,5.73878q24.93763,15.65123 22.64212,51.12736a3.3911,3.33893 11.2 0 0 2.29551,3.3911z" fill="#e6e7e8"/>
   <path id="svg_3" d="m75.36572,230.42892q-1.46078,3.13025 -3.23459,-0.15651l-10.01679,-18.83365a3.18242,2.66071 73.5 0 1 1.98249,-4.59103l19.19884,-0.10434a2.19117,1.98249 -76.5 0 1 1.66946,3.07808l-9.59942,20.60746z" fill-opacity="0.996" fill="#dededf"/>
   <path id="svg_4" d="m100.72071,210.34318a6.99088,5.16491 2.4 0 1 4.59103,-3.13025q14.65999,-3.13025 8.86903,6.99088q-3.70412,6.46918 -5.8953,13.61657q-2.55637,8.50384 -14.8165,4.01715a2.71288,2.45203 23.1 0 1 -1.56512,-3.44327l8.81686,-18.05109z" fill-opacity="0.996" fill="#dededf"/>
   <path id="svg_5" d="m130.30154,213.1604q1.51295,-2.86939 3.91281,-5.06056q2.24334,-2.139 5.63444,-2.45203q14.76433,-1.51295 5.79096,11.58191q-3.65195,5.26925 -6.73003,10.95586a6.10398,5.58227 -81.7 0 1 -3.70412,3.0259q-19.0945,4.90405 -9.39074,-9.91245q0.62605,-0.93907 4.48669,-8.13864z" fill-opacity="0.996" fill="#dededf"/>
   <path id="svg_6" d="m161.81269,211.85613q4.74754,-8.45167 16.22511,-5.58227a2.60854,2.60854 -66.6 0 1 1.56512,3.96498q-3.96498,6.20832 -6.41701,13.40789q-4.278,12.83401 -16.74682,7.92996a2.86939,2.81722 -70.9 0 1 -1.66946,-3.54761q2.66071,-8.39949 7.04305,-16.17294z" fill-opacity="0.996" fill="#dededf"/>
  </g>
 </g>
</svg>