<svg width="256" height="256" xmlns="http://www.w3.org/2000/svg" version="1.1">
 <title>356</title>

 <g>
  <title>Layer 1</title>
  <g id="svg_9">
   <path id="svg_1" d="m85.11127,14.90207a2.21322,2.21322 0 0 1 0,3.71821q-9.25126,6.01996 -13.058,14.9171q-13.58917,31.51625 12.26124,48.24819q5.04614,3.2313 -0.44264,5.75437q-38.33296,17.30738 -58.47326,-9.29552q-10.75625,-14.16461 -9.6939,-31.33919q1.2394,-19.65339 17.21885,-31.33919q11.95139,-8.76435 25.18644,-8.98567q13.72196,-0.22132 27.00128,8.32171zm-44.30866,60.37663q8.80861,7.03804 21.68955,6.24128a1.46072,1.46072 -18.2 0 0 1.15087,-2.25748q-18.01561,-29.2145 0,-56.79122q1.81484,-2.83292 -1.54925,-2.83292q-20.58294,-0.04426 -29.12597,16.82047q-11.77433,23.15028 7.8348,38.81987z" fill="#0073da"/>
   <path id="svg_2" d="m40.80262,75.2787q-19.60913,-15.6696 -7.8348,-38.81987q8.54303,-16.86473 29.12597,-16.82047q3.36409,0 1.54925,2.83292q-18.01561,27.57672 0,56.79122a1.46072,1.46072 -18.2 0 1 -1.15087,2.25748q-12.88094,0.79676 -21.68955,-6.24128z" fill="#ffffff"/>
   <path id="svg_3" d="m63.68731,127.90907q10.53493,-30.49817 43.24631,-32.97697a5.35599,5.35599 15 0 0 4.07232,-2.34601q24.96512,-37.31488 62.36853,-28.77186q19.34354,4.42644 30.40964,17.5287q11.64154,13.76623 13.50064,34.79181a5.48878,5.44452 15.4 0 0 2.25748,3.93953q34.70328,24.16836 11.64154,60.86354q-4.16085,6.59539 -14.51872,10.80051q-6.72819,2.70013 -17.35164,3.09851q-57.23386,1.94763 -114.46772,-0.17706q-0.35412,0 -10.00375,0.13279q-20.84853,0.22132 -29.03744,-17.17458q-14.2974,-30.40964 15.22695,-46.56614a5.93143,5.79864 85.8 0 0 2.65586,-3.14277zm8.18891,13.50064q-9.78243,1.81484 -14.38593,9.38405q-4.6035,7.65774 -1.77058,17.04179q4.29365,14.12034 21.91087,14.47446q52.40904,1.01808 121.85987,-0.88529q9.42832,-0.26559 14.60725,-3.2313q7.48068,-4.24938 10.4464,-11.64154q9.0742,-22.92896 -11.64154,-34.88034q-0.30985,-0.22132 -5.2232,-2.08043q-5.97569,-2.30175 -3.58542,-9.42832q0.75249,-2.34601 0.44264,-4.24938q-6.94951,-40.59045 -43.60043,-40.1478q-14.9171,0.22132 -25.40776,8.18891q-11.33168,8.63156 -16.51062,22.92896a2.83292,2.78866 -77 0 1 -2.92145,1.8591q-34.70328,-3.36409 -41.65279,30.14405a3.2313,3.2313 -89.4 0 1 -2.56733,2.52307z" fill="#929497"/>
   <path id="svg_4" d="m74.44356,138.88663q6.94951,-33.50815 41.65279,-30.14405a2.83292,2.78866 -77 0 0 2.92145,-1.8591q5.17893,-14.2974 16.51062,-22.92896q10.49066,-7.96759 25.40776,-8.18891q36.65092,-0.44264 43.60043,40.1478q0.30985,1.90337 -0.44264,4.24938q-2.39028,7.12657 3.58542,9.42832q4.91335,1.8591 5.2232,2.08043q20.71574,11.95139 11.64154,34.88034q-2.96571,7.39215 -10.4464,11.64154q-5.17893,2.96571 -14.60725,3.2313q-69.45083,1.90337 -121.85987,0.88529q-17.61723,-0.35412 -21.91087,-14.47446q-2.83292,-9.38405 1.77058,-17.04179q4.6035,-7.56921 14.38593,-9.38405a3.2313,3.2313 -89.4 0 0 2.56733,-2.52307z" fill="#e6e7e8"/>
   <path id="svg_5" d="m96.13311,211.87862q2.52307,-4.86908 11.37595,-2.39028a2.03616,1.94763 20.7 0 1 1.32793,2.74439l-16.55488,33.72947a4.86908,4.24938 4.6 0 1 -3.27557,2.43454q-13.58917,2.87719 -8.10038,-6.90525q3.27557,-5.75437 3.54115,-6.28554q5.62158,-11.77433 11.6858,-23.32734z" fill-opacity="0.996" fill="#1f87e6"/>
   <path id="svg_6" d="m127.56083,208.86864q3.2313,-0.97382 6.68392,0.22132a2.12469,2.08043 23 0 1 1.19514,2.92145l-16.59915,33.95079a5.17893,5.13467 -84.6 0 1 -3.2313,2.70013q-4.55923,1.28367 -8.49876,-0.92955a2.6116,2.30175 -62.8 0 1 -0.84102,-3.27557q7.2151,-15.31548 15.49254,-30.05552q2.56733,-4.51497 5.79864,-5.53305z" fill-opacity="0.996" fill="#1f87e6"/>
   <path id="svg_7" d="m154.11946,208.86864q3.2313,-0.97382 6.68392,0.22132a2.16896,2.08043 -69.1 0 1 1.19514,2.87719q-9.6939,23.23881 -15.49254,32.57859q-4.82482,7.79053 -12.79241,3.14277a2.56733,2.39028 -62.3 0 1 -0.88529,-3.2313q7.25936,-15.27122 15.5368,-30.01126q2.52307,-4.55923 5.75437,-5.57731z" fill-opacity="0.996" fill="#1f87e6"/>
   <path id="svg_8" d="m180.5453,208.73585q3.54115,-1.15087 7.0823,1.01808a2.65586,2.43454 -60.6 0 1 0.79676,3.36409l-15.97945,32.22448a5.97569,5.04614 -83.1 0 1 -3.05424,2.83292q-4.38217,1.59352 -8.89714,0.22132a2.08043,2.03616 -69.9 0 1 -1.2394,-2.78866q6.90525,-16.06797 15.58107,-31.2064q2.70013,-4.64776 5.71011,-5.66584z" fill-opacity="0.996" fill="#1f87e6"/>
  </g>
 </g>
</svg>