<svg width="256" height="256" xmlns="http://www.w3.org/2000/svg" version="1.1">
 <title>230</title>

 <g>
  <title>Layer 1</title>
  <g id="svg_7">
   <path id="svg_1" d="m171.34196,176.65209q-81.45543,2.33184 -128.19824,-1.37791q-14.20303,-1.11292 -23.4244,-12.18917q-8.05545,-9.64534 -9.69834,-22.89444q-2.9678,-23.90137 19.34368,-39.69429q3.28578,-2.33184 5.24664,-5.8296q19.82065,-36.09053 53.89732,-39.42931a5.61762,5.45863 13.3 0 0 4.08072,-2.43783q29.73097,-46.53082 78.01067,-33.01674q22.31148,6.25357 34.12967,21.62252q12.40115,16.1109 15.10397,40.01227a7.57848,7.57848 -78.5 0 0 3.81574,5.77661q11.81819,6.67754 17.91278,18.23075q5.24664,10.12231 4.71668,23.95436q-1.58989,42.66208 -50.77053,45.89486q-18.91971,1.21892 -24.16635,1.37791zm32.64577,-83.84027q2.33184,-36.03754 -23.00043,-51.93645q-20.72158,-12.98411 -44.03999,-5.8296q-24.74931,7.68447 -34.97761,35.40158a3.28578,3.23278 -76.2 0 1 -3.44476,2.11986q-37.41544,-4.55769 -50.08158,35.40158a5.56462,5.56462 -88 0 1 -3.97473,3.70975q-4.92866,1.27191 -9.06238,3.97473q-3.86874,2.49083 -6.35957,7.20751q-9.32736,17.5948 2.22585,29.201q7.20751,7.2605 23.4774,7.79047q71.22713,2.38484 142.40127,-0.10599q12.82512,-0.42397 19.66166,-4.50469q10.49328,-6.14758 13.1431,-17.06483q7.73747,-31.69183 -23.63638,-41.92013a3.44476,3.39177 11.2 0 1 -2.33184,-3.44476z" fill="#929497"/>
   <path id="svg_2" d="m206.31957,96.25658q31.37386,10.2283 23.63638,41.92013q-2.64982,10.91725 -13.1431,17.06483q-6.83653,4.08072 -19.66166,4.50469q-71.17414,2.49083 -142.40127,0.10599q-16.26989,-0.52996 -23.4774,-7.79047q-11.55321,-11.60621 -2.22585,-29.201q2.49083,-4.71668 6.35957,-7.20751q4.13372,-2.70282 9.06238,-3.97473a5.56462,5.56462 -88 0 0 3.97473,-3.70975q12.66613,-39.95927 50.08158,-35.40158a3.28578,3.23278 -76.2 0 0 3.44476,-2.11986q10.2283,-27.71711 34.97761,-35.40158q23.31841,-7.15451 44.03999,5.8296q25.33227,15.89891 23.00043,51.93645a3.44476,3.39177 11.2 0 0 2.33184,3.44476z" fill="#e6e7e8"/>
   <path id="svg_3" d="m72.6097,210.25179q14.04404,-1.96087 9.64534,9.91032a3.49776,3.17978 12.8 0 1 -3.65675,2.06686q-13.09011,-1.53689 -5.35263,8.05545a4.76967,3.86874 40.2 0 1 0.84794,4.50469q-1.85487,3.97473 -6.09458,4.4517a4.18671,3.33877 72.5 0 1 -3.70975,-2.49083q-5.19365,-10.81126 -10.70527,-0.26498a3.92173,3.49776 -70.1 0 1 -3.81574,2.06686q-10.2813,-1.74888 -4.13372,-12.03018a2.8618,2.33184 -60.1 0 0 -0.63596,-3.76274q-2.43783,-1.27191 -5.56462,-0.74195a3.76274,3.23278 -15.3 0 1 -3.81574,-1.80188q-4.3987,-10.01632 7.52549,-9.43336a3.33877,2.22585 2 0 0 3.55076,-2.17285q-0.053,-2.43783 -3.07379,-6.09458a4.23971,4.23971 -30.6 0 1 1.69588,-6.62455q8.37343,-3.44476 10.06931,4.23971q1.69588,7.3135 5.98859,0q7.2605,-12.40115 12.56014,-0.74195a5.56462,2.75581 -53.4 0 1 -0.79495,4.3457l-2.43783,4.3987q-1.4839,2.59682 1.90787,2.11986z" fill-opacity="0.996" fill="#d0d2d2"/>
   <path id="svg_4" d="m136.20536,210.25179q14.04404,-1.96087 9.64534,9.91032a3.49776,3.17978 12.8 0 1 -3.65675,2.06686q-13.09011,-1.53689 -5.35263,8.05545a4.76967,3.86874 40.2 0 1 0.84794,4.50469q-1.85487,3.97473 -6.09458,4.4517a4.3987,3.39177 71 0 1 -3.76274,-2.49083q-5.19365,-10.75826 -10.65227,-0.26498a4.50469,3.65675 -71.4 0 1 -3.76274,2.38484q-7.2605,-0.63596 -5.67061,-8.00245q0.31798,-1.4309 1.96087,-4.23971q3.60375,-6.25357 -5.67061,-3.65675a4.3457,4.3457 -16.2 0 1 -5.35263,-2.9148q-3.17978,-10.86426 8.10845,-9.43336a3.12679,2.11986 4.3 0 0 3.49776,-2.01386q-0.053,-2.43783 -3.07379,-6.09458a4.23971,4.23971 -30.6 0 1 1.69588,-6.62455q8.37343,-3.44476 10.06931,4.23971q1.69588,7.3135 5.98859,0q7.2605,-12.40115 12.56014,-0.74195a5.56462,2.75581 -53.4 0 1 -0.79495,4.3457l-2.43783,4.3987q-1.4839,2.59682 1.90787,2.11986z" fill-opacity="0.996" fill="#d0d2d2"/>
   <rect id="svg_5" rx="0.58" height="2.46" width="13.48" transform="matrix(5.29961, 0.0184992, -0.0184992, 5.29961, -40.6657, -73.2339)" y="51.27211" x="39.01773" fill-opacity="0.996" fill="#d0d2d2"/>
   <rect id="svg_6" rx="0.55" height="2.38" width="10.94" transform="matrix(5.29924, 0.0647457, -0.0647457, 5.29924, -37.943, -75.2471)" y="55.60213" x="39.01758" fill-opacity="0.996" fill="#d0d2d2"/>
  </g>
 </g>
</svg>