<svg width="256" height="256" xmlns="http://www.w3.org/2000/svg" version="1.1">
 <title>296</title>

 <g>
  <title>Layer 1</title>
  <g id="svg_5">
   <path id="svg_1" d="m18.62595,109.29864q5.86783,-6.97796 13.63874,-11.84139a7.98236,7.71805 -5.7 0 0 3.1718,-3.7533q12.52861,-31.24223 52.4933,-39.64751a8.19382,8.03523 10.8 0 0 4.91629,-3.27753q19.08367,-27.38321 46.20256,-33.03959q27.22462,-5.65638 51.01312,10.20262q25.74445,17.18059 29.23343,52.96907a5.49779,5.44492 13.4 0 0 2.53744,4.07048q30.44928,19.50657 23.15414,53.76202q-6.76651,31.718 -42.29067,35.68275q-30.76646,3.43612 -147.64731,0.42291q-19.45371,-0.52863 -28.38761,-6.60792q-13.16297,-9.03963 -16.33477,-26.9603q-3.27753,-18.18499 8.29954,-31.98232zm184.70451,-17.07486q2.11453,-20.56384 -7.82377,-36.26425q-9.19822,-14.59028 -27.85898,-20.66957q-41.18054,-13.58588 -65.92059,33.99113a5.3392,5.3392 -71.4 0 1 -5.60351,2.80176q-34.62549,-5.81497 -48.10564,35.15412a5.7621,5.70924 -87.5 0 1 -4.12334,3.80616q-7.66518,1.85022 -12.05284,8.511q-13.11011,19.82375 -0.37004,31.82373q7.45373,7.08369 24.84577,7.66518q70.04393,2.32599 140.08785,-0.10573q12.79293,-0.42291 19.6123,-4.49338q10.46694,-6.13215 13.11011,-17.022q7.71805,-31.61228 -23.57705,-41.8149a3.27753,3.1718 12.6 0 1 -2.22026,-3.38325z" fill="#929497"/>
   <path id="svg_2" d="m205.55072,95.60703q31.2951,10.20262 23.57705,41.8149q-2.64317,10.88985 -13.11011,17.022q-6.81937,4.07048 -19.6123,4.49338q-70.04393,2.43171 -140.08785,0.10573q-17.39204,-0.5815 -24.84577,-7.66518q-12.74007,-11.99998 0.37004,-31.82373q4.38766,-6.66078 12.05284,-8.511a5.7621,5.70924 -87.5 0 0 4.12334,-3.80616q13.48015,-40.96909 48.10564,-35.15412a5.3392,5.3392 -71.4 0 0 5.60351,-2.80176q24.74004,-47.57701 65.92059,-33.99113q18.66076,6.07928 27.85898,20.66957q9.93831,15.70041 7.82377,36.26425a3.27753,3.1718 12.6 0 0 2.22026,3.38325z" fill="#e6e7e8"/>
   <path id="svg_3" d="m105.90332,195.25443q3.85902,-7.66518 13.74447,-3.48898a2.74889,2.64317 23.9 0 1 1.48017,3.59471l-19.82375,40.54618a6.13215,5.39206 4.6 0 1 -3.96475,2.96035q-18.66076,4.22907 -9.03963,-11.84139q9.35681,-15.59469 17.60349,-31.77087z" fill-opacity="0.996" fill="#1f87e7"/>
   <path id="svg_4" d="m132.38786,206.46146q2.32599,-4.33479 3.33039,-8.77531q1.95594,-8.40527 16.59909,-5.23347a2.06167,2.06167 -71 0 1 1.42731,2.96035q-9.83258,19.34798 -17.92067,37.21579q-3.80616,8.40527 -16.59909,6.02642a2.80176,2.80176 19.7 0 1 -1.95594,-4.07048l15.11892,-28.1233z" fill-opacity="0.996" fill="#1f87e7"/>
  </g>
 </g>
</svg>