<svg width="256" height="256" xmlns="http://www.w3.org/2000/svg" version="1.1">
 <title>329</title>

 <g>
  <title>Layer 1</title>
  <g id="svg_6">
   <path id="svg_1" d="m84.79749,14.7628a2.23439,2.23439 0 0 1 0,3.75377q-9.33973,6.07753 -13.18287,15.05976q-13.71913,31.81765 12.3785,48.7096q5.0944,3.2622 -0.44688,5.8094q-38.69956,17.47289 -59.03246,-9.38442q-10.85911,-14.30007 -9.78661,-31.6389q1.25126,-19.84134 17.38352,-31.6389q12.06568,-8.84817 25.42731,-9.07161q13.85319,-0.22344 27.2595,8.40129zm-44.7324,60.95404q8.89285,7.10535 21.89698,6.30097a1.47469,1.47469 -18.2 0 0 1.16188,-2.27907q-18.1879,-29.49389 0,-57.33433q1.8322,-2.86001 -1.56407,-2.86001q-20.77979,-0.04469 -29.40451,16.98133q-11.88693,23.37167 7.90972,39.19112z" fill="#0073da"/>
   <path id="svg_2" d="m40.0651,75.71683q-19.79666,-15.81945 -7.90972,-39.19112q8.62473,-17.02602 29.40451,-16.98133q3.39627,0 1.56407,2.86001q-18.1879,27.84044 0,57.33433a1.47469,1.47469 -18.2 0 1 -1.16188,2.27907q-13.00412,0.80438 -21.89698,-6.30097z" fill="#ffffff"/>
   <path id="svg_3" d="m63.12395,128.85052q9.47379,-26.99138 43.74927,-34.32016a8.53535,8.40129 11.7 0 0 5.18377,-3.35158q21.85229,-30.07483 52.32931,-28.46607q21.98635,1.11719 36.3758,15.50664q13.98725,14.03194 18.1879,38.38674a8.26723,8.13316 13 0 0 3.35158,5.27315q13.451,9.47379 17.47289,23.46105q3.93252,13.62975 -1.8322,27.34888q-5.58596,13.36163 -18.76884,19.48384q-8.08848,3.79846 -25.29324,4.29002q-77.93537,2.32376 -124.45527,-0.40219q-10.9038,-0.62563 -18.59009,-8.98223q-6.34565,-6.9266 -8.66942,-17.51758q-5.31784,-24.48886 18.32196,-37.53768a5.76471,5.72003 85.1 0 0 2.63657,-3.17283zm8.31191,13.62975q-9.87598,1.8322 -14.52351,9.47379q-4.64752,7.73097 -1.78751,17.20477q4.33471,14.25538 22.12042,14.61288q53.13369,1.02782 123.02527,-0.89375q9.47379,-0.26813 14.74694,-3.12814q8.08848,-4.33471 10.5463,-11.88693q8.98223,-27.75107 -17.51758,-37.67174a4.02189,4.02189 10.4 0 1 -2.59189,-3.75377q-0.04469,-23.32698 -12.06568,-36.86736q-11.88693,-13.31694 -32.48797,-13.451q-29.40451,-0.17875 -41.8277,31.54952a2.9047,2.9047 -76.4 0 1 -2.99408,1.8322q-35.07985,-3.44095 -42.05113,30.43233a3.2622,3.2622 -89.4 0 1 -2.59189,2.5472z" fill="#929497"/>
   <path id="svg_4" d="m74.02776,139.93307q6.97128,-33.87328 42.05113,-30.43233a2.9047,2.9047 -76.4 0 0 2.99408,-1.8322q12.42318,-31.72827 41.8277,-31.54952q20.60103,0.13406 32.48797,13.451q12.02099,13.54038 12.06568,36.86736a4.02189,4.02189 10.4 0 0 2.59189,3.75377q26.49981,9.92067 17.51758,37.67174q-2.45782,7.55222 -10.5463,11.88693q-5.27315,2.86001 -14.74694,3.12814q-69.89158,1.92157 -123.02527,0.89375q-17.78571,-0.3575 -22.12042,-14.61288q-2.86001,-9.47379 1.78751,-17.20477q4.64752,-7.6416 14.52351,-9.47379a3.2622,3.2622 -89.4 0 0 2.59189,-2.5472z" fill="#e6e7e8"/>
   <path id="svg_5" d="m147.89654,226.13566l5.31784,0.13406a3.66439,2.77064 -5.6 0 1 3.17283,1.96626q2.23439,6.47972 -8.26723,8.98223a1.96626,1.96626 -25.2 0 0 -1.11719,3.08345q6.39034,8.84817 -3.57502,9.11629a3.6197,3.12814 74.5 0 1 -3.12814,-2.10032q-4.24533,-8.62473 -7.82035,0a3.75377,3.17283 -77.4 0 1 -3.03876,2.32376q-8.40129,0.17875 -3.93252,-11.35068a1.69813,1.65345 -83.4 0 0 -1.78751,-2.27907q-8.04379,1.20657 -7.55222,-5.27315q0.40219,-6.07753 6.97128,-5.00502a2.23439,1.92157 7 0 0 2.5472,-1.69813q0.17875,-2.99408 -1.87688,-5.4519a2.94939,2.45782 45.2 0 1 -0.31281,-3.39627q5.89878,-7.50754 10.59099,1.43001a2.45782,2.10032 61.7 0 0 3.03876,1.16188q2.45782,-1.34063 4.11127,-3.84314a3.08345,2.59189 -63.3 0 1 3.21752,-1.38532q8.98223,3.03876 2.63657,11.6188q-1.38532,1.92157 0.80438,1.96626z" fill-opacity="0.996" fill="#d0d1d2"/>
  </g>
 </g>
</svg>