<svg width="256" height="256" xmlns="http://www.w3.org/2000/svg" version="1.1">
 <title>260</title>

 <g>
  <title>Layer 1</title>
  <g id="svg_6">
   <path id="svg_1" d="m17.99475,114.59445q3.4887,-5.85028 13.79377,-12.07626a8.05084,7.78248 85.3 0 0 3.22034,-3.91808q12.72033,-32.5254 53.18923,-39.66381a6.54802,6.54802 -78 0 0 4.29378,-2.79096q17.76552,-26.5141 43.31353,-33.70619q26.24574,-7.3531 50.12991,6.06497q28.87568,16.2627 36.12144,57.96606a6.44067,6.22598 13.1 0 0 2.73729,4.24011q23.40111,15.99434 23.02541,41.64969q-0.48305,28.0706 -20.34179,40.89827q-11.43219,7.40677 -36.17511,7.46045q-69.23724,0.10734 -138.47447,-0.26836q-16.47739,-0.10734 -26.46043,-6.60169q-31.5593,-20.50281 -8.37287,-59.25419zm26.99715,1.01977q-36.3898,15.61863 -10.68078,45.2994a8.69491,8.21186 74.1 0 0 4.40113,2.62994q9.92937,2.09322 30.5932,2.36158q62.58187,0.85876 125.16375,-0.91243q18.30225,-0.48305 26.99715,-7.24576q13.52541,-10.57344 11.00282,-29.30506q-1.44915,-10.62711 -7.88982,-17.28247q-6.76271,-6.87005 -17.33615,-10.14406a3.43503,3.38135 13.7 0 1 -2.36158,-3.81073q2.62994,-17.33615 -4.4548,-31.72031q-6.27966,-12.66666 -21.20055,-21.52258q-37.9463,-22.59603 -68.37848,14.3305q-2.25424,2.68361 -4.88418,10.35875q-2.73729,7.88982 -10.14406,7.62146q-11.70056,-0.37571 -12.18361,-0.26836q-29.09037,6.06497 -35.58472,35.96042a5.36723,5.20621 -5.7 0 1 -3.05932,3.64971z" fill-opacity="0.996" fill="#d2d2d3"/>
   <path id="svg_2" d="m48.05123,111.96451q6.49435,-29.89546 35.58472,-35.96042q0.48305,-0.10734 12.18361,0.26836q7.40677,0.26836 10.14406,-7.62146q2.62994,-7.67514 4.88418,-10.35875q30.43218,-36.92653 68.37848,-14.3305q14.92089,8.85593 21.20055,21.52258q7.08474,14.38417 4.4548,31.72031a3.43503,3.38135 13.7 0 0 2.36158,3.81073q10.57344,3.27401 17.33615,10.14406q6.44067,6.65536 7.88982,17.28247q2.5226,18.73162 -11.00282,29.30506q-8.69491,6.76271 -26.99715,7.24576q-62.58187,1.77119 -125.16375,0.91243q-20.66383,-0.26836 -30.5932,-2.36158a8.69491,8.21186 74.1 0 1 -4.40113,-2.62994q-25.70902,-29.68077 10.68078,-45.2994a5.36723,5.20621 -5.7 0 0 3.05932,-3.64971z" fill-opacity="0.306" fill="#f4f8f9"/>
   <path id="svg_3" d="m58.67834,233.96159q-1.39548,2.8983 -2.79096,0.10734l-17.71185,-36.22879a2.09322,1.98587 74.8 0 1 1.61017,-3.00565l32.95478,-1.77119a3.81073,3.59604 -77.2 0 1 3.22034,5.47457l-17.28247,35.4237z" fill-opacity="0.996" fill="#d2d2d3"/>
   <path id="svg_4" d="m97.2687,195.96162a6.44067,6.44067 19.8 0 1 4.56214,-2.14689q55.01408,-2.41525 108.68636,-0.16102q0.42938,0 4.02542,-0.26836q7.78248,-0.64407 4.02542,14.06214a1.87853,1.82486 -82.2 0 1 -1.77119,1.39548q-58.93216,0 -117.91799,1.28813q-14.92089,0.32203 -1.61017,-14.16948z" fill-opacity="0.996" fill="#d2d2d3"/>
   <path id="svg_5" d="m78.48341,233.21018l4.29378,-11.21751a4.8305,3.00565 5.6 0 1 4.24011,-2.09322l128.00838,-0.32203a4.29378,4.24011 83.6 0 1 4.13277,3.32768q3.05932,14.11581 -7.62146,13.20338q-4.93785,-0.42938 -5.47457,-0.42938q-63.01125,0 -125.75414,0a1.9322,1.82486 9.7 0 1 -1.82486,-2.46892z" fill-opacity="0.996" fill="#d2d2d3"/>
  </g>
 </g>
</svg>