<svg width="256" height="256" xmlns="http://www.w3.org/2000/svg" version="1.1">
 <title>200</title>

 <g>
  <title>Layer 1</title>
  <g id="svg_6">
   <path id="svg_1" d="m85.42947,14.62551a1.73539,1.73539 40.6 0 1 0.22249,2.75883q-36.97726,32.9725 -0.0445,65.9005a2.13587,2.09137 53.4 0 1 -0.48947,3.47079q-42.13894,20.29077 -62.51871,-12.32575q-9.16644,-14.59511 -7.07507,-30.25816q2.35836,-18.1549 16.99797,-29.01224q12.01427,-8.89946 25.54145,-9.07745q13.83866,-0.13349 27.36584,8.54348zm-44.85328,60.51633q8.85496,7.07507 21.80368,6.27412a1.46841,1.46841 -18.2 0 0 1.15693,-2.26936q-18.1104,-29.36822 0,-57.09003q1.82439,-2.84783 -1.55741,-2.84783q-20.69124,-0.0445 -29.27922,16.90897q-11.83628,23.27209 7.87602,39.02413z" fill="#0073da"/>
   <path id="svg_2" d="m40.57619,75.14184q-19.7123,-15.75204 -7.87602,-39.02413q8.58798,-16.95347 29.27922,-16.90897q3.38179,0 1.55741,2.84783q-18.1104,27.72182 0,57.09003a1.46841,1.46841 -18.2 0 1 -1.15693,2.26936q-12.94871,0.80095 -21.80368,-6.27412z" fill="#ffffff"/>
   <path id="svg_3" d="m156.58065,194.79508l4.44973,-11.88078q17.79892,-0.40048 35.59784,-0.22249q17.70993,0.22249 25.94193,-11.5248q7.87602,-11.21332 3.51529,-24.60701q-4.27174,-13.08221 -19.26733,-17.97691a2.80333,2.80333 10.6 0 1 -1.95788,-2.84783q1.86889,-26.52039 -15.30707,-40.44804q-16.15252,-13.08221 -37.15524,-9.07745q-23.71706,4.53872 -32.70551,31.2816a2.62534,2.53635 13.3 0 1 -2.89232,1.73539q-35.06387,-5.07269 -41.87196,29.32372a3.42629,3.2928 -1.5 0 1 -2.62534,2.62534q-12.68173,2.89232 -16.464,13.66067q-3.15931,8.94396 1.33492,17.70993q5.25068,10.18988 17.08696,10.18988q29.94668,0 59.89336,0q-1.51291,5.82915 -5.33968,10.41237a1.42391,1.24592 -49.8 0 0 0.0445,1.86889l1.02344,0.88995q-24.87399,0.08899 -49.70348,-0.57846q-16.33051,-0.40048 -24.16203,-5.25068q-12.32575,-7.65354 -14.01665,-22.91611q-2.71434,-24.56251 17.13146,-35.10837a10.14538,9.9229 -3.1 0 0 4.58322,-4.9837q12.14776,-28.92324 43.16238,-32.39403a7.47555,7.43105 10.4 0 0 5.78465,-3.96026q7.11957,-13.88316 20.60225,-21.4922q12.05877,-6.76359 27.67732,-6.71909q44.23032,0.13349 58.46945,53.08528a10.32337,10.05639 13.5 0 0 3.2483,5.16169q15.17358,13.08221 17.70993,29.01224q2.40285,15.21808 -6.85258,28.87875q-9.70041,14.37263 -28.0333,16.33051q-0.97894,0.08899 -24.38452,1.02344q-12.28125,0.48947 -24.51801,-1.20143z" fill="#333333"/>
   <path id="svg_4" d="m161.03038,182.9143q-5.56216,0.66746 -10.23438,-1.37942a2.26936,1.91338 -65.3 0 1 -0.80095,-2.89232l9.21094,-19.35633a2.35836,2.22486 23.8 0 0 -1.29042,-3.11481q-4.31624,-1.73539 -8.00951,0.08899q-2.93682,1.46841 -5.51767,6.98608q-4.67222,9.9674 -10.23438,19.48982q-29.94668,0 -59.89336,0q-11.83628,0 -17.08696,-10.18988q-4.49423,-8.76597 -1.33492,-17.70993q3.78227,-10.76835 16.464,-13.66067a3.42629,3.2928 -1.5 0 0 2.62534,-2.62534q6.80809,-34.39641 41.87196,-29.32372a2.62534,2.53635 13.3 0 0 2.89232,-1.73539q8.98845,-26.74288 32.70551,-31.2816q21.00273,-4.00476 37.15524,9.07745q17.17596,13.92765 15.30707,40.44804a2.80333,2.80333 10.6 0 0 1.95788,2.84783q14.99559,4.8947 19.26733,17.97691q4.36074,13.39369 -3.51529,24.60701q-8.232,11.74729 -25.94193,11.5248q-17.79892,-0.17799 -35.59784,0.22249z" fill="#808285"/>
   <path id="svg_5" d="m161.03038,182.9143l-4.44973,11.88078q-4.67222,4.62772 -7.16407,11.65829q-1.46841,4.09375 2.80333,3.20381q10.81284,-2.22486 6.94158,5.38417q-6.6301,12.99321 -13.70517,25.76394q-0.26698,0.48947 -1.73539,4.18275q-2.71434,6.67459 -12.41475,4.31624a3.02582,2.93682 -69.1 0 1 -1.82439,-4.31624l9.8784,-18.95585q2.09137,-4.00476 -2.49185,-3.2928q-12.85972,2.04688 -6.40761,-7.96502q5.07269,-7.92052 9.29994,-16.4195a1.46841,1.46841 -75.5 0 0 -1.24592,-2.13587l-8.63248,-0.31148l-1.02344,-0.88995a1.42391,1.24592 -49.8 0 1 -0.0445,-1.86889q3.82677,-4.58322 5.33968,-10.41237q5.56216,-9.52242 10.23438,-19.48982q2.58084,-5.51767 5.51767,-6.98608q3.69328,-1.82439 8.00951,-0.08899a2.35836,2.22486 23.8 0 1 1.29042,3.11481l-9.21094,19.35633a2.26936,1.91338 -65.3 0 0 0.80095,2.89232q4.67222,2.04688 10.23438,1.37942z" fill="#feb101"/>
  </g>
 </g>
</svg>