<svg width="256" height="256" xmlns="http://www.w3.org/2000/svg" version="1.1">
 <title>332</title>

 <g>
  <title>Layer 1</title>
  <g id="svg_4">
   <path id="svg_1" d="m59.70965,175.48269q-4.02322,-0.10729 -8.10008,0.16093q-19.47239,1.44836 -31.43477,-10.56766q-11.15773,-11.15773 -11.96238,-27.78705q-1.1265,-22.63732 21.77904,-38.83749q3.16493,-2.253 4.82787,-5.68615q17.59489,-35.61892 52.94559,-38.67656a5.41794,5.14972 11.8 0 0 4.02322,-2.46758q19.68696,-32.88313 53.64295,-35.94077q29.18176,-2.68215 49.72701,14.4836q20.65253,17.16574 25.90954,50.31708a9.28023,9.17294 10.3 0 0 4.61329,6.59808q11.31866,6.38351 17.21939,18.13132q5.09608,10.19216 4.93515,23.44197q-0.3755,26.44597 -20.81346,39.15935q-12.49881,7.72458 -39.37392,8.3683q-58.47081,1.28743 -127.93842,-0.69736zm144.94324,-83.36114q2.36029,-36.4772 -23.28104,-52.57009q-20.97439,-13.14252 -44.57729,-5.90072q-25.05126,7.77823 -35.40434,35.83349a3.32586,3.27222 -76.2 0 1 -3.48679,2.14572q-37.87192,-4.61329 -50.74623,35.99442a5.31065,5.31065 -89.4 0 1 -3.48679,3.43315q-23.28104,7.34908 -19.25782,31.11291q2.89672,16.7366 19.90153,17.43396q75.63655,2.95036 153.41882,0.26821q12.98159,-0.42914 19.90153,-4.55965q10.6213,-6.22258 13.30345,-17.27303q7.83187,-32.07848 -23.92475,-42.43157a3.48679,3.43315 11.2 0 1 -2.36029,-3.48679z" fill="#929497"/>
   <path id="svg_2" d="m207.01317,95.60834q31.75662,10.35309 23.92475,42.43157q-2.68215,11.05045 -13.30345,17.27303q-6.91994,4.13051 -19.90153,4.55965q-77.78227,2.68215 -153.41882,-0.26821q-17.00481,-0.69736 -19.90153,-17.43396q-4.02322,-23.76382 19.25782,-31.11291a5.31065,5.31065 -89.4 0 0 3.48679,-3.43315q12.87431,-40.60771 50.74623,-35.99442a3.32586,3.27222 -76.2 0 0 3.48679,-2.14572q10.35309,-28.05526 35.40434,-35.83349q23.6029,-7.2418 44.57729,5.90072q25.64133,16.09288 23.28104,52.57009a3.48679,3.43315 11.2 0 0 2.36029,3.48679z" fill="#e6e7e8"/>
   <path id="svg_3" d="m107.2373,224.51234q-11.31866,0.751 -9.38752,-9.76302a3.05765,2.84308 7.9 0 1 3.27222,-2.30665q14.53724,1.18014 5.84708,-9.65573a3.80865,3.05765 46.1 0 1 -0.3755,-4.29144q2.30665,-2.95036 6.00801,-3.59408a4.07686,3.27222 69.4 0 1 3.80865,2.253q5.41794,10.2458 11.64052,-0.10729a3.64772,3.27222 -65.6 0 1 3.86229,-1.71657q10.94316,3.21858 2.89672,13.08888q-2.09207,2.57486 0.751,2.89672l6.8663,0.751a4.50601,2.78943 -0.7 0 1 3.59408,2.19936q3.80865,11.21138 -7.34908,9.17294a4.82787,3.004 15.8 0 0 -4.50601,1.28743q-1.60929,2.68215 2.41393,5.95437a4.02322,4.02322 -53.1 0 1 0.751,5.47158q-6.16894,8.63651 -10.46037,0.80464q-5.31065,-9.76302 -9.33387,0.16093a3.96958,3.59408 -76.2 0 1 -3.64772,2.46758q-11.53323,-0.85829 -5.31065,-12.98159q1.1265,-2.253 -1.34107,-2.09207z" fill-opacity="0.996" fill="#d0d2d2"/>
  </g>
 </g>
</svg>