<svg width="256" height="256" xmlns="http://www.w3.org/2000/svg" version="1.1">
 <title>185</title>

 <g>
  <title>Layer 1</title>
  <g id="svg_7">
   <path id="svg_1" d="m19.40455,114.33743q3.26226,-5.63002 13.46996,-11.83883a8.0504,7.94517 -4.7 0 0 3.26226,-3.78843q14.15398,-35.04294 52.30132,-38.72613a5.15647,5.10385 12 0 0 3.94628,-2.52562q13.99613,-23.99336 38.14734,-32.09638q23.73028,-7.99779 46.40821,1.52589q32.93825,13.78566 43.14596,58.61536a13.57519,13.52257 -78.8 0 0 5.20909,7.83994q14.838,10.57602 19.04736,26.78206q3.99889,15.36417 -2.20991,30.72834q-6.15619,15.10108 -20.52064,22.94102q-9.73415,5.2617 -28.62366,5.63002q-69.29662,1.31543 -138.59323,-0.26309q-17.36362,-0.42094 -27.46608,-7.26115q-29.3603,-19.99447 -7.52423,-57.56302zm183.68602,-17.10053q2.31515,-35.77957 -22.83579,-51.56468q-20.57326,-12.89117 -43.72474,-5.78787q-24.57215,7.62947 -34.72723,35.14817a3.26226,3.20964 -76.2 0 1 -3.42011,2.10468q-37.14762,-4.52506 -49.7757,35.30602a5.20909,5.20909 -89.4 0 1 -3.42011,3.36749q-22.83579,7.20853 -18.88951,30.51787q2.84132,16.41651 19.4683,17.10053q74.24262,2.94655 150.5373,0.26309q12.73332,-0.42094 19.52091,-4.47245q10.41817,-6.10357 13.04902,-16.94268q7.68209,-31.46498 -23.46719,-41.62006a3.42011,3.36749 11.2 0 1 -2.31515,-3.42011z" fill="#929497"/>
   <path id="svg_2" d="m205.40571,100.657q31.14928,10.15508 23.46719,41.62006q-2.63085,10.83911 -13.04902,16.94268q-6.7876,4.05151 -19.52091,4.47245q-76.29468,2.68347 -150.5373,-0.26309q-16.62698,-0.68402 -19.4683,-17.10053q-3.94628,-23.30934 18.88951,-30.51787a5.20909,5.20909 -89.4 0 0 3.42011,-3.36749q12.62808,-39.83108 49.7757,-35.30602a3.26226,3.20964 -76.2 0 0 3.42011,-2.10468q10.15508,-27.5187 34.72723,-35.14817q23.15149,-7.1033 43.72474,5.78787q25.15094,15.78511 22.83579,51.56468a3.42011,3.36749 11.2 0 0 2.31515,3.42011z" fill="#e6e7e8"/>
   <path id="svg_3" d="m74.9155,231.30506q-1.47328,3.15702 -3.26226,-0.15785l-10.10247,-18.99474a3.20964,2.68347 73.5 0 1 1.99945,-4.6303l19.36306,-0.10523a2.20991,1.99945 -76.5 0 1 1.68374,3.1044l-9.68153,20.78372z" fill-opacity="0.996" fill="#dededf"/>
   <path id="svg_4" d="m100.48737,211.04751a7.05068,5.20909 2.4 0 1 4.6303,-3.15702q14.78538,-3.15702 8.94489,7.05068q-3.73581,6.52451 -5.94572,13.73304q-2.57823,8.57657 -14.94323,4.05151a2.73609,2.473 23.1 0 1 -1.57851,-3.47272l8.89228,-18.20549z" fill-opacity="0.996" fill="#dededf"/>
   <path id="svg_5" d="m130.32123,213.88883q1.52589,-2.89394 3.94628,-5.10385q2.26253,-2.1573 5.68264,-2.473q14.89062,-1.52589 5.84049,11.68098q-3.68319,5.31432 -6.7876,11.04957a6.15619,5.63002 -81.7 0 1 -3.73581,3.05179q-19.25783,4.946 -9.47106,-9.99723q0.6314,-0.94711 4.52506,-8.20826z" fill-opacity="0.996" fill="#dededf"/>
   <path id="svg_6" d="m162.10191,212.5734q4.78815,-8.52396 16.36389,-5.63002a2.63085,2.63085 -66.6 0 1 1.57851,3.99889q-3.99889,6.26143 -6.47189,13.52257q-4.3146,12.94379 -16.89006,7.99779a2.89394,2.84132 -70.9 0 1 -1.68374,-3.57796q2.68347,-8.47134 7.1033,-16.31128z" fill-opacity="0.996" fill="#dededf"/>
  </g>
 </g>
</svg>