<svg width="256" height="256" xmlns="http://www.w3.org/2000/svg" version="1.1">
 <title>176</title>

 <g>
  <title>Layer 1</title>
  <g id="svg_7">
   <path id="svg_1" d="m87.00694,19.13721a2.1284,2.1284 0 0 1 0,3.57572q-8.89672,5.78925 -12.55757,14.34543q-13.06839,30.30845 11.79135,46.39917q4.85276,3.10747 -0.42568,5.53385q-36.86393,16.64411 -56.23239,-8.93929q-10.34404,-13.62178 -9.3224,-30.13818q1.19191,-18.90021 16.55897,-30.13818q11.49337,-8.42847 24.22122,-8.64131q13.19609,-0.21284 25.96651,8.00279zm-42.61062,58.06282q8.47104,6.76832 20.85834,6.00209a1.40475,1.40475 -18.2 0 0 1.10677,-2.17097q-17.3252,-28.09491 0,-54.6148q1.74529,-2.72436 -1.48988,-2.72436q-19.79414,-0.04257 -28.00978,16.17586q-11.3231,22.26309 7.53454,37.33218z" fill="#0073da"/>
   <path id="svg_2" d="m44.39633,77.20003q-18.85764,-15.06909 -7.53454,-37.33218q8.21563,-16.21843 28.00978,-16.17586q3.23517,0 1.48988,2.72436q-17.3252,26.51989 0,54.6148a1.40475,1.40475 -18.2 0 1 -1.10677,2.17097q-12.3873,0.76622 -20.85834,-6.00209z" fill="#ffffff"/>
   <path id="svg_3" d="m66.40401,127.856q10.59944,-29.37195 42.39778,-32.43685a4.21424,4.1291 13.3 0 0 3.23517,-1.95813q22.60363,-35.88486 60.02095,-27.11585q18.5171,4.34194 28.94627,16.43127q11.3231,13.11096 13.02582,32.94767a7.44941,7.40684 12 0 0 3.83112,5.87439q9.27983,5.1933 14.00489,14.30286q4.1291,8.00279 3.95883,18.77251q-0.29798,20.13469 -15.70761,30.47872q-9.45011,6.30007 -29.24425,6.93859q-72.57852,2.34124 -118.50944,-0.25541q-10.47174,-0.59595 -17.75088,-8.55618q-6.00209,-6.55548 -8.21563,-16.64411q-5.0656,-23.36986 17.4529,-35.79973a5.66155,5.66155 -4.6 0 0 2.55408,-2.97976zm7.87509,12.94069q-9.40754,1.74529 -13.83462,9.02443q-4.42708,7.36427 -1.70272,16.3887q4.1291,13.57921 21.07118,13.91975q50.52827,0.97907 117.18983,-0.85136q9.02443,-0.25541 14.04746,-2.97976q7.70482,-4.1291 10.04606,-11.3231q8.55618,-26.43476 -16.68667,-35.88486a3.83112,3.83112 10.4 0 1 -2.46895,-3.57572q-0.04257,-22.22052 -11.49337,-35.11864q-11.3231,-12.68528 -30.94697,-12.81298q-28.00978,-0.17027 -39.84369,30.05304a2.76692,2.76692 -76.4 0 1 -2.85206,1.74529q-33.37335,-3.23517 -40.05653,28.98884a3.10747,3.10747 -89.4 0 1 -2.46895,2.42638z" fill="#929497"/>
   <path id="svg_4" d="m76.74804,138.37031q6.68318,-32.22401 40.05653,-28.98884a2.76692,2.76692 -76.4 0 0 2.85206,-1.74529q11.83392,-30.22331 39.84369,-30.05304q19.62387,0.1277 30.94697,12.81298q11.4508,12.89812 11.49337,35.11864a3.83112,3.83112 10.4 0 0 2.46895,3.57572q25.24285,9.45011 16.68667,35.88486q-2.34124,7.194 -10.04606,11.3231q-5.02303,2.72436 -14.04746,2.97976q-66.66156,1.83043 -117.18983,0.85136q-16.94208,-0.34054 -21.07118,-13.91975q-2.72436,-9.02443 1.70272,-16.3887q4.42708,-7.27914 13.83462,-9.02443a3.10747,3.10747 -89.4 0 0 2.46895,-2.42638z" fill="#e6e7e8"/>
   <path id="svg_5" d="m122.55126,237.25589q-3.0649,7.78995 -13.02582,6.72575a3.0649,3.0649 -71.8 0 1 -2.29867,-4.55478q7.96022,-13.74948 14.04746,-28.43546q3.10747,-7.49198 13.62178,-4.85276a1.83043,1.83043 -71.2 0 1 1.23447,2.51151q-4.81019,10.59944 -10.00349,19.75157q-0.25541,0.46825 -3.57572,8.85415z" fill-opacity="0.996" fill="#1f87e6"/>
   <path id="svg_6" d="m153.24282,205.54269q3.40544,-1.10677 6.81089,0.97907a2.59665,2.34124 -61.9 0 1 0.80879,3.1926q-12.13189,25.62596 -15.3245,30.81927q-4.42708,7.15143 -11.87649,2.51151a2.55408,2.34124 -61.3 0 1 -0.76622,-3.15004q6.98116,-14.68598 14.94138,-28.86114q2.51151,-4.51221 5.40614,-5.49128z" fill-opacity="0.996" fill="#1f87e6"/>
  </g>
 </g>
</svg>