<svg width="256" height="256" xmlns="http://www.w3.org/2000/svg" version="1.1">
 <title>263</title>

 <g>
  <title>Layer 1</title>
  <g id="svg_7">
   <path id="svg_1" d="m136.71813,180.64004q-42.29761,1.96857 -84.59523,-0.69166q-21.70745,-1.33011 -31.28427,-10.05566q-15.05689,-13.67357 -10.69411,-38.52009q2.81984,-16.01457 20.32414,-28.46443q2.23459,-1.59614 3.4583,-4.04355q17.71711,-35.59384 52.72571,-38.5733a6.17173,6.01211 13.5 0 0 4.57559,-2.71343q30.11377,-44.90464 75.01841,-34.58295q23.25039,5.32045 36.55152,21.069q13.93959,16.54661 16.22739,41.81877a6.43775,6.38455 -75.5 0 0 2.76664,4.7352q35.54064,24.74011 20.64336,60.38716q-6.11852,14.63125 -17.77032,21.97348q-12.66268,7.98068 -28.67725,7.55505q-12.29025,-0.31923 -13.03511,-0.26602q-11.54539,0.26602 -23.14398,0.0532q-11.97102,-0.15961 -23.09077,0.31923zm66.61209,-83.37152q2.341,-36.17909 -23.09077,-52.14046q-20.80298,-13.03511 -44.21298,-5.8525q-24.84652,7.71466 -35.115,35.54064a3.29868,3.24548 -76.2 0 1 -3.4583,2.12818q-37.56241,-4.57559 -50.3315,35.70025a5.26725,5.26725 -89.4 0 1 -3.4583,3.40509q-23.09077,7.28902 -19.10043,30.85864q2.87305,16.59982 19.68568,17.29148q75.07161,2.97945 152.21821,0.26602q12.8755,-0.42564 19.73889,-4.52239q10.5345,-6.17173 13.19473,-17.13186q7.76786,-31.81632 -23.72923,-42.0848a3.4583,3.40509 11.2 0 1 -2.341,-3.4583z" fill="#929497"/>
   <path id="svg_2" d="m205.67123,100.72681q31.49709,10.26848 23.72923,42.0848q-2.66023,10.96014 -13.19473,17.13186q-6.86339,4.09675 -19.73889,4.52239q-77.14659,2.71343 -152.21821,-0.26602q-16.81264,-0.69166 -19.68568,-17.29148q-3.99034,-23.56961 19.10043,-30.85864a5.26725,5.26725 -89.4 0 0 3.4583,-3.40509q12.76909,-40.27584 50.3315,-35.70025a3.29868,3.24548 -76.2 0 0 3.4583,-2.12818q10.26848,-27.82598 35.115,-35.54064q23.41,-7.18261 44.21298,5.8525q25.43177,15.96136 23.09077,52.14046a3.4583,3.40509 11.2 0 0 2.341,3.4583z" fill="#e6e7e8"/>
   <path id="svg_3" d="m69.09516,212.34995q5.05443,-6.9698 12.8755,-4.14995a2.71343,2.55382 23.5 0 1 1.54293,3.61791l-9.57682,19.36645a6.81018,5.58648 7.9 0 1 -5.26725,3.24548q-15.85495,1.48973 -8.56593,-9.3108q4.36277,-6.49095 8.99157,-12.76909z" fill-opacity="0.996" fill="#1f88e8"/>
   <path id="svg_4" d="m95.53782,221.07549l5.00123,-10.4813a6.01211,4.52239 3.2 0 1 4.14995,-2.76664q16.86584,-2.81984 9.47041,8.67234q-2.341,3.5647 -3.99034,8.40632q-4.25636,12.23705 -17.5043,8.83195a3.13907,2.87305 13.1 0 1 -2.341,-3.40509q0.58525,-2.76664 2.44741,-4.89482q1.48973,-1.75575 2.76664,-4.36277z" fill-opacity="0.996" fill="#1f88e8"/>
   <path id="svg_5" d="m128.04579,219.42615q1.75575,-4.6288 4.41598,-8.88516a6.06532,5.9057 11.2 0 1 4.14995,-2.71343q16.70623,-2.76664 9.63002,8.40632q-2.2878,3.61791 -4.7352,8.77875q-1.86216,4.09675 -4.94802,7.39543a7.71466,7.0762 16.5 0 1 -4.57559,2.23459q-14.84407,1.80895 -8.1403,-7.60825q2.81984,-3.93714 4.20316,-7.60825z" fill-opacity="0.996" fill="#1f88e8"/>
   <path id="svg_6" d="m164.75693,212.29674q5.16084,-6.91659 12.98191,-4.09675a2.71343,2.55382 23.5 0 1 1.54293,3.61791l-9.47041,19.26005a7.18261,5.9057 7.3 0 1 -5.32045,3.35189q-16.75943,1.80895 -8.29991,-10.21527q4.20316,-6.01211 8.56593,-11.91782z" fill-opacity="0.996" fill="#1f88e8"/>
  </g>
 </g>
</svg>