<svg width="256" height="256" xmlns="http://www.w3.org/2000/svg" version="1.1">
 <title>284</title>

 <g>
  <title>Layer 1</title>
  <g id="svg_9">
   <path id="svg_1" d="m130.38519,179.43805q-31.36481,1.20836 -62.72963,-0.26269q-0.52537,-0.05254 -15.07823,0.05254q-24.11465,0.10507 -35.62034,-17.81017q-9.03643,-14.13255 -6.25195,-30.3666q3.09971,-17.91524 20.59465,-27.16182a10.8227,10.77016 -3 0 0 4.93851,-5.46389q13.39703,-33.41377 52.22215,-38.82512a6.30448,6.25195 10.5 0 0 4.67583,-3.20478q13.81733,-25.00779 39.35049,-32.41556q23.64182,-6.8824 47.07349,3.30985q34.46452,15.02569 39.24542,58.26395a5.98926,5.88419 15.9 0 0 2.36418,4.15045q40.03348,29.89377 15.39345,68.24605q-7.72299,12.03106 -18.70331,16.75942q-9.40419,4.09792 -20.01674,4.04538q-11.6633,0 -12.0836,0q-13.86987,0.68299 -27.6872,0.47284q-15.6036,-0.26269 -27.6872,0.21015zm72.44904,-82.74636q2.31164,-35.72541 -22.80122,-51.48663q-20.54211,-12.87166 -43.65856,-5.77911q-24.53495,7.61792 -34.67467,35.09497a3.25732,3.20478 -76.2 0 1 -3.41493,2.10149q-37.09139,-4.51821 -49.70036,35.25258a5.2012,5.2012 -89.4 0 1 -3.41493,3.36239q-22.9063,7.09255 -18.86092,30.47168q2.88956,16.39166 19.49137,17.07465q74.0777,2.94209 150.25689,0.26269q12.71404,-0.4203 19.49137,-4.46568q10.4024,-6.09434 13.02927,-16.91703q7.67046,-31.41735 -23.43167,-41.55706a3.41493,3.36239 11.2 0 1 -2.31164,-3.41493z" fill="#929497"/>
   <path id="svg_2" d="m205.14587,100.10662q31.10213,10.13971 23.43167,41.55706q-2.62687,10.8227 -13.02927,16.91703q-6.77732,4.04538 -19.49137,4.46568q-76.17919,2.67941 -150.25689,-0.26269q-16.60181,-0.68299 -19.49137,-17.07465q-4.04538,-23.37913 18.86092,-30.47168a5.2012,5.2012 -89.4 0 0 3.41493,-3.36239q12.60897,-39.77079 49.70036,-35.25258a3.25732,3.20478 -76.2 0 0 3.41493,-2.10149q10.13971,-27.47705 34.67467,-35.09497q23.11644,-7.09255 43.65856,5.77911q25.11287,15.76121 22.80122,51.48663a3.41493,3.36239 11.2 0 0 2.31164,3.41493z" fill="#e6e7e8"/>
   <path id="svg_3" d="m43.33076,230.55692q-1.47105,3.15224 -3.25732,-0.15761l-10.08718,-18.96599a3.20478,2.67941 73.5 0 1 1.99642,-4.62329l19.33375,-0.10507a2.20657,1.99642 -76.5 0 1 1.6812,3.09971l-9.66688,20.75226z" fill-opacity="0.996" fill="#dfdedf"/>
   <path id="svg_4" d="m62.55944,222.88646q9.71941,-18.96599 20.43704,-16.39166a2.73194,2.46926 -74 0 1 1.6812,3.41493q-1.57612,4.88598 -4.09792,9.29912q-2.04896,3.52 -4.25553,8.98389q-3.67762,8.93135 -10.08718,5.77911a8.19583,8.19583 -63.4 0 1 -3.67762,-11.08539z" fill-opacity="0.996" fill="#dfdedf"/>
   <path id="svg_5" d="m100.1762,210.96048a7.56538,7.25016 -81.5 0 1 4.88598,-3.78269q14.60539,-3.20478 10.8227,4.41314q-3.52,6.93493 -6.56717,14.02748q-3.99284,9.24658 -15.70867,6.40956a3.36239,3.30985 -68.9 0 1 -2.15403,-4.88598l8.7212,-16.18151z" fill-opacity="0.996" fill="#dfdedf"/>
   <path id="svg_6" d="m133.06459,231.6602q-13.23942,4.57075 -5.2012,-14.81554q3.57254,-8.61613 12.34628,-11.6633q12.45136,-4.30806 6.51463,7.09255q-1.78627,3.46747 -3.20478,6.77732q-1.6812,3.99284 -4.09792,7.56538q-2.41672,3.67762 -6.35702,5.04359z" fill-opacity="0.996" fill="#dfdedf"/>
   <path id="svg_7" d="m163.22105,210.96048a7.56538,7.25016 -81.5 0 1 4.88598,-3.78269q14.60539,-3.20478 10.61255,4.30806q-3.62508,6.8824 -6.09434,14.18509q-3.15224,9.08897 -17.02211,5.83165a2.46926,2.46926 -69.1 0 1 -1.57612,-3.57254l9.19404,-16.96957z" fill-opacity="0.996" fill="#dfdedf"/>
   <path id="svg_8" d="m193.32496,211.80107q4.88598,-8.45852 16.4442,-5.56896a2.62687,2.62687 -66.6 0 1 1.57612,3.99284q-3.99284,6.25195 -6.4621,13.50211q-4.30806,12.92419 -16.8645,7.98568a2.94209,2.88956 -71.4 0 1 -1.73373,-3.57254q2.52179,-8.56359 7.04001,-16.33912z" fill-opacity="0.996" fill="#dfdedf"/>
  </g>
 </g>
</svg>