<svg width="256" height="256" xmlns="http://www.w3.org/2000/svg" version="1.1">
 <title>143</title>

 <g>
  <title>Layer 1</title>
  <g id="svg_4">
   <path id="svg_1" d="m89.29059,180.20592q-17.72286,-0.15824 -35.44572,-0.36923q-17.82835,-0.21099 -26.79528,-5.74938q-13.55588,-8.38671 -16.56244,-24.42168q-5.64389,-30.38205 22.41731,-46.52251a7.54277,7.38453 85.8 0 0 3.21754,-3.79776q12.50095,-31.96445 52.27189,-38.97975a6.43509,6.43509 -78 0 0 4.21973,-2.74282q17.45913,-26.05683 42.56651,-33.12487q25.79309,-7.22629 49.26533,5.96037q28.37768,15.92948 35.44572,56.86085a6.69882,6.54058 13.1 0 0 2.69008,4.21973q17.67011,12.39545 22.36456,30.01282q4.53621,16.98441 -4.53621,34.23255q-13.60863,25.84584 -47.04998,24.73816q-14.61081,-0.47472 -14.92729,-0.47472q-44.57089,0.47472 -89.14177,0.15824zm-43.41046,-64.45636q-21.8371,6.64607 -19.99097,26.4788q1.00219,10.91855 8.54495,17.35363q8.17572,7.0153 20.14921,6.43509q9.07242,-0.47472 9.3889,-0.47472q66.9882,0.7912 133.92364,-1.10768q11.28777,-0.31648 17.45913,-3.63952q9.44164,-5.11642 12.39545,-14.08335q10.65482,-32.80839 -22.78654,-45.25659a3.0593,3.00656 -75.9 0 1 -1.95162,-3.32304q2.63733,-17.0899 -4.32522,-31.22599q-6.11861,-12.55369 -20.9404,-21.30963q-37.29185,-22.20632 -67.14644,14.18884q-2.16261,2.58458 -4.74719,10.12735q-2.69008,7.70101 -9.86362,7.49002q-11.86799,-0.31648 -12.23721,-0.21099q-28.37768,6.11861 -34.81276,35.28748a4.43072,4.43072 88.2 0 1 -3.0593,3.27029z" fill-opacity="0.996" fill="#d1d2d3"/>
   <path id="svg_2" d="m48.93943,112.47928q6.43509,-29.16888 34.81276,-35.28748q0.36923,-0.10549 12.23721,0.21099q7.17354,0.21099 9.86362,-7.49002q2.58458,-7.54277 4.74719,-10.12735q29.85458,-36.39516 67.14644,-14.18884q14.8218,8.75594 20.9404,21.30963q6.96255,14.13609 4.32522,31.22599a3.0593,3.00656 -75.9 0 0 1.95162,3.32304q33.44135,12.4482 22.78654,45.25659q-2.95381,8.96692 -12.39545,14.08335q-6.17135,3.32304 -17.45913,3.63952q-66.93545,1.89888 -133.92364,1.10768q-0.31648,0 -9.3889,0.47472q-11.97348,0.58021 -20.14921,-6.43509q-7.54277,-6.43509 -8.54495,-17.35363q-1.84613,-19.83273 19.99097,-26.4788a4.43072,4.43072 88.2 0 0 3.0593,-3.27029z" fill-opacity="0.306" fill="#f4f8f9"/>
   <rect id="svg_3" rx="0.6" height="15.82398" width="179.33848" y="218.23623" x="38.17913" fill-opacity="0.996" fill="#d1d2d3"/>
  </g>
 </g>
</svg>