<svg width="256" height="256" xmlns="http://www.w3.org/2000/svg" version="1.1">
 <title>119</title>

 <g>
  <title>Layer 1</title>
  <g id="svg_5">
   <path id="svg_1" d="m64.45394,114.37606q-1.96048,9.13297 -9.18079,14.34498q-14.34498,-29.12032 3.20371,-55.41945q1.38668,-2.0083 -1.00415,-2.10393q-27.54237,-0.95633 -34.52359,21.70874q-4.30349,13.86682 0.95633,25.3428q6.07271,13.2452 22.80852,16.64018l-9.37206,14.15372q-25.96442,-12.33669 -30.07665,-38.25329q-4.16005,-26.29914 18.26595,-43.7522q25.58189,-19.93953 55.46727,-3.1559a3.63406,3.63406 41.6 0 1 0.38253,6.07271q-23.57359,17.2618 -16.92708,44.42163z" fill="#0173db"/>
   <path id="svg_2" d="m37.34192,149.0431l9.37206,-14.15372q6.55088,-0.43035 8.55917,-6.16834q7.22031,-5.21201 9.18079,-14.34498q14.6797,-20.08298 42.70023,-23.04761a5.16419,5.16419 -78.9 0 0 4.0166,-2.72555q8.12882,-15.58821 22.52162,-24.09957q13.19738,-7.79411 30.60263,-7.60284q47.00373,0.47817 62.25723,56.85395a14.24935,14.15372 -83.9 0 0 7.12467,8.89389q4.11223,2.15175 8.22446,8.46354q3.01245,4.63821 4.73384,10.6631q10.0893,35.38429 -16.83145,50.73342q-11.8107,6.69433 -35.19303,6.98123q-56.94958,0.62162 -113.89917,-0.04782q-20.84804,-0.23908 -30.60263,-6.93341q-19.70044,-13.57992 -12.76703,-43.4653zm30.65045,-7.12467q-10.51965,2.0083 -15.49258,10.13712q-5.02074,8.27227 -1.96048,18.40939q4.63821,15.2535 23.66922,15.63603q56.56705,1.09978 131.68694,-0.95633q10.18494,-0.2869 15.73166,-3.39498q8.08101,-4.59039 11.28472,-12.6714q9.75459,-24.769 -12.57577,-37.72731q-0.33472,-0.19127 -5.64236,-2.19956q-6.45524,-2.48646 -3.87315,-10.18494q0.81288,-2.53428 0.47817,-4.59039q-7.50721,-43.84783 -47.09936,-43.36967q-16.1142,0.23908 -27.44673,8.84607q-12.24105,9.32424 -17.8356,24.769a3.06026,3.01245 -77 0 1 -3.1559,2.0083q-37.44041,-3.63406 -44.99543,32.56311a3.49061,3.49061 -89.4 0 1 -2.77336,2.72555z" fill="#929497"/>
   <path id="svg_3" d="m55.27315,128.72104q-2.0083,5.73799 -8.55917,6.16834q-16.73581,-3.39498 -22.80852,-16.64018q-5.25983,-11.47599 -0.95633,-25.3428q6.98123,-22.66507 34.52359,-21.70874q2.39083,0.09563 1.00415,2.10393q-17.5487,26.29914 -3.20371,55.41945z" fill="#ffffff"/>
   <path id="svg_4" d="m70.76573,139.19288q7.55502,-36.19717 44.99543,-32.56311a3.06026,3.01245 -77 0 0 3.1559,-2.0083q5.59454,-15.44477 17.8356,-24.769q11.33254,-8.60699 27.44673,-8.84607q39.59215,-0.47817 47.09936,43.36967q0.33472,2.05611 -0.47817,4.59039q-2.5821,7.69847 3.87315,10.18494q5.30764,2.0083 5.64236,2.19956q22.33036,12.9583 12.57577,37.72731q-3.20371,8.08101 -11.28472,12.6714q-5.54673,3.10808 -15.73166,3.39498q-75.11989,2.05611 -131.68694,0.95633q-19.03101,-0.38253 -23.66922,-15.63603q-3.06026,-10.13712 1.96048,-18.40939q4.97293,-8.12882 15.49258,-10.13712a3.49061,3.49061 -89.4 0 0 2.77336,-2.72555z" fill="#e6e7e8"/>
  </g>
 </g>
</svg>