<svg width="256" height="256" xmlns="http://www.w3.org/2000/svg" version="1.1">
 <title>113</title>

 <g>
  <title>Layer 1</title>
  <g id="svg_3">
   <path id="svg_1" d="m206.61066,52.03958q-83.59874,76.99093 0,149.47654a4.00473,4.00473 47.9 0 1 -0.30035,6.20733q-45.95427,33.03902 -94.21127,12.6149q-63.27473,-26.63145 -64.07568,-85.40086q-0.70083,-51.76113 36.84351,-85.00039q46.95546,-41.54907 120.7426,-4.90579a4.30508,4.30508 37 0 1 1.00118,7.00828zm-126.04887,91.6082q8.61017,52.06149 69.88254,53.46314q9.311,0.20024 4.70556,-7.90934q-40.14742,-71.18407 -0.90106,-120.94284q11.01301,-14.01655 -6.6078,-11.81395q-39.24635,4.80568 -56.66693,30.33583q-16.01892,23.22743 -10.4123,56.86716z" fill="#0173db"/>
   <path id="svg_2" d="m90.97409,86.78062q17.42057,-25.53015 56.66693,-30.33583q17.62081,-2.2026 6.6078,11.81395q-39.24635,49.75877 0.90106,120.94284q4.60544,8.10958 -4.70556,7.90934q-61.27237,-1.40166 -69.88254,-53.46314q-5.60662,-33.63973 10.4123,-56.86716z" fill="#ffffff"/>
  </g>
 </g>
</svg>