<svg width="256" height="256" xmlns="http://www.w3.org/2000/svg" version="1.1">
 <title>395</title>

 <g>
  <title>Layer 1</title>
  <g id="svg_5">
   <path id="svg_1" d="m171.04623,175.40186l5.48527,-14.29335q6.0127,-1.42406 18.24907,-1.31857q21.62462,0.21097 30.64367,-15.18998q7.8587,-13.55495 2.84812,-28.32298q-5.43253,-15.82289 -24.52549,-20.78073a1.68778,1.63503 -80.7 0 1 -1.26583,-1.79326q2.47892,-26.21326 -10.81231,-42.88004q-12.50009,-15.61192 -35.81248,-17.87987q-38.02769,-3.74475 -53.7451,37.28929a3.32281,3.27006 -75.3 0 1 -3.53378,2.10972q-37.50026,-5.16881 -50.21132,35.12683a5.22156,5.22156 -89.4 0 1 -3.42829,3.37555q-11.287,3.48104 -16.61404,12.18363q-5.11607,8.38613 -1.89875,18.67102q6.0127,19.35667 31.22385,18.09084q32.38419,-1.58229 87.23689,1.31857l-5.48527,14.29335q-83.96683,1.31857 -98.89309,-1.1076q-16.24484,-2.63715 -24.7892,-17.14147q-7.80596,-13.18575 -5.74899,-27.42635q2.58441,-18.30181 20.99171,-30.85464q2.74264,-1.89875 4.21944,-4.9051q17.61616,-35.54877 51.37166,-38.34415a8.17516,8.01693 14.2 0 0 6.11819,-3.58652q29.27235,-43.82942 73.68195,-33.54454q23.20691,5.37978 36.33991,20.99171q13.92415,16.40307 16.08661,41.66696a5.37978,5.2743 -75.4 0 0 2.26795,3.95572q39.34626,28.05927 17.77438,66.08696q-6.7511,11.86717 -16.82501,17.45793q-11.18151,6.17093 -24.57823,6.06544q-6.32916,-0.05274 -13.08026,0.7384q-6.59287,0.7384 -13.29123,-0.05274z" fill="#333333"/>
   <path id="svg_2" d="m176.5315,161.10851q-18.0381,0.26371 -10.70683,-9.23002q4.32492,-5.6435 7.17305,-12.23637q6.96207,-16.13935 -8.49162,-10.5486a12.18363,9.49374 -81.4 0 0 -5.95996,5.6435l-13.66043,26.37149q-54.8527,-2.90086 -87.23689,-1.31857q-25.21115,1.26583 -31.22385,-18.09084q-3.21732,-10.28488 1.89875,-18.67102q5.32704,-8.70259 16.61404,-12.18363a5.22156,5.22156 -89.4 0 0 3.42829,-3.37555q12.71106,-40.29564 50.21132,-35.12683a3.32281,3.27006 -75.3 0 0 3.53378,-2.10972q15.71741,-41.03404 53.7451,-37.28929q23.3124,2.26795 35.81248,17.87987q13.29123,16.66678 10.81231,42.88004a1.68778,1.63503 -80.7 0 0 1.26583,1.79326q19.09296,4.95784 24.52549,20.78073q5.01058,14.76803 -2.84812,28.32298q-9.01905,15.40095 -30.64367,15.18998q-12.23637,-0.10549 -18.24907,1.31857z" fill="#808285"/>
   <path id="svg_3" d="m176.5315,161.10851l-5.48527,14.29335q-5.2743,5.74899 -7.06756,13.08026a1.89875,1.846 3.2 0 0 2.10972,2.26795q13.92415,-1.68778 8.91356,6.90933q-3.53378,6.17093 -3.95572,7.06756q-5.95996,13.5022 -12.3946,26.84618q-5.48527,11.33974 -18.19633,6.3819a2.16246,2.05698 -65.1 0 1 -1.00212,-2.95361l12.07814,-23.36514q3.42829,-6.54013 -3.79749,-4.48315q-4.37767,1.21309 -7.33127,-0.52743a3.21732,2.58441 -62.2 0 1 -0.7384,-3.90298l11.86717,-23.36514a2.21521,1.95149 -73.1 0 0 -1.42406,-3.16458l-10.70683,-0.79114l5.48527,-14.29335l13.66043,-26.37149a12.18363,9.49374 -81.4 0 1 5.95996,-5.6435q15.45369,-5.59076 8.49162,10.5486q-2.84812,6.59287 -7.17305,12.23637q-7.33127,9.49374 10.70683,9.23002z" fill="#feb101"/>
   <path id="svg_4" d="m75.79241,222.39585q-11.12877,0.7384 -9.23002,-9.59922a3.00635,2.79538 7.9 0 1 3.21732,-2.26795q14.29335,1.16035 5.74899,-9.49374a3.53378,3.21732 44.9 0 1 -0.21097,-4.1667q6.48739,-8.38613 11.81443,1.16035a3.58652,2.84812 64.4 0 0 3.74475,1.79326q2.95361,-0.94937 4.79961,-3.74475a5.16881,3.21732 -64.8 0 1 3.79749,-2.47892q4.32492,0.31646 6.17093,4.5359a4.5359,3.63927 -37.7 0 1 -1.05486,4.37767q-8.86082,9.28276 5.85447,7.70048a3.74475,3.27006 -12.4 0 1 3.79749,2.05698q1.52955,4.06121 -0.84389,7.54225a4.95784,3.69201 16.9 0 1 -4.32492,1.52955q-11.76168,-1.58229 -4.37767,7.64773a4.1667,3.74475 41.1 0 1 0.52743,4.37767q-6.43464,11.60346 -12.0254,-1.37132q-2.68989,-6.22367 -5.53801,-0.05274q-5.69624,12.28911 -11.70894,1.42406a6.27641,3.69201 -57 0 1 0.21097,-4.64138l1.63503,-4.06121a1.89875,1.68778 7.3 0 0 -2.00423,-2.26795z" fill-opacity="0.996" fill="#d0d2d3"/>
  </g>
 </g>
</svg>