<svg width="256" height="256" xmlns="http://www.w3.org/2000/svg" version="1.1">
 <title>371</title>

 <g>
  <title>Layer 1</title>
  <g id="svg_7">
   <path id="svg_1" d="m84.72966,14.68033a2.23291,2.23291 0 0 1 0,3.75129q-9.33357,6.07352 -13.17418,15.04983q-13.71008,31.79666 12.37033,48.67748q5.09104,3.26005 -0.44658,5.80557q-38.67403,17.46137 -58.99353,-9.37823q-10.85195,-14.29064 -9.78015,-31.61803q1.25043,-19.82826 17.37205,-31.61803q12.05772,-8.84233 25.41054,-9.06562q13.84405,-0.22329 27.24152,8.39575zm-44.70289,60.91383q8.88699,7.10066 21.88254,6.29681a1.47372,1.47372 -18.2 0 0 1.16111,-2.27757q-18.1759,-29.47444 0,-57.29652q1.83099,-2.85813 -1.56304,-2.85813q-20.76608,-0.04466 -29.38512,16.97013q-11.87909,23.35626 7.90451,39.16527z" fill="#0073da"/>
   <path id="svg_2" d="m40.02677,75.59417q-19.7836,-15.80902 -7.90451,-39.16527q8.61904,-17.01479 29.38512,-16.97013q3.39403,0 1.56304,2.85813q-18.1759,27.82208 0,57.29652a1.47372,1.47372 -18.2 0 1 -1.16111,2.27757q-12.99555,0.80385 -21.88254,-6.29681z" fill="#ffffff"/>
   <path id="svg_3" d="m63.07042,128.69281q10.27139,-29.47444 44.30097,-33.58299a4.91241,4.86775 13.2 0 0 3.528,-2.18825q25.18725,-37.55758 62.8788,-28.89388q19.51565,4.46582 30.68021,17.68466q11.74512,13.88871 13.62076,35.10137a5.53762,5.49296 15.4 0 0 2.27757,3.97458q35.01206,24.3834 11.74512,61.40508q-5.18036,8.21712 -16.7915,11.70046q-6.16284,1.87565 -19.69428,2.32223q-77.57136,2.67949 -126.24883,-0.35727q-10.89661,-0.66987 -18.57783,-8.97631q-6.34147,-6.92203 -8.61904,-17.46137q-5.31433,-24.47271 18.26522,-37.55758a5.76091,5.71625 85.1 0 0 2.63484,-3.17073zm8.30643,13.62076q-9.86947,1.83099 -14.51393,9.46755q-4.64446,7.72587 -1.78633,17.19342q4.33185,14.24598 22.10583,14.60324q53.09864,1.02714 122.94413,-0.89316q9.46755,-0.26795 14.73722,-3.12608q8.08314,-4.33185 10.53934,-11.87909q8.97631,-27.73276 -17.50603,-37.64689a4.01924,4.01924 10.4 0 1 -2.59018,-3.75129q-0.04466,-23.3116 -12.05772,-36.84305q-11.87909,-13.30815 -32.46654,-13.44213q-29.38512,-0.17863 -41.80011,31.52871a2.90279,2.90279 -76.4 0 1 -2.9921,1.83099q-35.10137,-3.48334 -42.0234,30.41226a3.26005,3.26005 -89.4 0 1 -2.59018,2.54552z" fill="#929497"/>
   <path id="svg_4" d="m73.96703,139.76805q6.92203,-33.8956 42.0234,-30.41226a2.90279,2.90279 -76.4 0 0 2.9921,-1.83099q12.41499,-31.70735 41.80011,-31.52871q20.58745,0.13397 32.46654,13.44213q12.01307,13.53145 12.05772,36.84305a4.01924,4.01924 10.4 0 0 2.59018,3.75129q26.48233,9.91413 17.50603,37.64689q-2.4562,7.54724 -10.53934,11.87909q-5.26967,2.85813 -14.73722,3.12608q-69.84548,1.9203 -122.94413,0.89316q-17.77398,-0.35727 -22.10583,-14.60324q-2.85813,-9.46755 1.78633,-17.19342q4.64446,-7.63656 14.51393,-9.46755a3.26005,3.26005 -89.4 0 0 2.59018,-2.54552z" fill="#e6e7e8"/>
   <path id="svg_5" d="m115.54385,213.18619q10.67332,0.84851 4.73377,8.44041q-4.19787,5.35899 2.50086,4.19787q10.45003,-1.74167 6.43079,7.90451a3.03676,2.81347 15 0 1 -3.12608,1.65235q-10.31605,-1.42906 -4.51048,6.69874a3.70663,3.08142 44.9 0 1 0.35727,3.70663q-5.18036,8.84233 -10.98593,-2.18825q-3.48334,-6.65408 -4.46582,1.65235q-0.5359,4.37651 -4.64446,3.75129q-8.57438,-1.29509 -3.66198,-8.84233q3.39403,-5.18036 -2.72415,-3.97458q-6.47544,1.29509 -6.56476,-5.71625q-0.08932,-6.38613 7.36861,-4.46582q6.16284,1.6077 2.4562,-3.57266q-6.65408,-9.37823 3.30471,-10.0481a3.26005,2.9921 76.1 0 1 3.03676,2.00962q4.01924,9.55686 8.21712,0.17863a2.32223,2.27757 -75.4 0 1 2.27757,-1.38441z" fill="#d0d2d2"/>
   <path id="svg_6" d="m174.53738,225.37789q12.7276,-1.69701 7.54724,8.70836a2.94744,2.67949 18.9 0 1 -3.17073,1.38441q-8.57438,-1.9203 -2.9921,7.72587a2.94744,2.90279 -35.9 0 1 -0.58056,3.57266q-6.74339,6.11818 -9.60152,-0.80385q-1.02714,-2.4562 -2.1436,-2.94744q-2.36689,-1.02714 -3.88527,3.26005a4.55514,4.55514 15.9 0 1 -5.31433,2.94744q-8.70836,-1.87565 -2.63484,-9.91413q3.03676,-3.97458 -6.34147,-4.19787a3.70663,3.66198 6.7 0 1 -3.528,-4.42117q1.25043,-6.25215 7.90451,-5.18036a2.27757,1.9203 6.9 0 0 2.59018,-1.69701q0.17863,-2.9921 -1.87565,-5.4483a2.94744,2.4562 45.2 0 1 -0.31261,-3.39403q5.89489,-7.50258 10.584,1.42906a2.4562,2.09894 61.7 0 0 3.03676,1.16111q2.4562,-1.33975 4.10856,-3.84061a3.03676,2.59018 -62.9 0 1 3.21539,-1.33975q8.97631,2.9921 2.63484,11.61114q-1.25043,1.65235 0.75919,1.38441z" fill="#d0d2d2"/>
  </g>
 </g>
</svg>