<svg width="256" height="256" xmlns="http://www.w3.org/2000/svg" version="1.1">
 <title>392</title>

 <g>
  <title>Layer 1</title>
  <g id="svg_7">
   <path id="svg_1" d="m85.47682,16.16414a1.71449,1.71449 40.6 0 1 0.21981,2.7256q-36.53182,32.57531 -0.04396,65.10665a2.11014,2.06618 53.4 0 1 -0.48357,3.42898q-41.63133,20.04634 -61.76559,-12.17727q-9.05602,-14.4193 -6.98984,-29.89367q2.32995,-17.9362 16.79321,-28.66275q11.86954,-8.79226 25.23377,-8.9681q13.67196,-0.13188 27.03619,8.44057zm-44.44485,59.91922q8.88018,6.85796 21.67291,6.06666a1.45072,1.45072 -18.2 0 0 1.14299,-2.24203q-17.89224,-29.01444 -0.04396,-56.35836q1.89033,-2.90144 -1.53864,-2.85748q-24.35455,0.21981 -31.30043,21.93668q-6.59419,20.57388 10.06713,33.45453z" fill="#0073da"/>
   <path id="svg_2" d="m41.03197,76.08336q-16.66132,-12.88065 -10.06713,-33.45453q6.94588,-21.71687 31.30043,-21.93668q3.42898,-0.04396 1.53864,2.85748q-17.84828,27.34391 0.04396,56.35836a1.45072,1.45072 -18.2 0 1 -1.14299,2.24203q-12.79273,0.7913 -21.67291,-6.06666z" fill="#ffffff"/>
   <path id="svg_3" d="m176.65251,195.26239l4.57197,-11.91351q8.74829,-1.01111 17.54055,-1.67053q9.67148,-0.74734 14.55118,-3.38502q7.82511,-4.30821 10.3309,-11.6937q8.44057,-25.3217 -16.74925,-37.19124a4.61593,4.61593 -79.7 0 1 -2.68164,-3.91255q-1.53864,-26.24488 -16.04587,-39.25742q-14.85891,-13.36423 -36.57578,-9.14395q-23.25552,4.52801 -32.48738,30.59705a2.76956,2.63768 12.9 0 1 -2.90144,1.71449q-34.42168,-4.48405 -41.10379,29.23425a3.42898,3.16521 -1.6 0 1 -2.59372,2.54975q-11.34201,2.50579 -15.51833,11.73766q-4.39613,9.62752 0.83526,18.81543q5.89081,10.41882 21.01349,10.50675q46.95064,0.30773 76.93223,-0.92319l-5.49516,13.93572q-63.96366,0.30773 -79.1303,-0.92319q-13.67196,-1.09903 -21.58499,-11.16616q-6.94588,-8.79226 -7.07777,-21.32122q-0.21981,-20.31011 18.77147,-31.5642a6.28646,6.19854 -4.7 0 0 2.68164,-3.12125q10.24298,-25.98111 43.21394,-32.83907a8.13284,8.04491 11.1 0 0 5.09951,-3.38502q19.16712,-28.53087 49.01682,-28.04729q21.14537,0.39565 36.31201,13.32027q16.08983,13.75988 18.59562,37.32312q0.48357,4.35217 2.46183,6.50627q1.67053,1.84637 3.86859,3.12125q2.81352,1.62657 4.00048,2.81352q22.77194,22.99175 7.0338,50.51151q-5.31931,9.27583 -16.48548,14.4193q-7.20965,3.34106 -19.82654,3.73671q-10.28694,0.30773 -20.57388,0.61546z" fill="#333333"/>
   <path id="svg_4" d="m181.22448,183.34888q-15.03476,0.21981 -8.9681,-7.69322q3.5169,-4.57197 5.84685,-9.84733q5.93477,-13.628 -6.63815,-9.49564a7.73718,7.0338 -82.5 0 0 -4.0884,3.47294l-11.60578,21.54103q-29.98159,1.23092 -76.93223,0.92319q-15.12268,-0.08792 -21.01349,-10.50675q-5.23139,-9.18791 -0.83526,-18.81543q4.17632,-9.23187 15.51833,-11.73766a3.42898,3.16521 -1.6 0 0 2.59372,-2.54975q6.68211,-33.7183 41.10379,-29.23425a2.76956,2.63768 12.9 0 0 2.90144,-1.71449q9.23187,-26.06904 32.48738,-30.59705q21.71687,-4.22028 36.57578,9.14395q14.50722,13.01254 16.04587,39.25742a4.61593,4.61593 -79.7 0 0 2.68164,3.91255q25.18981,11.86954 16.74925,37.19124q-2.50579,7.38549 -10.3309,11.6937q-4.8797,2.63768 -14.55118,3.38502q-8.79226,0.65942 -17.54055,1.67053z" fill="#808285"/>
   <path id="svg_5" d="m181.22448,183.34888l-4.57197,11.91351l-6.06666,9.80336q-3.34106,5.40724 3.38502,3.91255q9.36375,-2.06618 6.11062,4.26424q-7.47342,14.50722 -13.89176,29.54198q-3.03333,7.12173 -13.45215,5.01159a2.94541,2.81352 -69.8 0 1 -1.84637,-4.26424l9.49564,-17.58451q2.63768,-4.83574 -2.94541,-3.82463q-10.68259,1.89033 -4.96762,-6.90192q3.16521,-4.83574 7.95699,-16.61736a1.97826,1.67053 -75.1 0 0 -1.23092,-2.68164l-8.92414,-0.65942l5.49516,-13.93572l11.60578,-21.54103a7.73718,7.0338 -82.5 0 1 4.0884,-3.47294q12.57293,-4.13236 6.63815,9.49564q-2.32995,5.27535 -5.84685,9.84733q-6.06666,7.91303 8.9681,7.69322z" fill="#feb001"/>
   <path id="svg_6" d="m120.86565,223.35364q11.64974,-1.62657 8.00095,8.22076a2.85748,2.59372 13.1 0 1 -2.98937,1.67053q-10.15505,-1.40676 -4.44009,6.59419a3.86859,3.2971 42.7 0 1 0.43961,3.78067q-4.13236,8.00095 -8.92414,-0.5715q-3.16521,-5.58308 -7.91303,2.59372a3.07729,2.98937 -69 0 1 -3.16521,1.45072q-9.27583,-1.84637 -3.38502,-9.97921q2.85748,-3.95651 -6.2425,-4.0884a3.69275,3.69275 6.3 0 1 -3.56086,-4.44009q1.23092,-6.11062 7.78115,-5.05555a2.24203,1.89033 6.9 0 0 2.54975,-1.67053q0.17585,-2.94541 -1.84637,-5.36328a2.90144,2.41787 45.2 0 1 -0.30773,-3.34106q5.80289,-7.38549 10.41882,1.40676a2.19806,1.67053 56.5 0 0 2.90144,1.01111l4.00048,-3.73671a4.04444,2.28599 -50.1 0 1 3.2971,-1.23092q8.83622,2.94541 2.59372,11.42993q-1.23092,1.62657 0.7913,1.31884z" fill="#d0d2d3"/>
  </g>
 </g>
</svg>