<svg width="256" height="256" xmlns="http://www.w3.org/2000/svg" version="1.1">
 <title>365</title>

 <g>
  <title>Layer 1</title>
  <g id="svg_9">
   <path id="svg_1" d="m85.58748,16.64114a2.18161,2.18161 0 0 1 0,3.66511q-9.11914,5.93399 -12.87152,14.70407q-13.3951,31.06617 12.08614,47.55916q4.97408,3.18515 -0.43632,5.67219q-37.78554,17.06021 -57.63821,-9.16277q-10.60264,-13.96232 -9.55546,-30.89164q1.2217,-19.37272 16.97295,-30.89164q11.78071,-8.63919 24.82676,-8.85735q13.526,-0.21816 26.61568,8.20286zm-43.67589,59.5144q8.68282,6.93753 21.37981,6.15215a1.43986,1.43986 -18.2 0 0 1.13444,-2.22525q-17.75833,-28.79729 0,-55.98019q1.78892,-2.79246 -1.52713,-2.79246q-20.289,-0.04363 -28.71003,16.58026q-11.60618,22.81967 7.72291,38.26549z" fill="#0073da"/>
   <path id="svg_2" d="m41.91158,76.15555q-19.32909,-15.44582 -7.72291,-38.26549q8.42103,-16.62389 28.71003,-16.58026q3.31605,0 1.52713,2.79246q-17.75833,27.1829 0,55.98019a1.43986,1.43986 -18.2 0 1 -1.13444,2.22525q-12.69699,0.78538 -21.37981,-6.15215z" fill="#ffffff"/>
   <path id="svg_3" d="m176.99706,194.18081q-47.42827,1.57076 -94.85653,0q-17.7147,-0.61085 -26.04846,-6.58847q-12.78425,-9.16277 -13.04605,-26.57205q-0.17453,-9.16277 4.14506,-16.27483q4.45049,-7.28659 12.0425,-12.60972q2.7052,-1.91982 4.31959,-4.84318q16.27483,-29.66994 44.37401,-32.4624a4.53775,4.31959 12.6 0 0 3.31605,-2.00708q23.1251,-36.6511 61.25969,-27.83738q19.32909,4.45049 30.06263,17.14748q11.47528,13.56963 13.30784,34.29496a5.4104,5.32314 16.2 0 0 2.13798,3.79601q31.89518,23.51779 15.14039,53.14409q-7.28659,12.91515 -19.98357,17.88923q-9.77363,3.79601 -20.59443,3.44695q-15.14039,-0.52359 -15.57672,-0.52359zm-104.45563,-52.83867q-9.64273,1.78892 -14.18048,9.25004q-4.53775,7.54838 -1.74529,16.79842q4.23233,13.91869 21.59797,14.26775q52.00965,1.00354 120.11961,-0.87265q9.25004,-0.26179 14.39865,-3.05426q7.89744,-4.23233 10.29721,-11.60618q8.77008,-27.09563 -17.10385,-36.78199a3.9269,3.9269 10.4 0 1 -2.53067,-3.66511q-0.04363,-22.77604 -11.78071,-35.99661q-11.60618,-13.00241 -31.72065,-13.13331q-28.71003,-0.17453 -40.83979,30.80438a2.8361,2.8361 -76.4 0 1 -2.92336,1.78892q-34.38222,-3.44695 -41.05796,29.7572a3.18515,3.14152 0.5 0 1 -2.53067,2.44341z" fill="#929497"/>
   <path id="svg_4" d="m75.0721,138.89873q6.67574,-33.20415 41.05796,-29.7572a2.8361,2.8361 -76.4 0 0 2.92336,-1.78892q12.12977,-30.9789 40.83979,-30.80438q20.11447,0.1309 31.72065,13.13331q11.73708,13.22057 11.78071,35.99661a3.9269,3.9269 10.4 0 0 2.53067,3.66511q25.87393,9.68636 17.10385,36.78199q-2.39977,7.37385 -10.29721,11.60618q-5.14861,2.79246 -14.39865,3.05426q-68.10996,1.87619 -120.11961,0.87265q-17.36564,-0.34906 -21.59797,-14.26775q-2.79246,-9.25004 1.74529,-16.79842q4.53775,-7.46112 14.18048,-9.25004a3.18515,3.14152 0.5 0 0 2.53067,-2.44341z" fill="#e6e7e8"/>
   <path id="svg_5" d="m82.0969,209.27757a2.09435,2.09435 25.1 0 1 1.04717,2.87973q-8.1156,15.96941 -15.92577,30.67348q-3.83964,7.33022 -12.43519,3.31605a2.13798,2.09435 -64.2 0 1 -1.00354,-2.92336q8.59556,-16.01304 15.96941,-31.02254q3.31605,-6.763 12.34793,-2.92336z" fill-opacity="0.996" fill="#1f87e6"/>
   <path id="svg_6" d="m101.25146,207.8377q3.18515,-0.95991 6.58847,0.21816a2.18161,2.05072 -69.2 0 1 1.17807,2.87973q-6.54484,15.40219 -14.52954,30.14989q-2.61794,4.88681 -5.89036,5.97762q-3.79601,1.26534 -7.50475,-0.87265a2.61794,2.35614 -62.3 0 1 -0.82901,-3.27242q7.11206,-15.09676 15.27129,-29.6263q2.53067,-4.45049 5.71583,-5.45403z" fill-opacity="0.996" fill="#1f87e6"/>
   <path id="svg_7" d="m142.00399,210.41201q10.60264,1.52713 3.97054,8.81372q-4.53775,5.01771 2.13798,3.88327q10.9517,-1.87619 7.11206,7.54838a2.96699,2.66157 14.2 0 1 -3.05426,1.61439q-10.07905,-1.39623 -4.40686,6.54484a3.83964,3.27242 42.7 0 1 0.43632,3.75237q-4.10143,7.94107 -8.94461,-0.52359q-3.44695,-6.06488 -6.93753,1.70166a3.79601,3.79601 -68.9 0 1 -4.62502,2.05072q-7.24296,-2.35614 -3.31605,-7.9847q1.26534,-1.87619 1.4835,-2.96699q0.87265,-4.0578 -4.1887,-1.83255a4.31959,4.27596 68.3 0 1 -5.75946,-2.53067q-3.40332,-9.81726 6.67574,-7.67928q6.50121,1.3526 2.5743,-4.01417q-6.15215,-8.37739 3.53421,-8.98825a3.18515,2.87973 75.9 0 1 2.92336,1.96345q3.83964,9.25004 8.1156,-0.1309a2.18161,2.18161 -73 0 1 2.26888,-1.2217z" fill-opacity="0.996" fill="#d0d2d2"/>
   <path id="svg_8" d="m199.55494,222.45451q11.56255,-1.61439 7.94107,8.15923a2.8361,2.5743 13.1 0 1 -2.96699,1.65803q-10.07905,-1.39623 -4.40686,6.54484a3.83964,3.27242 42.7 0 1 0.43632,3.75237q-4.10143,7.94107 -8.85735,-0.56722q-3.14152,-5.5413 -7.94107,2.74883a2.7052,2.66157 -66 0 1 -3.09789,1.2217q-8.2465,-2.31251 -3.75237,-8.37739a4.36323,2.66157 -45.7 0 0 0.87265,-3.75237q-1.30897,-2.7052 -5.5413,-1.78892a3.14152,2.7052 -18.7 0 1 -3.27242,-1.30897q-4.93045,-9.11914 7.19932,-8.15923a1.74529,1.65803 -2 0 0 1.91982,-1.91982q-0.47995,-2.7052 -2.13798,-4.88681a3.14152,2.53067 47.5 0 1 -0.21816,-3.44695q5.75946,-7.33022 10.34085,1.39623a2.39977,2.05072 61.7 0 0 2.96699,1.13444q2.39977,-1.30897 4.01417,-3.75237a2.96699,2.53067 -62.9 0 1 3.14152,-1.30897q8.77008,2.92336 2.5743,11.34439q-1.2217,1.61439 0.78538,1.30897z" fill-opacity="0.996" fill="#d0d2d2"/>
  </g>
 </g>
</svg>