<svg width="256" height="256" xmlns="http://www.w3.org/2000/svg" version="1.1">
 <title>362</title>

 <g>
  <title>Layer 1</title>
  <g id="svg_8">
   <path id="svg_1" d="m86.01675,17.6105a2.16295,2.16295 0 0 1 0,3.63376q-9.04113,5.88322 -12.7614,14.57828q-13.28051,30.8004 11.98274,47.1523q4.93153,3.15791 -0.43259,5.62367q-37.46229,16.91427 -57.14513,-9.08439q-10.51193,-13.84288 -9.47372,-30.62737q1.21125,-19.20699 16.82775,-30.62737q11.67993,-8.56528 24.61437,-8.78158q13.41029,-0.21629 26.38798,8.13269zm-43.30225,59.00526q8.60854,6.87818 21.19691,6.09952a1.42755,1.42755 -18.2 0 0 1.12473,-2.20621q-17.60641,-28.55093 0,-55.50129q1.77362,-2.76858 -1.51406,-2.76858q-20.11543,-0.04326 -28.46442,16.43842q-11.50689,22.62445 7.65684,37.93814z" fill="#0073da"/>
   <path id="svg_2" d="m42.7145,76.61576q-19.16373,-15.31368 -7.65684,-37.93814q8.34899,-16.48168 28.46442,-16.43842q3.28768,0 1.51406,2.76858q-17.60641,26.95035 0,55.50129a1.42755,1.42755 -18.2 0 1 -1.12473,2.20621q-12.58837,0.77866 -21.19691,-6.09952z" fill="#ffffff"/>
   <path id="svg_3" d="m52.40451,138.69241q4.58545,-4.80175 10.1226,-8.47876a7.22425,7.00796 -6.2 0 0 2.6388,-3.20117q11.55015,-28.76723 42.99944,-31.83862a4.49894,4.45568 13.4 0 0 3.33094,-2.03317q25.0037,-38.88983 64.75871,-26.43124q18.08226,5.66693 27.94531,18.51485q10.20912,13.28051 11.46363,31.40603a4.67197,4.58545 17.1 0 0 1.86014,3.41746q37.28925,27.85879 6.35907,64.67219q-5.62367,6.7484 -20.85083,7.48381q-60.90866,2.85509 -121.86058,1.25451q-15.91931,-0.38933 -23.23008,-5.36411q-10.85801,-7.35403 -13.49681,-22.06209q-2.89835,-16.00583 7.95965,-27.33968zm20.6778,2.55228q-9.56024,1.77362 -14.05917,9.17091q-4.49894,7.48381 -1.73036,16.65471q4.19612,13.79962 21.4132,14.14569q51.56472,0.99496 119.092,-0.86518q9.17091,-0.25955 14.27547,-3.02813q7.82988,-4.19612 10.20912,-11.50689q8.69506,-26.86383 -16.95752,-36.46733a3.89331,3.89331 10.4 0 1 -2.50902,-3.63376q-0.04326,-22.58119 -11.67993,-35.68867q-11.50689,-12.89118 -31.44929,-13.02096q-28.46442,-0.17304 -40.49042,30.54085a2.81183,2.81183 -76.4 0 1 -2.89835,1.77362q-33.95831,-3.33094 -40.70671,29.45937a3.15791,3.15791 -89.4 0 1 -2.50902,2.46576z" fill="#929497"/>
   <path id="svg_4" d="m75.59133,138.77893q6.7484,-32.79032 40.70671,-29.45937a2.81183,2.81183 -76.4 0 0 2.89835,-1.77362q12.026,-30.71388 40.49042,-30.54085q19.94239,0.12978 31.44929,13.02096q11.63667,13.10747 11.67993,35.68867a3.89331,3.89331 10.4 0 0 2.50902,3.63376q25.65258,9.6035 16.95752,36.46733q-2.37924,7.31077 -10.20912,11.50689q-5.10456,2.76858 -14.27547,3.02813q-67.52729,1.86014 -119.092,0.86518q-17.21708,-0.34607 -21.4132,-14.14569q-2.76858,-9.17091 1.73036,-16.65471q4.49894,-7.39729 14.05917,-9.17091a3.15791,3.15791 -89.4 0 0 2.50902,-2.46576z" fill="#e6e7e8"/>
   <path id="svg_5" d="m108.07884,208.38265a2.16295,2.07643 24.8 0 1 1.12473,2.89835l-15.57324,31.70884a5.36411,5.19108 7.5 0 1 -3.85005,2.85509q-13.84288,2.50902 -8.00291,-7.31077q7.48381,-12.50185 13.15073,-25.95539q3.46072,-8.21921 13.15073,-4.19612z" fill-opacity="0.996" fill="#1f87e6"/>
   <path id="svg_6" d="m127.50212,207.1714q3.15791,-0.9517 6.53211,0.21629a2.16295,2.03317 -69.2 0 1 1.16799,2.85509q-6.48885,15.27042 -14.40524,29.89196q-2.59554,4.84501 -5.83996,5.92648q-3.76353,1.25451 -7.44055,-0.86518a2.59554,2.33599 -62.3 0 1 -0.82192,-3.24442q7.09447,-14.92435 15.18391,-29.3296q2.46576,-4.45568 5.62367,-5.45063z" fill-opacity="0.996" fill="#1f87e6"/>
   <path id="svg_7" d="m167.51669,210.28604q7.18099,-0.25955 7.22425,3.3742q0,1.51406 -2.4225,4.23938q-5.10456,5.83996 6.27255,4.36916a2.33599,2.29273 81.1 0 1 2.59554,1.9034q1.81688,9.77653 -5.58041,7.52706q-3.3742,-1.08147 -3.89331,1.42755a5.23434,2.59554 41.2 0 0 1.51406,3.67701q4.15286,4.80175 -2.50902,8.17595a3.97983,3.97983 69.6 0 1 -5.66693,-2.59554q-0.77866,-2.98487 -2.81183,-3.54724a2.81183,1.94665 -73 0 0 -2.6388,2.07643q-1.77362,5.45063 -7.31077,3.5905a4.36916,3.97983 3.1 0 1 -2.76858,-2.81183q-0.99496,-3.67701 1.9034,-7.22425q4.67197,-5.58041 -2.68206,-2.68206q-4.28264,1.64384 -7.7001,-4.58545a2.85509,2.85509 72.6 0 1 2.20621,-4.23938q10.90127,-1.03822 7.52706,-4.62871q-5.92648,-6.35907 2.29273,-9.6035a4.3259,4.28264 70.1 0 1 5.66693,2.68206q2.6388,8.34899 6.14278,0.60563a2.98487,2.98487 11.7 0 1 2.6388,-1.73036z" fill="#d0d2d3"/>
  </g>
 </g>
</svg>