<svg width="256" height="256" xmlns="http://www.w3.org/2000/svg" version="1.1">
 <title>326</title>

 <g>
  <title>Layer 1</title>
  <g id="svg_4">
   <path id="svg_1" d="m60.27949,175.08647q-3.98965,-0.10639 -8.03249,0.15959q-19.3099,1.43627 -31.17246,-10.47948q-11.06463,-11.06463 -11.86256,-27.55518q-1.1171,-22.44843 21.5973,-38.51341q3.13852,-2.2342 4.78758,-5.6387q17.44807,-35.3217 52.50378,-38.35383a5.37273,5.10675 11.8 0 0 3.98965,-2.44698q19.52268,-32.60873 53.19532,-35.64087q28.93826,-2.65977 49.31207,14.36274q20.4802,17.0225 25.69334,49.89721a9.20279,9.0964 10.3 0 0 4.5748,6.54302q11.22421,6.33024 17.0757,17.98002q5.05356,10.10711 4.89397,23.24636q-0.37237,26.22529 -20.63979,38.83259q-12.39451,7.66013 -39.04537,8.29847q-57.9829,1.27669 -126.87085,-0.69154zm143.73377,-82.66553q2.34059,-36.17282 -23.08677,-52.13142q-20.79937,-13.03285 -44.20531,-5.85149q-24.84222,7.71332 -35.10891,35.53448a3.29811,3.24491 -76.2 0 1 -3.4577,2.12781q-37.5559,-4.5748 -50.32278,35.69406a5.26634,5.26634 -89.4 0 1 -3.4577,3.4045q-23.08677,7.28776 -19.09712,30.85329q2.87255,16.59694 19.73547,17.28848q75.00541,2.92574 152.13863,0.26598q12.87327,-0.42556 19.73547,-4.5216q10.53267,-6.17066 13.19244,-17.12889q7.76652,-31.8108 -23.72511,-42.0775a3.4577,3.4045 11.2 0 1 -2.34059,-3.4577z" fill="#929497"/>
   <path id="svg_2" d="m206.35385,95.87863q31.49163,10.2667 23.72511,42.0775q-2.65977,10.95824 -13.19244,17.12889q-6.8622,4.09604 -19.73547,4.5216q-77.13322,2.65977 -152.13863,-0.26598q-16.86292,-0.69154 -19.73547,-17.28848q-3.98965,-23.56553 19.09712,-30.85329a5.26634,5.26634 -89.4 0 0 3.4577,-3.4045q12.76688,-40.26886 50.32278,-35.69406a3.29811,3.24491 -76.2 0 0 3.4577,-2.12781q10.2667,-27.82115 35.10891,-35.53448q23.40594,-7.18137 44.20531,5.85149q25.42736,15.9586 23.08677,52.13142a3.4577,3.4045 11.2 0 0 2.34059,3.4577z" fill="#e6e7e8"/>
   <path id="svg_3" d="m107.41055,223.707q-11.22421,0.74473 -9.30918,-9.68155a3.03213,2.81935 7.9 0 1 3.24491,-2.2874q14.41593,1.1703 5.79829,-9.57516a3.77687,3.03213 46.1 0 1 -0.37237,-4.25563q2.2874,-2.92574 5.95788,-3.56409a4.04284,3.24491 69.4 0 1 3.77687,2.2342q5.37273,10.16031 11.54339,-0.10639a3.61728,3.24491 -65.6 0 1 3.83006,-1.70225q10.85185,3.19172 2.87255,12.97966q-2.07462,2.55338 0.74473,2.87255l6.809,0.74473a4.46841,2.76616 -0.7 0 1 3.56409,2.18101q3.77687,11.11782 -7.28776,9.0964a4.78758,2.97894 15.8 0 0 -4.46841,1.27669q-1.59586,2.65977 2.39379,5.90468a3.98965,3.98965 -53.1 0 1 0.74473,5.42592q-6.11746,8.56445 -10.37309,0.79793q-5.26634,-9.68155 -9.25599,0.15959a3.93645,3.56409 -76.2 0 1 -3.61728,2.44698q-11.43699,-0.85113 -5.26634,-12.87327q1.1171,-2.2342 -1.32988,-2.07462z" fill-opacity="0.996" fill="#d0d2d2"/>
  </g>
 </g>
</svg>