<svg width="256" height="256" xmlns="http://www.w3.org/2000/svg" version="1.1">
 <title>227</title>

 <g>
  <title>Layer 1</title>
  <g id="svg_6">
   <path id="svg_1" d="m174.83209,175.60467q-58.55015,1.05306 -117.10031,-0.57918q-22.00896,-0.57918 -32.43426,-8.21387q-16.5857,-12.16285 -15.05876,-35.11956q0.73714,-10.95183 5.84448,-18.63917q5.68653,-8.52979 15.26937,-13.58448a10.31999,10.26734 87.4 0 0 4.73877,-5.21265q13.37387,-33.43467 52.28445,-38.85793a6.47632,6.42367 11.2 0 0 4.68612,-3.10653q20.42937,-35.17222 57.02322,-35.27752q27.69549,-0.05265 45.80812,16.69101q18.11264,16.74366 23.5359,47.1771a9.74081,9.42489 -77.9 0 0 3.89632,6.21306q16.32244,11.58366 20.90325,28.53794q4.47551,16.69101 -3.10653,32.90814q-10.05673,21.64039 -37.33099,25.95794q-4.3702,0.68449 -28.95916,1.10571zm28.32732,-82.98115q2.26408,-20.63998 -7.79265,-36.27793q-9.21428,-14.32162 -27.80079,-20.42937q-41.0167,-13.53183 -65.65831,33.85589a5.31795,5.31795 -71.4 0 1 -5.58122,2.79061q-34.48773,-5.79183 -47.91425,35.01426a5.68653,5.58122 -87 0 1 -4.15959,3.79102q-4.84408,1.10571 -8.89836,3.89632q-3.63306,2.47469 -6.10775,7.10816q-9.21428,17.4808 2.26408,29.06447q7.16081,7.21346 23.06202,7.73999q70.81831,2.36939 141.63662,-0.10531q12.74203,-0.42122 19.53427,-4.47551q10.4253,-6.10775 13.05795,-16.95427q7.68734,-31.4865 -23.48325,-41.64854a3.21183,3.10653 13.1 0 1 -2.15877,-3.36979z" fill="#929497"/>
   <path id="svg_2" d="m205.31818,95.99331q31.17059,10.16203 23.48325,41.64854q-2.63265,10.84652 -13.05795,16.95427q-6.79224,4.05428 -19.53427,4.47551q-70.81831,2.47469 -141.63662,0.10531q-15.90121,-0.52653 -23.06202,-7.73999q-11.47836,-11.58366 -2.26408,-29.06447q2.47469,-4.63347 6.10775,-7.10816q4.05428,-2.79061 8.89836,-3.89632a5.68653,5.58122 -87 0 0 4.15959,-3.79102q13.42652,-40.80609 47.91425,-35.01426a5.31795,5.31795 -71.4 0 0 5.58122,-2.79061q24.64161,-47.38772 65.65831,-33.85589q18.58652,6.10775 27.80079,20.42937q10.05673,15.63795 7.79265,36.27793a3.21183,3.10653 13.1 0 0 2.15877,3.36979z" fill="#e6e7e8"/>
   <path id="svg_3" d="m75.79176,222.51851q-11.10979,0.73714 -9.21428,-9.58285a3.00122,2.79061 7.9 0 1 3.21183,-2.26408q14.26897,1.15837 5.73918,-9.47754a3.73836,3.00122 46.1 0 1 -0.36857,-4.21224q2.26408,-2.89592 5.89714,-3.52775a4.10694,3.31714 68.6 0 1 3.79102,2.15877q5.42326,9.89877 11.37305,-0.05265a3.84367,3.26449 -65.6 0 1 3.79102,-1.7902q10.74122,2.63265 2.36939,12.37346q-4.21224,4.94938 2.15877,3.73836q14.05836,-2.58 9.16162,9.31958a3.58041,3.21183 14.2 0 1 -3.68571,1.94816q-13.0053,-1.52694 -5.37061,7.95061a4.15959,3.73836 41.1 0 1 0.52653,4.3702q-6.42367,11.58366 -11.89958,-1.15837q-2.47469,-5.73918 -5.58122,-0.31592q-7.63469,13.42652 -12.11019,0.31592a6.00244,1.73755 -60.5 0 1 1.05306,-4.47551l1.47428,-3.05387a2.10612,1.63224 6.9 0 0 -2.31673,-2.26408z" fill-opacity="0.996" fill="#d1d2d1"/>
   <rect id="svg_4" rx="0.55" height="2.44" width="13.46" transform="matrix(5.26523, 0.0275689, -0.0275689, 5.26523, -39.9887, -72.9199)" y="51.34259" x="33.10509" fill-opacity="0.996" fill="#d1d2d1"/>
   <rect id="svg_5" rx="0.55" height="2.38" width="10.94" transform="matrix(5.26491, 0.0643262, -0.0643262, 5.26491, -37.7703, -74.2811)" y="55.65206" x="33.09532" fill-opacity="0.996" fill="#d1d2d1"/>
  </g>
 </g>
</svg>