<svg width="256" height="256" xmlns="http://www.w3.org/2000/svg" version="1.1">
 <title>377</title>

 <g>
  <title>Layer 1</title>
  <g id="svg_7">
   <path id="svg_1" d="m84.39312,15.77425a2.25359,2.25359 0 0 1 0,3.78602q-9.41999,6.12975 -13.29616,15.18917q-13.83702,32.09107 12.48487,49.12818q5.13818,3.29024 -0.45072,5.85932q-39.03211,17.62304 -59.53975,-9.46506q-10.95243,-14.42295 -9.87071,-31.91078q1.26201,-20.01185 17.5329,-31.91078q12.16937,-8.9242 25.64581,-9.14956q13.97224,-0.22536 27.49375,8.47348zm-45.1168,61.47783q8.96927,7.1664 22.08515,6.35511a1.48737,1.48737 -18.2 0 0 1.17186,-2.29866q-18.34419,-29.74734 0,-57.82702q1.84794,-2.88459 -1.57751,-2.88459q-20.95835,-0.04507 -29.6572,17.12726q-11.98908,23.57251 7.9777,39.5279z" fill="#0073da"/>
   <path id="svg_2" d="m39.27632,77.25208q-19.96677,-15.95539 -7.9777,-39.5279q8.69884,-17.17233 29.6572,-17.12726q3.42545,0 1.57751,2.88459q-18.34419,28.07969 0,57.82702a1.48737,1.48737 -18.2 0 1 -1.17186,2.29866q-13.11587,0.81129 -22.08515,-6.35511z" fill="#ffffff"/>
   <path id="svg_3" d="m72.85476,113.12918q13.56659,-14.8286 34.61509,-16.5864a4.68746,4.4621 12.6 0 0 3.42545,-2.0733q22.53586,-36.14752 60.12568,-29.43184q20.95835,3.78602 32.85729,17.26247q12.12429,13.79195 15.7751,36.1926a8.24813,8.11291 -77.1 0 0 3.33531,5.40861q14.01731,10.05099 17.93855,24.3838q3.87617,14.10745 -2.61416,28.07969q-6.08468,13.0708 -19.47099,18.79491q-8.11291,3.42545 -25.46553,3.8311q-45.25201,1.03665 -117.72735,-0.36057q-16.94697,-0.3155 -26.4571,-10.45664q-9.10449,-9.73549 -8.83406,-24.3838q0.3155,-17.57797 16.99204,-28.5304q4.7776,-3.15502 8.56363,-10.72707q4.32689,-8.51856 6.94105,-11.40315zm-1.93808,31.46006q-9.96085,1.84794 -14.64831,9.55521q-4.68746,7.79741 -1.80287,17.35261q4.37196,14.37788 22.3105,14.73845q53.59028,1.03665 124.08246,-0.90143q9.64535,-0.27043 14.87367,-3.20009q7.61712,-4.32689 10.63693,-11.94401q9.19463,-23.34715 -11.85386,-35.56159q-0.3155,-0.18029 -5.31846,-2.0733q-6.08468,-2.34373 -3.65081,-9.60028q0.76622,-2.3888 0.45072,-4.32689q-7.07626,-41.33077 -44.39565,-40.88006q-15.18917,0.22536 -25.87117,8.33827q-11.53836,8.78899 -16.81175,23.34715a2.88459,2.83952 -77 0 1 -2.97473,1.89301q-35.3813,-3.47052 -42.41249,30.69385a3.29024,3.29024 -89.4 0 1 -2.61416,2.56909z" fill="#929497"/>
   <path id="svg_4" d="m73.53084,142.02015q7.03119,-34.16437 42.41249,-30.69385a2.88459,2.83952 -77 0 0 2.97473,-1.89301q5.27339,-14.55817 16.81175,-23.34715q10.682,-8.11291 25.87117,-8.33827q37.31939,-0.45072 44.39565,40.88006q0.3155,1.93808 -0.45072,4.32689q-2.43387,7.25655 3.65081,9.60028q5.00296,1.89301 5.31846,2.0733q21.0485,12.21444 11.85386,35.56159q-3.01981,7.61712 -10.63693,11.94401q-5.22832,2.92966 -14.87367,3.20009q-70.49218,1.93808 -124.08246,0.90143q-17.93855,-0.36057 -22.3105,-14.73845q-2.88459,-9.55521 1.80287,-17.35261q4.68746,-7.70727 14.64831,-9.55521a3.29024,3.29024 -89.4 0 0 2.61416,-2.56909z" fill="#e6e7e8"/>
   <circle id="svg_5" r="14.96381" cy="233.74112" cx="109.31779" fill="#d1d2d3"/>
   <circle id="svg_6" r="14.96381" cy="233.69604" cx="163.44893" fill="#d1d2d3"/>
  </g>
 </g>
</svg>