<svg width="256" height="256" xmlns="http://www.w3.org/2000/svg" version="1.1">
 <title>359</title>

 <g>
  <title>Layer 1</title>
  <g id="svg_11">
   <path id="svg_1" d="m85.46931,15.82964a1.71436,1.71436 40.6 0 1 0.21979,2.7254q-36.52914,32.57292 -0.04396,65.10188a2.10999,2.06603 53.4 0 1 -0.48354,3.42873q-41.62828,20.04487 -61.76107,-12.17638q-9.05536,-14.41824 -6.98933,-29.89148q2.32978,-17.93489 16.79198,-28.66065q11.86867,-8.79161 25.23192,-8.96744q13.67095,-0.13187 27.0342,8.43995zm-44.44159,59.91483q8.87953,6.85746 21.67132,6.06621a1.45062,1.45062 -18.2 0 0 1.14291,-2.24186q-17.89093,-29.01232 -0.04396,-56.35422q1.8902,-2.90123 -1.53853,-2.85727q-24.35276,0.21979 -31.29813,21.93507q-6.59371,20.57237 10.06639,33.45208z" fill="#0073da"/>
   <path id="svg_2" d="m41.02772,75.74447q-16.6601,-12.87971 -10.06639,-33.45208q6.94537,-21.71528 31.29813,-21.93507q3.42873,-0.04396 1.53853,2.85727q-17.84697,27.34191 0.04396,56.35422a1.45062,1.45062 -18.2 0 1 -1.14291,2.24186q-12.79179,0.79124 -21.67132,-6.06621z" fill="#ffffff"/>
   <path id="svg_3" d="m125.64697,194.78288q-16.57219,0.30771 -33.14437,-0.26375q-0.30771,0 -13.58304,0.35166q-16.3524,0.39562 -26.55066,-9.80265q-11.7368,-11.78076 -9.62681,-28.74857q2.06603,-16.61614 18.50634,-26.33087a6.54975,6.37392 -5.5 0 0 2.68144,-3.16498q10.24223,-25.97921 43.21077,-32.83667a8.13224,8.04432 11.1 0 0 5.09913,-3.38477q19.16571,-28.52878 49.01323,-28.04524q21.14382,0.39562 36.30935,13.31929q16.08865,13.75887 18.59426,37.32039q0.48354,4.35185 2.46165,6.50579q1.67041,1.84624 3.86831,3.12102q2.81332,1.62645 4.00018,2.81332q22.81423,22.99006 7.03329,50.5078q-7.42891,12.92367 -26.11108,17.84697q-8.30807,2.1979 -48.48573,0.87916q-14.24241,-0.43958 -33.27625,-0.08792zm-9.71473,-84.97092q-34.41916,-5.4508 -40.83703,28.44086a3.2529,3.20894 -0.7 0 1 -2.54957,2.54957q-13.9347,2.7254 -16.79198,14.72595q-3.82435,16.04469 7.91245,22.68236q6.06621,3.38477 20.48445,3.51664q56.13443,0.35166 112.26887,0.08792q16.52823,-0.08792 24.35276,-11.07743q7.42891,-10.3741 4.04414,-23.25381q-3.69248,-13.9347 -19.42946,-19.0778a2.7254,2.7254 11.2 0 1 -1.8902,-2.81332q1.80228,-20.70424 -9.80265,-34.63895q-10.72577,-12.83575 -29.49585,-14.68199q-32.52896,-3.29685 -45.36471,31.82563a2.63748,2.59353 13.8 0 1 -2.90123,1.71436z" fill="#333333"/>
   <path id="svg_4" d="m118.83347,108.09759q12.83575,-35.12248 45.36471,-31.82563q18.77009,1.84624 29.49585,14.68199q11.60493,13.9347 9.80265,34.63895a2.7254,2.7254 11.2 0 0 1.8902,2.81332q15.73698,5.14309 19.42946,19.0778q3.38477,12.87971 -4.04414,23.25381q-7.82453,10.98951 -24.35276,11.07743q-56.13443,0.26375 -112.26887,-0.08792q-14.41824,-0.13187 -20.48445,-3.51664q-11.7368,-6.63767 -7.91245,-22.68236q2.85727,-12.00055 16.79198,-14.72595a3.2529,3.20894 -0.7 0 0 2.54957,-2.54957q6.41788,-33.89166 40.83703,-28.44086a2.63748,2.59353 13.8 0 0 2.90123,-1.71436z" fill="#808285"/>
   <path id="svg_5" d="m54.25909,242.30153l14.68199,-29.93543a6.98933,6.94537 -82.7 0 1 4.74747,-3.69248q13.58304,-2.90123 8.39599,6.90141q-7.78058,14.85782 -16.39635,29.23211a7.16516,5.18705 -78.6 0 1 -3.07706,2.85727q-5.36288,2.15394 -8.22016,-1.49457a4.04414,3.20894 -53.4 0 1 -0.13187,-3.86831z" fill-opacity="0.996" fill="#1f87e6"/>
   <path id="svg_6" d="m100.94254,208.278q3.20894,-0.96708 6.63767,0.21979a2.1979,2.06603 -69.2 0 1 1.18687,2.90123q-9.71473,23.20985 -15.38532,32.30917q-4.79143,7.73662 -12.70388,3.12102a2.54957,2.37373 -62.3 0 1 -0.87916,-3.20894q7.16516,-15.20949 15.38532,-29.84752q2.54957,-4.48372 5.75851,-5.49476z" fill-opacity="0.996" fill="#1f87e6"/>
   <path id="svg_7" d="m127.31737,208.278q3.20894,-0.96708 6.63767,0.21979a2.28582,2.15394 -69.3 0 1 1.23083,2.94519q-5.4508,13.89074 -13.01158,26.77045q-0.21979,0.39562 -1.8902,4.65955q-2.41769,6.15413 -13.31929,4.35185a2.15394,2.15394 -71.5 0 1 -1.53853,-3.12102q7.91245,-15.03365 16.22052,-30.2871q2.46165,-4.52768 5.67059,-5.53871z" fill-opacity="0.996" fill="#1f87e6"/>
   <path id="svg_8" d="m148.85682,211.26715q2.50561,-4.83539 11.86867,-2.1979a2.06603,2.02207 -68.8 0 1 1.27478,2.90123l-16.48427,32.52896a5.05518,4.83539 -83.4 0 1 -3.12102,2.59353q-14.55012,4.13206 -8.74765,-6.19809q3.42873,-6.15413 3.73643,-6.72558q5.53871,-11.51701 11.47305,-22.90215z" fill-opacity="0.996" fill="#1f87e6"/>
   <path id="svg_9" d="m180.06704,208.278q3.20894,-0.96708 6.63767,0.21979a2.24186,2.06603 -69.4 0 1 1.18687,2.94519q-8.79161,21.49549 -15.38532,32.26521q-4.79143,7.82453 -12.70388,3.16498a2.59353,2.41769 -61.8 0 1 -0.87916,-3.2529q7.16516,-15.20949 15.38532,-29.84752q2.54957,-4.48372 5.75851,-5.49476z" fill-opacity="0.996" fill="#1f87e6"/>
   <path id="svg_10" d="m202.61752,209.68466q3.12102,-2.7254 10.3741,-0.79124a2.54957,2.50561 21.8 0 1 1.58249,3.64852q-8.08828,14.85782 -16.30844,30.85855q-3.16498,6.19809 -12.00055,4.13206a2.24186,2.1979 -69.7 0 1 -1.45062,-3.16498q7.20912,-14.11054 13.71491,-26.90233q3.82435,-7.56079 4.0881,-7.78058z" fill-opacity="0.996" fill="#1f87e6"/>
  </g>
 </g>
</svg>