<svg width="256" height="256" xmlns="http://www.w3.org/2000/svg" version="1.1">
 <title>350</title>

 <g>
  <title>Layer 1</title>
  <g id="svg_4">
   <path id="svg_1" d="m19.05131,112.70107q5.83214,-6.93551 13.55578,-11.76936a8.09143,8.03889 85.6 0 0 3.20505,-3.78301q14.13374,-34.94028 52.22652,-38.67074a5.14909,5.09655 12 0 0 3.94063,-2.52201q14.65915,-24.9048 39.8792,-32.68098q24.01159,-7.35585 47.70793,3.15251q34.20469,15.07949 38.93345,58.1112a5.98976,5.88468 15.9 0 0 2.36438,4.1508q45.34355,33.8369 8.72193,77.39403q-9.24735,10.98123 -23.59126,11.34902q-75.39744,1.94405 -150.79488,0.36779q-19.28283,-0.42033 -28.16239,-6.46264q-13.13544,-8.9321 -16.28795,-26.84884q-3.20505,-18.07437 8.3016,-31.78777zm183.47586,-17.02353q2.31184,-35.7284 -22.80313,-51.49094q-20.54383,-12.87273 -43.66221,-5.77959q-24.53701,7.61856 -34.67757,35.0979a3.25759,3.20505 -76.2 0 1 -3.41522,2.10167q-36.98941,-4.51859 -49.12656,33.31148a6.51518,6.46264 84.6 0 1 -3.15251,3.83555q-32.68098,17.75912 -14.50153,40.98258q7.25076,9.24735 18.96758,9.24735q75.66015,0 143.96445,-0.05254q17.28624,0 27.05901,-10.77106q9.14227,-10.14056 7.82872,-25.00988q-1.78642,-20.64892 -24.11667,-28.05731a3.46776,3.36267 11.2 0 1 -2.36438,-3.41522z" fill="#929497"/>
   <path id="svg_2" d="m204.89155,99.09276q22.33025,7.40839 24.11667,28.05731q1.31354,14.86932 -7.82872,25.00988q-9.77277,10.77106 -27.05901,10.77106q-68.3043,0.05254 -143.96445,0.05254q-11.71681,0 -18.96758,-9.24735q-18.17945,-23.22346 14.50153,-40.98258a6.51518,6.46264 84.6 0 0 3.15251,-3.83555q12.13715,-37.83008 49.12656,-33.31148a3.25759,3.20505 -76.2 0 0 3.41522,-2.10167q10.14056,-27.47935 34.67757,-35.0979q23.11838,-7.09314 43.66221,5.77959q25.11497,15.76253 22.80313,51.49094a3.46776,3.36267 11.2 0 0 2.36438,3.41522z" fill="#e6e7e8"/>
   <circle id="svg_3" r="17.44386" cy="218.31003" cx="121.71793" fill="#d1d2d3"/>
  </g>
 </g>
</svg>