<svg width="256" height="256" xmlns="http://www.w3.org/2000/svg" version="1.1">
 <title>314</title>

 <g>
  <title>Layer 1</title>
  <g id="svg_7">
   <path id="svg_1" d="m19.32738,109.46664q3.25859,-5.6237 13.45484,-11.82554a7.83113,7.6209 -5.5 0 0 3.20603,-3.78417q12.40368,-31.00919 52.13749,-39.3659a8.04137,7.88369 -77.8 0 0 4.94045,-3.25859q18.97342,-27.27758 45.98821,-32.84872q26.96223,-5.57114 50.61331,10.14368q25.64828,17.08133 29.1171,52.66307a6.04416,5.99161 -74.6 0 0 2.36511,4.20464q45.35751,33.84732 7.72602,78.57414q-7.46323,8.88229 -26.59432,9.77578q-73.79136,3.46882 -147.53017,0.73581q-18.02738,-0.68325 -28.27618,-7.77858q-28.7492,-19.91946 -7.14788,-57.23561zm183.53236,-17.08133q2.41767,-31.48221 -18.02738,-47.88029q-19.13109,-15.34692 -44.04356,-10.45903q-27.64548,5.41347 -39.10311,36.15987a3.36371,3.25859 -75.6 0 1 -3.46882,2.10232q-37.10591,-4.51998 -49.77238,35.3715a4.99301,4.94045 0.4 0 1 -3.41627,3.31115q-5.04556,1.41906 -9.19764,4.04696q-4.04696,2.52278 -6.56974,7.253q-9.19764,17.39668 2.25999,28.85431q7.20044,7.20044 23.17806,7.72602q75.10531,2.47022 150.31574,-0.47302q15.34692,-0.6307 20.70783,-15.03157q13.08693,-35.52917 -20.60272,-47.51239a3.41627,3.36371 12.4 0 1 -2.25999,-3.46882z" fill="#929497"/>
   <path id="svg_2" d="m205.11974,95.85413q33.68965,11.98321 20.60272,47.51239q-5.36091,14.40088 -20.70783,15.03157q-75.21043,2.94325 -150.31574,0.47302q-15.97762,-0.52558 -23.17806,-7.72602q-11.45763,-11.45763 -2.25999,-28.85431q2.52278,-4.73022 6.56974,-7.253q4.15208,-2.6279 9.19764,-4.04696a4.99301,4.94045 0.4 0 0 3.41627,-3.31115q12.66647,-39.89148 49.77238,-35.3715a3.36371,3.25859 -75.6 0 0 3.46882,-2.10232q11.45763,-30.7464 39.10311,-36.15987q24.91247,-4.88789 44.04356,10.45903q20.44504,16.39808 18.02738,47.88029a3.41627,3.36371 12.4 0 0 2.25999,3.46882z" fill="#e6e7e8"/>
   <path id="svg_3" d="m86.1811,201.3905q-7.20044,17.29157 -16.55575,33.53197q-1.47162,2.52278 -2.73301,0.05256l-21.28597,-40.78497a1.78697,1.73441 -13.8 0 1 1.57674,-2.57534l40.41706,-0.15767a2.6279,2.31255 4.4 0 1 2.6279,2.73301q-0.31535,2.10232 -1.73441,3.83673q-1.78697,2.10232 -2.31255,3.36371z" fill="#deddde"/>
   <path id="svg_4" d="m106.048,194.87331q3.88929,-7.56834 13.66507,-3.46882a2.6279,2.52278 24.8 0 1 1.36651,3.52138l-19.70923,40.31195a5.57114,5.41347 6.3 0 1 -3.78417,2.94325q-18.65807,4.25719 -9.09253,-11.77298q9.2502,-15.5046 17.55436,-31.53477z" fill="#deddde"/>
   <path id="svg_5" d="m124.96886,220.04857q1.26139,-2.25999 7.93625,-16.18785q6.83253,-14.29576 19.02598,-11.51019a2.15488,2.15488 19.8 0 1 1.47162,3.04836q-8.09392,16.13529 -15.81994,31.11431q-4.88789,9.56555 -5.46603,9.98601q-4.09952,3.41627 -13.2446,1.31395a2.78557,2.78557 -68 0 1 -1.73441,-4.09952l7.83113,-13.66507z" fill="#deddde"/>
   <path id="svg_6" d="m174.84636,191.24681q3.83673,-1.15627 7.93625,0.26279a2.52278,2.47022 -68 0 1 1.41906,3.46882l-19.70923,40.25939a6.20184,5.99161 -84.4 0 1 -3.83673,3.25859q-5.41347,1.52418 -10.09113,-1.10372a3.10092,2.73301 -62.8 0 1 -0.9986,-3.88929q8.51439,-18.18505 18.39528,-35.68685q3.04836,-5.36091 6.88509,-6.56974z" fill="#deddde"/>
  </g>
 </g>
</svg>