<svg width="256" height="256" xmlns="http://www.w3.org/2000/svg" version="1.1">
 <title>338</title>

 <g>
  <title>Layer 1</title>
  <g id="svg_5">
   <path id="svg_1" d="m17.70398,109.46049q5.91245,-7.03102 13.74245,-11.93143a7.88327,7.88327 90 0 0 3.19592,-3.8351q12.57062,-31.42654 52.8392,-39.89572a8.14959,7.9898 -77.8 0 0 5.00694,-3.30245q19.22878,-27.6447 46.60715,-33.29082q27.32511,-5.64612 51.2945,10.28021q25.99348,17.31123 29.50899,53.37185a6.12551,6.07225 -74.6 0 0 2.39694,4.26123q45.96797,34.30287 7.83,79.63165q-4.63408,5.59286 -15.66,8.52245q-6.4451,1.75776 -17.41776,2.13061q-71.37553,2.39694 -142.69779,0.21306q-19.60164,-0.63918 -28.55021,-6.71143q-13.31633,-9.0551 -16.51225,-27.21858q-3.24918,-18.32327 8.41592,-32.22552zm186.00249,-17.25796q2.34367,-36.22042 -23.11715,-52.20001q-20.82674,-13.05 -44.26348,-5.85919q-24.8749,7.72347 -35.15511,35.58123a3.30245,3.24918 -76.2 0 1 -3.46225,2.13061q-37.60532,-4.58082 -50.33573,35.58123a5.59286,5.59286 -88 0 1 -3.9949,3.72857q-4.95367,1.27837 -9.10837,3.9949q-3.88837,2.50347 -6.33857,7.19082q-9.32143,17.68409 2.29041,29.40246q7.24408,7.29735 23.33021,7.83q71.64185,2.39694 143.28371,-0.10653q12.89021,-0.42612 19.76143,-4.52755q10.54653,-6.17878 13.2098,-17.15143q7.77674,-31.85266 -23.75633,-42.13287a3.46225,3.40898 11.2 0 1 -2.34367,-3.46225z" fill="#929497"/>
   <path id="svg_2" d="m206.05015,95.66477q31.53307,10.28021 23.75633,42.13287q-2.66327,10.97266 -13.2098,17.15143q-6.87123,4.10143 -19.76143,4.52755q-71.64185,2.50347 -143.28371,0.10653q-16.08613,-0.53265 -23.33021,-7.83q-11.61184,-11.71837 -2.29041,-29.40246q2.4502,-4.68735 6.33857,-7.19082q4.15469,-2.71653 9.10837,-3.9949a5.59286,5.59286 -88 0 0 3.9949,-3.72857q12.73041,-40.16205 50.33573,-35.58123a3.30245,3.24918 -76.2 0 0 3.46225,-2.13061q10.28021,-27.85776 35.15511,-35.58123q23.43674,-7.19082 44.26348,5.85919q25.46082,15.9796 23.11715,52.20001a3.46225,3.40898 11.2 0 0 2.34367,3.46225z" fill="#e6e7e8"/>
   <path id="svg_3" d="m75.01746,223.66133q-11.23898,0.74571 -9.32143,-9.69429a3.03612,2.82306 7.9 0 1 3.24918,-2.29041q14.4349,1.17184 5.80592,-9.58776a4.04816,3.51551 42.8 0 1 -0.47939,-4.36776q4.74061,-7.45714 10.70633,-0.31959q6.33857,7.51041 9.80082,-0.85225a3.51551,3.08939 -73.3 0 1 3.46225,-2.18388q12.78368,2.13061 3.35572,13.68919q-3.14265,3.88837 1.75776,2.98286q14.91429,-2.7698 10.01388,9.26817a3.62204,3.19592 13.5 0 1 -3.72857,1.97082q-13.15653,-1.54469 -5.43306,8.04306a4.20796,3.78184 41.1 0 1 0.53265,4.42102q-6.49837,11.71837 -12.14449,-1.3849q-2.71653,-6.28531 -5.59286,-0.05327q-5.75265,12.41082 -11.8249,1.43816a6.33857,3.72857 -57 0 1 0.21306,-4.68735l1.65122,-4.10143a1.91755,1.70449 7.3 0 0 -2.02408,-2.29041z" fill="#d1d2d3"/>
   <path id="svg_4" d="m167.53932,210.93092l6.33857,0.1598a4.31449,3.56878 -7.2 0 1 3.72857,2.34367q3.8351,10.06715 -7.72347,9.2149q-8.09633,-0.58592 -2.87633,5.69939q7.29735,8.78878 -4.10143,10.65306a3.8351,3.40898 70.9 0 1 -3.78184,-2.13061q-5.22,-10.81286 -10.70633,-0.26633a4.52755,3.67531 -71.4 0 1 -3.78184,2.39694q-7.29735,-0.63918 -5.69939,-8.04306q0.31959,-1.43816 1.97082,-4.26123q3.62204,-6.28531 -5.69939,-3.67531a4.36776,4.36776 -16.2 0 1 -5.3798,-2.92959q-3.19592,-10.91939 8.14959,-9.48123a3.24918,2.13061 4.7 0 0 3.56878,-1.97082q0,-2.34367 -2.71653,-5.64612a4.74061,4.68735 -37.5 0 1 0.90551,-6.7647q6.81796,-4.90041 10.28021,2.82306q2.92959,6.4451 6.7647,0.47939q7.13755,-10.97266 12.09123,-0.26633a5.69939,2.7698 -53.9 0 1 -0.79898,4.42102l-2.4502,4.42102a2.13061,1.86429 14.1 0 0 1.91755,2.82306z" fill="#d1d2d3"/>
  </g>
 </g>
</svg>