<svg width="256" height="256" xmlns="http://www.w3.org/2000/svg" version="1.1">
 <title>266</title>

 <g>
  <title>Layer 1</title>
  <g id="svg_7">
   <path id="svg_1" d="m136.75482,180.86151q-42.47558,1.97685 -84.95117,-0.69457q-21.79879,-1.33571 -31.4159,-10.09797q-15.12024,-13.7311 -10.73911,-38.68217q2.83171,-16.08195 20.40965,-28.5842q2.24399,-1.60285 3.47285,-4.06056q17.79166,-35.7436 52.94755,-38.73559a6.1977,6.03741 13.5 0 0 4.59484,-2.72485q30.24048,-45.09358 75.33405,-34.72846q23.34821,5.34284 36.70532,21.15765q13.99824,16.61623 16.29566,41.99473a6.46484,6.41141 -75.5 0 0 2.77828,4.75513q35.69018,24.84421 20.73022,60.64124q-6.14427,14.69281 -17.84509,22.06593q-12.71596,8.01426 -28.79791,7.58683q-12.34196,-0.32057 -13.08996,-0.26714q-11.59396,0.26714 -23.24136,0.05343q-12.02139,-0.16029 -23.18793,0.32057zm66.89237,-83.72231q2.35085,-36.33132 -23.18793,-52.35984q-20.89051,-13.08996 -44.39901,-5.87712q-24.95107,7.74712 -35.26275,35.69018a3.31256,3.25913 -76.2 0 1 -3.47285,2.13714q-37.72046,-4.59484 -50.54327,35.85046a5.28941,5.28941 -89.4 0 1 -3.47285,3.41942q-23.18793,7.31969 -19.1808,30.98848q2.88513,16.66966 19.76851,17.36423q75.38748,2.99199 152.85867,0.26714q12.92967,-0.42743 19.82194,-4.54141q10.57882,-6.1977 13.25024,-17.20395q7.80055,-31.95019 -23.82907,-42.26187a3.47285,3.41942 11.2 0 1 -2.35085,-3.47285z" fill="#929497"/>
   <path id="svg_2" d="m205.99803,100.61205q31.62962,10.31168 23.82907,42.26187q-2.67142,11.00625 -13.25024,17.20395q-6.89226,4.11399 -19.82194,4.54141q-77.47119,2.72485 -152.85867,-0.26714q-16.88338,-0.69457 -19.76851,-17.36423q-4.00713,-23.66878 19.1808,-30.98848a5.28941,5.28941 -89.4 0 0 3.47285,-3.41942q12.82282,-40.4453 50.54327,-35.85046a3.31256,3.25913 -76.2 0 0 3.47285,-2.13714q10.31168,-27.94306 35.26275,-35.69018q23.5085,-7.21283 44.39901,5.87712q25.53878,16.02852 23.18793,52.35984a3.47285,3.41942 11.2 0 0 2.35085,3.47285z" fill="#e6e7e8"/>
   <path id="svg_3" d="m68.84731,212.70484q5.0757,-6.99912 12.92967,-4.16742a2.72485,2.56456 23.5 0 1 1.54942,3.63313l-9.61711,19.44794a6.83884,5.60998 7.9 0 1 -5.28941,3.25913q-15.92167,1.496 -8.60197,-9.34997q4.38113,-6.51827 9.0294,-12.82282z" fill-opacity="0.996" fill="#1f88e8"/>
   <path id="svg_4" d="m95.40123,221.4671l5.02227,-10.5254a6.03741,4.54141 3.2 0 1 4.16742,-2.77828q16.9368,-2.83171 9.51026,8.70883q-2.35085,3.5797 -4.00713,8.44169q-4.27427,12.28853 -17.57795,8.86912a3.15228,2.88513 13.1 0 1 -2.35085,-3.41942q0.58771,-2.77828 2.45771,-4.91541q1.496,-1.76314 2.77828,-4.38113z" fill-opacity="0.996" fill="#1f88e8"/>
   <path id="svg_5" d="m128.04599,219.81082q1.76314,-4.64827 4.43456,-8.92254a6.09084,5.93055 11.2 0 1 4.16742,-2.72485q16.77652,-2.77828 9.67054,8.44169q-2.29742,3.63313 -4.75513,8.81569q-1.86999,4.11399 -4.96884,7.42655a7.74712,7.10598 16.5 0 1 -4.59484,2.24399q-14.90653,1.81657 -8.17455,-7.64026q2.83171,-3.9537 4.22084,-7.64026z" fill-opacity="0.996" fill="#1f88e8"/>
   <path id="svg_6" d="m164.91159,212.65141q5.18256,-6.94569 13.03653,-4.11399a2.72485,2.56456 23.5 0 1 1.54942,3.63313l-9.51026,19.34108a7.21283,5.93055 7.3 0 1 -5.34284,3.36599q-16.82995,1.81657 -8.33483,-10.25825q4.22084,-6.03741 8.60197,-11.96796z" fill-opacity="0.996" fill="#1f88e8"/>
  </g>
 </g>
</svg>