<svg width="256" height="256" xmlns="http://www.w3.org/2000/svg" version="1.1">
 <title>386</title>

 <g>
  <title>Layer 1</title>
  <g id="svg_6">
   <path id="svg_1" d="m85.99524,16.13229a1.71233,1.71233 40.6 0 1 0.21953,2.72217q-36.48582,32.53428 -0.04391,65.02466a2.10748,2.06358 53.4 0 1 -0.48297,3.42466q-41.5789,20.0211 -61.68781,-12.16194q-9.04462,-14.40114 -6.98104,-29.85602q2.32701,-17.91361 16.77206,-28.62666q11.8546,-8.78118 25.202,-8.95681q13.65474,-0.13172 27.00214,8.42994zm-44.25716,59.71205q8.73728,6.98104 21.5139,6.19073a1.4489,1.4489 -18.2 0 0 1.14155,-2.2392q-17.86971,-28.9779 0,-56.33129q1.80014,-2.80998 -1.53671,-2.80998q-20.41625,-0.04391 -28.89009,16.68425q-11.67897,22.96279 7.77135,38.50549z" fill="#0073da"/>
   <path id="svg_2" d="m41.73808,75.84434q-19.45032,-15.54269 -7.77135,-38.50549q8.47384,-16.72815 28.89009,-16.68425q3.33685,0 1.53671,2.80998q-17.86971,27.35339 0,56.33129a1.4489,1.4489 -18.2 0 1 -1.14155,2.2392q-12.77662,0.79031 -21.5139,-6.19073z" fill="#ffffff"/>
   <path id="svg_3" d="m156.2008,193.90735l4.39059,-11.72288q17.56237,-0.39515 35.12473,-0.21953q17.47455,0.21953 25.59715,-11.37163q7.77135,-11.06429 3.46857,-24.27997q-4.21497,-12.90834 -19.01126,-17.73799a2.76607,2.76607 10.6 0 1 -1.93186,-2.80998q1.84405,-26.16793 -15.10364,-39.91048q-15.93785,-12.90834 -36.66144,-8.95681q-23.40185,4.4784 -32.27085,30.86586a2.59045,2.50264 13.3 0 1 -2.85388,1.71233q-34.59786,-5.00527 -41.31547,28.934a3.38076,3.24904 -1.5 0 1 -2.59045,2.59045q-12.51319,2.85388 -16.24519,13.47912q-3.11732,8.82509 1.31718,17.47455q5.1809,10.05445 16.85987,10.05445q29.54868,0 59.09736,0q-1.4928,5.75168 -5.26871,10.27398a1.40499,1.22937 -49.8 0 0 0.04391,1.84405l1.00984,0.87812q-24.54341,0.08781 -49.04291,-0.57078q-16.11347,-0.39515 -23.84091,-5.1809q-12.16194,-7.55182 -13.83036,-22.61155q-2.67826,-24.23607 16.90378,-34.64177a10.01055,9.79102 -3.1 0 0 4.52231,-4.91746q11.98632,-28.53885 42.58874,-31.96351a7.37619,7.33229 10.4 0 0 5.70777,-3.90763q7.02495,-13.69865 20.32844,-21.20656q11.8985,-6.6737 27.30948,-6.62979q43.64248,0.13172 57.69237,52.37976a10.18617,9.92274 13.5 0 0 3.20513,5.09309q14.97192,12.90834 17.47455,28.62666q2.37092,15.01582 -6.76151,28.49494q-9.57149,14.18161 -27.66073,16.11347q-0.96593,0.08781 -24.06044,1.00984q-12.11803,0.48297 -24.19216,-1.18546z" fill="#333333"/>
   <path id="svg_4" d="m160.59139,182.18447q-5.48824,0.65859 -10.09836,-1.36108a2.2392,1.88795 -65.3 0 1 -0.79031,-2.85388l9.08852,-19.09907a2.32701,2.1953 23.8 0 0 -1.27327,-3.07341q-4.25887,-1.71233 -7.90306,0.08781q-2.89779,1.4489 -5.44433,6.89323q-4.61012,9.83493 -10.09836,19.23079q-29.54868,0 -59.09736,0q-11.67897,0 -16.85987,-10.05445q-4.4345,-8.64947 -1.31718,-17.47455q3.732,-10.62523 16.24519,-13.47912a3.38076,3.24904 -1.5 0 0 2.59045,-2.59045q6.71761,-33.93927 41.31547,-28.934a2.59045,2.50264 13.3 0 0 2.85388,-1.71233q8.869,-26.38746 32.27085,-30.86586q20.72359,-3.95153 36.66144,8.95681q16.94768,13.74255 15.10364,39.91048a2.76607,2.76607 10.6 0 0 1.93186,2.80998q14.79629,4.82965 19.01126,17.73799q4.30278,13.21568 -3.46857,24.27997q-8.12259,11.59116 -25.59715,11.37163q-17.56237,-0.17562 -35.12473,0.21953z" fill="#808285"/>
   <path id="svg_5" d="m160.59139,182.18447l-4.39059,11.72288q-4.61012,4.56622 -7.06885,11.50335q-1.4489,4.03934 2.76607,3.16123q10.66914,-2.1953 6.84932,5.31262q-6.54198,12.82053 -13.52302,25.42153q-0.26344,0.48297 -1.71233,4.12716q-2.67826,6.58589 -12.24975,4.25887a2.9856,2.89779 -69.1 0 1 -1.80014,-4.25887l9.74711,-18.70392q2.06358,-3.95153 -2.45873,-3.24904q-12.68881,2.01967 -6.32245,-7.85916q5.00527,-7.81525 9.17634,-16.20128a1.4489,1.4489 -75.5 0 0 -1.22937,-2.10748l-8.51775,-0.30734l-1.00984,-0.87812a1.40499,1.22937 -49.8 0 1 -0.04391,-1.84405q3.77591,-4.52231 5.26871,-10.27398q5.48824,-9.39587 10.09836,-19.23079q2.54654,-5.44433 5.44433,-6.89323q3.64419,-1.80014 7.90306,-0.08781a2.32701,2.1953 23.8 0 1 1.27327,3.07341l-9.08852,19.09907a2.2392,1.88795 -65.3 0 0 0.79031,2.85388q4.61012,2.01967 10.09836,1.36108z" fill="#feb101"/>
  </g>
 </g>
</svg>