<svg width="256" height="256" xmlns="http://www.w3.org/2000/svg" version="1.1">
 <title>302</title>

 <g>
  <title>Layer 1</title>
  <g id="svg_5">
   <path id="svg_1" d="m19.54973,109.45659q5.81827,-6.91902 13.52355,-11.74137a7.91494,7.65286 -5.7 0 0 3.14501,-3.7216q12.42279,-30.97836 52.04993,-39.31264a8.12461,7.96736 10.8 0 0 4.87477,-3.24984q18.92248,-27.15193 45.81233,-32.76053q26.99468,-5.6086 50.58226,10.11645q25.52701,17.03548 28.98652,52.52168a5.45135,5.39894 13.4 0 0 2.51601,4.0361q30.19211,19.34182 22.95858,53.30794q-6.70936,31.45011 -41.93348,35.38137q-30.50661,3.4071 -146.40026,0.41933q-19.2894,-0.52417 -28.14785,-6.55211q-13.0518,-8.96328 -16.19681,-26.73259q-3.24984,-18.0314 8.22945,-31.71219zm183.14447,-16.93064q2.09667,-20.39015 -7.75769,-35.95796q-9.12053,-14.46705 -27.62368,-20.49499q-40.83273,-13.47113 -65.36381,33.70403a5.2941,5.2941 -71.4 0 1 -5.55619,2.77809q-34.33304,-5.76585 -47.69933,34.8572a5.71344,5.66102 -87.5 0 1 -4.08851,3.77401q-7.60044,1.83459 -11.95104,8.43911q-12.99938,19.65632 -0.36692,31.55494q7.39078,7.02386 24.63592,7.60044q69.45233,2.30634 138.90465,-0.10483q12.68488,-0.41933 19.44665,-4.45543q10.37854,-6.08035 12.99938,-16.87823q7.65286,-31.34528 -23.37791,-41.46173a3.24984,3.14501 12.6 0 1 -2.20151,-3.35468z" fill="#929497"/>
   <path id="svg_2" d="m204.89571,95.88062q31.03077,10.11645 23.37791,41.46173q-2.62084,10.79787 -12.99938,16.87823q-6.76177,4.0361 -19.44665,4.45543q-69.45233,2.41118 -138.90465,0.10483q-17.24514,-0.57659 -24.63592,-7.60044q-12.63246,-11.89862 0.36692,-31.55494q4.3506,-6.60452 11.95104,-8.43911a5.71344,5.66102 -87.5 0 0 4.08851,-3.77401q13.3663,-40.62306 47.69933,-34.8572a5.2941,5.2941 -71.4 0 0 5.55619,-2.77809q24.53109,-47.17516 65.36381,-33.70403q18.50315,6.02794 27.62368,20.49499q9.85437,15.5678 7.75769,35.95796a3.24984,3.14501 12.6 0 0 2.20151,3.35468z" fill="#e6e7e8"/>
   <path id="svg_3" d="m106.08995,194.68638q3.82643,-7.60044 13.62838,-3.45951a2.72568,2.62084 23.9 0 1 1.46767,3.56435l-19.65632,40.20372a6.08035,5.34652 4.6 0 1 -3.93126,2.93534q-18.50315,4.19335 -8.96328,-11.74137q9.27778,-15.46297 17.45481,-31.50253z" fill-opacity="0.996" fill="#1f87e7"/>
   <path id="svg_4" d="m132.35079,205.79875q2.30634,-4.29818 3.30226,-8.7012q1.93942,-8.33428 16.45889,-5.18927a2.04426,2.04426 -71 0 1 1.41525,2.93534q-9.74953,19.18457 -17.76931,36.90146q-3.77401,8.33428 -16.45889,5.97552a2.77809,2.77809 19.7 0 1 -1.93942,-4.0361l14.99122,-27.88576z" fill-opacity="0.996" fill="#1f87e7"/>
  </g>
 </g>
</svg>