<svg width="256" height="256" xmlns="http://www.w3.org/2000/svg" version="1.1">
 <title>248</title>

 <g>
  <title>Layer 1</title>
  <g id="svg_5">
   <path id="svg_1" d="m20.75626,113.11453a23.65443,23.28565 -81.8 0 1 10.32577,-7.84969q4.74142,-1.84389 6.47994,-7.42823q2.15998,-6.84872 3.319,-8.63993q16.2262,-25.91978 47.67764,-28.65927a5.37361,5.16288 -75.6 0 0 4.00387,-2.47608q29.50219,-46.57131 77.75933,-32.7685q21.96859,6.26921 33.55874,21.49445q11.85356,15.59401 15.69938,39.0904a10.69454,10.5365 -80.4 0 0 5.26825,7.53359q10.06235,5.68971 15.85743,16.70034q5.00484,9.48285 5.16288,21.6525q0.36878,27.92171 -21.75786,41.1977q-11.48478,6.9014 -33.50605,6.9014q-69.01404,0 -137.9754,0q-14.435,0 -24.49735,-5.79507q-10.32577,-5.95312 -15.22524,-18.3335q-8.21847,-20.96763 7.84969,-42.62012zm25.07686,2.58144q-21.86323,6.63799 -19.96666,26.55197q1.05365,10.79991 8.37651,17.1218q8.00774,6.84872 19.75593,6.37458q7.37555,-0.31609 7.84969,-0.31609q66.16919,0.73755 132.33838,-1.00097q17.22717,-0.42146 25.60368,-7.58628q13.48671,-11.53746 9.58821,-30.55584q-2.05462,-9.74626 -8.21847,-15.59401q-6.37458,-6.05848 -16.01547,-9.0087a3.37168,3.319 -77 0 1 -2.31803,-3.74046q2.58144,-17.01644 -4.37265,-31.13534q-6.16385,-12.43306 -20.80958,-21.12567q-37.29919,-22.232 -67.17016,14.1189q-2.15998,2.58144 -4.74142,10.11504q-2.68681,7.69164 -9.85162,7.48091q-11.90624,-0.31609 -12.22233,-0.26341q-28.34317,6.05848 -34.77043,35.29726a4.42533,4.42533 88.2 0 1 -3.05558,3.26631z" fill-opacity="0.996" fill="#d2d2d3"/>
   <path id="svg_2" d="m48.8887,112.42966q6.42726,-29.23877 34.77043,-35.29726q0.31609,-0.05268 12.22233,0.26341q7.16482,0.21073 9.85162,-7.48091q2.58144,-7.53359 4.74142,-10.11504q29.87096,-36.35091 67.17016,-14.1189q14.64573,8.69261 20.80958,21.12567q6.95409,14.1189 4.37265,31.13534a3.37168,3.319 -77 0 0 2.31803,3.74046q9.64089,2.95022 16.01547,9.0087q6.16385,5.84775 8.21847,15.59401q3.8985,19.01837 -9.58821,30.55584q-8.37651,7.16482 -25.60368,7.58628q-66.16919,1.73852 -132.33838,1.00097q-0.47414,0 -7.84969,0.31609q-11.74819,0.47414 -19.75593,-6.37458q-7.32286,-6.3219 -8.37651,-17.1218q-1.89657,-19.91398 19.96666,-26.55197a4.42533,4.42533 88.2 0 0 3.05558,-3.26631z" fill-opacity="0.306" fill="#f4f8f9"/>
   <path id="svg_3" d="m43.4624,192.82312l170.1644,-0.21073a3.319,2.84485 -1.4 0 1 3.26631,2.68681l0.42146,9.27212a3.0029,2.52876 -1 0 1 -3.0029,2.63412q-80.18273,0.52682 -160.31277,0.31609q-0.57951,0 -7.95505,0.63219q-10.95796,0.94828 -8.32383,-10.58918a6.05848,5.84775 -83.5 0 1 5.74239,-4.74142z" fill-opacity="0.996" fill="#d2d2d3"/>
   <rect id="svg_4" rx="0.75" height="15.80474" width="179.12042" y="218.05802" x="38.24684" fill-opacity="0.996" fill="#d2d2d3"/>
  </g>
 </g>
</svg>