<svg width="256" height="256" xmlns="http://www.w3.org/2000/svg" version="1.1">
 <title>179</title>

 <g>
  <title>Layer 1</title>
  <g id="svg_6">
   <path id="svg_1" d="m85.36912,16.26105a2.20482,2.20482 0 0 1 0,3.7041q-9.21616,5.99712 -13.00845,14.8605q-13.53761,31.39667 12.21471,48.06512q5.02699,3.21904 -0.44096,5.73254q-38.18752,17.24171 -58.2514,-9.26025q-10.71544,-14.11086 -9.65712,-31.22028q1.2347,-19.57882 17.15352,-31.22028q11.90604,-8.7311 25.09088,-8.95158q13.6699,-0.22048 26.89883,8.29013zm-44.14054,60.14755q8.77519,7.01133 21.60726,6.2176a1.45518,1.45518 -18.2 0 0 1.14651,-2.24892q-17.94725,-29.10365 0,-56.57573q1.80795,-2.82217 -1.54338,-2.82217q-20.50485,-0.0441 -29.01546,16.75665q-11.72965,23.06244 7.80507,38.67258z" fill="#0073da"/>
   <path id="svg_2" d="m41.22859,76.4086q-19.53472,-15.61014 -7.80507,-38.67258q8.51061,-16.80074 29.01546,-16.75665q3.35133,0 1.54338,2.82217q-17.94725,27.47208 0,56.57573a1.45518,1.45518 -18.2 0 1 -1.14651,2.24892q-12.83206,0.79374 -21.60726,-6.2176z" fill="#ffffff"/>
   <path id="svg_3" d="m63.98235,128.83927q9.34845,-26.63425 43.17042,-33.86607a8.42242,8.29013 11.7 0 0 5.11519,-3.30723q21.56316,-29.6769 51.63693,-28.08943q21.69545,1.10241 35.8945,15.30147q13.80219,13.84628 17.94725,37.87884a8.15784,8.02555 13 0 0 3.30723,5.20338q13.27303,9.34845 17.24171,23.15063q3.88049,13.44941 -1.80795,26.98702q-5.51206,13.18484 -18.52051,19.22605q-7.98146,3.7482 -24.95859,4.23326q-76.90419,2.29301 -122.80859,-0.39687q-10.75953,-0.61735 -18.34412,-8.86338q-6.26169,-6.83495 -8.55471,-17.2858q-5.24748,-24.16485 18.07954,-37.04101a5.68844,5.64434 85.1 0 0 2.60169,-3.13085zm8.20194,13.44941q-9.74531,1.80795 -14.33134,9.34845q-4.58603,7.62868 -1.76386,16.97713q4.27735,14.06676 21.82774,14.41954q52.43067,1.01422 121.3975,-0.88193q9.34845,-0.26458 14.55183,-3.08675q7.98146,-4.27735 10.40676,-11.72965q8.86338,-27.38389 -17.2858,-37.1733a3.96868,3.96868 10.4 0 1 -2.55759,-3.7041q-0.0441,-23.01834 -11.90604,-36.37956q-11.72965,-13.14074 -32.05811,-13.27303q-29.01546,-0.17639 -41.27427,31.13209a2.86627,2.86627 -76.4 0 1 -2.95446,1.80795q-34.61571,-3.39543 -41.49475,30.02968a3.21904,3.21904 -89.4 0 1 -2.55759,2.5135z" fill="#929497"/>
   <path id="svg_4" d="m74.74188,139.77519q6.87904,-33.4251 41.49475,-30.02968a2.86627,2.86627 -76.4 0 0 2.95446,-1.80795q12.25881,-31.30847 41.27427,-31.13209q20.32846,0.13229 32.05811,13.27303q11.86194,13.36122 11.90604,36.37956a3.96868,3.96868 10.4 0 0 2.55759,3.7041q26.14919,9.78941 17.2858,37.1733q-2.4253,7.4523 -10.40676,11.72965q-5.20338,2.82217 -14.55183,3.08675q-68.96683,1.89615 -121.3975,0.88193q-17.55038,-0.35277 -21.82774,-14.41954q-2.82217,-9.34845 1.76386,-16.97713q4.58603,-7.54049 14.33134,-9.34845a3.21904,3.21904 -89.4 0 0 2.55759,-2.5135z" fill="#e6e7e8"/>
   <path id="svg_5" d="m147.6333,224.83722l5.24748,0.13229a3.61591,2.73398 -5.6 0 1 3.13085,1.94024q2.20482,6.39398 -8.15784,8.86338a1.94024,1.94024 -25.2 0 0 -1.10241,3.04265q6.30579,8.7311 -3.52772,8.99567a3.57181,3.08675 74.5 0 1 -3.08675,-2.07253q-4.18916,-8.51061 -7.71688,0a3.7041,3.13085 -77.4 0 1 -2.99856,2.29301q-8.29013,0.17639 -3.88049,-11.2005a1.67566,1.63157 -83.4 0 0 -1.76386,-2.24892q-7.93736,1.1906 -7.4523,-5.20338q0.39687,-5.99712 6.87904,-4.9388a2.20482,1.89615 7 0 0 2.5135,-1.67566q0.17639,-2.95446 -1.85205,-5.37977a2.91037,2.4253 45.2 0 1 -0.30868,-3.35133q5.82073,-7.4082 10.45086,1.41109a2.4253,2.07253 61.7 0 0 2.99856,1.14651q2.4253,-1.32289 4.05687,-3.79229a3.04265,2.55759 -63.3 0 1 3.17494,-1.36699q8.86338,2.99856 2.60169,11.46507q-1.36699,1.89615 0.79374,1.94024z" fill-opacity="0.996" fill="#d0d1d2"/>
  </g>
 </g>
</svg>