<svg width="256" height="256" xmlns="http://www.w3.org/2000/svg" version="1.1">
 <title>299</title>

 <g>
  <title>Layer 1</title>
  <g id="svg_7">
   <path id="svg_1" d="m86.24663,17.11808a2.16788,2.16788 0 0 1 0,3.64204q-9.06173,5.89663 -12.79049,14.6115q-13.31078,30.8706 12.01005,47.25976q4.94276,3.1651 -0.43358,5.63649q-37.54766,16.95281 -57.27536,-9.10509q-10.53589,-13.87442 -9.49531,-30.69716q1.21401,-19.25076 16.8661,-30.69716q11.70655,-8.5848 24.67046,-8.80159q13.44085,-0.21679 26.44812,8.15122zm-43.40094,59.13974q8.62816,6.89385 21.24521,6.11342a1.4308,1.4308 -18.2 0 0 1.1273,-2.21124q-17.64653,-28.616 0,-55.62777q1.77766,-2.77488 -1.51752,-2.77488q-20.16127,-0.04336 -28.52929,16.47588q-11.53312,22.67601 7.67429,38.0246z" fill="#0073da"/>
   <path id="svg_2" d="m42.84569,76.25781q-19.20741,-15.34858 -7.67429,-38.0246q8.36801,-16.51924 28.52929,-16.47588q3.29518,0 1.51752,2.77488q-17.64653,27.01177 0,55.62777a1.4308,1.4308 -18.2 0 1 -1.1273,2.21124q-12.61706,0.78044 -21.24521,-6.11342z" fill="#ffffff"/>
   <path id="svg_3" d="m65.26156,127.85333q10.79604,-29.91673 43.18415,-33.03847a4.2924,4.20569 13.3 0 0 3.29518,-1.99445q23.02287,-36.55044 61.13418,-27.61878q18.86055,4.42247 29.48315,16.73602q11.53312,13.35413 13.26742,33.55877a7.58758,7.54422 12 0 0 3.90218,5.98335q9.45195,5.28962 14.26464,14.56815q4.20569,8.15122 4.03225,19.12069q-0.3035,20.50813 -15.99895,31.04403q-9.62538,6.41692 -29.78666,7.06729q-73.92467,2.38467 -120.7075,-0.26015q-10.66596,-0.60701 -18.08011,-8.71487q-6.11342,-6.67707 -8.36801,-16.95281q-5.15955,-23.80331 17.77661,-36.46372a5.76656,5.76656 -4.6 0 0 2.60145,-3.03503zm8.02115,13.1807q-9.58202,1.77766 -14.09121,9.19181q-4.50919,7.50086 -1.7343,16.69267q4.20569,13.83107 21.462,14.17793q51.46544,0.99722 119.36341,-0.86715q9.19181,-0.26015 14.308,-3.03503q7.84772,-4.20569 10.23239,-11.53312q8.71487,-26.92506 -16.99617,-36.55044a3.90218,3.90218 10.4 0 1 -2.51474,-3.64204q-0.04336,-22.63266 -11.70655,-35.77q-11.53312,-12.92056 -31.52096,-13.05063q-28.52929,-0.17343 -40.58269,30.61045a2.81824,2.81824 -76.4 0 1 -2.90496,1.77766q-33.99234,-3.29518 -40.79948,29.52651a3.1651,3.1651 -89.4 0 1 -2.51474,2.47138z" fill="#929497"/>
   <path id="svg_4" d="m75.79745,138.56265q6.80714,-32.82169 40.79948,-29.52651a2.81824,2.81824 -76.4 0 0 2.90496,-1.77766q12.05341,-30.78388 40.58269,-30.61045q19.98784,0.13007 31.52096,13.05063q11.66319,13.13735 11.70655,35.77a3.90218,3.90218 10.4 0 0 2.51474,3.64204q25.71104,9.62538 16.99617,36.55044q-2.38467,7.32743 -10.23239,11.53312q-5.11619,2.77488 -14.308,3.03503q-67.89797,1.86438 -119.36341,0.86715q-17.25632,-0.34686 -21.462,-14.17793q-2.77488,-9.19181 1.7343,-16.69267q4.50919,-7.41415 14.09121,-9.19181a3.1651,3.1651 -89.4 0 0 2.51474,-2.47138z" fill="#e6e7e8"/>
   <path id="svg_5" d="m122.45021,239.28231q-3.12175,7.93444 -13.26742,6.8505a3.12175,3.12175 -71.8 0 1 -2.34131,-4.63926q8.10787,-14.0045 14.308,-28.96286q3.1651,-7.63093 13.87442,-4.94276a1.86438,1.86438 -71.2 0 1 1.25737,2.5581q-4.89941,10.79604 -10.18903,20.11792q-0.26015,0.47693 -3.64204,9.01838z" fill-opacity="0.996" fill="#1f87e6"/>
   <path id="svg_6" d="m153.71102,206.98091q3.46861,-1.1273 6.93721,0.99722a2.64481,2.38467 -61.9 0 1 0.82379,3.25182q-12.35691,26.10126 -15.60873,31.39089q-4.50919,7.28407 -12.09676,2.5581a2.60145,2.38467 -61.3 0 1 -0.78044,-3.20846q7.11064,-14.95836 15.21851,-29.39644q2.5581,-4.5959 5.50641,-5.59313z" fill-opacity="0.996" fill="#1f87e6"/>
  </g>
 </g>
</svg>