<svg width="256" height="256" xmlns="http://www.w3.org/2000/svg" version="1.1">
 <title>320</title>

 <g>
  <title>Layer 1</title>
  <g id="svg_6">
   <path id="svg_1" d="m133.83067,175.20497q-38.491,1.31999 -76.87639,-0.6864q-23.91827,-1.26719 -34.42542,-9.97915q-17.95191,-14.83672 -11.03514,-43.98217q3.06238,-12.93593 20.85589,-23.12628a7.60316,7.49756 85.7 0 0 3.16798,-3.74878q12.46073,-31.15184 52.37732,-39.54699a8.07836,7.91996 -77.8 0 0 4.96317,-3.27358q19.0607,-27.40306 46.19976,-32.99983q27.08626,-5.59677 50.84613,10.19035q25.76626,17.15991 29.25105,52.90532a6.07197,6.01917 -74.6 0 0 2.37599,4.22398q40.39179,30.14864 15.25912,68.95644q-7.65596,11.72154 -18.2159,16.36791q-8.39516,3.69598 -17.84631,4.06558q-14.25592,0.528 -14.83672,0.5808q-13.04153,1.21439 -26.08306,0.5808q-17.31831,-0.792 -25.97746,-0.528zm69.27323,-83.00116q2.32319,-35.90381 -22.91508,-51.74373q-20.64469,-12.93593 -43.87657,-5.80797q-24.65747,7.65596 -34.84782,35.27021a3.27358,3.22078 -76.2 0 1 -3.43198,2.11199q-37.2766,-4.54078 -49.89574,35.16461a5.75517,5.54397 -2.7 0 1 -3.37918,3.59038q-28.24785,10.77114 -16.05112,38.227q4.06558,9.13435 14.04473,9.55675q76.19,3.00958 153.48879,0.3168q12.83033,-0.4224 19.6415,-4.48798q10.45434,-6.12477 13.09433,-17.00151q7.70876,-31.57423 -23.54868,-41.76458a3.43198,3.37918 11.2 0 1 -2.32319,-3.43198z" fill="#929497"/>
   <path id="svg_2" d="m205.42709,95.63579q31.25743,10.19035 23.54868,41.76458q-2.63999,10.87674 -13.09433,17.00151q-6.81116,4.06558 -19.6415,4.48798q-77.29879,2.69279 -153.48879,-0.3168q-9.97915,-0.4224 -14.04473,-9.55675q-12.19674,-27.45585 16.05112,-38.227a5.75517,5.54397 -2.7 0 0 3.37918,-3.59038q12.61913,-39.70539 49.89574,-35.16461a3.27358,3.22078 -76.2 0 0 3.43198,-2.11199q10.19035,-27.61425 34.84782,-35.27021q23.23188,-7.12796 43.87657,5.80797q25.23827,15.83992 22.91508,51.74373a3.43198,3.37918 11.2 0 0 2.32319,3.43198z" fill="#e6e7e8"/>
   <path id="svg_3" d="m74.21978,195.16326q3.85438,-7.65596 13.72793,-3.48478a2.74559,2.63999 23.9 0 1 1.47839,3.59038l-19.7999,40.49739a6.12477,5.38557 4.6 0 1 -3.95998,2.95678q-18.6383,4.22398 -9.02875,-11.82714q9.34555,-15.57592 17.58231,-31.73263z" fill-opacity="0.996" fill="#1e87e7"/>
   <path id="svg_4" d="m105.89962,195.16326q4.96317,-6.96956 13.72793,-3.43198a2.63999,2.53439 24.1 0 1 1.42559,3.53758l-20.06389,40.18059a6.33597,5.38557 3.7 0 1 -3.95998,2.95678q-16.52631,4.11838 -9.50395,-7.81436q3.53758,-6.01917 4.43518,-7.81436q10.77114,-23.23188 13.93913,-27.61425z" fill-opacity="0.996" fill="#1e87e7"/>
   <path id="svg_5" d="m167.25289,209.20799q13.99193,-1.95359 9.60955,9.87355a3.53758,3.22078 12.2 0 1 -3.64318,2.11199q-13.04153,-1.42559 -5.38557,7.97276a4.06558,3.69598 40.5 0 1 0.528,4.32958q-6.44157,11.61594 -11.93274,-1.16159q-2.53439,-5.86077 -5.64957,-0.264q-7.02236,12.56633 -11.98554,0.2112a5.12157,4.38238 -40.4 0 1 0.7392,-4.54078q6.23037,-8.28956 -4.32958,-6.38877a4.43518,4.01278 -21.4 0 1 -4.22398,-1.58399q-7.23356,-10.24315 6.91676,-9.92635a3.22078,2.63999 3.1 0 0 3.27358,-2.37599q0.2112,-2.53439 -1.47839,-4.85757a5.33277,3.80158 41.6 0 1 -1.00319,-4.38238q3.48478,-9.13435 10.29595,-0.7392q5.27997,6.59997 9.23995,-0.6336a4.32958,3.48478 -70.5 0 1 3.69598,-2.27039q12.40793,0.8976 4.22398,12.98873q-1.31999,2.00639 1.10879,1.63679z" fill="#d0d2d3"/>
  </g>
 </g>
</svg>