<svg width="256" height="256" xmlns="http://www.w3.org/2000/svg" version="1.1">
 <title>389</title>

 <g>
  <title>Layer 1</title>
  <g id="svg_4">
   <path id="svg_1" d="m144.9139,175.24986l5.45512,-14.21478q22.39746,-1.15397 44.74247,-2.15058q14.47705,-0.62944 21.82048,-5.19285q11.48722,-7.23852 13.21817,-20.19443q3.77662,-28.37711 -24.7054,-37.60885a3.30454,3.30454 10.6 0 1 -2.30794,-3.357q2.04567,-36.82206 -24.23332,-52.13836q-20.61406,-12.01175 -43.01152,-4.77323q-23.97106,7.76306 -33.41261,35.03865a3.30454,3.25209 -76.5 0 1 -3.4619,2.15058q-41.07076,-4.98304 -49.04362,34.82884a3.98643,3.88153 -1.4 0 1 -3.04228,3.09473q-12.11666,2.83247 -17.62423,12.37893q-5.66493,9.80872 -1.10151,21.19104q7.23852,17.9914 31.47184,15.4212q17.8865,-1.88831 59.21952,1.31133l-5.45512,14.21478q-19.35518,0 -38.71037,-0.41962q-29.37372,-0.52453 -33.3077,-1.36378q-19.98462,-4.03889 -27.53786,-22.86954q-6.13701,-15.36875 -0.73434,-29.79335q5.24531,-14.16233 19.61745,-22.44992a7.86796,7.6057 -4.3 0 0 3.25209,-3.67172q12.58874,-31.36694 52.03345,-39.86434a10.54307,10.43816 -80.3 0 0 6.8189,-4.87814q13.53289,-22.44992 36.92696,-29.68844q22.34501,-6.97626 44.27039,1.57359q34.25186,13.37553 43.5885,59.06216a7.97287,7.92041 -75.2 0 0 2.5702,4.45851q40.44132,36.03526 10.22835,75.37507q-4.87814,6.34682 -15.05403,10.38571q-6.8189,2.67511 -17.57178,2.72756q-27.48541,0.15736 -54.91837,1.41623z" fill="#333333"/>
   <path id="svg_2" d="m150.36902,161.03507l-9.17929,-2.15058a2.46529,2.25548 19.3 0 1 -1.73095,-3.25209l10.59552,-22.81709a2.88492,2.67511 -73.6 0 0 -1.99322,-4.03889q-14.68686,-1.6785 -16.57517,8.34004q-1.15397,6.0321 -12.58874,23.9186q-41.33302,-3.19964 -59.21952,-1.31133q-24.23332,2.5702 -31.47184,-15.4212q-4.56342,-11.38232 1.10151,-21.19104q5.50757,-9.54646 17.62423,-12.37893a3.98643,3.88153 -1.4 0 0 3.04228,-3.09473q7.97287,-39.81188 49.04362,-34.82884a3.30454,3.25209 -76.5 0 0 3.4619,-2.15058q9.44155,-27.2756 33.41261,-35.03865q22.39746,-7.23852 43.01152,4.77323q26.27899,15.3163 24.23332,52.13836a3.30454,3.30454 10.6 0 0 2.30794,3.357q28.48202,9.23174 24.7054,37.60885q-1.73095,12.95591 -13.21817,20.19443q-7.34343,4.56342 -21.82048,5.19285q-22.34501,0.99661 -44.74247,2.15058z" fill="#808285"/>
   <path id="svg_3" d="m150.36902,161.03507l-5.45512,14.21478l-6.34682,10.64797q-3.56681,5.97965 3.56681,5.29776q10.70043,-0.99661 6.97626,5.50757q-2.41284,4.35361 -2.67511,4.98304q-7.50079,17.15216 -17.20461,33.2028a6.60909,6.50418 -81.7 0 1 -3.88153,2.93737q-18.14876,4.66832 -8.28759,-11.27741q3.56681,-5.76984 7.08117,-11.64458q6.39928,-10.70043 -6.18946,-8.34004q-6.55663,1.25887 -3.4619,-4.66832l11.80194,-22.50237a2.25548,2.09812 -67.6 0 0 -1.20642,-3.14718q-5.56003,-1.6785 -11.64458,-0.99661l5.45512,-14.21478q11.43477,-17.8865 12.58874,-23.9186q1.88831,-10.01854 16.57517,-8.34004a2.88492,2.67511 -73.6 0 1 1.99322,4.03889l-10.59552,22.81709a2.46529,2.25548 19.3 0 0 1.73095,3.25209l9.17929,2.15058z" fill="#feb101"/>
  </g>
 </g>
</svg>