<svg width="128" height="128" xmlns="http://www.w3.org/2000/svg" preserveAspectRatio="xMidYMid meet" version="1.0">

 <g>
  <title>Layer 1</title>
  <g id="svg_1" fill="#8EBBFF" transform="translate(0.000000,128.000000) scale(0.100000,-0.100000)">
   <path id="svg_2" d="m214,1161c-192,-90 -266,-316 -170,-518c45,-94 101,-167 212,-273c131,-126 343,-280 384,-280c49,0 308,198 437,334c194,206 247,385 164,562c-58,124 -161,195 -291,202c-106,5 -175,-22 -252,-99l-58,-57l-58,57c-103,104 -243,131 -368,72z"/>
  </g>
 </g>
</svg>