<svg width="128" height="128" xmlns="http://www.w3.org/2000/svg" preserveAspectRatio="xMidYMid meet" version="1.0">

 <g>
  <title>Layer 1</title>
  <g id="svg_1" fill="#8EBBFF" transform="translate(0.000000,128.000000) scale(0.100000,-0.100000)">
   <path id="svg_2" d="m555,1191c-41,-18 -66,-57 -74,-115c-4,-31 -16,-65 -26,-76c-22,-24 -71,-26 -111,-5c-16,8 -49,15 -73,15c-37,0 -49,-5 -75,-33c-39,-42 -76,-116 -76,-151c0,-42 27,-84 70,-111c67,-42 67,-108 0,-150c-43,-27 -70,-69 -70,-111c0,-34 56,-140 88,-165c30,-23 95,-25 136,-4c40,21 89,19 111,-5c10,-11 22,-46 26,-77c6,-44 15,-63 39,-87c29,-30 33,-31 120,-31c87,0 91,1 120,31c24,24 33,43 39,87c4,31 16,66 26,77c22,24 71,26 111,5c41,-21 106,-19 136,4c32,25 88,131 88,165c0,42 -27,84 -70,111c-42,26 -56,58 -46,100c4,14 24,36 46,50c43,27 70,69 70,111c0,34 -56,140 -88,165c-30,23 -95,25 -136,4c-40,-21 -89,-19 -111,5c-10,11 -22,46 -26,77c-6,44 -15,63 -38,87c-29,29 -37,31 -109,33c-42,2 -86,-1 -97,-6zm195,-385c59,-39 85,-89 85,-166c0,-78 -26,-127 -88,-168c-56,-37 -153,-39 -210,-3c-76,47 -111,140 -88,229c14,51 75,117 123,131c53,16 135,6 178,-23z"/>
  </g>
 </g>
</svg>