<?xml version="1.0" encoding="UTF-8" standalone="no"?>
<!DOCTYPE svg PUBLIC "-//W3C//DTD SVG 1.1//EN" "http://www.w3.org/Graphics/SVG/1.1/DTD/svg11.dtd">
<svg xmlns="http://www.w3.org/2000/svg" version="1.1" viewBox="0 0 128 128">
<path fill="#f4f5fc" d="M 0.00,95.44 Q 0.00,93.56 0.00,91.69 Q 1.45,76.40 14.97,67.90 A 0.72,0.72 61.0 0 0 15.23,66.99 Q 9.80,55.51 10.96,43.81 Q 11.92,34.13 17.58,25.16 Q 27.47,9.48 46.05,6.31 Q 56.30,4.55 65.78,7.54 Q 86.11,13.95 94.71,37.15 Q 95.28,38.68 96.86,39.08 Q 112.68,43.10 121.69,58.51 Q 128.89,70.82 127.53,84.17 Q 126.53,93.98 120.96,102.86 Q 111.89,117.29 95.12,121.32 Q 89.16,122.75 75.25,122.75 Q 56.38,122.75 37.51,122.75 Q 26.24,122.75 21.13,121.28 Q 3.24,116.15 0.00,95.44 ZM 106.82,56.68 Q 100.55,50.79 92.21,48.79 Q 92.13,48.77 90.15,48.45 Q 85.65,47.72 84.79,42.94 Q 83.28,34.54 78.26,28.28 Q 73.37,22.19 65.92,18.90 Q 57.07,14.99 47.47,16.89 Q 39.87,18.39 33.87,22.84 Q 27.48,27.58 24.31,34.81 Q 17.20,51.06 26.84,65.96 Q 28.28,68.16 28.48,69.42 Q 28.86,71.72 27.52,73.37 Q 26.68,74.39 23.02,75.83 Q 15.20,78.89 12.13,86.38 Q 10.30,90.86 10.80,95.42 Q 11.33,100.29 14.25,104.25 Q 20.20,112.32 30.75,112.23 Q 57.50,112.00 84.25,111.96 Q 100.30,111.93 109.56,100.56 Q 117.27,91.10 117.00,79.25 Q 116.70,65.94 106.82,56.68 Z"/>
</svg>
