<?xml version="1.0" encoding="UTF-8" standalone="no"?>
<!DOCTYPE svg PUBLIC "-//W3C//DTD SVG 1.1//EN" "http://www.w3.org/Graphics/SVG/1.1/DTD/svg11.dtd">
<svg xmlns="http://www.w3.org/2000/svg" version="1.1" viewBox="0 0 128 128">
<path fill="#24293e" d="
  M 32.69 40.06
  Q 30.64 37.97 30.59 35.71
  Q 30.54 33.43 32.41 31.74
  Q 34.22 30.11 36.71 30.62
  Q 38.32 30.95 40.20 32.77
  Q 51.72 43.94 63.42 55.81
  C 63.74 56.13 64.26 56.13 64.58 55.80
  Q 76.12 44.09 87.40 33.16
  Q 89.87 30.77 91.83 30.48
  Q 95.16 30.00 97.00 33.50
  Q 97.90 35.20 97.37 37.09
  Q 97.02 38.35 95.49 39.93
  Q 84.26 51.54 72.17 63.45
  C 71.82 63.78 71.82 64.34 72.17 64.68
  Q 83.92 76.20 95.19 87.56
  Q 96.88 89.27 97.32 91.17
  Q 97.76 93.10 96.63 95.02
  Q 94.95 97.86 91.70 97.39
  Q 89.74 97.11 87.52 94.95
  Q 76.06 83.86 64.45 72.07
  C 64.21 71.82 63.81 71.82 63.56 72.07
  Q 51.94 83.69 40.56 95.06
  Q 38.75 96.88 36.70 97.33
  Q 34.59 97.80 32.66 96.45
  Q 30.12 94.68 30.60 91.62
  Q 30.90 89.74 32.99 87.58
  Q 43.94 76.27 55.74 64.65
  C 56.09 64.30 56.09 63.72 55.74 63.37
  Q 43.81 51.43 32.69 40.06
  Z"
/>
</svg>
