<svg width="128" height="128" xmlns="http://www.w3.org/2000/svg" preserveAspectRatio="xMidYMid meet" version="1.0">

 <g>
  <title>Layer 1</title>
  <g id="svg_1" fill="#8EBBFF" transform="translate(0, 128) scale(0.1, -0.1)">
   <path id="svg_2" d="m595,1271c-11,-5 -147,-137 -303,-293c-260,-261 -284,-288 -288,-324c-3,-22 1,-50 8,-64c17,-31 74,-70 104,-70l24,0l0,-211c0,-195 2,-214 20,-244c33,-54 71,-65 214,-65c114,0 126,2 136,19c6,11 10,90 10,184c0,201 -3,197 122,197c120,0 118,4 118,-199c0,-93 4,-171 10,-182c10,-17 22,-19 136,-19c143,0 181,11 214,65c18,30 20,49 20,244l0,211l24,0c30,0 87,39 104,70c7,14 11,42 8,64c-4,36 -28,63 -294,328c-267,268 -291,290 -328,294c-21,2 -48,0 -59,-5z"/>
  </g>
 </g>
</svg>