<?xml version="1.0" encoding="UTF-8" standalone="no"?>
<!DOCTYPE svg PUBLIC "-//W3C//DTD SVG 1.1//EN" "http://www.w3.org/Graphics/SVG/1.1/DTD/svg11.dtd">
<svg xmlns="http://www.w3.org/2000/svg" version="1.1" viewBox="0 0 128 128">
<path fill="#f4f5fc" d="M 61.56,0.00 Q 64.06,0.00 66.56,0.00 Q 73.45,1.00 78.95,4.66 Q 81.32,6.24 88.81,13.09 Q 99.11,22.50 107.58,33.64 Q 113.41,41.30 116.69,48.31 Q 130.94,78.80 110.41,104.92 Q 93.54,126.39 65.94,128.00 Q 64.06,128.00 62.19,128.00 Q 27.79,125.50 11.58,95.48 Q 1.35,76.51 8.06,56.31 Q 11.67,45.46 19.22,35.21 Q 29.30,21.50 45.56,7.56 Q 53.17,1.04 61.56,0.00 ZM 47.92,114.35 Q 60.73,118.95 72.50,116.50 Q 96.50,111.50 107.11,90.56 Q 111.29,82.32 111.78,74.25 Q 112.31,65.32 108.94,57.06 Q 102.95,42.43 90.99,30.02 Q 83.30,22.05 74.83,14.92 Q 68.41,9.52 61.01,11.05 Q 57.29,11.83 52.85,15.48 Q 44.60,22.24 34.69,32.94 Q 26.49,41.79 21.09,52.58 Q 10.23,74.32 23.16,94.58 Q 32.17,108.69 47.92,114.35 Z"/>
<circle fill="#f4f5fc" cx="47.99" cy="53.32" r="5.31"/>
<rect fill="#f4f5fc" x="-5.33" y="-24.48" transform="translate(64.03,69.32) rotate(33.7)" width="10.66" height="48.96" rx="5.23"/>
<circle fill="#f4f5fc" cx="79.99" cy="85.32" r="5.31"/>
</svg>
