<?xml version="1.0" encoding="UTF-8" standalone="no"?>
<!DOCTYPE svg PUBLIC "-//W3C//DTD SVG 1.1//EN" "http://www.w3.org/Graphics/SVG/1.1/DTD/svg11.dtd">
<svg xmlns="http://www.w3.org/2000/svg" version="1.1" viewBox="0 0 128 128">
<path fill="#f4f5fc" d="M 48.67,69.31 Q 48.08,69.32 48.49,69.74 Q 56.64,78.11 64.94,86.31 Q 67.76,89.11 66.87,91.99 Q 66.01,94.75 63.25,95.64 Q 60.28,96.61 57.31,93.69 Q 46.97,83.51 36.87,73.09 Q 33.10,69.20 32.39,66.53 Q 31.63,63.62 32.61,60.66 Q 33.31,58.58 35.79,56.01 Q 45.96,45.51 56.37,35.25 Q 56.42,35.20 57.45,34.06 Q 59.09,32.25 61.38,32.12 Q 63.40,32.00 65.17,33.43 Q 68.12,35.82 66.61,39.18 Q 65.93,40.70 63.29,43.31 Q 55.86,50.70 48.69,58.05 Q 48.01,58.75 48.99,58.75 Q 74.25,58.75 99.49,58.75 Q 103.16,58.75 104.76,59.86 Q 107.59,61.83 106.25,66.00 Q 105.37,68.72 102.70,69.20 Q 102.40,69.25 98.29,69.25 Q 73.43,69.21 48.67,69.31 Z"/>
</svg>
