<?xml version="1.0" encoding="UTF-8" standalone="no"?>
<!DOCTYPE svg PUBLIC "-//W3C//DTD SVG 1.1//EN" "http://www.w3.org/Graphics/SVG/1.1/DTD/svg11.dtd">
<svg xmlns="http://www.w3.org/2000/svg" version="1.1" viewBox="0 0 128 128">
<path fill="#8ebbff" d="M 48.81,0.00 Q 50.81,0.00 52.81,0.00 Q 76.54,1.83 90.19,19.31 Q 101.11,33.30 101.25,49.25 Q 101.42,67.44 90.58,81.65 A 1.08,1.06 41.4 0 0 90.68,83.06 Q 109.22,101.41 126.94,119.56 Q 127.37,120.01 128.00,122.31 Q 128.00,122.56 128.00,122.81 Q 127.31,126.99 123.19,128.00 Q 122.56,128.00 121.94,128.00 Q 121.14,127.66 120.36,127.30 Q 119.57,126.95 118.94,126.34 Q 100.63,108.52 83.08,90.58 A 1.02,1.01 -40.3 0 0 81.76,90.48 Q 66.70,101.63 49.23,101.12 Q 39.10,100.83 29.86,96.68 Q 17.94,91.32 10.06,80.69 Q 1.15,68.65 0.00,52.69 Q 0.00,50.69 0.00,48.69 Q 1.16,32.36 10.06,20.56 Q 24.17,1.85 48.81,0.00 ZM 90.49,50.66 A 39.83 39.83 0.0 0 0 50.66,10.83 A 39.83 39.83 0.0 0 0 10.83,50.66 A 39.83 39.83 0.0 0 0 50.66,90.49 A 39.83 39.83 0.0 0 0 90.49,50.66 Z"/>
</svg>
