<?xml version="1.0" encoding="UTF-8" standalone="no"?>
<!DOCTYPE svg PUBLIC "-//W3C//DTD SVG 1.1//EN" "http://www.w3.org/Graphics/SVG/1.1/DTD/svg11.dtd">
<svg xmlns="http://www.w3.org/2000/svg" version="1.1" viewBox="0 0 128 128">
<path fill="#F4F5FC" d="M 8.56,0.00 Q 9.19,0.00 9.81,0.00 Q 12.13,1.05 15.31,3.44 Q 39.29,21.46 63.32,39.55 A 1.01,1.01 -44.4 0 0 64.53,39.56 Q 89.83,20.72 114.85,1.86 Q 116.34,0.73 118.06,0.00 Q 118.81,0.00 119.56,0.00 Q 125.12,1.92 122.69,7.19 Q 96.11,64.74 69.56,122.31 Q 68.63,124.33 67.67,125.71 Q 66.47,127.42 64.57,127.67 Q 61.74,128.03 60.17,125.78 Q 59.98,125.52 58.25,121.80 Q 31.78,64.88 5.75,7.75 Q 4.52,5.05 4.88,3.43 Q 5.46,0.86 8.56,0.00 Z"/>
</svg>
