<?xml version="1.0" encoding="UTF-8" standalone="no"?>
<!DOCTYPE svg PUBLIC "-//W3C//DTD SVG 1.1//EN" "http://www.w3.org/Graphics/SVG/1.1/DTD/svg11.dtd">
<svg xmlns="http://www.w3.org/2000/svg" version="1.1" viewBox="0 0 128 128">
<path fill="#f4f5fc" d="M 86.15,26.00 Q 86.09,24.96 85.74,23.25 Q 84.82,18.68 88.09,16.83 Q 90.30,15.57 92.54,16.34 Q 94.26,16.92 95.24,18.53 Q 95.83,19.49 96.24,21.72 Q 98.88,36.30 99.25,39.50 Q 99.58,42.36 97.45,43.97 Q 96.26,44.86 93.32,45.41 Q 85.18,46.92 77.00,48.25 Q 75.13,48.55 73.64,48.05 Q 72.24,47.59 71.20,46.01 Q 68.14,41.35 72.91,38.61 Q 74.18,37.88 76.38,37.55 Q 78.13,37.28 79.99,36.96 Q 81.70,36.66 80.13,35.92 Q 65.49,28.95 51.71,34.43 Q 42.71,38.01 36.98,45.33 Q 32.98,50.44 31.08,56.78 Q 29.25,62.85 29.71,69.36 Q 30.62,82.25 39.81,91.19 Q 49.51,100.62 62.50,101.25 Q 75.44,101.88 86.06,93.56 Q 95.36,86.28 98.08,74.08 Q 98.88,70.47 99.75,69.29 Q 101.77,66.57 105.24,67.69 Q 107.58,68.45 108.43,70.29 Q 109.30,72.17 108.75,74.75 Q 105.50,90.10 95.01,99.79 Q 87.64,106.60 77.87,109.78 Q 66.78,113.39 55.33,110.97 Q 45.39,108.87 37.19,102.91 Q 24.51,93.72 20.31,77.69 Q 17.36,66.41 20.84,54.48 Q 25.76,37.67 39.42,28.85 Q 48.02,23.30 57.99,21.92 Q 71.67,20.03 85.24,26.61 A 0.64,0.63 -78.7 0 0 86.15,26.00 Z"/>
</svg>
