<?xml version="1.0" encoding="UTF-8" standalone="no"?>
<!DOCTYPE svg PUBLIC "-//W3C//DTD SVG 1.1//EN" "http://www.w3.org/Graphics/SVG/1.1/DTD/svg11.dtd">
<svg xmlns="http://www.w3.org/2000/svg" version="1.1" viewBox="0 0 128 128">
<path fill="#f4f5fc" d="M 66.94,128.00 Q 63.94,128.00 60.94,128.00 Q 42.79,125.60 33.47,112.01 Q 27.64,103.50 26.89,93.40 Q 25.77,78.42 36.49,65.52 A 3.28,3.27 65.1 0 0 37.25,63.42 Q 37.20,45.53 37.31,26.81 Q 37.36,18.54 41.68,11.99 Q 45.79,5.75 53.03,2.56 Q 62.27,-1.51 71.98,1.51 Q 79.72,3.93 84.62,9.60 Q 89.98,15.79 90.50,24.25 Q 90.93,31.21 90.82,64.18 A 1.30,1.26 25.3 0 0 91.15,65.06 Q 100.06,75.00 101.11,87.53 Q 101.93,97.48 97.46,106.92 Q 88.97,124.86 66.94,128.00 ZM 47.24,69.28 Q 46.48,70.61 45.06,72.06 Q 39.15,78.12 37.92,86.22 Q 36.76,93.93 39.70,101.03 Q 42.76,108.40 49.81,112.94 Q 59.19,118.98 69.19,116.70 Q 76.80,114.97 82.48,109.60 Q 88.40,103.99 89.94,95.69 Q 92.58,81.38 81.90,70.85 Q 79.98,68.96 80.00,66.00 Q 80.08,54.58 79.96,30.44 Q 79.93,23.76 78.53,20.38 Q 75.43,12.92 67.48,11.24 Q 62.06,10.09 57.22,12.29 Q 51.80,14.74 49.51,20.09 Q 48.00,23.63 48.01,32.62 Q 48.03,49.28 47.95,65.94 Q 47.94,68.07 47.24,69.28 Z"/>
<path fill="#f4f5fc" d="M 75.16,79.34 Q 78.45,82.66 79.47,86.96 Q 80.45,91.05 79.15,95.36 Q 77.48,100.89 72.72,103.92 Q 68.52,106.60 63.34,106.49 Q 57.75,106.38 53.76,102.84 Q 48.93,98.57 48.19,92.19 Q 47.43,85.53 52.56,79.80 Q 54.91,77.19 57.94,76.03 A 1.26,1.25 -10.6 0 0 58.75,74.86 Q 58.75,59.55 58.75,44.74 Q 58.75,41.01 59.71,39.44 Q 61.50,36.53 65.69,37.56 Q 68.01,38.13 68.84,40.34 Q 69.25,41.44 69.25,44.22 Q 69.25,59.27 69.25,74.85 A 1.25,1.24 -80.5 0 0 70.08,76.03 Q 72.88,77.03 75.16,79.34 Z"/>
</svg>
