<?xml version="1.0" encoding="UTF-8" standalone="no"?>
<!DOCTYPE svg PUBLIC "-//W3C//DTD SVG 1.1//EN" "http://www.w3.org/Graphics/SVG/1.1/DTD/svg11.dtd">
<svg xmlns="http://www.w3.org/2000/svg" version="1.1" viewBox="0 0 128 128">
<path fill="#ffffff" d="M 119.44,128.00 Q 118.69,128.00 117.94,128.00 Q 115.70,126.83 112.69,124.56 Q 88.66,106.45 64.48,88.38 A 0.73,0.73 -44.4 0 0 63.60,88.38 Q 38.50,107.12 13.81,125.56 Q 11.32,127.42 9.94,128.00 Q 9.19,128.00 8.44,128.00 Q 5.31,127.07 4.81,124.37 Q 4.51,122.73 5.78,119.96 Q 31.62,63.65 57.69,7.44 Q 59.63,3.25 60.58,2.05 Q 63.13,-1.17 66.25,0.75 Q 67.97,1.81 69.15,4.60 Q 69.86,6.27 69.91,6.39 Q 111.76,97.09 122.56,120.69 Q 125.03,126.09 119.44,128.00 Z"/>
</svg>
