<?xml version="1.0" encoding="UTF-8" standalone="no"?>
<!DOCTYPE svg PUBLIC "-//W3C//DTD SVG 1.1//EN" "http://www.w3.org/Graphics/SVG/1.1/DTD/svg11.dtd">
<svg xmlns="http://www.w3.org/2000/svg" version="1.1" viewBox="0 0 128 128">
<path fill="#f4f5fc" d="M 15.31,0.00 Q 16.31,0.00 17.31,0.00 Q 22.19,0.73 25.80,3.60 Q 29.36,6.43 30.81,10.89 Q 33.63,19.56 26.63,28.21 A 0.32,0.31 24.7 0 0 26.82,28.71 Q 71.38,37.60 114.50,46.25 Q 126.36,48.63 128.00,61.31 Q 128.00,66.94 128.00,72.56 Q 126.82,80.16 121.25,84.14 Q 118.41,86.16 111.75,87.52 Q 66.88,96.67 21.98,105.65 A 0.66,0.64 86.0 0 0 21.47,106.25 Q 20.92,116.13 21.25,121.00 Q 21.62,126.44 16.94,128.00 Q 16.06,128.00 15.19,128.00 Q 10.37,126.44 10.64,121.55 Q 10.75,119.55 10.75,119.45 Q 10.75,75.97 10.75,31.91 A 1.31,1.30 12.3 0 0 9.98,30.72 Q 2.96,27.51 1.00,20.90 Q -0.83,14.72 2.01,8.80 Q 5.61,1.32 15.31,0.00 ZM 21.33,15.98 A 5.33 5.33 0.0 0 0 16.00,10.65 A 5.33 5.33 0.0 0 0 10.67,15.98 A 5.33 5.33 0.0 0 0 16.00,21.31 A 5.33 5.33 0.0 0 0 21.33,15.98 ZM 28.34,39.81 Q 25.31,39.22 21.76,38.67 A 0.45,0.44 3.9 0 0 21.25,39.11 L 21.25,93.94 A 0.83,0.81 -5.8 0 0 22.24,94.73 L 31.28,92.91 A 0.90,0.87 -6.1 0 0 32.00,92.05 L 32.00,41.35 A 0.91,0.91 6.9 0 0 31.31,40.47 Q 30.02,40.14 28.34,39.81 ZM 52.73,44.77 L 43.75,42.95 A 0.99,0.98 -84.3 0 0 42.57,43.92 L 42.74,89.73 A 0.47,0.43 85.4 0 0 43.25,90.20 L 52.36,88.44 A 1.22,1.09 85.2 0 0 53.25,87.26 L 53.31,45.48 A 0.73,0.72 5.9 0 0 52.73,44.77 ZM 74.05,49.03 L 64.87,47.19 A 0.72,0.71 5.3 0 0 64.01,47.89 L 64.18,85.57 A 0.43,0.42 84.6 0 0 64.68,86.00 L 74.09,84.16 A 0.89,0.82 84.9 0 0 74.75,83.30 L 74.75,49.88 A 0.87,0.87 5.7 0 0 74.05,49.03 ZM 95.45,53.40 L 85.77,51.42 A 0.42,0.42 5.4 0 0 85.26,51.84 L 85.43,81.31 A 0.45,0.42 85.2 0 0 85.93,81.76 L 95.33,79.94 A 0.66,0.61 85.8 0 0 95.83,79.31 L 95.94,54.00 A 0.61,0.61 5.8 0 0 95.45,53.40 ZM 114.81,57.69 Q 111.50,55.92 107.19,55.93 A 0.50,0.50 45.0 0 0 106.69,56.43 L 106.75,76.95 A 0.69,0.68 83.6 0 0 107.58,77.62 Q 109.99,77.09 112.97,76.38 Q 115.21,75.85 116.37,74.17 Q 117.18,72.99 117.23,70.51 Q 117.30,66.38 117.33,62.25 Q 117.35,59.04 114.81,57.69 Z"/>
</svg>
