<?xml version="1.0" encoding="UTF-8" standalone="no"?>
<!DOCTYPE svg PUBLIC "-//W3C//DTD SVG 1.1//EN" "http://www.w3.org/Graphics/SVG/1.1/DTD/svg11.dtd">
<svg xmlns="http://www.w3.org/2000/svg" version="1.1" viewBox="0 0 368 300">
<path fill="#ffffff" d="M 179.35,26.34 Q 179.55,30.05 179.56,34.39 Q 179.57,36.32 179.48,36.46 Q 178.96,37.22 176.71,36.82 A 0.87,0.86 5.2 0 1 176.00,35.97 L 176.05,20.81 A 0.69,0.66 83.3 0 1 176.54,20.16 Q 177.81,19.81 179.05,20.13 Q 180.07,20.39 180.87,21.57 Q 183.81,25.94 186.55,30.45 Q 186.80,30.87 187.20,30.95 A 0.47,0.39 -88.3 0 0 187.65,30.43 Q 187.42,27.11 187.28,23.78 Q 187.28,23.68 187.13,22.23 Q 186.80,19.00 190.34,20.04 A 0.68,0.68 -82.4 0 1 190.83,20.68 L 191.06,36.07 A 0.74,0.72 79.3 0 1 190.60,36.77 Q 189.10,37.37 187.53,36.86 A 1.45,1.37 80.9 0 1 186.78,36.28 L 180.15,26.09 Q 179.27,24.73 179.35,26.34 Z"/>
<path fill="#ffffff" d="M 126.96,43.32 L 127.05,38.55 A 0.80,0.77 79.1 0 1 127.51,37.84 Q 129.49,36.97 129.44,39.19 Q 129.28,45.75 129.40,47.95 A 0.92,0.78 74.5 0 1 129.03,48.74 Q 128.23,49.23 127.32,49.00 Q 126.65,48.83 126.12,48.00 Q 124.44,45.39 122.78,42.78 Q 122.53,42.39 122.20,42.26 Q 121.37,41.94 121.50,43.00 Q 121.89,46.26 121.63,48.33 A 0.82,0.79 84.4 0 1 121.10,49.00 Q 119.77,49.47 119.29,48.57 Q 119.05,48.11 119.11,47.03 Q 119.37,42.77 119.26,38.50 A 0.75,0.69 80.1 0 1 119.71,37.80 Q 121.39,37.16 122.31,38.44 Q 124.11,40.93 125.74,43.64 Q 126.92,45.62 126.96,43.32 Z"/>
<path fill="#ffffff" d="M 139.76,45.01 Q 140.16,44.96 139.95,44.31 Q 139.37,42.45 139.45,40.51 Q 139.45,40.35 139.39,38.99 Q 139.32,37.27 141.26,37.70 A 0.94,0.94 -83.9 0 1 142.00,38.62 Q 142.00,42.61 142.00,46.07 Q 142.00,46.16 142.11,47.42 Q 142.28,49.36 140.24,49.09 A 1.20,0.99 -9.1 0 1 139.42,48.61 L 135.34,42.46 Q 134.29,40.89 134.25,42.73 L 134.11,48.32 A 0.73,0.73 -8.4 0 1 133.60,49.00 Q 132.61,49.32 132.11,48.66 Q 131.80,48.26 131.86,47.39 Q 132.13,43.40 131.98,38.74 A 0.98,0.97 -8.5 0 1 132.71,37.76 Q 134.58,37.27 135.27,38.64 Q 135.65,39.40 135.68,39.44 Q 137.32,42.04 139.06,44.58 A 0.94,0.57 63.0 0 0 139.76,45.01 Z"/>
<path fill="#ffffff" d="M 155.06,45.45 Q 155.39,45.32 155.45,44.69 Q 155.73,41.95 156.09,39.23 Q 156.33,37.41 158.38,37.77 A 0.78,0.77 12.8 0 1 159.00,38.74 L 156.45,48.09 A 1.05,1.04 85.9 0 1 155.86,48.78 Q 153.07,50.02 152.94,46.81 Q 152.79,43.38 152.00,42.00 Q 151.34,40.85 151.03,42.26 Q 150.38,45.15 149.63,48.01 A 1.23,1.06 86.7 0 1 149.07,48.74 Q 146.32,50.14 145.81,46.94 Q 145.57,45.39 143.40,38.48 A 0.56,0.52 71.4 0 1 143.71,37.80 Q 144.81,37.41 145.71,37.95 Q 146.40,38.35 146.63,39.49 Q 147.11,41.83 147.46,44.03 Q 147.90,46.71 148.56,44.08 L 149.94,38.56 A 1.06,0.92 88.4 0 1 150.51,37.86 Q 152.96,36.90 153.47,39.55 Q 153.99,42.25 154.48,44.96 A 0.56,0.40 75.8 0 0 155.06,45.45 Z"/>
<path fill="#ffffff" d="M 221.66,47.03 Q 221.82,47.02 221.93,46.88 Q 222.00,46.78 222.00,46.61 Q 222.00,43.68 222.00,40.56 A 0.82,0.82 -87.2 0 1 222.90,39.74 Q 224.54,39.90 224.37,41.22 Q 224.24,42.25 224.24,42.28 Q 224.21,46.03 224.33,50.34 A 0.64,0.63 -7.8 0 1 223.84,50.98 Q 221.94,51.44 221.03,49.96 Q 219.05,46.72 217.21,43.97 Q 216.45,42.83 216.50,44.24 L 216.72,50.18 A 0.80,0.79 -13.3 0 1 216.25,50.93 Q 215.25,51.39 214.51,50.69 A 1.36,0.94 -75.0 0 1 214.19,49.80 L 214.31,40.31 A 0.60,0.58 86.1 0 1 214.81,39.72 Q 216.91,39.45 217.93,41.13 Q 218.79,42.56 218.86,42.66 Q 220.22,44.51 221.17,46.61 A 0.65,0.38 70.6 0 0 221.66,47.03 Z"/>
<path fill="#ffffff" d="M 229.30,43.82 Q 229.21,46.34 229.24,49.08 Q 229.25,49.16 229.33,49.90 Q 229.49,51.35 227.44,50.99 A 0.63,0.62 -84.2 0 1 226.92,50.35 Q 227.03,46.41 227.01,43.01 Q 227.01,42.92 226.88,41.51 Q 226.67,39.20 229.20,39.70 A 1.22,1.06 76.8 0 1 229.95,40.24 Q 231.93,43.44 234.02,46.57 Q 234.21,46.85 234.45,46.97 Q 235.17,47.35 234.94,46.31 Q 234.44,44.08 234.46,42.50 Q 234.46,42.38 234.39,41.01 Q 234.31,39.27 236.26,39.70 A 0.94,0.94 -83.9 0 1 237.00,40.62 Q 237.00,44.43 237.00,47.73 Q 237.00,47.83 237.10,49.27 Q 237.28,51.90 234.64,50.77 A 1.91,1.37 76.5 0 1 233.91,50.14 L 229.64,43.72 Q 229.32,43.25 229.30,43.82 Z"/>
<path fill="#ffffff" d="M 242.49,46.69 Q 240.97,49.46 244.59,49.09 Q 245.41,49.00 245.87,49.21 Q 247.03,49.72 246.08,50.61 A 1.41,1.24 20.1 0 1 245.18,50.96 L 240.38,51.00 A 0.89,0.87 89.7 0 1 239.50,50.11 L 239.50,40.28 A 0.52,0.52 -0.4 0 1 240.02,39.76 L 245.20,39.79 A 0.84,0.79 -11.3 0 1 245.93,40.25 Q 246.76,42.09 243.33,41.97 A 1.19,1.18 -0.6 0 0 242.10,43.22 Q 242.21,45.17 244.79,44.19 A 0.58,0.54 -23.8 0 1 245.49,44.43 Q 247.02,47.31 243.24,46.38 A 0.68,0.64 21.1 0 0 242.49,46.69 Z"/>
<rect fill="#ffffff" x="179.50" y="45.00" width="8.00" height="39.00" rx="0.60"/>
<rect fill="#ffffff" x="-2.00" y="-12.41" transform="translate(147.01,65.52) rotate(-22.2)" width="4.00" height="24.82" rx="0.66"/>
<rect fill="#ffffff" x="-2.01" y="-11.93" transform="translate(222.01,66.00) rotate(23.3)" width="4.02" height="23.86" rx="0.66"/>
<path fill="#ffffff" d="M 270.31,67.13 Q 271.57,69.05 271.50,66.76 L 271.32,60.82 A 0.73,0.70 79.9 0 1 271.78,60.13 Q 274.56,59.14 274.37,61.86 Q 274.25,63.60 274.25,63.64 Q 274.25,67.84 274.25,72.27 A 0.65,0.63 -6.2 0 1 273.74,72.89 Q 271.31,73.42 270.32,71.86 Q 267.99,68.20 266.03,64.81 Q 265.17,63.33 265.19,65.05 L 265.25,72.21 A 0.76,0.74 -5.1 0 1 264.62,72.94 Q 262.16,73.35 262.37,71.78 Q 262.50,70.83 262.50,70.71 Q 262.50,66.34 262.50,61.98 Q 262.50,61.84 262.38,61.06 Q 262.14,59.55 265.34,60.23 A 1.26,1.14 -8.3 0 1 266.10,60.74 L 270.31,67.13 Z"/>
<path fill="#ffffff" d="M 280.80,65.08 Q 282.23,65.43 283.70,65.17 A 0.61,0.56 -14.7 0 1 284.38,65.53 Q 284.64,66.34 284.53,67.20 A 0.61,0.57 2.7 0 1 283.94,67.70 L 281.06,67.80 A 0.84,0.73 8.4 0 0 280.34,68.26 Q 280.01,69.12 280.35,69.99 A 0.80,0.70 -8.5 0 0 281.06,70.45 L 283.94,70.55 A 1.01,0.92 -15.0 0 1 284.73,70.96 Q 286.36,73.34 282.74,73.23 Q 280.21,73.15 277.68,72.87 A 0.60,0.56 3.4 0 1 277.15,72.31 L 277.15,60.68 A 0.58,0.54 -2.9 0 1 277.68,60.14 Q 280.58,59.86 283.50,59.91 Q 286.08,59.94 284.90,61.79 A 1.40,1.40 22.7 0 1 283.41,62.40 Q 279.68,61.55 280.20,64.45 A 0.82,0.79 2.5 0 0 280.80,65.08 Z"/>
<path fill="#ffffff" d="M 85.58,68.09 L 85.31,61.82 A 0.74,0.68 79.7 0 1 85.76,61.11 Q 86.75,60.74 87.73,61.11 A 0.76,0.71 -80.7 0 1 88.20,61.81 L 88.20,73.18 A 0.75,0.69 81.4 0 1 87.73,73.88 Q 86.63,74.27 85.52,73.88 A 1.68,1.15 74.7 0 1 84.79,73.26 L 79.78,65.66 Q 79.45,65.17 79.44,65.74 L 79.28,72.90 A 1.10,1.02 88.3 0 1 78.35,73.97 Q 76.07,74.16 76.31,72.66 Q 76.50,71.43 76.51,71.30 Q 76.54,66.65 76.43,61.59 A 0.56,0.48 89.9 0 1 76.93,61.01 L 79.27,61.12 A 1.22,0.70 65.6 0 1 80.04,61.67 L 84.57,68.45 Q 85.67,70.09 85.58,68.09 Z"/>
<path fill="#ffffff" d="M 95.11,69.13 Q 95.57,70.41 95.92,69.05 L 97.76,61.76 A 0.99,0.80 -3.3 0 1 98.43,61.15 Q 101.30,60.39 101.44,62.56 Q 101.56,64.53 103.29,69.85 Q 103.56,70.68 103.88,70.21 Q 104.02,70.01 104.00,69.50 Q 103.88,66.79 104.76,63.77 Q 104.79,63.66 104.95,62.19 Q 105.12,60.63 107.74,61.14 A 0.51,0.50 13.8 0 1 108.13,61.77 L 105.07,73.21 A 0.96,0.91 88.6 0 1 104.48,73.86 Q 101.53,74.85 101.04,72.24 Q 100.62,70.03 100.59,69.93 Q 100.08,68.14 99.81,66.30 Q 99.45,63.85 98.86,66.22 L 97.20,72.86 A 1.27,1.18 -86.8 0 1 96.21,73.81 Q 93.21,74.28 92.95,72.62 Q 92.79,71.61 92.77,71.52 Q 91.51,67.50 90.48,63.40 Q 90.03,61.64 90.04,61.60 Q 90.18,60.64 92.73,61.23 A 1.01,0.99 3.4 0 1 93.51,62.09 Q 93.97,65.95 95.11,69.13 Z"/>
<rect fill="#ffffff" x="-3.02" y="-15.99" transform="translate(117.45,88.55) rotate(-45.0)" width="6.04" height="31.98" rx="0.42"/>
<rect fill="#ffffff" x="-15.99" y="-2.97" transform="translate(249.48,88.48) rotate(-45.0)" width="31.98" height="5.94" rx="0.34"/>
<path fill="#ffffff" d="M 47.74,112.47 Q 47.91,112.24 48.00,111.75 Q 48.58,108.52 49.22,105.30 A 0.73,0.66 -87.3 0 1 49.80,104.72 Q 50.66,104.61 51.47,104.87 A 0.58,0.54 -73.8 0 1 51.81,105.55 Q 50.57,110.28 49.25,115.00 Q 48.75,116.80 46.71,115.96 A 1.11,0.85 9.1 0 1 46.07,115.28 L 44.79,109.75 A 1.05,0.46 82.4 0 0 44.33,108.99 Q 43.94,108.86 43.66,109.23 Q 43.51,109.43 43.48,109.83 Q 43.25,112.64 42.14,115.22 A 1.38,1.12 -86.3 0 1 41.50,115.91 Q 40.24,116.45 39.37,115.74 Q 38.83,115.30 38.52,114.05 Q 37.51,109.88 36.21,105.78 A 0.73,0.64 65.0 0 1 36.44,105.00 Q 37.38,104.37 38.49,104.84 A 1.09,0.94 -89.1 0 1 39.07,105.54 Q 39.93,108.83 40.29,112.20 Q 40.32,112.49 40.44,112.62 Q 40.64,112.84 40.87,112.64 Q 40.99,112.54 41.03,112.30 Q 41.65,108.83 42.88,105.53 A 1.18,1.07 -87.8 0 1 43.53,104.87 Q 45.66,104.08 46.00,105.94 Q 46.34,107.80 46.37,107.90 Q 47.00,110.00 47.26,112.18 Q 47.36,113.00 47.74,112.47 Z"/>
<path fill="#ffffff" d="M 60.08,111.24 Q 61.00,113.04 61.00,111.02 L 61.00,105.99 A 1.46,0.97 74.4 0 1 61.29,105.10 Q 62.03,104.30 63.05,105.00 A 1.04,0.89 -75.5 0 1 63.45,105.82 L 63.50,114.01 Q 63.53,118.08 60.58,115.23 Q 58.49,113.20 57.10,109.94 Q 55.90,107.14 55.75,110.18 Q 55.63,112.59 55.88,114.93 A 0.94,0.75 72.8 0 1 55.56,115.75 Q 54.65,116.38 53.66,115.79 A 0.93,0.80 -76.6 0 1 53.25,115.00 L 53.30,105.31 A 0.58,0.57 87.3 0 1 53.81,104.73 Q 55.81,104.54 57.31,106.69 Q 58.99,109.08 60.08,111.24 Z"/>
<path fill="#ffffff" d="M 76.80,112.61 Q 77.05,112.45 77.04,112.00 Q 77.04,108.63 78.03,105.42 A 0.97,0.91 -87.7 0 1 78.67,104.79 Q 81.10,104.09 80.45,105.99 Q 80.14,106.93 80.11,107.02 Q 79.05,111.06 77.94,115.09 A 1.19,1.02 87.4 0 1 77.37,115.82 Q 76.26,116.37 75.18,115.78 A 1.29,1.07 -86.7 0 1 74.62,115.02 Q 73.87,112.25 73.38,109.43 Q 73.24,108.60 72.77,108.63 A 0.85,0.49 -82.7 0 0 72.25,109.31 L 71.07,115.21 A 0.92,0.88 -4.3 0 1 70.47,115.88 Q 69.18,116.33 67.99,115.70 A 1.31,0.95 -89.8 0 1 67.44,114.94 L 65.03,105.86 A 0.84,0.82 78.9 0 1 65.71,104.82 Q 67.89,104.54 68.01,106.02 Q 68.08,106.89 68.10,106.97 Q 68.61,109.45 69.12,111.93 Q 69.46,113.53 69.76,111.95 Q 70.36,108.82 71.40,105.79 A 1.44,1.22 87.7 0 1 71.98,105.05 Q 74.38,103.69 74.81,106.69 Q 75.07,108.45 76.17,112.21 A 0.54,0.38 67.9 0 0 76.80,112.61 Z"/>
<path fill="#ffffff" d="M 293.81,111.19 L 296.07,111.36 A 0.61,0.58 -89.0 0 1 296.61,111.94 Q 296.70,114.24 294.21,113.42 A 0.67,0.63 25.8 0 0 293.46,113.66 Q 291.65,116.45 295.51,116.12 Q 297.73,115.93 296.94,117.50 A 0.83,0.80 12.5 0 1 296.20,117.95 L 290.80,118.00 A 0.63,0.62 -89.5 0 1 290.18,117.36 L 290.31,107.32 A 0.53,0.52 88.9 0 1 290.81,106.79 Q 293.03,106.69 295.24,106.55 Q 297.94,106.39 297.07,108.16 A 1.61,1.60 14.2 0 1 295.57,109.05 Q 292.44,108.91 293.10,110.73 A 0.88,0.67 -4.2 0 0 293.81,111.19 Z"/>
<path fill="#ffffff" d="M 301.46,110.65 Q 300.75,110.56 301.03,111.99 Q 301.52,114.53 301.14,117.06 A 1.01,0.92 82.1 0 1 300.63,117.81 Q 298.56,118.87 298.63,116.25 Q 298.75,112.38 298.75,107.77 A 1.15,1.14 -6.7 0 1 299.63,106.66 Q 301.19,106.29 302.17,107.82 Q 304.14,110.87 305.76,113.45 Q 306.61,114.80 306.56,113.21 L 306.41,107.40 A 0.63,0.63 -6.7 0 1 306.91,106.77 Q 309.24,106.26 309.09,108.18 Q 309.00,109.25 309.01,109.34 Q 309.04,113.26 308.95,117.18 A 0.79,0.68 82.2 0 1 308.49,117.89 Q 306.87,118.49 305.69,116.81 Q 303.13,113.18 302.15,111.26 A 1.09,0.66 72.6 0 0 301.46,110.65 Z"/>
<path fill="#ffffff" d="M 314.81,111.21 L 317.19,111.29 A 0.66,0.62 -3.7 0 1 317.81,111.80 Q 318.22,113.93 315.53,113.46 A 1.33,1.33 -79.8 0 0 313.99,114.53 Q 313.65,116.46 316.43,115.85 A 1.72,1.71 -20.8 0 1 318.29,116.68 Q 319.00,117.96 316.75,117.98 Q 314.62,118.00 312.24,118.00 A 0.74,0.71 -0.8 0 1 311.50,117.31 L 311.30,107.31 A 0.53,0.51 -1.7 0 1 311.81,106.79 Q 314.28,106.71 316.75,106.77 Q 318.90,106.81 318.13,108.16 A 1.77,1.77 15.9 0 1 316.53,109.05 Q 313.43,108.91 314.10,110.73 A 0.81,0.73 -7.9 0 0 314.81,111.21 Z"/>
<rect fill="#ffffff" x="-16.20" y="-2.01" transform="translate(98.01,117.51) rotate(22.4)" width="32.40" height="4.02" rx="0.69"/>
<rect fill="#ffffff" x="-12.85" y="-2.00" transform="translate(272.99,118.02) rotate(-21.3)" width="25.70" height="4.00" rx="0.62"/>
<path fill="#ffffff" d="M 63.10,157.44 Q 63.54,159.30 63.90,157.41 L 65.94,146.80 A 0.88,0.78 -89.8 0 1 66.53,146.14 Q 67.56,145.87 69.45,146.23 A 0.52,0.51 -77.5 0 1 69.85,146.87 L 65.87,162.01 A 1.13,0.81 -87.6 0 1 65.31,162.73 Q 64.10,163.23 61.79,162.75 A 1.17,1.15 -0.7 0 1 60.89,161.89 L 58.61,152.49 A 0.46,0.37 68.7 0 0 58.02,152.15 Q 57.72,152.35 57.63,152.83 Q 56.76,157.63 55.11,162.22 A 1.05,0.97 -86.9 0 1 54.46,162.85 Q 52.66,163.37 50.90,162.75 A 1.02,0.90 -89.9 0 1 50.31,162.08 L 46.19,146.79 A 0.52,0.39 81.1 0 1 46.53,146.14 L 49.61,146.26 A 1.25,1.03 84.3 0 1 50.62,147.27 Q 51.69,152.46 52.50,156.75 Q 52.63,157.43 52.96,157.63 A 0.54,0.36 -71.1 0 0 53.54,157.19 L 56.17,146.80 A 0.92,0.81 -88.5 0 1 56.78,146.14 Q 57.82,145.87 59.76,146.24 A 1.14,1.12 -0.7 0 1 60.66,147.10 L 63.10,157.44 Z"/>
<path fill="#ffffff" d="M 303.66,157.38 L 303.84,159.32 A 0.63,0.58 -0.4 0 0 304.43,159.86 L 309.19,160.07 A 0.81,0.67 -7.2 0 1 309.89,160.51 Q 310.26,161.50 309.89,162.48 A 0.76,0.71 9.3 0 1 309.19,162.95 L 300.86,162.99 A 0.87,0.85 89.7 0 1 300.00,162.12 L 300.00,146.88 A 0.87,0.85 -89.7 0 1 300.86,146.01 L 308.94,146.05 A 0.73,0.71 -9.7 0 1 309.62,146.52 Q 310.98,150.22 306.98,149.33 Q 302.46,148.32 303.89,152.48 A 0.74,0.72 80.6 0 0 304.56,152.97 L 308.31,152.98 A 0.96,0.92 -6.0 0 1 309.24,153.70 Q 309.91,156.66 305.99,155.77 Q 303.47,155.20 303.66,157.38 Z"/>
<rect fill="#ffffff" x="74.00" y="150.50" width="39.00" height="8.00" rx="0.70"/>
<rect fill="#ffffff" x="254.03" y="150.50" width="38.96" height="8.02" rx="0.70"/>
<rect fill="#ffffff" x="-16.03" y="-2.01" transform="translate(95.99,190.01) rotate(-20.7)" width="32.06" height="4.02" rx="0.66"/>
<rect fill="#ffffff" x="-12.41" y="-2.00" transform="translate(272.51,193.01) rotate(22.2)" width="24.82" height="4.00" rx="0.70"/>
<path fill="#ffffff" d="M 47.64,198.56 Q 47.94,198.60 48.00,198.25 Q 48.74,193.64 49.20,191.55 A 1.06,0.88 88.1 0 1 49.76,190.83 Q 50.73,190.42 51.60,190.95 A 0.72,0.63 -67.5 0 1 51.86,191.73 Q 50.70,195.60 49.64,199.49 Q 49.61,199.60 49.44,200.51 Q 49.06,202.51 46.80,202.06 A 0.87,0.74 1.0 0 1 46.14,201.48 L 44.74,195.56 A 0.96,0.45 80.8 0 0 44.25,194.84 Q 43.83,194.77 43.69,195.44 Q 42.76,199.85 42.44,200.69 Q 41.41,203.38 39.18,201.52 A 1.82,1.29 -85.8 0 1 38.69,200.71 L 36.20,191.56 A 0.58,0.57 75.7 0 1 36.62,190.84 Q 39.01,190.30 39.23,191.96 Q 39.36,192.89 39.39,193.02 Q 39.99,195.33 40.26,197.69 A 0.55,0.39 78.7 0 0 40.80,198.20 Q 41.14,198.07 41.23,197.50 Q 41.74,194.42 42.87,191.53 A 1.33,1.10 -87.2 0 1 43.51,190.83 Q 44.56,190.37 45.35,190.95 Q 45.89,191.34 46.10,192.39 Q 46.68,195.24 47.24,198.09 A 0.61,0.43 84.5 0 0 47.64,198.56 Z"/>
<path fill="#ffffff" d="M 56.02,194.64 Q 58.79,195.89 59.31,196.44 Q 61.10,198.33 60.21,200.12 Q 59.52,201.52 57.61,201.98 Q 55.57,202.46 53.47,201.89 A 0.98,0.90 0.1 0 1 52.81,201.28 Q 52.56,200.50 52.81,199.71 A 0.50,0.44 21.2 0 1 53.46,199.47 Q 54.51,199.94 55.63,200.10 Q 56.54,200.24 57.18,199.87 Q 58.22,199.26 57.43,198.30 Q 57.10,197.91 56.28,197.58 Q 55.17,197.13 54.22,196.43 Q 53.23,195.71 53.03,194.55 Q 52.45,191.09 56.16,190.78 Q 58.06,190.62 58.33,190.61 Q 60.50,190.53 59.85,192.71 A 0.54,0.52 15.2 0 1 59.20,193.06 Q 58.63,192.91 58.05,192.76 Q 55.98,192.25 55.63,193.95 A 0.67,0.59 18.8 0 0 56.02,194.64 Z"/>
<path fill="#ffffff" d="M 72.62,198.28 Q 72.84,198.28 72.92,197.98 Q 73.63,195.15 74.04,192.25 Q 74.35,189.98 76.48,190.85 A 0.59,0.58 -71.6 0 1 76.82,191.55 L 74.21,201.09 A 1.24,1.11 85.8 0 1 73.64,201.83 Q 72.50,202.44 71.45,201.74 A 1.36,1.20 -82.1 0 1 70.93,200.96 L 69.77,195.55 A 0.89,0.59 84.5 0 0 69.23,194.88 Q 68.50,194.75 68.40,195.99 Q 68.14,199.36 67.31,201.06 Q 66.54,202.66 64.71,201.96 A 1.05,1.03 3.1 0 1 64.09,201.28 L 61.36,191.49 A 0.56,0.54 73.1 0 1 61.71,190.81 Q 62.61,190.53 63.49,190.86 A 0.93,0.91 4.8 0 1 64.08,191.54 L 65.27,197.69 A 0.58,0.38 76.8 0 0 65.81,198.20 Q 66.15,198.08 66.25,197.50 Q 66.82,194.45 67.89,191.53 A 1.18,1.07 -88.9 0 1 68.52,190.86 Q 70.80,189.97 71.13,192.11 Q 71.33,193.38 71.36,193.50 Q 71.88,195.67 72.26,197.87 A 0.49,0.34 83.5 0 0 72.62,198.28 Z"/>
<path fill="#ffffff" d="M 292.79,198.08 Q 296.02,197.43 295.55,199.95 A 0.65,0.59 -83.4 0 1 294.94,200.49 L 293.04,200.41 A 0.87,0.64 11.8 0 0 292.30,200.75 Q 290.91,203.37 294.82,202.94 A 1.10,1.10 77.1 0 1 295.98,203.67 Q 296.64,205.56 293.97,205.25 Q 291.87,205.00 289.75,205.00 A 0.58,0.57 -89.5 0 1 289.18,204.41 L 289.25,194.27 A 0.52,0.51 -90.0 0 1 289.76,193.75 Q 292.25,193.75 294.75,193.78 Q 296.90,193.81 296.13,195.16 A 1.77,1.77 15.9 0 1 294.53,196.05 Q 291.43,195.91 292.10,197.73 A 0.63,0.57 -15.3 0 0 292.79,198.08 Z"/>
<path fill="#ffffff" d="M 300.78,197.85 Q 302.20,198.39 303.39,199.29 Q 304.75,200.31 304.87,201.67 Q 304.98,203.01 304.08,203.97 Q 303.38,204.72 302.09,205.01 Q 300.03,205.47 297.95,204.82 A 0.81,0.78 88.9 0 1 297.44,204.31 Q 296.40,201.21 298.52,202.62 A 3.21,3.21 -35.9 0 0 301.13,203.04 Q 303.24,202.48 301.50,201.00 Q 301.14,200.70 299.73,200.08 Q 298.58,199.57 298.08,199.02 Q 296.81,197.62 297.46,195.94 Q 297.98,194.60 299.47,194.05 Q 301.31,193.36 303.32,193.88 Q 304.00,194.05 304.36,194.53 Q 305.07,195.44 304.06,195.81 A 1.62,0.96 32.9 0 1 303.09,195.77 Q 300.10,194.81 300.26,197.20 A 0.80,0.72 9.6 0 0 300.78,197.85 Z"/>
<path fill="#ffffff" d="M 309.25,196.81 Q 309.18,198.70 311.84,198.19 A 1.01,1.01 80.0 0 1 313.04,199.03 Q 313.35,200.99 310.52,200.40 A 1.07,1.07 10.2 0 0 309.24,201.29 Q 308.90,203.57 311.58,203.14 Q 312.41,203.00 312.91,203.16 Q 314.50,203.67 313.16,204.71 A 1.61,1.25 20.3 0 1 312.24,205.00 L 307.74,205.00 A 0.96,0.92 0.3 0 1 306.78,204.07 L 306.90,194.43 A 0.58,0.54 -89.5 0 1 307.44,193.86 L 312.32,193.87 A 1.21,1.06 67.2 0 1 313.18,194.29 Q 313.82,195.04 313.15,195.69 A 1.36,0.39 -0.7 0 1 312.26,195.96 L 309.79,196.18 A 0.66,0.59 88.6 0 0 309.25,196.81 Z"/>
<rect fill="#ffffff" x="-2.96" y="-15.99" transform="translate(117.49,220.48) rotate(45.0)" width="5.92" height="31.98" rx="0.33"/>
<rect fill="#ffffff" x="-3.02" y="-15.99" transform="translate(249.45,220.55) rotate(-45.0)" width="6.04" height="31.98" rx="0.41"/>
<rect fill="#ffffff" x="179.50" y="225.00" width="8.00" height="39.00" rx="0.60"/>
<rect fill="#ffffff" x="-2.12" y="-12.49" transform="translate(144.95,243.59) rotate(22.2)" width="4.24" height="24.98" rx="0.65"/>
<rect fill="#ffffff" x="-2.00" y="-12.87" transform="translate(220.01,244.01) rotate(-21.3)" width="4.00" height="25.74" rx="0.62"/>
<path fill="#ffffff" d="M 80.14,236.10 Q 77.68,237.73 80.38,238.91 Q 84.82,240.84 84.56,243.67 Q 84.32,246.19 81.46,246.93 Q 79.15,247.53 76.38,246.63 A 0.87,0.86 4.1 0 1 75.79,245.96 Q 75.23,242.99 78.16,244.82 A 2.35,2.35 -47.3 0 0 80.81,244.71 Q 82.00,243.81 81.37,242.81 Q 81.04,242.29 80.01,241.93 Q 77.91,241.20 77.06,240.19 Q 75.20,237.95 76.29,235.95 Q 77.16,234.36 79.31,233.90 Q 81.37,233.47 83.47,234.15 A 1.22,1.04 -0.7 0 1 84.18,234.74 Q 84.54,235.54 84.23,236.30 A 0.48,0.44 25.0 0 1 83.57,236.51 Q 81.35,235.31 80.14,236.10 Z"/>
<path fill="#ffffff" d="M 94.50,238.67 Q 93.98,241.71 93.41,244.73 Q 92.79,248.04 89.53,246.87 A 0.97,0.96 2.4 0 1 88.92,246.21 L 85.86,234.98 A 0.68,0.65 67.9 0 1 86.16,234.23 Q 87.55,233.41 88.53,234.25 Q 89.13,234.76 89.38,236.08 Q 89.93,238.92 90.50,241.77 Q 90.95,243.96 91.50,241.79 L 93.31,234.67 A 0.77,0.64 -82.6 0 1 93.93,234.09 L 96.19,234.00 A 0.72,0.60 80.9 0 1 96.82,234.55 L 98.50,241.52 Q 99.20,244.41 99.60,241.47 Q 99.95,238.94 100.68,235.24 Q 101.03,233.47 103.53,234.14 A 0.62,0.60 -74.6 0 1 103.94,234.89 L 101.05,245.69 A 1.76,0.90 -87.9 0 1 100.58,246.53 Q 99.37,247.53 97.78,246.90 A 1.12,1.02 -89.8 0 1 97.16,246.21 Q 96.06,242.72 95.55,239.10 Q 95.49,238.66 95.26,238.49 Q 95.11,238.37 94.92,238.33 A 0.40,0.34 -79.1 0 0 94.50,238.67 Z"/>
<path fill="#ffffff" d="M 265.37,235.29 Q 267.78,234.09 270.72,235.13 A 0.97,0.95 3.7 0 1 271.32,235.80 Q 271.83,238.03 269.83,237.28 A 4.14,4.12 46.3 0 0 267.11,237.21 Q 265.07,237.87 266.22,238.89 Q 267.22,239.79 268.44,240.37 Q 271.39,241.76 271.69,244.03 Q 271.98,246.29 269.70,247.49 Q 267.03,248.90 263.37,247.61 A 0.90,0.90 -86.0 0 1 262.78,246.93 Q 262.23,243.99 264.25,245.25 Q 266.59,246.71 267.69,245.69 Q 269.75,243.77 266.89,242.97 Q 263.26,241.95 263.10,239.04 Q 262.96,236.49 265.37,235.29 Z"/>
<path fill="#ffffff" d="M 278.23,245.63 Q 279.46,245.35 280.75,245.51 Q 282.48,245.72 281.98,247.35 A 0.72,0.69 -81.6 0 1 281.31,247.87 L 274.69,247.87 A 0.57,0.53 89.5 0 1 274.16,247.31 L 274.02,235.53 A 0.53,0.52 -0.5 0 1 274.55,235.00 L 280.94,235.05 A 0.75,0.67 -7.9 0 1 281.64,235.52 Q 281.88,236.30 281.51,237.07 A 0.89,0.53 7.6 0 1 280.76,237.39 L 277.68,237.34 A 0.73,0.58 -82.6 0 0 277.07,237.93 Q 276.34,241.32 280.03,240.16 A 0.71,0.68 -26.6 0 1 280.81,240.40 Q 282.54,242.78 279.25,242.69 Q 275.60,242.59 277.46,245.34 A 0.76,0.69 -21.6 0 0 278.23,245.63 Z"/>
<path fill="#ffffff" d="M 122.35,265.78 Q 118.72,263.67 118.97,261.37 Q 119.14,259.71 121.05,259.05 Q 122.57,258.52 124.50,258.75 Q 126.56,258.99 125.89,260.74 A 0.67,0.47 11.5 0 1 125.22,261.03 L 122.75,260.71 A 1.13,0.85 -61.4 0 0 121.90,261.10 Q 120.64,262.55 123.01,263.20 Q 127.39,264.39 125.88,268.47 A 1.49,1.44 85.4 0 1 125.27,269.21 Q 122.57,270.88 119.45,269.82 A 0.89,0.88 1.5 0 1 118.90,269.25 Q 118.03,266.40 120.23,267.74 Q 122.02,268.83 122.61,268.30 Q 124.21,266.86 122.35,265.78 Z"/>
<path fill="#ffffff" d="M 132.19,267.94 Q 132.86,266.78 131.71,266.12 Q 130.11,265.22 128.83,263.92 Q 126.66,261.73 128.20,260.18 Q 129.53,258.83 131.43,258.79 Q 135.49,258.70 134.88,260.72 A 0.67,0.45 9.5 0 1 134.21,261.02 L 131.56,260.75 A 1.14,0.79 -60.9 0 0 130.71,261.17 Q 129.50,262.59 131.75,263.25 Q 135.34,264.30 135.23,267.45 A 1.44,1.31 -25.0 0 1 134.87,268.31 Q 132.06,271.42 128.02,269.65 A 0.92,0.92 7.1 0 1 127.47,268.95 Q 127.02,266.12 129.50,268.00 Q 131.34,269.40 132.19,267.94 Z"/>
<path fill="#ffffff" d="M 141.00,266.13 Q 141.58,263.25 142.52,260.23 Q 142.88,259.09 143.62,258.80 Q 144.39,258.50 145.24,258.85 A 1.07,0.86 -89.6 0 1 145.80,259.56 L 147.25,265.77 Q 147.69,267.64 148.04,265.71 L 149.19,259.30 A 0.73,0.72 -88.3 0 1 149.80,258.72 Q 150.66,258.61 151.47,258.87 A 0.54,0.52 -72.1 0 1 151.79,259.54 Q 149.74,266.37 149.44,268.19 Q 148.99,270.86 146.52,269.89 A 1.09,0.99 -89.1 0 1 145.92,269.21 Q 145.33,267.18 144.88,265.11 Q 144.83,264.88 144.84,263.90 Q 144.85,263.09 144.06,263.04 A 0.59,0.51 -83.9 0 0 143.50,263.56 Q 143.19,266.04 142.37,268.41 Q 141.40,271.26 139.20,269.52 A 1.64,1.41 -81.9 0 1 138.68,268.71 L 136.17,259.44 A 0.51,0.51 74.9 0 1 136.53,258.81 Q 139.19,258.09 139.43,260.48 Q 139.67,262.77 140.55,266.14 Q 140.80,267.11 141.00,266.13 Z"/>
<path fill="#ffffff" d="M 220.38,267.76 Q 217.07,265.90 216.92,263.79 Q 216.80,261.97 218.83,261.14 Q 220.42,260.49 222.50,260.75 Q 224.55,261.00 223.89,262.74 A 0.70,0.46 10.6 0 1 223.21,263.02 L 220.56,262.75 A 1.02,0.75 -65.2 0 0 219.75,263.20 Q 218.74,264.66 220.81,265.19 Q 225.31,266.33 223.87,270.47 A 1.46,1.46 83.8 0 1 223.27,271.22 Q 220.58,272.90 217.45,271.82 A 0.89,0.88 1.5 0 1 216.90,271.25 Q 216.03,268.40 218.23,269.74 Q 220.02,270.83 220.66,270.26 Q 222.26,268.82 220.38,267.76 Z"/>
<path fill="#ffffff" d="M 228.36,263.53 Q 228.10,264.37 228.81,264.69 Q 230.19,265.31 231.49,266.07 Q 233.87,267.48 233.21,269.65 Q 232.72,271.30 230.86,271.89 Q 228.49,272.66 226.02,271.64 A 0.92,0.92 -84.1 0 1 225.46,270.95 Q 225.06,268.50 227.20,269.82 A 2.98,2.96 50.9 0 0 229.72,270.09 Q 231.13,269.59 230.29,268.46 Q 229.98,268.04 229.15,267.67 Q 227.91,267.11 226.91,266.21 Q 225.87,265.26 225.87,263.93 Q 225.87,260.94 229.16,260.74 Q 230.95,260.64 231.33,260.64 Q 233.38,260.63 232.84,262.71 A 0.50,0.45 16.3 0 1 232.22,263.01 Q 230.64,262.48 229.03,262.91 A 1.02,0.91 -1.0 0 0 228.36,263.53 Z"/>
<path fill="#ffffff" d="M 237.91,268.02 Q 237.00,270.72 240.51,270.05 Q 242.54,269.67 241.99,271.35 A 0.76,0.66 -79.7 0 1 241.32,271.88 L 235.75,271.83 A 0.58,0.55 -90.0 0 1 235.20,271.25 L 235.14,261.44 A 0.56,0.55 89.5 0 1 235.68,260.88 L 241.19,260.78 A 0.66,0.64 82.8 0 1 241.83,261.29 Q 242.33,263.35 239.50,263.00 Q 237.17,262.71 238.09,264.74 A 0.84,0.79 -10.1 0 0 238.81,265.21 L 240.94,265.29 A 0.66,0.62 -3.7 0 1 241.56,265.80 Q 241.93,267.93 238.94,267.40 A 0.93,0.93 13.9 0 0 237.91,268.02 Z"/>
<path fill="#ffffff" d="M 180.69,278.06 Q 177.74,276.52 178.13,273.55 Q 178.45,271.18 180.70,269.95 Q 183.05,268.65 185.91,268.99 Q 187.95,269.23 188.21,269.39 Q 189.18,269.99 188.86,272.24 A 0.44,0.43 12.6 0 1 188.30,272.59 Q 185.16,271.58 183.01,272.37 A 1.16,1.10 -0.5 0 0 182.35,273.01 Q 181.75,274.53 183.43,275.32 Q 184.88,276.00 186.33,276.65 Q 189.17,277.92 189.30,281.01 Q 189.47,285.09 185.47,285.86 Q 180.75,286.76 178.81,285.69 Q 177.53,284.98 178.30,282.16 A 0.44,0.44 -64.3 0 1 178.98,281.92 Q 181.10,283.43 183.50,283.27 Q 185.33,283.15 185.44,281.56 A 1.03,0.92 23.7 0 0 185.06,280.73 Q 183.76,279.67 180.69,278.06 Z"/>
</svg>
