<?xml version="1.0" encoding="UTF-8" standalone="no"?>
<!DOCTYPE svg PUBLIC "-//W3C//DTD SVG 1.1//EN" "http://www.w3.org/Graphics/SVG/1.1/DTD/svg11.dtd">
<svg xmlns="http://www.w3.org/2000/svg" version="1.1" viewBox="0 0 256 256">
<rect fill="#ffffff" x="121.24" y="12.01" width="14.52" height="25.98" rx="0.44"/>
<path fill="#ffffff" d="M 90.49,45.35 Q 85.81,34.71 81.32,23.98 Q 80.80,22.74 80.88,22.08 Q 81.05,20.64 83.00,20.91 A 1.13,1.04 -60.3 0 0 83.85,20.64 Q 84.43,20.13 85.19,19.99 A 1.42,1.25 12.1 0 0 85.99,19.54 Q 87.01,18.31 87.54,19.82 Q 87.84,20.66 87.89,20.78 Q 94.56,36.05 97.00,42.75 Q 97.50,44.13 96.05,44.10 A 1.43,1.32 23.8 0 0 95.18,44.40 Q 93.42,45.84 91.18,45.83 A 0.78,0.73 78.0 0 1 90.49,45.35 Z"/>
<path fill="#ffffff" d="M 161.44,44.06 A 2.58,0.95 34.9 0 1 160.00,42.00 L 168.38,21.31 Q 169.13,19.45 170.89,20.25 L 175.32,22.24 A 0.56,0.52 -66.2 0 1 175.56,22.95 L 166.51,44.60 A 0.97,0.91 -81.8 0 1 165.81,45.16 Q 163.42,45.55 161.44,44.06 Z"/>
<path fill="#ffffff" d="M 52.74,45.76 Q 60.36,53.27 67.78,60.53 A 0.86,0.84 -44.8 0 1 67.76,61.74 L 62.01,67.36 A 1.82,1.77 -44.6 0 1 59.50,67.38 L 42.42,50.29 A 0.76,0.76 -90.0 0 1 42.42,49.21 L 49.17,42.45 A 0.48,0.48 -40.9 0 1 49.89,42.50 Q 51.23,44.26 52.74,45.76 Z"/>
<path fill="#ffffff" d="M 200.35,49.34 Q 203.18,46.56 206.13,43.48 A 0.50,0.50 -45.0 0 1 206.85,43.48 L 213.67,50.30 A 0.64,0.64 -45.3 0 1 213.67,51.21 L 196.70,68.31 A 0.52,0.50 -45.0 0 1 195.97,68.32 L 189.09,61.37 A 0.53,0.52 -45.0 0 1 189.10,60.64 Q 194.67,54.94 200.35,49.34 Z"/>
<path fill="#ffffff" d="M 34.79,85.75 Q 39.14,87.50 43.50,89.25 Q 45.57,90.08 45.15,91.78 Q 45.03,92.30 45.06,92.74 Q 45.18,94.28 44.24,95.27 Q 43.43,96.11 42.02,95.92 Q 40.01,95.65 37.06,94.44 Q 28.65,90.99 20.23,87.55 Q 18.13,86.70 19.47,85.17 A 1.77,1.49 -25.4 0 0 19.86,84.32 Q 20.14,82.20 21.38,80.46 A 0.63,0.61 29.8 0 1 22.14,80.27 Q 28.39,83.17 34.79,85.75 Z"/>
<path fill="#ffffff" d="M 211.21,90.34 A 0.80,0.78 -14.7 0 1 211.70,89.52 L 232.88,80.71 A 0.87,0.80 -21.5 0 1 234.00,81.14 L 236.11,86.77 A 0.56,0.52 -21.9 0 1 235.79,87.44 L 214.02,96.58 A 0.59,0.58 63.4 0 1 213.29,96.33 Q 211.53,93.26 211.21,90.34 Z"/>
<rect fill="#ffffff" x="11.01" y="120.75" width="27.00" height="14.50" rx="0.45"/>
<rect fill="#ffffff" x="219.00" y="120.75" width="25.00" height="14.50" rx="0.64"/>
<path fill="#ffffff" d="M 21.42,175.80 Q 19.95,174.89 19.96,173.24 Q 19.97,172.89 19.73,172.34 L 18.79,170.12 A 0.60,0.52 -22.7 0 1 19.14,169.41 Q 27.60,165.71 35.88,162.45 Q 36.34,162.27 38.41,161.26 Q 39.68,160.63 41.06,160.31 Q 43.56,159.72 44.45,161.27 Q 45.32,162.78 44.70,165.64 A 2.13,2.10 -5.6 0 1 43.45,167.14 L 22.26,175.87 A 0.93,0.92 -40.0 0 1 21.42,175.80 Z"/>
<path fill="#ffffff" d="M 235.81,169.38 Q 236.48,170.78 235.42,171.96 A 1.45,1.25 -27.1 0 0 235.07,172.82 Q 235.02,176.71 231.25,175.00 Q 226.13,172.68 213.13,167.38 Q 211.72,166.80 211.29,166.10 Q 210.61,165.00 211.64,163.85 A 1.19,1.16 -25.4 0 0 211.95,163.01 Q 211.87,161.07 213.54,160.20 A 1.16,1.03 40.3 0 1 214.46,160.18 L 235.10,168.74 A 1.43,1.14 3.3 0 1 235.81,169.38 Z"/>
<path fill="#ffffff" d="M 54.07,195.57 Q 57.59,192.08 60.97,188.44 A 0.60,0.56 -50.4 0 1 61.73,188.34 Q 62.35,188.80 62.81,189.44 Q 63.32,190.13 65.50,192.25 L 68.81,195.47 A 0.52,0.50 -45.8 0 1 68.80,196.20 L 50.11,214.65 A 0.52,0.50 -44.6 0 1 49.39,214.66 L 42.67,208.02 A 0.75,0.75 -0.0 0 1 42.67,206.96 Q 48.54,201.04 54.07,195.57 Z"/>
<path fill="#ffffff" d="M 213.39,206.26 A 0.52,0.52 45.4 0 1 213.39,206.99 L 206.69,213.69 A 0.62,0.62 -90.0 0 1 205.81,213.69 L 188.57,196.44 A 0.94,0.89 44.8 0 1 188.53,195.15 L 195.05,188.56 A 0.47,0.44 44.6 0 1 195.70,188.58 L 213.39,206.26 Z"/>
<path fill="#ffffff" d="M 96.44,212.24 A 0.57,0.53 23.8 0 1 96.73,212.92 Q 92.24,224.42 87.60,235.24 Q 87.07,236.46 86.41,236.85 Q 85.31,237.49 84.13,236.58 A 1.90,1.61 62.6 0 0 83.25,236.22 Q 81.48,236.02 80.20,234.82 A 0.54,0.54 33.1 0 1 80.07,234.21 L 89.60,211.61 Q 90.58,209.28 93.06,210.54 L 96.44,212.24 Z"/>
<path fill="#ffffff" d="M 165.91,210.19 A 0.78,0.76 -10.4 0 1 166.61,210.66 L 176.06,233.54 A 0.77,0.71 57.3 0 1 175.91,234.36 Q 174.30,235.97 172.00,236.01 A 1.19,1.08 -67.5 0 0 171.19,236.39 Q 170.01,237.70 169.19,235.81 Q 161.54,218.26 160.06,213.44 Q 159.57,211.82 161.18,211.88 A 1.34,1.13 22.1 0 0 162.05,211.60 Q 163.76,210.14 165.91,210.19 Z"/>
<path fill="#ffffff" d="M 122.53,244.84 A 1.09,1.04 90.0 0 1 121.50,243.76 L 121.19,218.69 A 0.52,0.50 88.9 0 1 121.68,218.16 L 134.76,218.02 A 1.01,0.98 89.7 0 1 135.75,219.03 L 135.69,242.70 Q 135.68,244.91 133.63,244.90 L 122.53,244.84 Z"/>
</svg>
