<?xml version="1.0" encoding="UTF-8" standalone="no"?>
<!DOCTYPE svg PUBLIC "-//W3C//DTD SVG 1.1//EN" "http://www.w3.org/Graphics/SVG/1.1/DTD/svg11.dtd">
<svg xmlns="http://www.w3.org/2000/svg" version="1.1" viewBox="0 0 128 128">
<path fill="#f4f5fc" d="M 0.00,38.19 Q 0.00,37.31 0.00,36.44 Q 0.60,33.92 2.54,32.76 Q 3.81,32.00 6.61,32.00 Q 21.43,32.00 36.25,32.01 Q 42.90,32.01 46.06,27.31 Q 48.30,23.97 47.82,19.82 Q 47.27,15.13 43.43,12.73 Q 39.69,10.39 35.10,11.04 Q 30.18,11.73 27.34,15.98 Q 24.41,20.37 24.39,20.38 Q 21.81,22.59 18.19,20.31 Q 15.96,18.91 15.98,16.38 Q 15.99,14.79 17.15,12.38 Q 21.37,3.59 30.81,1.06 Q 37.81,-0.81 44.33,1.42 Q 50.84,3.65 54.73,9.00 Q 58.21,13.79 58.55,19.90 Q 58.86,25.48 56.27,30.76 Q 50.40,42.70 35.25,42.81 Q 20.60,42.93 5.95,42.55 Q 3.39,42.49 2.22,41.70 Q 0.50,40.54 0.00,38.19 Z"/>
<path fill="#f4f5fc" d="M 128.00,78.56 Q 128.00,80.06 128.00,81.56 Q 126.69,92.27 118.99,97.27 Q 111.93,101.85 102.85,100.78 Q 91.32,99.43 85.81,87.44 Q 84.74,85.10 85.78,83.10 Q 86.63,81.45 88.71,80.44 Q 92.82,78.44 95.31,82.94 Q 100.58,92.45 109.61,89.86 Q 113.76,88.67 115.80,85.62 Q 118.20,82.03 117.00,77.50 Q 114.83,69.30 105.50,69.28 Q 82.12,69.25 58.75,69.25 Q 56.58,69.25 55.18,68.05 Q 53.96,67.00 53.57,64.99 Q 52.92,61.70 55.33,59.88 Q 56.83,58.75 59.95,58.75 Q 74.73,58.75 89.50,58.76 Q 95.53,58.77 99.94,55.59 Q 104.19,52.52 105.92,47.19 Q 108.60,38.91 102.25,31.75 Q 98.80,27.86 93.71,26.96 Q 89.03,26.14 84.47,28.06 Q 76.02,31.61 74.75,42.25 Q 73.94,49.06 68.31,47.72 Q 65.62,47.07 64.72,44.98 Q 63.84,42.94 64.25,40.00 Q 66.88,21.27 84.75,16.75 Q 93.80,14.46 102.69,19.11 Q 114.09,25.07 116.50,36.75 Q 118.99,48.78 111.97,58.35 A 0.68,0.68 28.8 0 0 112.27,59.38 Q 126.18,64.70 128.00,78.56 Z"/>
<path fill="#f4f5fc" d="M 0.00,64.94 Q 0.00,64.06 0.00,63.19 Q 1.51,58.37 6.44,58.64 Q 8.46,58.75 8.56,58.75 Q 21.94,58.75 35.32,58.75 Q 38.98,58.75 40.49,59.67 Q 43.28,61.37 42.44,65.44 Q 41.92,67.95 39.70,68.82 Q 38.61,69.25 35.74,69.25 Q 22.90,69.25 10.06,69.25 Q 4.61,69.25 4.45,69.22 Q 1.25,68.59 0.00,64.94 Z"/>
<path fill="#f4f5fc" d="M 0.00,91.44 Q 0.00,90.56 0.00,89.69 Q 1.38,85.25 6.50,85.25 Q 30.25,85.25 54.00,85.23 Q 57.36,85.23 60.69,85.57 Q 64.40,85.96 67.13,87.17 Q 74.18,90.29 77.52,96.83 Q 80.64,102.93 79.66,110.04 Q 78.52,118.26 72.04,123.09 Q 66.37,127.30 58.67,127.64 Q 46.33,128.19 39.44,117.12 Q 37.53,114.05 37.31,112.02 Q 36.93,108.32 41.19,106.94 Q 43.97,106.03 45.93,107.74 Q 46.41,108.16 48.25,111.42 Q 50.07,114.65 53.06,115.94 Q 60.33,119.06 65.81,114.56 Q 70.34,110.85 69.00,104.25 Q 67.80,98.32 61.19,96.31 Q 59.38,95.76 53.50,95.81 Q 30.00,96.00 6.50,96.00 Q 1.17,96.00 0.00,91.44 Z"/>
</svg>
