<svg width="256" height="256" xmlns="http://www.w3.org/2000/svg" class="bi bi-clouds" fill="#000000">

 <g>
  <title>Layer 1</title>
  <g id="svg_6">
   <g id="svg_4">
    <path fill="#ffffff" id="svg_1" d="m220.82883,112.31361a29.00481,29.00481 0 0 1 -16.8924,26.35957a40.75756,40.75756 0 0 0 -7.54125,-9.55998a17.40289,17.40289 0 0 0 -9.15392,-33.59917a5.80096,5.80096 0 0 1 -7.27441,-4.88441a34.80577,34.80577 0 0 0 -60.56204,-18.85313a64.81995,64.81995 0 0 0 -14.80405,1.02097a46.4309,46.4309 0 0 1 85.76142,10.55775a29.00481,29.00481 0 0 1 30.46665,28.9584z"/>
    <path fill="#ffffff" id="svg_2" d="m116.41152,83.3088a52.20866,52.20866 0 0 1 51.8954,46.40769l0.31325,0a29.00481,29.00481 0 0 1 0,58.00962l-98.61635,0a34.80577,34.80577 0 0 1 -2.86568,-69.49552a52.23186,52.23186 0 0 1 49.27337,-34.92179zm40.60673,52.20866a40.60673,40.60673 0 0 0 -79.93725,-10.12848a5.80096,5.80096 0 0 1 -5.91698,4.35072a23.20385,23.20385 0 1 0 -1.16019,46.38449l98.61635,0a17.40289,17.40289 0 1 0 -4.36232,-34.26048a5.80096,5.80096 0 0 1 -7.2396,-5.70815l0,-0.63811z"/>
   </g>
   <text font-style="normal" font-weight="bold" xml:space="preserve" text-anchor="start" font-family="sans-serif" font-size="24" stroke-width="0" id="svg_5" y="221.69339" x="19.10345" fill="#ffffff">by Vitalii Voitovych</text>
  </g>
 </g>
</svg>