<svg width="256" height="256" xmlns="http://www.w3.org/2000/svg" class="bi bi-clouds" fill="#000000">

 <g>
  <title>Layer 1</title>
  <g id="svg_4">
   <path fill="#ffffff" id="svg_1" d="m194.27709,123.85126a20.7086,20.7086 0 0 1 -12.06069,18.81998a29.09973,29.09973 0 0 0 -5.38424,-6.82556a12.42516,12.42516 0 0 0 -6.53564,-23.98885a4.14172,4.14172 0 0 1 -5.19372,-3.48733a24.85033,24.85033 0 0 0 -43.23957,-13.46059a46.27959,46.27959 0 0 0 -10.56967,0.72894a33.15033,33.15033 0 0 1 61.2312,7.53793a20.7086,20.7086 0 0 1 21.75232,20.67547z"/>
   <path fill="#ffffff" id="svg_2" d="m119.72612,103.14265a37.27549,37.27549 0 0 1 37.05183,33.13377l0.22365,0a20.7086,20.7086 0 0 1 0,41.41721l-70.40925,0a24.85033,24.85033 0 0 1 -2.04601,-49.61782a37.29205,37.29205 0 0 1 35.17978,-24.93316zm28.99205,37.27549a28.99205,28.99205 0 0 0 -57.07291,-7.23144a4.14172,4.14172 0 0 1 -4.22456,3.10629a16.56688,16.56688 0 1 0 -0.82834,33.1172l70.40925,0a12.42516,12.42516 0 1 0 -3.11457,-24.461a4.14172,4.14172 0 0 1 -5.16887,-4.07545l0,-0.45559z"/>
  </g>
 </g>
</svg>